<svg xmlns="http://www.w3.org/2000/svg" viewBox="0 0 38 38"><g fill="none" fill-rule="evenodd"><path stroke="#F2DAF5" d="M18.5.5C8.559.5.5 8.559.5 18.5v1c0 9.941 8.059 18 18 18h1c9.941 0 18-8.059 18-18v-1c0-9.941-8.059-18-18-18h-1z"/><path fill="#EBCFF0" fill-rule="nonzero" d="M19 28a1.333 1.333 0 110-2.667A1.333 1.333 0 0119 28zm1.466-17.365c.526.452.566.948.52 1.496l-.912 9.473c-.052.608-.456 1.063-1.074 1.063-.617 0-1.022-.456-1.073-1.063l-.912-9.473c-.047-.548-.007-1.044.518-1.496.424-.364.91-.635 1.467-.635s1.043.271 1.466.635z"/></g></svg>