<svg xmlns="http://www.w3.org/2000/svg" width="66" height="49" viewBox="0 0 66 49">
    <g fill="none" fill-rule="nonzero">
        <path fill="#F4F7FB" d="M15.203 6.04C42.191-2.71 52.656 7.456 64.1 21.985c11.443 14.53-36.917 34.466-50.496 23.895C-1.132 34.41-1.043 23.045 2.146 15.633c2.127-4.942 6.479-8.14 13.057-9.594z"/>
        <g fill="#94ACC4">
            <path d="M13.047 15.26v19.67a4.651 4.651 0 0 0 4.65 4.651h29.675a4.651 4.651 0 0 0 4.651-4.65V15.26a4.651 4.651 0 0 0-4.65-4.652H17.697a4.651 4.651 0 0 0-4.651 4.651zm1.86 19.67v-3.367l10.14-6.419 11.502 12.558H17.698a2.79 2.79 0 0 1-2.791-2.772zm32.47 2.79h-8.33l-5.02-5.506 7.857-6.005 8.279 6.591v2.13a2.79 2.79 0 0 1-2.79 2.79h.004zm-29.68-25.25h29.675a2.79 2.79 0 0 1 2.79 2.79v15.163l-7.688-6.125a.93.93 0 0 0-1.144 0l-8.563 6.54-6.879-7.526a.93.93 0 0 0-1.186-.159l-9.795 6.205V15.26a2.79 2.79 0 0 1 2.79-2.79z"/>
            <path d="M33.581 24.651a4.437 4.437 0 1 0 0-8.874 4.437 4.437 0 0 0 0 8.874zm0-7.014a2.577 2.577 0 1 1 0 5.154 2.577 2.577 0 0 1 0-5.154zM17.21 6.447c0 .513.416.93.93.93h28.79a.93.93 0 0 0 0-1.86H18.14a.93.93 0 0 0-.93.93zM43.698 2.28a.93.93 0 1 0 0-1.861H21.372a.93.93 0 0 0 0 1.86h22.326z"/>
        </g>
    </g>
</svg>
