<svg xmlns="http://www.w3.org/2000/svg" viewBox="0 0 19 22"><g fill="none"><path fill="#F4F7FB" d="M18.273 7.333H3.727A.714.714 0 003 8.061v13.09c0 .413.315.728.727.728h14.546a.714.714 0 00.727-.727V8.06a.714.714 0 00-.727-.728zM4.939 6.121h12.122a.714.714 0 00.727-.727.714.714 0 00-.727-.727H4.939a.714.714 0 00-.727.727c0 .412.315.727.727.727zm1.213-2.666h9.696a.714.714 0 00.728-.728.714.714 0 00-.728-.727H6.152a.714.714 0 00-.728.727c0 .412.315.728.728.728z"/><path fill="#94ACC4" d="M15.273 5.333H.727A.714.714 0 000 6.061v13.09c0 .413.315.728.727.728h14.546a.714.714 0 00.727-.727V6.06a.714.714 0 00-.727-.728zm-.728 13.091H1.455V6.788h13.09v11.636zm-8.557-6.472h4.024c.824 0 1.455-.63 1.455-1.455V9.382a.714.714 0 00-.728-.727.714.714 0 00-.727.727v1.115H5.988V9.382a.714.714 0 00-.727-.727.714.714 0 00-.728.727v1.115c0 .824.63 1.455 1.455 1.455zm-4.049-7.83h12.122a.714.714 0 00.727-.728.714.714 0 00-.727-.727H1.939a.714.714 0 00-.727.727c0 .412.315.727.727.727zm1.213-2.667h9.696a.714.714 0 00.728-.728.714.714 0 00-.728-.727H3.152a.714.714 0 00-.728.727c0 .412.315.728.728.728z"/></g></svg>