<svg xmlns="http://www.w3.org/2000/svg" viewBox="0 0 194 44"><g data-name="Group 1"><path d="M4 10a6 6 0 016-6h160.686a8 8 0 015.657 2.343L194 24l-17.657 17.657A8 8 0 01170.686 44H10a6 6 0 01-6-6z" fill="#c4d2e1"/><g data-name="Rectangle Copy" fill="none" stroke-miterlimit="10"><path d="M0 6a6 6 0 016-6h160.686a8 8 0 015.657 2.343L190 20l-17.657 17.657A8 8 0 01166.686 40H6a6 6 0 01-6-6z"/><path d="M6 1C3.243 1 1 3.243 1 6v28c0 2.757 2.243 5 5 5h160.686c1.87 0 3.628-.728 4.95-2.05L188.586 20l-16.95-16.95a6.954 6.954 0 00-4.95-2.05H6m0-1h160.686a8 8 0 015.657 2.343L190 20l-17.657 17.657A8 8 0 01166.686 40H6a6 6 0 01-6-6V6a6 6 0 016-6z" fill="#94acc4"/></g></g></svg>