<svg xmlns="http://www.w3.org/2000/svg" width="14" height="10" viewBox="0 0 14 10">
    <path fill="#5E6D82" fill-rule="nonzero" d="M13.649 1.167c.175.46.292.919.351 1.378-.937.518-1.932.747-2.927 1.15-.644.287-1.874.976-2.46 1.206.645.574 3.045 1.149 3.806 1.666.41.287.878.517 1.405.69-.058.516-.117.976-.292 1.493-.879 0-2.108-.977-2.986-1.379-.878-.402-1.99-1.206-2.927-1.608-1.406-.632-1.698-.977-.235-1.839a24.939 24.939 0 0 1 3.103-1.436c.996-.517 1.99-.92 3.045-1.321h.117zM8.009 0c.342.118.513.945.741 1.359-.968.354-2.449 1.063-3.53 1.536-.912.354-2.734.708-2.962 1.417-.057.532 3.986 2.6 5.752 3.84-.342.354-.627.709-.855 1.181-.626 0-1.423-.945-1.993-1.3-.683-.472-1.367-.826-2.05-1.299C2.315 6.203 1.574 5.612.777 5.14c-1.253-.827-.911-1.477.456-2.185 1.31-.71 2.847-1.064 4.214-1.773C6.244.591 7.098.236 8.01 0z"/>
</svg>
