<svg xmlns="http://www.w3.org/2000/svg" viewBox="0 0 8 13"><path d="M1.564 12.488c.185.19 2.223-1.956 2.47-2.334.432-.631.925-1.2 1.481-1.767.494-.505 1.111-1.01 1.605-1.577.185-.19.432-.442.37-.694 0-.127-.061-.127-.185-.316-.432-.505-.926-.82-1.358-1.325-.309-.442-.74-.757-1.111-1.136l-.926-.946a18.663 18.663 0 00-1.728-1.388C1.935.815 1.626.689 1.44.5c-.247.379-.494.757-.803 1.136-.061.189-.123.378-.123.568 0 .252.617.63.802.82.309.315.68.442.988.757.926.82 1.79 1.64 2.593 2.524a5.338 5.338 0 00-1.173 1.199c-.309.378-.618.694-1.05.946-.617.442-1.049 1.01-1.605 1.514-.123.063-.308.253-.432.379-.247.252-.123.442.062.694.309.505.617 1.01.988 1.451 0 0-.062-.063-.124 0z"/></svg>