<svg xmlns="http://www.w3.org/2000/svg" viewBox="0 0 12 7"><path d="M.012 1.064c-.19.185 1.956 2.223 2.334 2.47.631.432 1.2.925 1.767 1.481.505.494 1.01 1.111 1.577 1.605.19.185.442.432.694.37.127 0 .127-.061.316-.185.505-.432.82-.926 1.325-1.358.442-.309.757-.74 1.136-1.111l.946-.926c.505-.556.947-1.111 1.388-1.728.19-.247.316-.556.505-.741a12.791 12.791 0 01-1.136-.803c-.189-.061-.378-.123-.568-.123-.252 0-.63.617-.82.802-.315.309-.442.68-.757.988-.82.926-1.64 1.79-2.524 2.593a5.338 5.338 0 00-1.199-1.173c-.378-.309-.694-.618-.946-1.05C3.608 1.558 3.04 1.126 2.536.57 2.473.447 2.283.262 2.157.138 1.905-.109 1.715.015 1.463.2.958.509.453.817.012 1.188c0 0 .063-.062 0-.124z"/></svg>