<svg xmlns="http://www.w3.org/2000/svg" viewBox="0 0 20 20"><path fill="#CAD4E1" d="M19.997 2.289A2.292 2.292 0 0018.645.238a2.95 2.95 0 00-1.21-.236H3.91L2.446 0a2.522 2.522 0 00-2.01.984C.126 1.385 0 1.876 0 2.367v12.367c0 .61.225 1.181.667 1.627.334.34.813.599 1.3.673.201.031.396.047.595.047h4.527c.695.784 1.393 1.573 2.088 2.364.106.122.213.238.318.36.23.261.775.26 1.005 0 .755-.855 1.509-1.707 2.263-2.563.048-.056.098-.117.145-.161h4.672c1.098-.023 2.097-.738 2.346-1.742a3.08 3.08 0 00.071-.751V3.533c.003-.415.005-.83 0-1.244zm-9.31 11.364c0 .377-.327.657-.71.673a.701.701 0 01-.713-.673v-.612c0-.376.328-.656.712-.672a.701.701 0 01.712.672v.612zm1.98-5.312a3.18 3.18 0 01-.57.571c-.211.16-.441.278-.66.426a.66.66 0 01-.047.036c-.043.036-.086.072-.126.11-.06.056-.114.117-.17.177.02-.022.03-.034.035-.036-.007.01-.078.092-.1.124-.026.035-.05.073-.073.11-.04.067-.078.134-.114.203-.06.148-.102.3-.133.455-.01.081-.012.164-.014.245-.003.376-.325.656-.712.672-.382.016-.714-.32-.711-.672.002-.372.066-.756.213-1.1a3.298 3.298 0 011.357-1.57c.064-.038.13-.072.192-.11.05-.029.1-.076.152-.103l.071-.058c.05-.045.1-.09.145-.137.026-.027.054-.056.078-.085 0-.002.002-.002.005-.005.033-.044.066-.087.095-.134.059-.09.111-.18.159-.276v-.002c.059-.148.102-.3.13-.455a2.403 2.403 0 000-.489 2.36 2.36 0 00-.133-.457 2.317 2.317 0 00-.19-.32l-.056-.079a2.813 2.813 0 00-.342-.32c-.029-.018-.057-.039-.085-.057a2.49 2.49 0 00-.344-.181 2.726 2.726 0 00-.48-.123 2.872 2.872 0 00-.52 0 2.819 2.819 0 00-.478.123 2.49 2.49 0 00-.344.181c-.029.018-.057.039-.086.056a2.198 2.198 0 00-.34.32c-.018.028-.04.055-.058.082a2.83 2.83 0 00-.192.325c-.06.148-.105.302-.133.457a2.78 2.78 0 00-.012.242c-.002.377-.325.657-.712.673-.382.015-.714-.321-.711-.673.007-1.085.605-2.096 1.577-2.674.838-.498 1.957-.619 2.882-.28.966.354 1.704 1.06 2.033 1.992.337.935.15 2.034-.479 2.816z"/></svg>