<svg xmlns="http://www.w3.org/2000/svg" width="54" height="61" viewBox="0 0 54 61">
    <g fill="none" fill-rule="nonzero">
        <path fill="#DEE0E4" d="M53.342 17.054v-.285c-.171-1.138-1.139-1.707-2.106-1.309-1.138.513-2.22 1.025-3.358 1.48-1.935.797-3.813 1.65-5.805 2.447-1.252.513-2.504 1.139-3.756 1.65-1.878.797-3.756 1.594-5.69 2.391-.968.398-1.936.91-2.903 1.252-1.423.512-2.846.57-4.326.341-1.422-.227-2.788-.512-4.097-1.365.967-.399 1.935-.797 2.845-1.252 2.846-1.252 5.748-2.448 8.537-3.7 2.447-1.08 4.837-2.105 7.342-3.187.398-.17.74-.455 1.252-.227.796.398 1.593.74 2.504 1.081v-3.927c0-.91-1.025-1.593-1.878-1.309-.91.342-1.765.797-2.618 1.138-1.878.74-3.7 1.594-5.52 2.39-1.253.513-2.505 1.082-3.757 1.651-1.82.797-3.642 1.537-5.52 2.333-1.309.57-2.618 1.082-3.87 1.65-1.366.627-2.504 1.594-2.504 3.53.057 10.642 0 21.34 0 31.983 0 .399.057.74.228 1.138.512 1.423 1.65 2.163 2.959 2.675 1.423.57 2.845.91 4.382 1.082 1.537.17 3.016.113 4.496-.342 2.163-.683 4.154-1.764 6.317-2.618 1.594-.683 3.187-1.423 4.724-2.105 2.162-.911 4.325-1.822 6.544-2.79 1.537-.682 3.074-1.365 4.61-1.991.683-.285 1.138-.91 1.138-1.65-.17-10.586-.17-21.342-.17-32.155zM41.504 47.9s-7.74-2.39-7.74-8.765c0-6.374 5.52-9.731 7.57-5.35 0 0 1.764-5.747 5.406-4.894 3.7.683 3.13 9.448-5.236 19.009zM23.805 16.143c-1.821.797-3.642 1.48-5.35 2.39-1.935 1.025-3.073 2.675-3.073 4.952V52.68c0 .74-.057.797-.797.854-.796 0-1.593.17-2.39.114-2.504-.228-4.894-.683-6.886-2.22C4.512 50.802 4 49.948 4 48.868V16.085c0-1.308.74-2.048 1.764-2.617 1.366-.74 2.903-1.31 4.382-1.935a103.471 103.471 0 0 0 3.7-1.594c1.82-.797 3.699-1.65 5.577-2.39 1.536-.626 3.016-1.366 4.553-1.992 1.252-.512 2.447-1.081 3.699-1.48.74-.284 1.707.228 1.878 1.195.228 1.139 0 2.277.114 3.415.057.512-.228.512-.512.398-.626-.227-1.252-.455-1.822-.796-.455-.285-.853-.228-1.252-.057-1.878.797-3.699 1.65-5.577 2.447-2.162.854-4.211 1.821-6.317 2.675-1.252.512-2.447 1.081-3.7 1.593-1.024.456-1.991.91-3.015 1.366-.057 0-.228-.057-.228.114 0 .114.114.17.228.228.796.455 1.65.683 2.504.91.626.17 3.528.74 6.943-.683a184.59 184.59 0 0 0 5.918-2.504c1.594-.683 3.13-1.366 4.667-2.049a317.932 317.932 0 0 1 6.488-2.788c1.138-.512 2.276-1.082 3.472-1.48h.683c.455.228.796.512.967 1.024.057.285.057.399-.285.57-1.593.682-3.243 1.422-4.837 2.105-2.276.968-4.439 1.878-6.602 2.789-1.195.512-2.39 1.081-3.585 1.593z"/>
        <path fill="#21224E" d="M49.342 13.054v-.285c-.171-1.138-1.139-1.707-2.106-1.309-1.138.513-2.22 1.025-3.358 1.48-1.935.797-3.813 1.65-5.805 2.447-1.252.513-2.504 1.139-3.756 1.65-1.878.797-3.756 1.594-5.69 2.391-.968.398-1.936.91-2.903 1.252-1.423.512-2.846.57-4.326.341-1.422-.227-2.788-.512-4.097-1.365.967-.399 1.935-.797 2.845-1.252 2.846-1.252 5.748-2.448 8.537-3.7 2.447-1.08 4.837-2.105 7.342-3.187.398-.17.74-.455 1.252-.227.796.398 1.593.74 2.504 1.081V8.444c0-.91-1.025-1.593-1.878-1.309-.91.342-1.765.797-2.618 1.138-1.878.74-3.7 1.594-5.52 2.39-1.253.513-2.505 1.082-3.757 1.651-1.82.797-3.642 1.537-5.52 2.333-1.309.57-2.618 1.082-3.87 1.65-1.366.627-2.504 1.594-2.504 3.53.057 10.642 0 21.34 0 31.983 0 .399.057.74.228 1.138.512 1.423 1.65 2.163 2.959 2.675 1.423.57 2.845.91 4.382 1.082 1.537.17 3.016.113 4.496-.342 2.163-.683 4.154-1.764 6.317-2.618 1.594-.683 3.187-1.423 4.724-2.105 2.162-.911 4.325-1.822 6.544-2.79 1.537-.682 3.074-1.365 4.61-1.991.683-.285 1.138-.91 1.138-1.65-.17-10.586-.17-21.342-.17-32.155zM37.504 43.9s-7.74-2.39-7.74-8.765c0-6.374 5.52-9.731 7.57-5.35 0 0 1.764-5.747 5.406-4.894 3.7.683 3.13 9.448-5.236 19.009zM19.805 12.143c-1.821.797-3.642 1.48-5.35 2.39-1.935 1.025-3.073 2.675-3.073 4.952V48.68c0 .74-.057.797-.797.854-.796 0-1.593.17-2.39.114-2.504-.228-4.894-.683-6.886-2.22C.512 46.802 0 45.948 0 44.868V12.085c0-1.308.74-2.048 1.764-2.617 1.366-.74 2.903-1.31 4.382-1.935a103.471 103.471 0 0 0 3.7-1.594c1.82-.797 3.699-1.65 5.577-2.39 1.536-.626 3.016-1.366 4.553-1.992 1.252-.512 2.447-1.081 3.699-1.48.74-.284 1.707.228 1.878 1.195.228 1.139 0 2.277.114 3.415.057.512-.228.512-.512.398-.626-.227-1.252-.455-1.822-.796-.455-.285-.853-.228-1.252-.057-1.878.797-3.699 1.65-5.577 2.447-2.162.854-4.211 1.821-6.317 2.675-1.252.512-2.447 1.081-3.7 1.593-1.024.456-1.991.91-3.015 1.366-.057 0-.228-.057-.228.114 0 .114.114.17.228.228.796.455 1.65.683 2.504.91.626.17 3.528.74 6.943-.683a184.59 184.59 0 0 0 5.918-2.504c1.594-.683 3.13-1.366 4.667-2.049a317.932 317.932 0 0 1 6.488-2.788c1.138-.512 2.276-1.082 3.472-1.48h.683c.455.228.796.512.967 1.024.057.285.057.399-.285.57-1.593.682-3.243 1.422-4.837 2.105-2.276.968-4.439 1.878-6.602 2.789-1.195.512-2.39 1.081-3.585 1.593z"/>
    </g>
</svg>
