<svg viewBox="0 0 266 266" fill="none" xmlns="http://www.w3.org/2000/svg"><g filter="url(#filter0_d)"><path fill-rule="evenodd" clip-rule="evenodd" d="M129.958 4.22C213.667 1.723 260 19.085 260 125.962c0 106.878-14.156 129.918-127.954 131.921-113.797 2.003-120.05-20.73-125.621-131.921C.853 14.771 50.545 6.831 129.958 4.221z" fill="#fff"/><path d="M129.974 4.72c41.853-1.249 74.194 2.482 96.086 19.748C247.924 41.71 259.5 72.573 259.5 125.96c0 26.716-.885 48.158-3.982 65.332-3.096 17.169-8.395 30.029-17.189 39.619-8.793 9.587-21.127 15.958-38.397 20.056-17.276 4.099-39.455 5.914-67.894 6.414-28.442.501-50.122-.546-66.74-4.12-16.606-3.572-28.117-9.66-36.267-19.217-8.158-9.567-12.997-22.668-16.138-40.368-3.142-17.7-4.576-39.938-5.97-67.741-2.782-55.545 8.25-85.106 29.699-101.162C47.363 16.733 60.762 12.04 76.459 9.2c15.7-2.842 33.663-3.827 53.515-4.48z" stroke="#E6E9F1"/></g><defs><filter id="filter0_d" x="0" y="0" width="266" height="266" filterUnits="userSpaceOnUse" color-interpolation-filters="sRGB"><feFlood flood-opacity="0" result="BackgroundImageFix"/><feColorMatrix in="SourceAlpha" values="0 0 0 0 0 0 0 0 0 0 0 0 0 0 0 0 0 0 127 0"/><feOffset dy="3"/><feGaussianBlur stdDeviation="3"/><feColorMatrix values="0 0 0 0 0 0 0 0 0 0 0 0 0 0 0 0 0 0 0.121886 0"/><feBlend in2="BackgroundImageFix" result="effect1_dropShadow"/><feBlend in="SourceGraphic" in2="effect1_dropShadow" result="shape"/></filter></defs></svg>