<svg xmlns="http://www.w3.org/2000/svg" viewBox="0 0 59 64"><g fill="none"><path d="M50.596 10.607c-.256-.41-14.277 9.008-28.189 23.86A176.91 176.91 0 009.77 49.432c-1.732-3.472 1.437-13.6 9.24-24.794 1.217 2.48 2.473 4.028 2.472 4.03 0-.002-.119-2.71-.968-6.053a41.68 41.68 0 013.13-3.55c.126 3.47 1.296 5.954 1.291 5.954 0-.006 2-3.648 2.466-8.104.043-.43.068-.848.083-1.259C41.527 4.69 58.363 5.824 58.18 5.874c.014.013-2.384 6.384-6.77 13.783-4.762-.223-8.984 1.712-8.975 1.714-.001.006 2.818 1.455 6.733 1.863a70.67 70.67 0 01-2.607 3.685c-3.97-.478-7.338.13-7.335.128-.002.004 2.37 1.097 5.761 1.863a54.327 54.327 0 01-4.896 5.254c-11.867 10.96-24.878 19.332-29.208 16.47 3.557-4.412 7.92-9.567 12.934-14.864 13.763-14.698 27.14-24.712 26.779-25.163zM.014 63.876c.004-.016.007-.03.013-.048.022-.07.059-.162.11-.276l.058-.12c.046-.096.102-.206.165-.326l.086-.166a25.062 25.062 0 01.463-.818 45.237 45.237 0 01.603-1c.088-.145.18-.293.276-.446.1-.158.198-.316.305-.483a90.378 90.378 0 01.89-1.367l.284-.425c.119-.176.226-.34.35-.524l.002.002a150.518 150.518 0 015.726-7.843c.2.39.45.716.78.925.108.095.226.177.348.255-4.303 5.172-7.432 9.292-9.1 11.35l-.014.017c-.194.239-.368.45-.521.631l-.009.01c-.137.161-.252.291-.356.403l-.058.064a2.615 2.615 0 01-.239.227l-.035.026c-.059.042-.106.066-.129.052-.019-.01-.013-.058.002-.12z" fill="#DEE0E4"/><path d="M50.014 4.79c-.256-.411-14.276 9.006-28.189 23.859A176.91 176.91 0 009.188 43.613c-1.732-3.47 1.437-13.6 9.24-24.793 1.217 2.48 2.473 4.028 2.472 4.03 0-.002-.119-2.71-.967-6.053a41.68 41.68 0 013.13-3.55c.126 3.47 1.295 5.954 1.29 5.954 0-.006 2-3.649 2.466-8.104.044-.43.068-.848.083-1.259C40.945-1.13 57.78.005 57.599.056c.013.013-2.384 6.384-6.77 13.783-.03-.003-.059-.007-.087-.007-4.676-.217-8.898 1.718-8.889 1.72-.001.007 2.818 1.455 6.733 1.864a70.67 70.67 0 01-2.607 3.684c-3.97-.477-7.338.131-7.334.129-.003.004 2.37 1.097 5.76 1.863a54.327 54.327 0 01-4.896 5.254c-11.867 10.96-24.878 19.332-29.208 16.47 3.557-4.412 7.921-9.567 12.934-14.864C36.998 15.254 50.375 5.24 50.014 4.79zm-50 53.267l.013-.047c.022-.07.059-.162.11-.276l.058-.12c.046-.096.102-.206.165-.326l.086-.166a25.062 25.062 0 01.463-.818 45.237 45.237 0 01.603-1.001c.088-.144.18-.292.276-.445.1-.158.198-.316.305-.483a90.378 90.378 0 01.89-1.367l.284-.425.35-.524.002.002a150.518 150.518 0 015.726-7.843c.2.39.45.715.78.925.108.095.226.177.348.255-4.303 5.171-7.432 9.292-9.1 11.35-.004.005-.01.01-.014.017-.194.239-.368.45-.521.631l-.009.01c-.137.161-.252.29-.356.403l-.058.064a2.615 2.615 0 01-.239.227l-.035.026c-.059.042-.106.066-.129.052-.019-.01-.013-.058.002-.12z" fill="#21224E"/></g></svg>