<svg xmlns="http://www.w3.org/2000/svg" width="54" height="50" viewBox="0 0 54 50">
    <g fill="none" fill-rule="evenodd">
        <path fill="#DEE0E4" fill-rule="nonzero" d="M31.744 5.794l-4.761 4.761 12.58 12.52 4.702-4.76c1.058-1.059 1.058-2.528 0-3.586L35.39 5.794c-1.117-1.059-2.587-1.059-3.645 0zM7.702 35.185L6.468 41.3 8.76 43.65l6.114-1.293-7.172-7.172zM2 46.883l2.998-14.402 19.927-19.927 12.58 12.52L17.52 45.003l-14.52 2.94C2.941 48 2.882 48 2.823 48 2.47 48 2 47.647 2 46.883z"/>
        <path fill="#21224E" fill-rule="nonzero" d="M29.744.794l-4.761 4.761 12.58 12.52 4.702-4.76c1.058-1.059 1.058-2.528 0-3.586L33.39.794c-1.117-1.059-2.587-1.059-3.645 0zM5.702 30.185L4.468 36.3 6.76 38.65l6.114-1.293-7.172-7.172zM0 41.883l2.998-14.402L22.925 7.554l12.58 12.52L15.52 40.003l-14.52 2.94C.941 43 .882 43 .823 43 .47 43 0 42.647 0 41.883z"/>
        <path fill="#DEE0E4" d="M6.394 47.891c1.184 0 9.021-3.196 11.53-3.52 2.51-.323 6.012.243 6.667.756.654.513 4.928.634 10.05-.756 5.12-1.39 3.459-2.873 5.945-3.243 2.486-.37 5.13.083 8.72 1.063 3.592.98 2.942 1.773 3.667 2.319.724.546.88 1.048.88 1.108 0 .061-.028 0-.88 0-.853 0 .248.783-1.705 0-1.953-.782-1.564-1.331-2.766-1.792-1.203-.46-2.515-.649-4.004-.799-1.49-.15-.662-.472-3.266 0-2.603.473-1.742 1.007-3.979 2.1-2.236 1.093-2.036.97-3.963 1.466-1.927.495-3.531.284-5.33.38-1.8.095-3.324-.222-5.122-.38-1.797-.158-2.717.076-3.285 0-.569-.076-.455 0-1.628 0-1.174 0-4.374.894-5.844 1.298-1.47.405-3.75 1.218-5.037 1.218s-1.833-1.218-.65-1.218z"/>
        <path fill="#21224E" d="M1.394 45.891c1.184 0 9.021-3.196 11.53-3.52 2.51-.323 6.012.243 6.667.756.654.513 4.928.634 10.05-.756 5.12-1.39 3.459-2.873 5.945-3.243 2.486-.37 5.13.083 8.72 1.063 3.592.98 2.942 1.773 3.667 2.319.724.546.88 1.048.88 1.108 0 .061-.028 0-.88 0-.853 0 .248.783-1.705 0-1.953-.782-1.564-1.331-2.766-1.792-1.203-.46-2.515-.649-4.004-.799-1.49-.15-.662-.472-3.266 0-2.603.473-1.742 1.007-3.979 2.1-2.236 1.093-2.036.97-3.963 1.466-1.927.495-3.531.284-5.33.38-1.8.095-3.324-.222-5.122-.38-1.797-.158-2.717.076-3.285 0-.569-.076-.455 0-1.628 0-1.174 0-4.374.894-5.844 1.298-1.47.405-3.75 1.218-5.037 1.218S.21 45.89 1.394 45.89z"/>
    </g>
</svg>
