<svg xmlns="http://www.w3.org/2000/svg" viewBox="0 0 26 23"><g fill="none" fill-rule="evenodd"><path fill="#FFDEB0" d="M14.958 22.969c6.037 0 10.736-4.694 10.497-10.485C25.215 6.694 20.14 2 14.118 2 8.096 2 3.396 6.694 3.62 12.484c.225 5.79 5.3 10.485 11.337 10.485z"/><path fill="#F58D00" d="M11.958 20.969C5.922 20.969.846 16.275.621 10.484.396 4.694 5.096 0 11.118 0s11.097 4.694 11.337 10.484c.24 5.79-4.46 10.485-10.497 10.485zm-.059-1.48c5.185 0 9.222-4.031 9.016-9.005-.206-4.973-4.565-9.005-9.738-9.005-5.173 0-9.21 4.032-9.016 9.005.193 4.974 4.553 9.006 9.738 9.006zm1.593-5.001c-.08.1-.335.209-.463.196 0 0-.048.001-.077-.009-.44-.148-.88-.29-1.396-.45l-1.278-.393c-.913-.286-1.46-.485-1.909-.71-.698-.35-1.102-.743-1.354-1.336-.51-1.2.001-2.482 1.156-2.972a2.476 2.476 0 012.045.086l.805.41.263-.863a2.476 2.476 0 011.36-1.532c1.154-.49 2.43.034 2.94 1.234.252.593.254 1.157.02 1.902-.15.48-.386 1.01-.815 1.866-.106.211-.52 1.024-.604 1.193-.245.484-.449.898-.648 1.32a.255.255 0 01-.045.058z"/></g></svg>