<svg xmlns="http://www.w3.org/2000/svg" viewBox="0 0 49 49"><g fill="none" fill-rule="evenodd"><path fill="#FFDEB0" d="M27.365 49c12.432 0 22.11-10.074 21.617-22.5C48.489 14.074 38.035 4 25.633 4 13.231 4 3.553 14.074 4.016 26.5 4.479 38.926 14.933 49 27.365 49z"/><path fill="#F58D00" d="M23.365 45C10.933 45 .479 34.926.016 22.5-.447 10.074 9.231 0 21.633 0 34.035 0 44.49 10.074 44.982 22.5 45.475 34.926 35.797 45 23.365 45zm-.122-3.174c10.678 0 18.991-8.652 18.568-19.326-.424-10.674-9.403-19.326-20.055-19.326-10.653 0-18.966 8.652-18.569 19.326.398 10.674 9.377 19.326 20.056 19.326zm3.402-10.725c-.163.212-.686.434-.952.404 0 0-.099 0-.16-.022-.918-.33-1.832-.645-2.908-1.003-.375-.125-2.19-.722-2.66-.88-1.903-.637-3.04-1.08-3.98-1.573-1.458-.767-2.307-1.618-2.848-2.891-1.093-2.575-.075-5.294 2.303-6.303 1.302-.553 2.921-.462 4.243.247l1.68.902.52-1.835c.407-1.443 1.467-2.672 2.769-3.224 2.377-1.01 5.04.147 6.133 2.722.54 1.273.563 2.475.101 4.057-.297 1.018-.769 2.144-1.631 3.955-.214.448-1.046 2.169-1.216 2.525a119.162 119.162 0 00-1.301 2.796c-.026.057-.093.123-.093.123z"/></g></svg>