<svg xmlns="http://www.w3.org/2000/svg" viewBox="0 0 24 20"><g fill="none"><path fill="#F4F7FB" d="M7.792 16.353l-.838 1.744c-.163.326-.093.721.14 1a.955.955 0 00.674.303c.093 0 .21-.023.303-.047l4.024-1.442c.582.093 1.187.14 1.791.14 5.444 0 9.887-3.606 9.887-8.026S19.33 2 13.886 2C8.443 2 4 5.606 4 10.025c0 2.466 1.419 4.816 3.792 6.328z"/><path fill="#D1D2D6" d="M3.792 14.353l-.838 1.744c-.163.326-.093.721.14 1a.955.955 0 00.674.303c.093 0 .21-.023.303-.047l4.024-1.442c.582.093 1.187.14 1.791.14 5.444 0 9.887-3.606 9.887-8.026S15.33 0 9.886 0C4.443 0 0 3.606 0 8.025c0 2.466 1.419 4.816 3.792 6.328zM9.886 1.396c4.676 0 8.491 2.977 8.491 6.63 0 3.652-3.815 6.63-8.49 6.63-.582 0-1.14-.047-1.699-.14a.961.961 0 00-.442.046l-3.024 1.07.512-1.093a.91.91 0 00-.372-1.187c-2.187-1.256-3.466-3.256-3.466-5.35 0-3.629 3.815-6.606 8.49-6.606z"/></g></svg>