<svg xmlns="http://www.w3.org/2000/svg" viewBox="0 0 43 32"><g fill="none"><path fill="#FDB62C" d="M22.93 2.004a.908.908 0 00-.723.482l-1.149 2.247-2.71.372a.901.901 0 00-.722.593.865.865 0 00.212.896l1.943 1.888-.383 2.66a.872.872 0 00.37.838.93.93 0 00.935.073l2.312-1.117 2.312 1.117a.93.93 0 00.935-.073.872.872 0 00.37-.837l-.383-2.66 1.944-1.89a.865.865 0 00.212-.895.901.901 0 00-.723-.593l-2.71-.372-1.148-2.247a.913.913 0 00-.894-.482zm12.71 4.41a.908.908 0 00-.724.483l-1.149 2.247-2.709.372a.901.901 0 00-.723.593.865.865 0 00.212.896l1.944 1.889-.383 2.66a.872.872 0 00.37.837.93.93 0 00.935.073l2.312-1.117 2.312 1.117a.93.93 0 00.935-.073.872.872 0 00.37-.837l-.383-2.66 1.943-1.889a.865.865 0 00.212-.896.901.901 0 00-.723-.593l-2.709-.372-1.149-2.247a.913.913 0 00-.893-.482zm-25.42 4.413a.908.908 0 00-.723.482l-1.15 2.247-2.709.372a.901.901 0 00-.722.593.865.865 0 00.212.896l1.943 1.889-.383 2.66a.872.872 0 00.37.837.93.93 0 00.935.073l2.312-1.117 2.312 1.117a.93.93 0 00.935-.073.872.872 0 00.37-.837l-.383-2.66 1.943-1.889a.865.865 0 00.213-.896.901.901 0 00-.723-.593l-2.71-.372-1.148-2.247a.913.913 0 00-.894-.482zm16.86 3.088h-8.605c-.553.042-.91.425-.907.882v15.439h-1.816v-6.617a.895.895 0 00-.908-.882H5.767c-.553.043-.91.425-.908.882v6.617h-.907c-.41.014-.702.196-.85.476a.862.862 0 00.042.883c.175.265.483.42.808.405h38.127a.914.914 0 00.797-.437.86.86 0 000-.89.914.914 0 00-.797-.437h-.908V19.207a.895.895 0 00-.907-.882h-9.078c-.553.043-.91.425-.908.882v11.028h-1.816v-15.44a.87.87 0 00-.266-.637.922.922 0 00-.656-.258c-.553.05-.132.01-.459.014z"/><path fill="#CD7F15" d="M19.93.004a.908.908 0 00-.723.482l-1.149 2.247-2.71.372a.901.901 0 00-.722.593.865.865 0 00.212.896l1.943 1.888-.383 2.66a.872.872 0 00.37.838.93.93 0 00.935.073l2.312-1.117 2.312 1.117a.93.93 0 00.935-.073.872.872 0 00.37-.837l-.383-2.66 1.944-1.89a.865.865 0 00.212-.895.901.901 0 00-.723-.593l-2.71-.372L20.825.486a.913.913 0 00-.894-.482zm.085 2.853l.554 1.075c.135.255.389.43.68.469l1.39.193-.992.965a.867.867 0 00-.256.744l.213 1.42-1.177-.565a.931.931 0 00-.823 0l-1.177.565.213-1.42a.867.867 0 00-.256-.744l-.993-.965 1.39-.193a.907.907 0 00.681-.469l.553-1.075zM32.64 4.415a.908.908 0 00-.724.482l-1.149 2.247-2.709.372a.901.901 0 00-.723.593.865.865 0 00.212.896l1.944 1.889-.383 2.66a.872.872 0 00.37.837.93.93 0 00.935.073l2.312-1.117 2.312 1.117a.93.93 0 00.935-.073.872.872 0 00.37-.837l-.383-2.66 1.943-1.889a.865.865 0 00.212-.896.901.901 0 00-.723-.593l-2.709-.372-1.149-2.247a.913.913 0 00-.893-.482zm.085 2.853l.553 1.075c.135.255.389.43.68.469l1.39.193-.992.965a.867.867 0 00-.255.744l.212 1.42-1.177-.565a.931.931 0 00-.823 0l-1.177.565.213-1.42a.867.867 0 00-.256-.744l-.992-.965 1.39-.193a.907.907 0 00.68-.469l.554-1.075zM7.22 8.826a.908.908 0 00-.723.482l-1.15 2.247-2.709.372a.901.901 0 00-.722.593.865.865 0 00.212.896l1.943 1.889-.383 2.66a.872.872 0 00.37.837.93.93 0 00.935.073l2.312-1.117 2.312 1.117a.93.93 0 00.935-.073.872.872 0 00.37-.837l-.383-2.66 1.943-1.889a.865.865 0 00.213-.896.901.901 0 00-.723-.593l-2.71-.372-1.148-2.247a.913.913 0 00-.894-.482zm.085 2.853l.553 1.075a.91.91 0 00.681.47l1.39.192-.993.965a.867.867 0 00-.255.744l.213 1.42-1.177-.565a.931.931 0 00-.823 0l-1.177.565.212-1.42a.867.867 0 00-.255-.744l-.993-.965 1.39-.193a.907.907 0 00.681-.469l.553-1.075zm17.15.22a.891.891 0 00-.81.897v15.439h-7.262V13.678h4.54a.914.914 0 00.796-.437.86.86 0 000-.89.914.914 0 00-.797-.437h-5.447a.934.934 0 00-.085 0 .892.892 0 00-.822.882v15.439h-1.816v-6.617a.895.895 0 00-.908-.882H2.767a.934.934 0 00-.085 0 .892.892 0 00-.823.882v6.617H.952a.911.911 0 00-.85.477.862.862 0 00.042.882c.175.265.483.42.808.405h38.127a.914.914 0 00.797-.437.86.86 0 000-.89.914.914 0 00-.797-.437h-.908V17.207a.895.895 0 00-.907-.882h-9.078a.934.934 0 00-.085 0 .892.892 0 00-.823.882v11.028h-1.816v-15.44a.87.87 0 00-.266-.637.922.922 0 00-.656-.258.934.934 0 00-.085 0zm4.637 6.19h7.263v10.146h-7.263V18.089zM3.675 22.5h7.262v5.735H3.675V22.5z"/></g></svg>