<svg xmlns="http://www.w3.org/2000/svg" viewBox="0 0 13 13"><path fill="#45AAF2" d="M12.638 5.122l-.275-.187a.843.843 0 01-.332-.933l.087-.316c.144-.489-.188-.991-.693-1.077l-.332-.058a.84.84 0 01-.708-.689l-.058-.33A.855.855 0 009.244.857l-.317.1a.868.868 0 01-.939-.316L7.786.354a.855.855 0 00-1.27-.129l-.246.23a.853.853 0 01-.997.115L4.985.412a.87.87 0 00-1.213.43l-.13.316a.83.83 0 01-.838.532l-.332-.015a.843.843 0 00-.895.905l.029.33a.862.862 0 01-.52.847l-.303.13a.856.856 0 00-.42 1.206l.174.287a.841.841 0 01-.101.99l-.217.245a.835.835 0 00.16 1.263l.274.187a.843.843 0 01.332.933l-.13.33c-.145.489.187.992.693 1.078l.332.057a.84.84 0 01.708.69l.057.33a.855.855 0 001.083.675l.318-.101a.87.87 0 01.939.316l.202.273a.855.855 0 001.27.129l.246-.23a.853.853 0 01.996-.115l.29.158a.87.87 0 001.212-.43l.13-.316a.83.83 0 01.837-.532l.333.015a.843.843 0 00.895-.905l-.015-.33a.862.862 0 01.52-.847l.304-.13a.856.856 0 00.418-1.206l-.173-.287a.841.841 0 01.101-.99l.217-.245a.833.833 0 00-.13-1.263zM6.876 7.835L5.692 8.998l-1.17-1.177-1.126-1.134L4.58 5.524l1.127 1.134 2.7-2.67 1.17 1.177-2.7 2.67z"/></svg>