<svg xmlns="http://www.w3.org/2000/svg" viewBox="0 0 42 41"><g fill="none" fill-rule="evenodd"><circle cx="22" cy="21" r="20" fill="#F4F7FB"/><path fill="#CAD4E1" fill-rule="nonzero" d="M9.963 33.455a3.01 3.01 0 00.337-.18c.74.543 1.563.725 2.368.725.262 0 .52-.03.775-.092.624-.152 1.2-.347 1.698-.739.705.387 1.576.623 2.604.613 1.541-.021 3.487-.444 5.036-3.394.848.413 1.612.633 2.286.653h.07c1.013 0 1.744-.127 2.489-.777a33.356 33.356 0 002.862-2.843 2.379 2.379 0 00.607-1.857c-.078-.666-.454-1.262-1.057-1.68a68.74 68.74 0 01-2.308-1.706c-.444-.337-.887-.674-1.337-1.006a13.593 13.593 0 01-.304-.233c-.331-.256-.706-.548-1.164-.76-1.095-.503-2.122-.316-2.955.518l-.27.266c-.17.169-.34.337-.51.508a50.385 50.385 0 01-3.492-2.925c-1.423-1.314-2.806-2.843-4.218-4.667l.55-.55.396-.396a2.25 2.25 0 00.67-1.614c.003-.659-.223-1.283-.691-1.908l-.942-1.258c-.647-.862-1.293-1.725-1.946-2.59-.056-.073-.11-.15-.164-.227-.17-.245-.364-.522-.653-.76A2.432 2.432 0 009.134 4c-.666 0-1.315.276-1.83.78-.78.767-1.553 1.54-2.326 2.317-.673.679-1.01 1.51-.976 2.406a7.5 7.5 0 001.043 3.54c1.435 2.41 3.121 4.755 5.157 7.169 1.836 2.179 3.967 4.195 6.516 6.162a51.108 51.108 0 004.619 3.197c-1.305 2.513-2.799 2.542-3.617 2.553a3.75 3.75 0 01-1.411-.233c.522-.8.786-1.678.68-2.393-.118-.783-.725-1.592-2.069-1.515-1.196.07-1.97.914-1.926 2.1.024.63.305 1.352.825 1.99-.24.15-.498.265-.768.33-.526.13-1.066-.03-1.533-.312.666-.962.979-2.167.653-3.045-.253-.684-.968-1.285-2.21-.94-1.019.196-1.385.852-1.514 1.23-.303.889.073 1.89.624 2.68-.928.216-1.759-.882-2.314-1.902a.829.829 0 10-1.456.793c1.839 3.377 3.873 2.907 4.662 2.548zm1.506-14.312c-1.976-2.344-3.612-4.617-5-6.948a5.75 5.75 0 01-.81-2.756c-.017-.443.14-.816.495-1.173a292.35 292.35 0 012.311-2.303c.201-.197.438-.305.668-.305.183 0 .354.065.51.194.114.095.229.26.35.433.067.097.136.194.204.283.649.857 1.293 1.718 1.938 2.579l.943 1.258c.25.333.36.612.358.905a.585.585 0 01-.181.447l-.4.4c-.138.139-.279.276-.418.415l-.568-.704a.829.829 0 00-1.166-.125c-.104.084-.273.305-.454.586-.445.689-4.633-4.965-4.428-4.712l-.89 2.456c.004.006 4.365 7.324 4.37 7.33 1.57 2.067 5.214 4.36 6.809 5.832 1.205 1.112 3.166 2.341 4.555 2.445 1.39.104 3.021-1.055 3.183-1.284a.829.829 0 00-.2-1.155l-1.103-.776c.107-.107.212-.216.32-.323l.276-.272c.28-.28.48-.313.607-.313.138 0 .301.043.481.126.284.132.555.342.842.565.113.087.225.174.338.257.441.326.879.659 1.316.992a69.568 69.568 0 002.367 1.748c.213.148.334.32.355.51a.73.73 0 01-.196.558 31.6 31.6 0 01-2.718 2.702c-.286.25-.516.368-1.396.368-.605-.018-1.42-.325-2.335-.866a48.479 48.479 0 01-5.07-3.457c-2.455-1.893-4.503-3.829-6.263-5.917zm3.548 10.495l.077-.003a.53.53 0 01.233.036c.023.034.077.265-.096.715a3.114 3.114 0 01-.247.495c-.215-.31-.324-.622-.334-.86-.01-.277.076-.366.367-.383zm-5 .233c.021-.065.114-.113.275-.141a.807.807 0 00.088-.02.992.992 0 01.253-.046c.06.221-.058.726-.324 1.218-.277-.456-.35-.844-.293-1.011z"/><path fill="#1E5CD6" fill-rule="nonzero" d="M5.963 29.455a3.01 3.01 0 00.337-.18c.74.543 1.563.725 2.368.725.262 0 .52-.03.775-.092.624-.152 1.2-.347 1.698-.739.705.387 1.576.623 2.604.613 1.541-.021 3.487-.444 5.036-3.394.848.413 1.612.633 2.286.653h.07c1.013 0 1.744-.127 2.489-.777a33.356 33.356 0 002.862-2.843 2.379 2.379 0 00.607-1.857c-.078-.666-.454-1.262-1.057-1.68a68.74 68.74 0 01-2.308-1.706c-.444-.337-.887-.674-1.337-1.006a13.593 13.593 0 01-.304-.233c-.331-.256-.706-.548-1.164-.76-1.095-.503-2.122-.316-2.955.518l-.27.266c-.17.169-.34.337-.51.508a50.385 50.385 0 01-3.492-2.925c-1.423-1.314-2.806-2.843-4.218-4.667l.55-.55.396-.396a2.25 2.25 0 00.67-1.614c.003-.659-.223-1.283-.691-1.908l-.942-1.258c-.647-.862-1.293-1.725-1.946-2.59-.056-.073-.11-.15-.164-.227-.17-.245-.364-.522-.653-.76A2.432 2.432 0 005.134 0c-.666 0-1.315.276-1.83.78-.78.767-1.553 1.54-2.326 2.317-.673.679-1.01 1.51-.976 2.406a7.5 7.5 0 001.043 3.54c1.435 2.41 3.121 4.755 5.157 7.169 1.836 2.179 3.967 4.195 6.516 6.162a51.108 51.108 0 004.619 3.197c-1.305 2.513-2.799 2.542-3.617 2.553a3.75 3.75 0 01-1.411-.233c.522-.8.786-1.678.68-2.393-.118-.783-.725-1.592-2.069-1.515-1.196.07-1.97.914-1.926 2.1.024.63.305 1.352.825 1.99-.24.15-.498.265-.768.33-.526.13-1.066-.03-1.533-.312.666-.962.979-2.167.653-3.045-.253-.684-.968-1.285-2.21-.94-1.019.196-1.385.852-1.514 1.23-.303.889.073 1.89.624 2.68-.928.216-1.759-.882-2.314-1.902a.829.829 0 10-1.456.793c1.839 3.377 3.873 2.907 4.662 2.548zm1.506-14.312c-1.976-2.344-3.612-4.617-5-6.948a5.75 5.75 0 01-.81-2.756c-.017-.443.14-.816.495-1.173a292.35 292.35 0 012.311-2.303c.201-.197.438-.305.668-.305.183 0 .354.065.51.194.114.095.229.26.35.433.067.097.136.194.204.283.649.857 1.293 1.718 1.938 2.579l.943 1.258c.25.333.36.612.358.905a.585.585 0 01-.181.447l-.4.4c-.138.139-.279.276-.418.415l-.568-.704a.829.829 0 10-1.29 1.041l1.275 1.579.014.014c1.571 2.068 3.11 3.788 4.705 5.261a52.87 52.87 0 004.01 3.328l.063.044c.038.041.08.079.13.113l1.917 1.349a.83.83 0 00.954-1.356l-1.102-.776c.107-.107.212-.216.32-.323l.276-.272c.28-.28.48-.313.607-.313.138 0 .301.043.481.126.284.132.555.342.842.565.113.087.225.174.338.257.441.326.879.659 1.316.992a69.568 69.568 0 002.367 1.748c.213.148.334.32.355.51a.73.73 0 01-.196.558 31.6 31.6 0 01-2.718 2.702c-.286.25-.516.368-1.396.368h-.04c-.565-.018-1.38-.325-2.295-.866a48.479 48.479 0 01-5.07-3.457c-2.455-1.893-4.503-3.829-6.263-5.917zm3.548 10.495l.077-.003a.53.53 0 01.233.036c.023.034.077.265-.096.715a3.114 3.114 0 01-.247.495c-.215-.31-.324-.622-.334-.86-.01-.277.076-.366.367-.383zm-5 .233c.021-.065.114-.113.275-.141a.807.807 0 00.088-.02.992.992 0 01.253-.046c.06.221-.058.726-.324 1.218-.277-.456-.35-.844-.293-1.011z"/></g></svg>