<svg width="32" height="32" viewBox="0 0 32 32" fill="none" xmlns="http://www.w3.org/2000/svg">
<path fill-rule="evenodd" clip-rule="evenodd" d="M6.66668 26.6743H12.32C12.4955 26.6753 12.6694 26.6417 12.8319 26.5753C12.9943 26.509 13.1421 26.4112 13.2667 26.2876L22.4934 17.0476L26.28 13.341C26.405 13.217 26.5042 13.0696 26.5719 12.9071C26.6396 12.7446 26.6744 12.5703 26.6744 12.3943C26.6744 12.2183 26.6396 12.044 26.5719 11.8815C26.5042 11.7191 26.405 11.5716 26.28 11.4476L20.6267 5.72765C20.5027 5.60268 20.3553 5.50349 20.1928 5.43579C20.0303 5.3681 19.856 5.33325 19.68 5.33325C19.504 5.33325 19.3297 5.3681 19.1672 5.43579C19.0048 5.50349 18.8573 5.60268 18.7334 5.72765L14.9734 9.50098L5.72002 18.741C5.59644 18.8656 5.49868 19.0133 5.43232 19.1758C5.36597 19.3382 5.33234 19.5122 5.33335 19.6877V25.341C5.33335 25.6946 5.47383 26.0337 5.72388 26.2838C5.97392 26.5338 6.31306 26.6743 6.66668 26.6743ZM19.68 8.55424L23.4533 12.3276L21.56 14.2209L17.7867 10.4476L19.68 8.55424ZM8 20.2342L15.9067 12.3276L19.68 16.1009L11.7733 24.0076H8V20.2342Z" fill="white"/>
</svg>
