<svg xmlns="http://www.w3.org/2000/svg" width="18" height="17" viewBox="0 0 18 17">
    <g fill="none" fill-rule="evenodd">
        <path fill="#CAD4E1" d="M9.468 2.13c.278 0 .51.222.51.489 0 .266-.232.49-.51.49-1.478-.002-2.963-.243-4.437-.059l.135-.017a3.76 3.76 0 0 0-.527.098 3.373 3.373 0 0 0-.244.076c-.039.015-.181.073-.012.003a2.197 2.197 0 0 0-.437.236c-.098.069.1-.08.008-.006a1.807 1.807 0 0 0-.254.25c.118-.144.038-.048.012-.013a1.784 1.784 0 0 0-.174.295c-.048.103.05-.123.007-.017l-.026.068a3.38 3.38 0 0 0-.17.708l.019-.13c-.059.428-.058.858-.093 1.287-.045.543-.089 1.086-.127 1.63-.14 1.97-.225 3.968.05 5.931l-.019-.13c.045.313.098.625.166.934.027.12.052.244.09.363a1.684 1.684 0 0 0 .06.161c-.076-.174-.04-.09-.022-.053.052.105.113.205.185.297.044.057-.098-.118-.035-.044a1.929 1.929 0 0 0 .322.303.863.863 0 0 1 .093.059 3.11 3.11 0 0 0 .45.229 4.026 4.026 0 0 0 .177.062c.139.046.28.087.423.122.306.076.618.13.93.17l-.135-.018c1.306.167 2.632.122 3.944.083.55-.016 1.103-.04 1.654-.023.372.012.743.034 1.116.033.493-.001.986-.026 1.476-.088l-.136.017.088-.012c.469-.065.938-.164 1.38-.333.034-.013.159-.065.003 0a4.232 4.232 0 0 0 .217-.097 2.13 2.13 0 0 0 .323-.19c-.135.1-.063.047-.035.024a1.917 1.917 0 0 0 .275-.27c.053-.063-.085.112-.012.016a2.473 2.473 0 0 0 .242-.388 3.16 3.16 0 0 0 .068-.141c-.075.167-.006.01.01-.03.034-.085.065-.172.093-.26.121-.381.195-.775.25-1.17l-.018.13c.037-.262.065-.525.09-.788.027-.271.057-.54.057-.812V9.332c0-.267.231-.49.51-.49.277 0 .509.223.509.49v2.238c0 .223-.016.44-.038.661a21.46 21.46 0 0 1-.155 1.296c-.128.81-.362 1.651-.942 2.278-.32.346-.734.555-1.177.72a6.41 6.41 0 0 1-1.38.333 12.51 12.51 0 0 1-1.581.117c-.394.004-.786-.016-1.18-.03-.543-.019-1.088.003-1.631.019-.671.02-1.342.04-2.013.035a17.555 17.555 0 0 1-2.162-.136c-.636-.083-1.261-.225-1.844-.49-.513-.231-.996-.6-1.259-1.092-.174-.327-.249-.678-.318-1.037-.096-.5-.165-1.005-.213-1.51-.184-1.97-.067-3.957.087-5.925.034-.43.073-.86.094-1.292.019-.39.045-.779.11-1.165.057-.342.158-.68.33-.987.19-.335.47-.615.802-.82a3.306 3.306 0 0 1 1.263-.44 10.529 10.529 0 0 1 1.62-.1c1.024.013 2.044.123 3.068.124zm5.32.41c.142 0 .597.734.388.943-.206.205-.418.405-.624.612-.424.424-.83.865-1.26 1.284-.422.413-.848.82-1.253 1.251-.392.417-.76.858-1.163 1.265-.392.395-.807.769-1.18 1.184a6.022 6.022 0 0 0-.268.318c.103-.133-.013.02-.036.052a2.83 2.83 0 0 0-.079.116c-.025.04-.05.08-.071.122l-.025.05c-.033.077.053-.136.026-.058-.025.07-.042.142-.052.216l.018-.14c-.027.209-.007.42-.031.627-.022.188-.04.324-.057.408.202-.012.407-.032.613-.06l-.138.019c.215-.03.43-.063.643-.114.101-.024.202-.05.302-.084.13-.044-.095.059-.034.014a.865.865 0 0 1-.067.053c.192-.153.374-.32.557-.486a46.959 46.959 0 0 0 1.575-1.485c.391-.389.753-.804 1.119-1.217.194-.22.39-.437.592-.648.206-.213.423-.416.628-.63.397-.41.777-.838 1.185-1.238.165-.16.343-.307.508-.468.083-.08.076-.058.151-.144.04-.046-.63-.526-1.298-1.113-.214-.188-.583-.848-.393-1.04.211-.21.523-.187.736 0 .67.588 1.37 1.138 2.044 1.718.161.138.213.458.081.633-.16.214-.324.425-.513.615-.152.153-.32.288-.476.438-.21.202-.414.41-.614.623-.194.205-.385.413-.58.617-.204.213-.417.416-.624.626-.409.417-.786.864-1.177 1.298-.304.338-.62.66-.947.976a40.641 40.641 0 0 1-1.65 1.523c-.101.087-.204.173-.312.252-.09.066-.229.098-.338.129a4.278 4.278 0 0 1-.31.075c-.456.093-.92.132-1.38.193l.138-.018-.297.04c-.012.005-.023.01-.033.017.164-.114.107-.092.076-.056-.151.176-.44.194-.63.082A.526.526 0 0 1 8 11.478c.003-.39.094-.775.147-1.16l-.019.138c.04-.305.008-.612.072-.915.058-.274.21-.509.374-.73.463-.621 1.049-1.129 1.59-1.68.402-.408.77-.849 1.164-1.265.406-.43.833-.836 1.254-1.251.419-.413.818-.844 1.234-1.26.199-.198.403-.39.601-.589.098-.098.233-.226.372-.226z"/>
        <path fill="#AAAEB4" d="M7.468.13c.278 0 .51.222.51.489 0 .266-.232.49-.51.49C5.99 1.106 4.505.865 3.031 1.05l.135-.017a3.76 3.76 0 0 0-.527.098 3.373 3.373 0 0 0-.244.076c-.039.015-.181.073-.012.003a2.197 2.197 0 0 0-.437.236c-.098.069.1-.08.008-.006a1.807 1.807 0 0 0-.254.25c.118-.144.038-.048.012-.013a1.784 1.784 0 0 0-.174.295c-.048.103.05-.123.007-.017l-.026.068a3.38 3.38 0 0 0-.17.708l.019-.13c-.059.428-.058.858-.093 1.287-.045.543-.089 1.086-.127 1.63-.14 1.97-.225 3.968.05 5.931l-.019-.13c.045.313.098.625.166.934.027.12.052.244.09.363a1.684 1.684 0 0 0 .06.161c-.076-.174-.04-.09-.022-.053.052.105.113.205.185.297.044.057-.098-.118-.035-.044a1.929 1.929 0 0 0 .322.303.863.863 0 0 1 .093.059 3.11 3.11 0 0 0 .45.229 4.026 4.026 0 0 0 .177.062c.139.046.28.087.423.122.306.076.618.13.93.17l-.135-.018c1.306.167 2.632.122 3.944.083.55-.016 1.103-.04 1.654-.023.372.012.743.034 1.116.033.493-.001.986-.026 1.476-.088l-.136.017.088-.012c.469-.065.938-.164 1.38-.333.034-.013.159-.065.003 0a4.232 4.232 0 0 0 .217-.097 2.13 2.13 0 0 0 .323-.19c-.135.1-.063.047-.035.024a1.917 1.917 0 0 0 .275-.27c.053-.063-.085.112-.012.016a2.473 2.473 0 0 0 .242-.388 3.16 3.16 0 0 0 .068-.141c-.075.167-.006.01.01-.03.034-.085.065-.172.093-.26.121-.381.195-.775.25-1.17l-.018.13c.037-.262.065-.525.09-.788.027-.271.057-.54.057-.812V7.332c0-.267.231-.49.51-.49.277 0 .509.223.509.49V9.57c0 .223-.016.44-.038.661a21.46 21.46 0 0 1-.155 1.296c-.128.81-.362 1.651-.942 2.278-.32.346-.734.555-1.177.72a6.41 6.41 0 0 1-1.38.333 12.51 12.51 0 0 1-1.581.117c-.394.004-.786-.016-1.18-.03-.543-.019-1.088.003-1.631.019-.671.02-1.342.04-2.013.035a17.555 17.555 0 0 1-2.162-.136c-.636-.083-1.261-.225-1.844-.49-.513-.231-.996-.6-1.259-1.092-.174-.327-.249-.678-.318-1.037-.096-.5-.165-1.005-.213-1.51-.184-1.97-.067-3.957.087-5.925.034-.43.073-.86.094-1.292.019-.39.045-.779.11-1.165.057-.342.158-.68.33-.987.19-.335.47-.615.802-.82A3.306 3.306 0 0 1 2.78.104a10.529 10.529 0 0 1 1.62-.1C5.424.019 6.444.129 7.468.13zm5.32.41c.142 0 .597.734.388.943-.206.205-.418.405-.624.612-.424.424-.83.865-1.26 1.284-.422.413-.848.82-1.253 1.251-.392.417-.76.858-1.163 1.265-.392.395-.807.769-1.18 1.184a6.022 6.022 0 0 0-.268.318c.103-.133-.013.02-.036.052a2.83 2.83 0 0 0-.079.116c-.025.04-.05.08-.071.122l-.025.05c-.033.077.053-.136.026-.058-.025.07-.042.142-.052.216l.018-.14c-.027.209-.007.42-.031.627-.022.188-.04.324-.057.408.202-.012.407-.032.613-.06l-.138.019c.215-.03.43-.063.643-.114.101-.024.202-.05.302-.084.13-.044-.095.059-.034.014a.865.865 0 0 1-.067.053c.192-.153.374-.32.557-.486a46.959 46.959 0 0 0 1.575-1.485c.391-.389.753-.804 1.119-1.217.194-.22.39-.437.592-.648.206-.213.423-.416.628-.63.397-.41.777-.838 1.185-1.238.165-.16.343-.307.508-.468.083-.08.076-.058.151-.144.04-.046-.63-.526-1.298-1.113-.214-.188-.583-.848-.393-1.04.211-.21.523-.187.736 0 .67.588 1.37 1.138 2.044 1.718.161.138.213.458.081.633-.16.214-.324.425-.513.615-.152.153-.32.288-.476.438-.21.202-.414.41-.614.623-.194.205-.385.413-.58.617-.204.213-.417.416-.624.626-.409.417-.786.864-1.177 1.298-.304.338-.62.66-.947.976a40.641 40.641 0 0 1-1.65 1.523c-.101.087-.204.173-.312.252-.09.066-.229.098-.338.129a4.278 4.278 0 0 1-.31.075c-.456.093-.92.132-1.38.193a350.824 350.824 0 0 1-.16.021c-.01.006-.022.011-.032.018.164-.114.107-.092.076-.056-.151.176-.44.194-.63.082A.526.526 0 0 1 6 9.478c.003-.39.094-.775.147-1.16l-.019.138c.04-.305.008-.612.072-.915.058-.274.21-.509.374-.73.463-.621 1.049-1.129 1.59-1.68.402-.408.77-.849 1.164-1.265.406-.43.833-.836 1.254-1.251.419-.413.818-.844 1.234-1.26.199-.198.403-.39.601-.589.098-.098.233-.226.372-.226z"/>
    </g>
</svg>
