<svg width="124" height="122" viewBox="0 0 124 122" fill="none" xmlns="http://www.w3.org/2000/svg">
<path d="M67.5 122C23.5556 122 11 109.19 11 64.5C11 19.8097 23.5556 7 67.5 7C111.444 7 124 19.8097 124 64.5C124 109.19 111.444 122 67.5 122Z" fill="#FDCFC9"/>
<path d="M58.5 117C14.5556 117 2 104.19 2 59.5C2 14.8097 14.5556 2 58.5 2C102.444 2 115 14.8097 115 59.5C115 104.19 102.444 117 58.5 117Z" stroke="#E5361F" stroke-width="4"/>
<path fill-rule="evenodd" clip-rule="evenodd" d="M36 76.598L41.6569 82.2549L59.1274 64.7843L76.598 82.2549L82.2549 76.598L64.7843 59.1274L81.2549 42.6569L75.598 37L59.1274 53.4706L42.6569 37L37 42.6569L53.4706 59.1274L36 76.598Z" fill="#E5361F"/>
</svg>
