<svg xmlns="http://www.w3.org/2000/svg" width="19" height="26" viewBox="0 0 19 26">
    <g fill="none" fill-rule="nonzero">
        <path fill="#DBDCFF" d="M17.069 9.626H12.47l1.543-5.52c.098-.354.03-.735-.183-1.03a1.131 1.131 0 0 0-.903-.476H6.643a1.148 1.148 0 0 0-1.114.856l-2.885 10.57c-.1.358-.029.745.191 1.041.22.297.562.469.923.464h3.97l-.8 8.68c-.044.53.26 1.026.743 1.21l.4.059c.375.003.727-.185.943-.502l8.998-13.521c.23-.361.25-.823.054-1.205a1.138 1.138 0 0 0-.997-.626z"/>
        <path fill="#383AAA" d="M14.469 7.026H9.87l1.543-5.52c.098-.354.03-.735-.183-1.03A1.131 1.131 0 0 0 10.327 0H4.043A1.148 1.148 0 0 0 2.93.856L.044 11.426c-.1.358-.029.745.191 1.041.22.297.562.469.923.464h3.97l-.8 8.68c-.044.53.26 1.026.743 1.21l.4.059c.375.003.727-.185.943-.502l8.998-13.521c.23-.361.25-.823.054-1.205a1.138 1.138 0 0 0-.997-.626zm-8.482 13.28l.742-7.609a1.206 1.206 0 0 0-.292-.912 1.126 1.126 0 0 0-.85-.387H1.372L4.25 1.493h5.63l-1.456 5.62c-.1.358-.029.745.19 1.041.22.297.562.469.924.464h4.312L5.987 20.305z"/>
    </g>
</svg>
