<svg xmlns="http://www.w3.org/2000/svg" width="23" height="19" viewBox="0 0 23 19">
    <g fill="none" fill-rule="evenodd">
        <path fill="#F4F7FB" fill-rule="nonzero" d="M15.379 13.423h1.452c0 3.476-2.547 5.003-6.927 5.003-4.38 0-6.904-2-6.904-5.476V7.475C3 4.095 5.642 2 9.927 2c4.38 0 6.904 2 6.904 5.475h-1.476c0-3.309-2.976-4-5.451-4-4.904 0-5.428 2.786-5.428 4v5.475c0 3.31 2.928 4 5.428 4s5.475-.218 5.475-3.527zm4.577-3.596l-1.49-.97.815-1.143L22.773 10c.303.323.303.884 0 1.143l-3.492 2.286-.815-1.143 1.49-.95H9.666V9.828h10.29z"/>
        <path fill="#F4F7FB" d="M13.725 5.4c0-.484-.605-2.799-3.407-3.021-2.801-.223-4.944 2.204-6.026 3.578-1.082 1.374-.684 1.521-.41 4.592.275 3.07.07 4.823 1.036 5.258.966.434 5.156.027 6.142-.411.986-.439 2.665-2.736 2.665-3.934V5.4z"/>
        <path fill="#94ACC4" fill-rule="nonzero" d="M12.379 11.423h1.452c0 3.476-2.547 5.003-6.927 5.003-4.38 0-6.904-2-6.904-5.476V5.475C0 2.095 2.642 0 6.927 0c4.38 0 6.904 2 6.904 5.475h-1.476c0-3.309-2.976-4-5.451-4-4.904 0-5.428 2.786-5.428 4v5.475c0 3.31 2.928 4 5.428 4s5.475-.218 5.475-3.527zm4.577-3.596l-1.49-.97.815-1.143L19.773 8c.303.323.303.884 0 1.143l-3.492 2.286-.815-1.143 1.49-.95H6.666V7.828h10.29z"/>
    </g>
</svg>
