<svg xmlns="http://www.w3.org/2000/svg" width="77" height="77" viewBox="0 0 77 77">
    <g fill="none" fill-rule="nonzero">
        <path fill="#F4F7FB" d="M73.8 47.64l.8-.8c3.2-3.2 3.2-8.56 0-11.76l-.24-.24.56-1.28c1.76-4.24-.24-9.12-4.4-10.88l-1.12-.48V21c0-4.56-3.76-8.32-8.32-8.32h-1.36l-.16-.32C57.8 8.12 53 6.04 48.76 7.8l-1.12.4-.8-.8c-3.2-3.2-8.56-3.2-11.76 0l-.24.24-1.28-.56c-4.16-1.68-9.12.32-10.88 4.48l-.48 1.12H21c-4.56 0-8.32 3.76-8.32 8.32v1.36l-.32.16c-4.24 1.76-6.32 6.56-4.56 10.8l.4 1.04-.8.8c-3.2 3.2-3.2 8.56 0 11.76l.24.24-.56 1.28c-1.68 4.16.32 9.12 4.48 10.88l1.12.48V61c0 4.56 3.76 8.32 8.32 8.32h1.36l.16.32c1.76 4.24 6.56 6.32 10.8 4.56l.96-.4.8.8c3.2 3.2 8.56 3.2 11.76 0l.24-.24 1.28.56c4.24 1.76 9.12-.24 10.88-4.4l.48-1.12H61c4.56 0 8.32-3.76 8.32-8.32v-1.36l.32-.16c4.24-1.76 6.32-6.56 4.56-10.8l-.4-1.12z"/>
        <path stroke="#C4D2E1" d="M69.8 43.64l.8-.8c3.2-3.2 3.2-8.56 0-11.76l-.24-.24.56-1.28c1.76-4.24-.24-9.12-4.4-10.88l-1.12-.48V17c0-4.56-3.76-8.32-8.32-8.32h-1.36l-.16-.32C53.8 4.12 49 2.04 44.76 3.8l-1.12.4-.8-.8c-3.2-3.2-8.56-3.2-11.76 0l-.24.24-1.28-.56c-4.16-1.68-9.12.32-10.88 4.48l-.48 1.12H17c-4.56 0-8.32 3.76-8.32 8.32v1.36l-.32.16c-4.24 1.76-6.32 6.56-4.56 10.8l.4 1.04-.8.8c-3.2 3.2-3.2 8.56 0 11.76l.24.24-.56 1.28c-1.68 4.16.32 9.12 4.48 10.88l1.12.48V57c0 4.56 3.76 8.32 8.32 8.32h1.36l.16.32c1.76 4.24 6.56 6.32 10.8 4.56l.96-.4.8.8c3.2 3.2 8.56 3.2 11.76 0l.24-.24 1.28.56c4.24 1.76 9.12-.24 10.88-4.4l.48-1.12H57c4.56 0 8.32-3.76 8.32-8.32v-1.36l.32-.16c4.24-1.76 6.32-6.56 4.56-10.8l-.4-1.12z"/>
    </g>
</svg>
