<svg xmlns="http://www.w3.org/2000/svg" width="25" height="21" viewBox="0 0 25 21">
    <g fill="none" fill-rule="nonzero">
        <path fill="#F4F7FB" d="M24.607 9.68c-.453-.583-1.165-.971-2.07-.971h-1.424a3.203 3.203 0 0 0-3.234-3.235H13.35c-.646 0-.905-.388-1.423-1.035-.517-.711-1.164-1.552-2.458-1.552H6.235A3.203 3.203 0 0 0 3 6.12v11.644c0 .841.323 1.682.97 2.265.388.647 1.165.97 2.07.97H18.98c1.617 0 3.17-1.1 3.622-2.458l2.264-6.987c.26-.711.13-1.358-.258-1.876zM6.235 4.18h3.234c.647 0 .906.389 1.423 1.036.518.711 1.165 1.552 2.458 1.552h4.529c1.1 0 1.94.841 1.94 1.94H9.6c-1.618 0-3.17 1.1-3.623 2.459l-1.682 5.11V6.122c0-1.1.84-1.94 1.94-1.94z"/>
        <path fill="#94ACC4" d="M21.607 7.68c-.453-.583-1.165-.971-2.07-.971h-1.424a3.203 3.203 0 0 0-3.234-3.235H10.35c-.646 0-.905-.388-1.423-1.035C8.41 1.728 7.763.887 6.47.887H3.235A3.203 3.203 0 0 0 0 4.12v11.644c0 .841.323 1.682.97 2.265.388.647 1.165.97 2.07.97H15.98c1.617 0 3.17-1.1 3.622-2.458l2.264-6.987c.26-.711.13-1.358-.258-1.876zM3.235 2.18h3.234c.647 0 .906.389 1.423 1.036.518.711 1.165 1.552 2.458 1.552h4.529c1.1 0 1.94.841 1.94 1.94H6.6c-1.618 0-3.17 1.1-3.623 2.459l-1.682 5.11V4.122c0-1.1.84-1.94 1.94-1.94zm17.401 6.987l-2.264 6.987c-.259.84-1.358 1.552-2.393 1.552H3.04c-.452 0-.776-.13-.97-.388l-.065-.065a.937.937 0 0 1-.064-.711l2.264-6.987c.259-.84 1.358-1.552 2.393-1.552h12.939c.452 0 .84.129 1.035.388.194.259.129.582.064.776z"/>
    </g>
</svg>
