<svg xmlns="http://www.w3.org/2000/svg" viewBox="0 0 23 22"><g fill="none"><path fill="#C2E49A" d="M13 22C5.222 22 3 19.772 3 12S5.222 2 13 2c7.778 0 10 2.228 10 10s-2.222 10-10 10zm0-18.111c-6.824 0-8.111 1.29-8.111 8.111 0 6.821 1.52 7.103 6.983 7.112 5.463.01 6.899-6.241 6.919-9.483.02-3.242 1.034-5.74-5.791-5.74zm-.817 15.208h-.955c-4.957.6-7.205-2.21-6.743-8.429.462-6.219 4.204-8.442 11.227-6.67l2.52.637.623 5.138-1.55 6.671-5.122 2.653z"/><path fill="#74AF33" d="M10 20C2.222 20 0 17.772 0 10S2.222 0 10 0c7.778 0 10 2.228 10 10s-2.222 10-10 10zm0-18.111c-6.824 0-8.111 1.29-8.111 8.111 0 6.821 1.29 8.111 8.111 8.111 6.821 0 8.111-1.288 8.111-8.111S16.825 1.889 10 1.889zM8.889 14.444L4.444 10l1.572-1.571 2.877 2.878 5.105-5.105 1.572 1.571-5.111 5.105-1.57 1.566z"/></g></svg>