<svg xmlns="http://www.w3.org/2000/svg" width="25" height="21" viewBox="0 0 25 21">
    <g fill="none" fill-rule="nonzero">
        <path fill="#F4F7FB" d="M14.12 20.114s.095-.038.146-.084c.789-.727 1.582-1.434 2.52-2.255.326-.286 1.91-1.66 2.318-2.02 1.653-1.452 2.615-2.383 3.354-3.28 1.148-1.393 1.642-2.61 1.642-4.122C24.1 5.3 21.9 3 19.057 3c-1.557 0-3.159.783-4.192 2.06L13.55 6.681 12.235 5.06C11.201 3.783 9.6 3 8.043 3 5.2 3 3 5.299 3 8.353c0 1.511.494 2.73 1.642 4.122.74.897 1.701 1.828 3.354 3.28.409.36 1.992 1.734 2.318 2.02.936.819 1.727 1.525 2.514 2.249.052.049.153.09.153.09.256.144.881.144 1.138 0z"/>
        <path fill="#94ACC4" d="M10.989 16.123s.082-.032.125-.072c.677-.623 1.357-1.23 2.163-1.935.28-.244 1.637-1.424 1.988-1.732 1.418-1.247 2.244-2.045 2.878-2.814.985-1.196 1.409-2.24 1.409-3.537 0-2.62-1.888-4.593-4.327-4.593-1.336 0-2.71.672-3.597 1.767L10.5 4.599 9.372 3.207C8.485 2.112 7.111 1.44 5.775 1.44c-2.439 0-4.327 1.972-4.327 4.593 0 1.296.424 2.341 1.41 3.537.633.77 1.459 1.567 2.877 2.814.35.308 1.708 1.488 1.988 1.732a112.32 112.32 0 0 1 2.157 1.93.546.546 0 0 0 .131.077c.22.124.757.124.978 0zm-1.533 1.33a2.018 2.018 0 0 1-.267-.134 1.71 1.71 0 0 1-.293-.216 110.64 110.64 0 0 0-2.524-2.25l-.613-.533-.983-.857c-1.509-1.326-2.36-2.156-3.04-2.98C.545 9.034 0 7.673 0 6.032 0 2.647 2.506 0 5.775 0 7.558 0 9.343.876 10.5 2.304 11.656.876 13.442 0 15.225 0 18.495 0 21 2.647 21 6.033c0 1.641-.544 3.002-1.737 4.45-.679.824-1.53 1.654-3.039 2.98l-.982.856-.614.535-.395.344c-.825.722-1.489 1.315-2.135 1.91-.1.093-.2.162-.303.222a1.95 1.95 0 0 1-.277.134l.182-.087c-.662.372-1.738.372-2.4 0l.156.076z"/>
    </g>
</svg>
