<svg xmlns="http://www.w3.org/2000/svg" width="29" height="20" viewBox="0 0 29 20">
    <g fill="none" fill-rule="evenodd">
        <path fill="#F4F7FB" fill-rule="nonzero" d="M20.747 3.498l2.684 2.785c.144.15.317.21.52.21h4.299c.404 0 .721-.33.721-.75 0-.419-.317-.748-.721-.748h-4.04L21.526 2.21a.682.682 0 0 0-.52-.21h-10.07a.813.813 0 0 0-.52.21L8.223 4.486l-.462.509h-4.04c-.404 0-.721.33-.721.749 0 .42.317.749.721.749H8.05c.202 0 .375-.09.52-.21l2.452-2.546.231-.24H12.811l-1.645 1.708c-.288.3-.288.778 0 1.048 1.414 1.467 3.636 1.527 5.108.21h3.03l3.319 3.414 1.875 1.887c.145.15.231.36.231.599 0 .21-.086.449-.23.599a.798.798 0 0 1-1.155 0l-2.049-2.127-1.212-1.258c-.288-.3-.75-.3-1.01 0a.737.737 0 0 0-.202.54c0 .21.058.389.202.539l1.04 1.078 2.221 2.306c.144.15.23.36.23.599 0 .21-.086.45-.23.599a.798.798 0 0 1-1.154 0l-2.424-2.516-.837-.868c-.289-.3-.75-.3-1.01 0a.737.737 0 0 0-.202.539c0 .21.058.389.202.539l.664.689 1.875 1.946c.145.15.231.36.231.6 0 .209-.086.449-.23.598a.798.798 0 0 1-1.155 0l-.779-.808-.029-.03-.779-.809c.029-.15.058-.33.058-.48 0-.149 0-.299-.03-.418a2.579 2.579 0 0 0-.605-1.228 2.272 2.272 0 0 0-1.5-.69 2.377 2.377 0 0 0-.664-1.557 2.164 2.164 0 0 0-1.588-.688c-.577 0-1.125.24-1.558.629-.115-.27-.26-.51-.462-.72a2.206 2.206 0 0 0-3.174 0l-.721.75c-.289.299-.462.658-.577 1.018H3.72c-.404 0-.721.33-.721.749s.317.748.721.748h2.251c.116.3.289.54.49.779.26.27.578.45.924.569a2.31 2.31 0 0 0-.115.779c0 .629.23 1.198.664 1.647.432.45 1.01.689 1.587.689.26 0 .49-.06.75-.12.115.36.288.689.548.958.433.45 1.01.69 1.587.69.52 0 1.01-.18 1.443-.54l.635.66a2.101 2.101 0 0 0 3.059 0c.288-.3.49-.63.577-1.02a2.2 2.2 0 0 0 2.366-.538c.26-.27.433-.6.549-.929.779.27 1.702.09 2.337-.569.404-.42.635-.988.664-1.557.548-.03 1.096-.24 1.5-.69.231-.239.375-.478.49-.778h2.252c.404 0 .721-.33.721-.749s-.317-.748-.721-.748h-2.194c-.115-.39-.288-.749-.577-1.049l-1.673-1.707-3.752-3.803a.663.663 0 0 0-.49-.21h-3.607a.813.813 0 0 0-.52.21 2.316 2.316 0 0 1-2.712.449l2.077-2.156h5.916zM7.473 12.962a.853.853 0 0 1-.231-.6c0-.209.087-.449.23-.598l.722-.749a.79.79 0 0 1 .577-.24c.231 0 .433.09.578.24.144.15.23.36.23.599 0 .21-.086.45-.23.599l-.491.51-.23.239c-.318.3-.838.3-1.155 0zm2.597 2.995a.798.798 0 0 1-1.154 0 .853.853 0 0 1-.231-.6c0-.209.086-.449.23-.598l.722-.749.721-.749 1.443-1.497a.841.841 0 0 1 .577-.24c.202 0 .404.09.578.24.144.15.23.36.23.599 0 .21-.086.449-.23.599l-2.886 2.995zm2.886 1.497a.798.798 0 0 1-1.155 0 .853.853 0 0 1-.23-.599c0-.21.086-.449.23-.599l2.165-2.246a.841.841 0 0 1 .577-.24c.202 0 .404.09.577.24.144.15.23.36.23.599 0 .21-.086.45-.23.599l-2.164 2.246zm3.549.809c-.289.3-.75.3-1.01 0l-.664-.659 1.155-1.198.519.54a.966.966 0 0 1 0 1.317z"/>
        <path fill="#F4F7FB" d="M28.946 5.873c0 .12-.37 1.706-.37 3.364 0 1.659.303 2.804.303 2.949 0 .144-2.264.561-3.414.9-1.15.34-1.45.93-2.014 1.543-.564.611-.036.982-.797 1.508-.762.526-1.467.189-1.99.419-.525.23-.624 1.113-1.201 1.284-.577.171-1.185-.369-1.851 0-.667.369.104.837-.882 1.247-.987.41-2.138-.132-2.631-.319-.493-.186-2.4 1.053-.664-.928 1.737-1.982 4.124-3.383 4.785-3.775.66-.39 1.186.415 1.587 0 .4-.414-.532-1.013 0-1.64.531-.629 1.501-.306 1.919-.626.417-.32 1.497-1.06.928-1.525-.57-.465-5.357-5.46-5.62-5.751-.263-.292-2.175-.589-.304-.931 1.87-.343 3.023-.926 3.933-.755.91.171.79.74 1.99 1.686 1.202.946 1.902 1.413 2.434 1.413.533 0 3.86-.184 3.86-.063z"/>
        <path fill="#94ACC4" fill-rule="nonzero" d="M17.747 1.498l2.684 2.785c.144.15.317.21.52.21h4.299c.404 0 .721-.33.721-.75 0-.419-.317-.748-.721-.748h-4.04L18.526.21a.682.682 0 0 0-.52-.21H7.937a.813.813 0 0 0-.52.21L5.223 2.486l-.462.509H.721c-.404 0-.721.33-.721.749 0 .42.317.749.721.749H5.05c.202 0 .375-.09.52-.21l2.452-2.546.231-.24H9.811L8.166 3.206c-.288.3-.288.778 0 1.048 1.414 1.467 3.636 1.527 5.108.21h3.03l3.319 3.414 1.875 1.887c.145.15.231.36.231.599 0 .21-.086.449-.23.599a.798.798 0 0 1-1.155 0l-2.049-2.127-1.212-1.258c-.288-.3-.75-.3-1.01 0a.737.737 0 0 0-.202.54c0 .21.058.389.202.539l1.04 1.078 2.221 2.306c.144.15.23.36.23.599 0 .21-.086.45-.23.599a.798.798 0 0 1-1.154 0l-2.424-2.516-.837-.868c-.289-.3-.75-.3-1.01 0a.737.737 0 0 0-.202.539c0 .21.058.389.202.539l.664.689 1.875 1.946c.145.15.231.36.231.6 0 .209-.086.449-.23.598a.798.798 0 0 1-1.155 0l-.779-.808-.029-.03-.779-.809c.029-.15.058-.33.058-.48 0-.149 0-.299-.03-.418a2.579 2.579 0 0 0-.605-1.228 2.272 2.272 0 0 0-1.5-.69 2.377 2.377 0 0 0-.664-1.557 2.164 2.164 0 0 0-1.588-.688c-.577 0-1.125.24-1.558.629-.115-.27-.26-.51-.462-.72a2.206 2.206 0 0 0-3.174 0l-.721.75c-.289.299-.462.658-.577 1.018H.72c-.404 0-.721.33-.721.749s.317.748.721.748h2.251c.116.3.289.54.49.779.26.27.578.45.924.569a2.31 2.31 0 0 0-.115.779c0 .629.23 1.198.664 1.647.432.45 1.01.689 1.587.689.26 0 .49-.06.75-.12.115.36.288.689.548.958.433.45 1.01.69 1.587.69.52 0 1.01-.18 1.443-.54l.635.66a2.101 2.101 0 0 0 3.059 0c.288-.3.49-.63.577-1.02a2.2 2.2 0 0 0 2.366-.538c.26-.27.433-.6.549-.929.779.27 1.702.09 2.337-.569.404-.42.635-.988.664-1.557.548-.03 1.096-.24 1.5-.69.231-.239.375-.478.49-.778h2.252c.404 0 .721-.33.721-.749s-.317-.748-.721-.748h-2.194c-.115-.39-.288-.749-.577-1.049l-1.673-1.707-3.752-3.803a.663.663 0 0 0-.49-.21h-3.607a.813.813 0 0 0-.52.21 2.316 2.316 0 0 1-2.712.449l2.077-2.156h5.916zM4.473 10.962a.853.853 0 0 1-.231-.6c0-.209.087-.449.23-.598l.722-.749a.79.79 0 0 1 .577-.24c.231 0 .433.09.578.24.144.15.23.36.23.599 0 .21-.086.45-.23.599l-.491.51-.23.239c-.318.3-.838.3-1.155 0zm2.597 2.995a.798.798 0 0 1-1.154 0 .853.853 0 0 1-.231-.6c0-.209.086-.449.23-.598l.722-.749.721-.749 1.443-1.497a.841.841 0 0 1 .577-.24c.202 0 .404.09.578.24.144.15.23.36.23.599 0 .21-.086.449-.23.599L7.07 13.957zm2.886 1.497a.798.798 0 0 1-1.155 0 .853.853 0 0 1-.23-.599c0-.21.086-.449.23-.599l2.165-2.246a.841.841 0 0 1 .577-.24c.202 0 .404.09.577.24.144.15.23.36.23.599 0 .21-.086.45-.23.599l-2.164 2.246zm3.549.809c-.289.3-.75.3-1.01 0l-.664-.659 1.155-1.198.519.54a.966.966 0 0 1 0 1.317z"/>
    </g>
</svg>
