<svg xmlns="http://www.w3.org/2000/svg" viewBox="0 0 58 60"><g fill="none"><path fill="#DEE0E4" d="M50.95 53.684c3.012-3.236 4.798-7.587 4.798-12.385 0-4.965-2.009-9.484-5.244-12.72-1.395 11.66-11.437 20.698-23.598 20.642h-5.858c2.957 6.192 9.205 10.432 16.513 10.376l19.916-.111-6.527-5.802zM27.63 4.759c-11.547-.056-20.92 9.26-20.92 20.808 0 5.467 2.065 10.432 5.524 14.17L4.758 46.43l22.761.056c11.548.056 20.92-9.316 20.92-20.808.056-11.548-9.26-20.92-20.808-20.92zm-5.8 27.28h-3.46v-9.317h3.46v9.316zm13.165 0H23.558v-9.373l5.189-5.69 2.231.39-1.562 4.854h7.754l-2.175 9.818z"/><path fill="#21224E" d="M46.192 48.925c3.012-3.235 4.797-7.587 4.797-12.384 0-4.965-2.008-9.484-5.244-12.72-1.394 11.66-11.436 20.697-23.598 20.641H16.29c2.957 6.193 9.205 10.433 16.513 10.377l19.916-.112-6.527-5.802zM22.872 0C11.326-.056 1.953 9.26 1.953 20.81c0 5.467 2.065 10.432 5.523 14.17L0 41.673l22.761.056c11.548.056 20.92-9.317 20.92-20.809C43.737 9.372 34.421 0 22.873 0zm-5.801 27.28h-3.459v-9.316h3.459v9.316zm13.166 0H18.8v-9.372l5.188-5.69 2.232.39-1.562 4.854h7.754l-2.175 9.818z"/></g></svg>