<svg xmlns="http://www.w3.org/2000/svg" width="37" height="24" viewBox="0 0 37 24">
    <g fill="none" fill-rule="evenodd">
        <path fill="#F4F7FB" d="M14.629 13.128c.83.33.856.208 1.163.347v-.098c-.056-.116-.056-.29-.056-.406v-.29c-.055-.407.166-.871.499-1.103 0-.116-.056-.29-.056-.406v-1.103c0-.465.11-.871.277-1.161.11-.233.332-.465.61-.58.055 0 .11-.059.22-.117.056 0 .056-.058.056-.058l.11-.116c.167-.232.333-.406.555-.522.055-.059.11-.059.166-.117a3.936 3.936 0 0 1 1.495-.29h.443c.72 0 1.329.116 1.938.348.11 0 .221.059.332.117.61.29 1.052.696 1.33 1.219.276.464.387 1.044.387 1.625-.056.406-.056.755-.166 1.103v.174c.332.29.443.755.443 1.103v.29c0 .104-.045.255-.054.369.585-.377.668-.397 1.327-.72v-.055h.056c.065-.02.127-.042.185-.063.088-.042.17-.075.247-.101.658-.308.611-.644.564-.94l-.055-.057-.055-.058h-.056l-.221-.349a3.97 3.97 0 0 1-.499-1.219c-.11-.058-.221-.116-.277-.232-.055-.116-.166-.232-.221-.348-.166-.29-.222-.58-.277-.87v-.117c-.055-.116-.055-.29-.055-.406v-.29c-.056-.407.166-.871.498-1.103 0-.116-.055-.29-.055-.407V5.018c0-.464.11-.87.277-1.16.11-.233.332-.465.609-.581.055 0 .11-.058.221-.116.056 0 .056-.058.056-.058l.055-.174c.166-.232.332-.407.554-.523.055-.058.11-.058.166-.116A3.936 3.936 0 0 1 28.86 2h.388c.664 0 1.329.116 1.882.348.111 0 .222.058.333.116.609.29 1.052.697 1.329 1.22.276.464.387 1.044.387 1.625-.055.348-.055.696-.166 1.045v.174c.388.29.498.754.498 1.103v.29c0 .116-.055.29-.055.406v.174c0 .116-.055.523-.277.871l-.055.058-.332.406-.111.117v.116c-.056.116-.056.232-.111.348l-.332.696c-.111.117-.166.175-.222.29l-.055.059-.11.174c-.056.348-.112.696.996 1.045 1.55.464 3.1 1.103 3.82 2.728.222.464.222.987.333 1.451v1.393c0 .407-.332.755-.72.755a.748.748 0 0 1-.256-.043c-1.607.103-6.44.05-9.82-.007a3.922 3.922 0 0 1 1.327 1.617c.166.465.221.929.221 1.277v1.393c0 .407-.332.755-.72.755a.65.65 0 0 1-.118-.011c-1.474-.01-12.216-.059-13.603-.072a.654.654 0 0 1-.177.025c-.388 0-.72-.348-.72-.755v-1.393c0-.348 0-.87.221-1.335.309-.701.857-1.252 1.494-1.682-3.531.001-8.733.005-10.147.002a.663.663 0 0 1-.262.055c-.388 0-.72-.349-.72-.755v-1.393c0-.348 0-.87.221-1.335.665-1.51 2.437-2.322 3.821-2.728 1.108-.349 1.052-.755.997-1.103l-.055-.058-.056-.058h-.055l-.222-.349a3.97 3.97 0 0 1-.498-1.219c-.11-.058-.221-.116-.277-.232-.055-.116-.166-.232-.221-.348-.166-.29-.222-.58-.277-.87v-.117c-.056-.116-.056-.29-.056-.406v-.29c0-.407.167-.871.499-1.103 0-.116-.056-.29-.056-.407V4.96c0-.464.111-.87.277-1.16.111-.233.333-.465.61-.581.055 0 .11-.058.221-.116.055 0 .055-.058.055-.058l.111-.116c.11-.232.277-.407.498-.523.056-.058.111-.058.167-.116A3.936 3.936 0 0 1 10.199 2h.387c.72 0 1.33.116 1.938.348.111 0 .222.058.333.116.609.29 1.052.697 1.329 1.22.277.464.387 1.044.387 1.625-.055.348-.055.696-.166 1.045v.174c.332.29.443.754.443 1.103 0 .116 0 .232.11.406 0 .116-.054.29-.054.406v.174c0 .117-.056.523-.277.871l-.056.058-.332.407-.11.116v.116c-.056.116-.056.232-.111.348l-.333.697c-.11.116-.166.174-.221.29l-.056.058-.11.174c-.056.348-.111.697.996 1.045.111.058.222.058.333.116v.215zm-3.666-9.545a3.385 3.385 0 0 0-.321-.016h-.333c-.332 0-.72.058-.94.174-.112 0-.112.058-.167.117l-.055.116c-.056.116-.167.232-.333.406-.166.116-.277.232-.498.348 0 .058-.055.174-.055.407-.056.29 0 .58 0 .928 0 .058.055.174.055.233 0 .232.055.464.055.754 0 .348-.166.58-.387.755l-.166.058v.058a.545.545 0 0 1 .055.29v.174c0 .058 0 .174.055.232l.056.058c0 .059.055.059.055.059l.11.058c.222.174.388.406.444.638.055.348.166.639.332.87l.16.211c.289-.003.58.186.81-.03.326-.306-.104-.393-.13-.794-.025-.402-.2-.696 0-1.241.2-.545.691-.823 1.117-1.794.425-.97.343-.815.385-1.633.043-.818-.157-.539-.244-1.092a8.728 8.728 0 0 0-.06-.344zm16.88 7.046c.38-.321.815.15 1.13-.147.327-.307-.103-.394-.129-.795-.025-.402-.2-.696 0-1.241.2-.545.691-.823 1.117-1.794.425-.97.106-.603.148-1.42.043-.819-.284-.486-.37-1.04a3.456 3.456 0 0 1-.026-.6 3.434 3.434 0 0 0-.41-.025h-.332c-.333 0-.72.058-.942.174-.11 0-.11.058-.166.117l-.055.116c-.056.116-.166.232-.332.406-.167.116-.277.232-.499.348 0 .058-.055.174-.055.407-.056.29 0 .58 0 .928 0 .058.055.174.055.233 0 .232.056.464.056.754 0 .348-.167.58-.388.755l-.166.058v.058c.055.116.055.174.055.29v.174c0 .058 0 .174.056.232l.055.058c0 .059.055.059.055.059l.111.058a.971.971 0 0 1 .443.638c.055.348.166.639.332.87l.222.291.036.038zm-9.002 5.574c.217.042.427.111.601-.052.327-.307-.104-.394-.13-.796-.025-.402-.2-.695 0-1.24.201-.545.692-.823 1.117-1.794.426-.97.344-.815.386-1.633.042-.818-.157-.539-.244-1.093a10.287 10.287 0 0 1-.12-1.07 3.426 3.426 0 0 0-.396-.024h-.332c-.332 0-.72.058-.941.174-.111.059-.111.117-.166.175l-.056.116c-.055.116-.166.232-.332.406-.166.116-.277.232-.498.348 0 .058-.056.174-.056.407-.055.29 0 .58 0 .928 0 .117.056.233.056.29 0 .233.055.465.055.755 0 .349-.166.58-.388.755l-.166.058v.058c.056.116.056.174.056.29v.174c0 .058 0 .174.055.233l.055.058c0 .058.056.058.056.058l.11.058c.222.232.388.406.444.696.055.349.166.639.332.871l.221.29.056.058c.117.164.179.3.225.446zm3.864.966c.005-.125.009-.246.019-.383l-.01.016a.9.9 0 0 0-.009.367z"/>
        <path fill="#CAD4E1" fill-rule="nonzero" d="M24.53 18.575c.167.465.222.929.222 1.277v1.393c0 .407-.332.755-.72.755-.387 0-.72-.348-.72-.755V19.91c0-.232 0-.522-.11-.754-.443-1.103-1.661-1.568-2.88-1.916-1.605-.464-2.27-1.393-2.048-2.786.055-.465.332-.755.553-1.103.056-.174.111-.348.166-.464v-.117c.056-.174.111-.464.277-.696.111-.174.222-.29.333-.348l.11-.117c0-.058.056-.116.056-.232.055-.116.055-.174.055-.232.055-.116.055-.232.055-.29v-.058a.887.887 0 0 1-.443-.465c-.11-.232-.055-.464-.055-.638V9.52c0-.116 0-.29.055-.465a3.55 3.55 0 0 0 .111-.754c0-.29-.055-.58-.166-.813-.166-.232-.388-.464-.664-.58-.056-.058-.167-.058-.222-.116a3.992 3.992 0 0 0-1.44-.29h-.332c-.332 0-.72.057-.941.173-.111.059-.111.117-.166.175l-.056.116c-.055.116-.166.232-.332.406-.166.116-.277.232-.498.348 0 .058-.056.174-.056.407-.055.29 0 .58 0 .928 0 .117.056.233.056.29 0 .233.055.465.055.755 0 .349-.166.58-.388.755l-.166.058v.058c.056.116.056.174.056.29v.174c0 .058 0 .174.055.233l.055.058c0 .058.056.058.056.058l.11.058c.222.232.388.406.444.696.055.349.166.639.332.871l.221.29.056.058c.166.232.221.407.277.639.221 1.393-.443 2.322-2.05 2.786-1.494.464-2.547 1.161-2.879 1.916-.055.174-.11.348-.11.696v1.393c0 .407-.333.755-.72.755-.388 0-.72-.348-.72-.755v-1.393c0-.348 0-.87.221-1.335.665-1.51 2.437-2.322 3.821-2.728 1.108-.348 1.052-.755.997-1.103l-.056-.058-.055-.058h-.055l-.222-.348a3.97 3.97 0 0 1-.498-1.22c-.111-.057-.222-.116-.277-.232-.055-.116-.166-.232-.222-.348-.166-.232-.221-.522-.276-.813v-.174c-.056-.116-.056-.29-.056-.406v-.29c-.055-.407.166-.871.499-1.103 0-.116-.056-.29-.056-.406V8.069c0-.465.11-.871.277-1.161.11-.233.332-.465.61-.58.055 0 .11-.059.22-.117.056 0 .056-.058.056-.058l.11-.116c.167-.232.333-.406.555-.522.055-.059.11-.059.166-.117a3.936 3.936 0 0 1 1.495-.29h.443c.72 0 1.329.116 1.938.348.11 0 .221.059.332.117.61.29 1.052.696 1.33 1.219.276.464.387 1.044.387 1.625-.056.406-.056.755-.166 1.103v.174c.332.29.443.755.443 1.103v.29c0 .116-.056.29-.056.406v.175c0 .116-.055.522-.277.87l-.055.058-.332.407-.111.116v.116c-.055.116-.055.232-.11.348-.112.232-.222.464-.333.697-.11.116-.166.174-.222.29l-.055.058-.11.174c-.056.348-.111.697.996 1.045 1.55.464 3.101 1.103 3.82 2.728zm9.138-5.166c.221.464.221.987.332 1.451v1.393c0 .407-.332.755-.72.755-.443 0-.72-.348-.72-.755v-1.335c0-.232 0-.522-.11-.754-.443-1.045-1.662-1.568-2.88-1.916-1.606-.464-2.27-1.393-2.049-2.786.056-.465.332-.755.554-1.103.055-.116.11-.29.166-.406v-.117c.055-.174.11-.464.277-.696.11-.174.221-.29.332-.348l.11-.117c0-.058.056-.116.056-.232.056-.116.056-.174.056-.232.055-.116.055-.174.055-.29v-.058a.887.887 0 0 1-.443-.465c-.11-.232-.055-.464-.055-.638v-.174c0-.116 0-.29.055-.465a3.55 3.55 0 0 0 .11-.754c0-.29-.055-.58-.165-.813-.166-.232-.388-.464-.665-.58-.055-.058-.166-.116-.221-.116a3.992 3.992 0 0 0-1.44-.29h-.332c-.333 0-.72.057-.942.173-.11 0-.11.058-.166.117l-.055.116c-.056.116-.166.232-.332.406-.167.116-.277.232-.499.348 0 .058-.055.174-.055.407-.056.29 0 .58 0 .928 0 .058.055.174.055.233 0 .232.056.464.056.754 0 .348-.167.58-.388.755l-.166.058v.058a.545.545 0 0 1 .055.29v.174c0 .058 0 .174.056.232l.055.058c0 .059.055.059.055.059l.111.058a.971.971 0 0 1 .443.638c.055.348.166.639.332.87l.222.291.055.058c.166.232.222.406.277.639.222 1.393-.443 2.321-2.049 2.786a2.62 2.62 0 0 1-.609.232c.055-.116.11-.29.11-.464v-.174c0-.175.056-.349.056-.523v-.464h.056c1.107-.349 1.052-.755.996-1.103l-.055-.058-.055-.058h-.056l-.221-.349a3.97 3.97 0 0 1-.499-1.219c-.11-.058-.221-.116-.277-.232-.055-.116-.166-.232-.221-.348-.166-.29-.222-.58-.277-.87v-.117c-.055-.116-.055-.29-.055-.406v-.29c-.056-.407.166-.871.498-1.103 0-.116-.055-.29-.055-.407V3.018c0-.464.11-.87.277-1.16.11-.233.332-.465.609-.581.055 0 .11-.058.221-.116.056 0 .056-.058.056-.058l.055-.174c.166-.232.332-.407.554-.523.055-.058.11-.058.166-.116A3.936 3.936 0 0 1 25.86 0h.388c.664 0 1.329.116 1.882.348.111 0 .222.058.333.116.609.29 1.052.697 1.329 1.22.276.464.387 1.044.387 1.625-.055.348-.055.696-.166 1.045v.174c.388.29.498.754.498 1.103v.29c0 .116-.055.29-.055.406v.174c0 .116-.055.523-.277.871l-.055.058-.332.406-.111.117v.116c-.056.116-.056.232-.111.348l-.332.696c-.111.117-.166.175-.222.29l-.055.059-.11.174c-.056.348-.112.696.996 1.045 1.55.464 3.1 1.103 3.82 2.728zM11.85 5.631c0 .116 0 .232.11.406 0 .116-.054.29-.054.406v.174c0 .117-.056.523-.277.871l-.056.058-.332.407-.11.116v.116c-.056.116-.056.232-.111.348l-.333.697c-.11.116-.166.174-.221.29l-.056.058-.11.174c-.056.348-.111.697.996 1.045.111.058.222.058.333.116v.406c0 .174.055.349.055.523v.116c0 .232.055.406.11.638-.276-.174-.608-.232-.94-.348-1.606-.464-2.27-1.393-2.05-2.786.056-.465.333-.755.554-1.103.056-.116.111-.29.166-.406v-.117c.056-.174.111-.464.277-.696.111-.174.222-.29.333-.348l.11-.117c0-.058.056-.116.056-.232.055-.116.055-.174.055-.232.055-.116.055-.174.055-.29v-.058a.887.887 0 0 1-.443-.465c-.11-.232-.055-.464-.055-.638v-.174c0-.116 0-.29.055-.465a3.55 3.55 0 0 0 .111-.754c0-.29-.055-.58-.166-.813a1.224 1.224 0 0 0-.61-.58c-.054-.058-.165-.116-.22-.116a3.992 3.992 0 0 0-1.44-.29h-.333c-.332 0-.72.057-.94.173-.112 0-.112.058-.167.117l-.055.116c-.056.116-.167.232-.333.406-.166.116-.277.232-.498.348 0 .058-.055.174-.055.407-.056.29 0 .58 0 .928 0 .058.055.174.055.233 0 .232.055.464.055.754 0 .348-.166.58-.387.755l-.166.058v.058a.545.545 0 0 1 .055.29v.174c0 .058 0 .174.055.232l.056.058c0 .059.055.059.055.059l.11.058c.222.174.388.406.444.638.055.348.166.639.332.87l.222.291.055.058c.166.232.221.406.277.639.221 1.393-.443 2.321-2.049 2.786-1.495.464-2.547 1.16-2.88 1.915-.055.175-.11.349-.11.697v1.393c0 .406-.333.755-.72.755-.388 0-.72-.349-.72-.755v-1.393c0-.348 0-.87.221-1.335.665-1.51 2.437-2.322 3.821-2.728 1.108-.349 1.052-.755.997-1.103l-.055-.058-.056-.058h-.055l-.222-.349a3.97 3.97 0 0 1-.498-1.219c-.11-.058-.221-.116-.277-.232-.055-.116-.166-.232-.221-.348-.166-.29-.222-.58-.277-.87v-.117c-.056-.116-.056-.29-.056-.406v-.29c0-.407.167-.871.499-1.103 0-.116-.056-.29-.056-.407V2.96c0-.464.111-.87.277-1.16.111-.233.333-.465.61-.581.055 0 .11-.058.221-.116.055 0 .055-.058.055-.058L5.04.929c.11-.232.277-.407.498-.523.056-.058.111-.058.167-.116A3.936 3.936 0 0 1 7.199 0h.387c.72 0 1.33.116 1.938.348.111 0 .222.058.333.116.609.29 1.052.697 1.329 1.22.277.464.387 1.044.387 1.625-.055.348-.055.696-.166 1.045v.174c.332.29.443.754.443 1.103z"/>
    </g>
</svg>
