<svg xmlns="http://www.w3.org/2000/svg" width="28" height="28" viewBox="0 0 28 28">
    <path fill="#94ACC4" fill-rule="nonzero" d="M14 28C6.253 28 0 21.747 0 14S6.253 0 14 0s14 6.253 14 14-6.253 14-14 14zm4.2-13.596c-.311-.373-.871-.373-1.151 0l-.622.778c-.343.436-.996.436-1.37 0l-2.27-2.769a1.03 1.03 0 0 0-1.587 0l-5.942 7.374c-.374.466-.374.995.28 1.617C6.596 22.431 8.99 25.231 14 25.231s7.716-3.111 8.524-4.013c.498-.53.56-.84.25-1.214l-4.574-5.6zm4.698-5.755a1.915 1.915 0 0 0-2.116-1.68 1.897 1.897 0 0 0-1.68 2.115 1.897 1.897 0 0 0 2.116 1.68 1.897 1.897 0 0 0 1.68-2.115z"/>
</svg>
