<svg xmlns="http://www.w3.org/2000/svg" viewBox="0 0 24 24"><g fill="none" fill-rule="evenodd" transform="translate(1 1)"><circle cx="11" cy="11" r="11" stroke="#D4D2D2" stroke-width="2"/><path fill="#D4D2D2" fill-rule="nonzero" d="M13.43 16.34l-.2.778a40.46 40.46 0 01-1.426.514 3.921 3.921 0 01-1.237.178c-.723 0-1.284-.17-1.685-.506-.4-.338-.6-.766-.6-1.284 0-.202.015-.408.045-.619.03-.21.078-.448.144-.713l.74-2.525c.067-.242.123-.471.168-.687a2.94 2.94 0 00.068-.593c0-.323-.07-.547-.208-.674-.139-.127-.403-.19-.795-.19-.192 0-.39.028-.591.086a8.363 8.363 0 00-.52.164l.199-.778c.488-.19.954-.353 1.4-.488a4.351 4.351 0 011.264-.204c.717 0 1.27.166 1.657.498.389.331.583.762.583 1.292 0 .11-.014.303-.04.58-.028.276-.077.53-.15.76l-.74 2.517a6.74 6.74 0 00-.163.692 3.525 3.525 0 00-.072.588c0 .334.078.562.235.683.156.12.427.181.813.181.18 0 .385-.03.614-.09.228-.061.394-.114.496-.16zm.189-10.558c0 .438-.173.81-.52 1.12a1.815 1.815 0 01-1.25.462c-.488 0-.906-.154-1.255-.463-.35-.308-.524-.681-.524-1.12 0-.438.174-.812.524-1.124.349-.31.767-.467 1.255-.467.488 0 .905.156 1.25.467.347.312.52.686.52 1.125z"/></g></svg>