<svg xmlns="http://www.w3.org/2000/svg" viewBox="0 0 120 32"><g fill="none" fill-rule="evenodd"><path fill="#21224E" d="M40.39 22.966c.07.176.094.352.073.527-.02.176-.045.351-.074.527a.66.66 0 01-.01.421c-.05.14-.074.281-.074.421a2.39 2.39 0 00-.126.422.534.534 0 01-.231.342 1.62 1.62 0 01-.105.448l-.169.421a.747.747 0 00-.305.382 1.34 1.34 0 01-.263.434.758.758 0 01-.23.264c-.1.07-.141.184-.127.342a.75.75 0 00-.442.369.823.823 0 01-.294.237 3.19 3.19 0 00-.337.184.735.735 0 01-.263.184 1.292 1.292 0 00-.284.158.264.264 0 00-.21.04c-.07.044-.14.083-.21.118a3.065 3.065 0 00-.8-.052 1.294 1.294 0 01-.757-.185.836.836 0 01-.368-.197 1.819 1.819 0 00-.347-.25 2.516 2.516 0 00-.547-.659 3.692 3.692 0 01-.074-.263.481.481 0 01.011-.263 4.361 4.361 0 01-.147-.435 2.528 2.528 0 01-.084-.434c.07-.07.143-.097.22-.08.078.018.155.045.232.08.077.035.154.066.231.092a.332.332 0 00.242-.013.28.28 0 01.274.04c.084.06.16.118.23.17.197.036.387.022.569-.04.182-.06.35-.179.505-.355.252-.14.448-.35.589-.632.168-.14.312-.311.43-.513l.369-.619c.112-.14.193-.298.242-.474a3.56 3.56 0 01.179-.5c.14-.492.189-1.018.147-1.58.028-.193-.007-.338-.105-.435a1.32 1.32 0 01-.253-.355.76.76 0 00-.378-.356 5.682 5.682 0 01-.442-.197 2.377 2.377 0 00-.547-.092 1.749 1.749 0 01-.547-.119 2.282 2.282 0 01-.988-.118 1.794 1.794 0 01-.863-.646 1.601 1.601 0 00-.22-.42 4.824 4.824 0 01-.264-.396 1.158 1.158 0 01-.094-.434.54.54 0 01.136-.409c.057-.07.07-.158.043-.263-.029-.105-.008-.193.063-.263.238.017.48.004.725-.04.246-.044.488-.1.726-.17a1.93 1.93 0 00.736-.58c.21-.264.407-.527.59-.79.111-.21.202-.43.272-.659.07-.228.148-.456.232-.684a2.31 2.31 0 00.031-.79 1.274 1.274 0 00-.305-.685c-.14-.193-.287-.382-.441-.566a1.032 1.032 0 00-.547-.356.384.384 0 00-.347-.131.649.649 0 01-.368-.053.6.6 0 00-.39.08.6.6 0 01-.389.078.678.678 0 01-.178.08c-.063.017-.109.07-.137.157-.014.299-.06.597-.137.895a4.395 4.395 0 00-.136.896 2.513 2.513 0 01-.085.46 4.77 4.77 0 00-.105.461h.021v.053c-.014.018-.02.044-.02.08-.029.333-.07.662-.127.987-.056.324-.12.654-.19.987a15.41 15.41 0 01-.083 1.172c-.042.377-.078.768-.106 1.172-.07.175-.101.35-.094.526.007.176-.01.352-.053.527a3.67 3.67 0 00-.042.961c.028.325.007.645-.063.961a.159.159 0 000 .158.159.159 0 010 .158 3.4 3.4 0 00-.074.962c.021.324.01.654-.031.987-.014.457 0 .913.042 1.37.042.456.056.912.042 1.369a.692.692 0 01.042.58.997.997 0 01-.2.197c-.063.043-.13.1-.2.17a.381.381 0 00-.241.027.577.577 0 01-.242.053 2.74 2.74 0 01-.905-.58l-.084-.105a.261.261 0 00-.105-.079 5.747 5.747 0 01-.284-1.593 25.505 25.505 0 00-.116-1.646 8.027 8.027 0 010-1.422 9.63 9.63 0 00.021-1.422c.07-.614.116-1.242.137-1.883.021-.64.067-1.277.137-1.909.07-.316.105-.636.105-.961 0-.325.028-.654.084-.988l.084-.434a1.53 1.53 0 00.021-.435c.098-.28.154-.575.168-.882a4.95 4.95 0 01.127-.908c0-.123.014-.255.042-.395.028-.14.056-.277.084-.408.028-.132.038-.26.031-.382a.837.837 0 00-.115-.369l-.169-.263a.335.335 0 00-.23-.158 6.547 6.547 0 00-.138-.408 19.324 19.324 0 00-.157-.409c.168-.105.35-.18.546-.223a1.73 1.73 0 00.547-.224c.014-.123.05-.198.106-.224a.366.366 0 01.2-.026c.076.008.154.022.23.04a.383.383 0 00.2 0 .487.487 0 01.4-.093c.154.026.28-.048.379-.224a3.525 3.525 0 011.136.026c.378.07.757.08 1.135.027a.084.084 0 00-.02.052.084.084 0 01-.022.053c.14.105.288.189.442.25.154.062.302.145.442.25.378.176.729.426 1.051.75a8.2 8.2 0 01.905 1.094c.098.07.175.167.231.29.056.122.12.236.19.342.084.263.189.509.315.737.126.228.21.492.252.79.014.176.029.342.043.5.014.158.035.325.063.5a6.28 6.28 0 01-.284 1.58c-.162.51-.368.984-.62 1.423a1.25 1.25 0 01-.18.224c-.063.061-.13.118-.2.17-.041.089-.027.154.043.198.07.044.126.084.168.119.084.088.172.162.263.224.091.061.186.127.284.197.112.246.263.448.452.606.19.158.34.36.452.605.126.211.242.43.347.659.105.228.207.465.305.71a1.12 1.12 0 00.063.488c.056.15.078.32.063.513zm3.232 3.13a49.67 49.67 0 001.373-.061c.462-.027.923-.04 1.384-.04.461 0 .919.023 1.373.07a7.06 7.06 0 011.344.273c.347.068.631.25.852.547.22.297.297.62.23.972a1.616 1.616 0 01-.18.192c-.067.06-.137.111-.21.152a.49.49 0 01-.241.06.466.466 0 01-.27-.1 13.083 13.083 0 00-2.056-.122 11.654 11.654 0 01-2.055-.142c-.254.027-.501.057-.742.091-.24.034-.475.098-.702.192a.843.843 0 01-.752.051 4.135 4.135 0 01-.712-.354 3.808 3.808 0 00-.21-.365 1.82 1.82 0 01-.2-.414.999.999 0 01-.05-.415c.013-.135.086-.257.22-.365.267-.027.535-.06.802-.101l.802-.121zm-.014-16.453c.042 0 .08.003.115.01.035.006.074.01.116.01.35-.129.673-.116.968.038l.294-.068c.028-.006.032-.003.01.01l-.094.058c-.042.025-.05.044-.021.057.07.051.144.106.22.164.078.057.172.054.285-.01.238-.051.483-.087.736-.106.252-.019.498.01.736.087.266.025.519.086.757.182.239.096.449.234.631.414.154.064.284.153.39.269.105.115.234.211.388.288.07.102.123.205.158.307a.545.545 0 00.221.27l.21.307c.07.102.155.205.253.307.126.257.238.513.336.77.099.256.148.525.148.806.014.18.056.36.126.539.07.179.07.358 0 .538a.51.51 0 00.052.105.189.189 0 01.032.106.896.896 0 00-.053.52c.035.166.046.339.032.518a.672.672 0 01-.01.423.794.794 0 00-.032.423.397.397 0 01-.042.355.49.49 0 00-.063.375v.73c-.084.103-.105.231-.063.385a.294.294 0 00-.042.26.252.252 0 01-.043.24c-.028.14-.049.285-.063.432a.898.898 0 01-.147.413.463.463 0 01-.063.404.383.383 0 00-.042.384.69.69 0 01-.095.135.327.327 0 00-.073.153 1.388 1.388 0 01-.21.587 7.915 7.915 0 00-.316.528.527.527 0 00-.21.27c-.043.115-.14.166-.295.153a.222.222 0 00-.158.106 4.157 4.157 0 00-.094.163.967.967 0 01-.316.135.758.758 0 00-.294.134c-.225.064-.446.128-.663.192a5.814 5.814 0 01-.662.154 3.81 3.81 0 00-.716-.01 1.94 1.94 0 01-.694-.067 1.118 1.118 0 00-.347-.096 2.994 2.994 0 01-.347-.058c-.042-.128-.137-.201-.284-.22-.147-.02-.249-.08-.305-.183a1.795 1.795 0 00-.484-.346 1.616 1.616 0 01-.483-.365 15.467 15.467 0 01-.453-.471 1.535 1.535 0 01-.326-.548 9.245 9.245 0 00-.22-.519 1.94 1.94 0 01-.158-.538 6.566 6.566 0 00-.253-1.047 3.01 3.01 0 01-.147-1.067 4.66 4.66 0 01-.126-1.067c0-.352.014-.708.042-1.066-.014-.27 0-.535.042-.798s.063-.522.063-.778c.028-.18.063-.346.105-.5.042-.154.063-.32.063-.5l.127-.528c.042-.173.063-.35.063-.529.112-.23.203-.464.273-.701.07-.238.154-.478.253-.721a.7.7 0 00.126-.202c.028-.07.056-.138.084-.202.084-.077.154-.157.21-.24.056-.083.112-.176.169-.279.112-.064.224-.125.336-.182.112-.058.224-.125.337-.202zm1.556 1.537a4.585 4.585 0 00-.368.875 13.53 13.53 0 01-.305.894v.26c0 .082.014.169.042.259a.302.302 0 00-.105.23c0 .09-.007.173-.021.25a.496.496 0 00-.095.317 1.11 1.11 0 01-.031.336.45.45 0 01.052.164c.007.058-.024.1-.094.125-.028.32-.063.634-.106.942a3.04 3.04 0 00.022.941c-.085.282-.095.56-.032.836.063.276.102.56.116.856.014.333.073.656.178.97.106.314.165.638.18.97.083.129.157.26.22.395.063.134.13.272.2.413a.444.444 0 01.074.202c.007.07.045.118.115.144.154.051.27.144.347.279.077.134.186.24.326.317.056.064.116.077.18.038a.346.346 0 01.178-.057.833.833 0 00.252 0 1.2 1.2 0 00.232-.058c.21-.244.389-.503.536-.779.147-.275.249-.56.305-.855.07-.18.116-.362.137-.548a2.17 2.17 0 01.136-.547c0-.141.018-.273.053-.394a.753.753 0 00.01-.375c.029-.154.057-.31.085-.47a2.75 2.75 0 00.042-.472c.028-.32.06-.637.094-.951a6.14 6.14 0 00.032-.952 1.5 1.5 0 00.01-.586 3.476 3.476 0 01-.052-.605 2.007 2.007 0 01-.053-.365 2.411 2.411 0 00-.052-.385c-.028-.013-.039-.041-.032-.086a.812.812 0 00.01-.125.495.495 0 00-.01-.106c-.007-.032-.038-.048-.095-.048a1.802 1.802 0 01-.02-.279.291.291 0 00-.127-.24.457.457 0 00-.179-.413 1.138 1.138 0 01-.305-.375c-.07-.102-.136-.202-.2-.298a2.063 2.063 0 00-.22-.278.382.382 0 01-.168-.116.704.704 0 00-.316-.22c-.056-.02-.126-.01-.21.028-.127.09-.21.1-.253.029a1.82 1.82 0 01-.105-.202.476.476 0 01-.294.087 1.097 1.097 0 00-.316.028zm15.523 3.518a.53.53 0 01-.074.21.375.375 0 00-.052.211c.028.035.049.053.063.053a.334.334 0 00-.042.158.612.612 0 01-.021.158 1.937 1.937 0 00-.063.5c-.07.246-.14.487-.21.724a1.62 1.62 0 01-.337.62 5.7 5.7 0 01-.778.157c-.085.018-.155-.013-.21-.092-.057-.08-.134-.101-.232-.066a2.02 2.02 0 00-.347-.421 1.179 1.179 0 01-.305-.474 3.28 3.28 0 00-.19-.356.597.597 0 01-.084-.382c.014-.052.035-.118.063-.197a.34.34 0 00.021-.198.564.564 0 00.043-.21.169.169 0 00.042-.106c.014-.245.042-.496.084-.75a2.406 2.406 0 000-.777c-.07-.316-.137-.654-.2-1.014s-.214-.636-.452-.83a.68.68 0 00-.6.198 4.128 4.128 0 01-.536.435c-.154.193-.298.39-.431.592-.134.202-.27.417-.41.645a3.008 3.008 0 01-.463 1.001.81.81 0 01-.053.277 7.506 7.506 0 00-.094.276c-.014.035-.01.08.01.132.021.052-.003.088-.074.105-.056.193-.112.39-.168.593a3.066 3.066 0 00-.105.618.454.454 0 01-.084.33c-.07.096-.084.215-.042.355l-.042.685a2.576 2.576 0 01-.126.658.21.21 0 00-.021.158.612.612 0 01.02.158c-.07.228-.101.46-.094.698a3.3 3.3 0 01-.053.698c-.07.298-.098.61-.084.935.014.324 0 .636-.042.934.028.404.05.808.063 1.212.014.404.056.799.126 1.185l-.042.21a.27.27 0 00.021.185.59.59 0 01.095.276l.021.303c.007.105.021.202.042.29a.496.496 0 00.137.237c.07.333.196.605.378.816a.71.71 0 01.369.237c.105.123.227.22.368.29.084-.018.171-.031.263-.04a.387.387 0 00.241-.118c.127-.123.267-.21.421-.264a.815.815 0 00.4-.316c.07-.087.136-.162.2-.223a.547.547 0 00.136-.277c.14-.228.239-.474.295-.737.056-.264.126-.527.21-.79a5.48 5.48 0 00.116-1.014c.007-.342-.004-.69-.032-1.04 0-.14.05-.237.147-.29a.992.992 0 01.295-.105c.21.088.428.14.652.158.224.017.435.096.631.237.309.333.487.759.536 1.277a4.02 4.02 0 01-.115 1.461.911.911 0 00-.01.37c.02.14-.025.227-.138.262a4.36 4.36 0 00-.147.435c-.042.15-.09.294-.147.434a.734.734 0 01-.126.237.734.734 0 00-.126.237.862.862 0 01-.295.37.565.565 0 00-.231.394 1.807 1.807 0 00-.316.132.655.655 0 00-.252.263 2.15 2.15 0 01-.4.171.972.972 0 00-.378.224c-.351.035-.698.075-1.042.119-.343.043-.69.03-1.04-.04a1.627 1.627 0 01-.705-.276 9.88 9.88 0 01-.62-.461.926.926 0 00-.485-.21 1.486 1.486 0 00-.22-.304 5.385 5.385 0 00-.263-.25c-.169-.298-.372-.483-.61-.553a.523.523 0 00-.053-.237l-.105-.21a1.995 1.995 0 01-.095-.224.463.463 0 010-.277 4.717 4.717 0 01-.242-.895 13.063 13.063 0 01-.115-.896 72.886 72.886 0 01-.116-1.145 20.38 20.38 0 01-.074-1.146c.014-.087.035-.17.063-.25a.382.382 0 000-.25c.028-.21.06-.426.095-.645.035-.22.046-.443.032-.672.042-.193.06-.395.052-.605-.007-.21-.01-.422-.01-.632.028-.14.045-.281.052-.422.007-.14.025-.28.053-.42a1.22 1.22 0 00.105-.501c0-.176.014-.351.042-.527a.217.217 0 00-.01-.197c-.035-.062-.032-.128.01-.198a.834.834 0 00.105-.5.752.752 0 01.126-.5.167.167 0 00.032-.132 1.03 1.03 0 01-.01-.132v-.079h.042c.07-.035.077-.1.02-.197-.055-.097-.055-.172 0-.224-.013-.07.004-.123.053-.158.05-.035.074-.088.074-.158.028-.123.066-.228.115-.316.05-.088.088-.193.116-.316.084-.44.228-.843.431-1.212l.6-1.08a9.7 9.7 0 00.725-.67c.232-.238.488-.435.768-.593.14-.07.277-.14.41-.21.134-.071.277-.124.432-.159a.612.612 0 01.273-.053.27.27 0 00.252-.158c.155.018.32 0 .495-.052.175-.053.319.009.43.184.562.105 1.067.386 1.515.843.056.088.123.167.2.237.077.07.15.145.221.224.07.079.133.162.19.25a.993.993 0 01.125.316c.14.14.25.311.327.513.077.202.143.408.2.62.112.315.189.635.23.96.043.325.099.654.169.988zm9.76 12.719c.014.123.042.232.084.329a.514.514 0 01.02.33.733.733 0 01-.104.315 2.48 2.48 0 00-.148.263 2.86 2.86 0 01-.683.237.81.81 0 01-.684-.158c-.154-.017-.27-.122-.347-.316-.077-.193-.186-.324-.326-.395-.014-.035-.028-.057-.042-.065a.174.174 0 01-.042-.04c.028-.035.021-.07-.021-.105a.223.223 0 00-.147-.053 3.334 3.334 0 01-.2-.632 7.753 7.753 0 01-.116-.685c-.07-.403-.147-.803-.231-1.198a42.964 42.964 0 00-.274-1.198 73.71 73.71 0 01-.536-.105.949.949 0 00-.536.052 5.467 5.467 0 00-1.241-.21 1.937 1.937 0 01-.18-.053.826.826 0 01-.157-.079.242.242 0 00-.158.119c-.035.061-.038.136-.01.223a.386.386 0 01.031.264 1.127 1.127 0 00-.031.263c-.028.21-.042.426-.042.645 0 .22-.05.426-.147.62v.328a.693.693 0 01-.064.303c.028.193.014.382-.042.566a.973.973 0 000 .566c.07.14.074.26.01.356a.747.747 0 00-.115.33c-.154.07-.245.175-.273.315a1.038 1.038 0 00-.284.158c-.091.07-.193.132-.305.184-.112.07-.207.066-.284-.013-.077-.079-.172-.092-.284-.04a.54.54 0 01-.442-.091.964.964 0 00-.441-.172.624.624 0 01-.064-.092.624.624 0 00-.063-.092.625.625 0 00.074-.408 1.814 1.814 0 01-.01-.435c.07-.193.09-.403.063-.632a1.075 1.075 0 01.105-.632c.028-.298.06-.596.094-.895.035-.298.06-.597.074-.895a4.39 4.39 0 01.158-1.014 5.4 5.4 0 00.178-1.014c.057-.28.095-.557.116-.83a4.45 4.45 0 01.137-.803c.07-.228.123-.456.158-.684.035-.228.087-.457.157-.685.056-.58.165-1.15.326-1.712.162-.561.298-1.123.41-1.685.07-.14.134-.29.19-.448.056-.158.091-.333.105-.526.098-.334.207-.659.326-.975.12-.316.22-.65.305-1a2.13 2.13 0 01.21-.62c.099-.183.162-.39.19-.618.182-.474.322-.94.42-1.396.07-.052.106-.14.106-.263.182-.246.4-.39.652-.434.252-.044.497-.128.736-.25.112.07.224.127.336.17.112.044.225.093.337.145.07.088.161.176.273.264.112.088.169.21.169.368.112.246.192.5.241.764.05.263.081.544.095.843.07.246.109.491.116.737.007.246.045.492.115.737.043.299.074.606.095.922.021.316.067.623.137.922v.079c.014.052.02.1.02.145 0 .043.008.083.022.118.084 1.194.19 2.423.315 3.687.07.193.113.39.127.592.014.202.049.4.105.593a2.39 2.39 0 00.052.921c.077.299.13.597.158.896.042.158.07.32.084.487.014.167.035.33.063.487.113.193.176.4.19.619l.042.645c.084.14.126.299.126.474 0 .176.02.342.063.5.056.211.105.426.147.646.042.219.077.434.105.645a.32.32 0 00.085.224c.056.061.063.144.02.25zm-3.618-5.478a3.405 3.405 0 00-.137-.83 2.448 2.448 0 01-.095-.829 38.395 38.395 0 01-.284-2.014 28.162 28.162 0 01-.157-2.04c-.028-.054-.07-.071-.126-.054a1.174 1.174 0 00-.085.237c-.028.176-.073.33-.136.461-.063.132-.074.294-.032.487-.07.14-.13.281-.179.422-.049.14-.101.28-.157.421-.028.035-.028.08 0 .132a.159.159 0 010 .158 1.8 1.8 0 00-.106.619 1.8 1.8 0 01-.105.618c-.028.14-.06.281-.094.422a8.81 8.81 0 00-.095.421c-.042.14-.088.285-.137.435a1.135 1.135 0 00-.052.46.85.85 0 01.347.198.378.378 0 00.368.092c.21.053.42.097.63.132.211.035.421.052.632.052zm8.918-12.324c.855.018 1.704.101 2.545.25.841.15 1.69.25 2.545.303.365.036.69.18.978.435.288.254.544.549.768.882.056.878.042 1.742-.042 2.594a60.91 60.91 0 01-.305 2.541c-.12.843-.224 1.69-.316 2.541a14.943 14.943 0 00-.052 2.568c.028.298.028.597 0 .895l-.084.909c-.028.307-.05.61-.063.908-.014.299 0 .597.042.895.322.14.617.373.883.698.267.325.484.68.652 1.067.028.544.046 1.084.053 1.62.007.535-.004 1.075-.032 1.619-.112.105-.2.246-.263.421a6.299 6.299 0 01-.21.514 1.406 1.406 0 01-.274.408c-.105.105-.241.131-.41.079-.238-.035-.424-.176-.557-.422a5.983 5.983 0 00-.431-.684 1.569 1.569 0 01-.032-.896c.077-.28.13-.57.158-.869-1.234 0-2.454-.004-3.66-.013a102.46 102.46 0 00-3.66.04.78.78 0 00-.231.447 4.466 4.466 0 00-.053.527 6.66 6.66 0 01-.042.527.866.866 0 01-.179.447c-.168.246-.385.387-.652.422a1.215 1.215 0 01-.746-.132 1.291 1.291 0 01-.547-.58c-.133-.263-.15-.579-.053-.947a7.87 7.87 0 00.158-.909c.035-.307.077-.614.126-.921.05-.308.109-.606.179-.896.07-.29.182-.566.337-.83.07-.227.203-.372.4-.434a26.9 26.9 0 01.567-.17.99.99 0 00.442-.251c.112-.114.119-.356.02-.724.043-1.264.134-2.52.274-3.766s.309-2.488.505-3.726.407-2.471.631-3.7a168.7 168.7 0 00.631-3.687zm2.188 2.765a6.148 6.148 0 00-.274 1.528 9.574 9.574 0 01-.21 1.553c-.197.808-.354 1.62-.473 2.436-.12.817-.221 1.646-.305 2.489a6.783 6.783 0 00-.263 1.224c-.05.413-.085.83-.106 1.251-.02.421-.038.843-.052 1.264a12.8 12.8 0 01-.105 1.264c.967.035 1.935.035 2.902 0l.084-.105a.42.42 0 00.064-.106c.098-1.527.164-3.054.2-4.582.034-1.527.13-3.045.283-4.555a13.39 13.39 0 01.21-1.83c.113-.606.14-1.216.085-1.83a7.881 7.881 0 00-1.02-.04 38.42 38.42 0 00-1.02.04zm7.252-2.738c.238-.053.487-.08.746-.08.26 0 .512.036.758.106.245.07.47.189.673.356.203.166.368.408.494.724.435 1.545.95 3.046 1.546 4.503a76.118 76.118 0 011.651 4.424c.028.035.063.083.105.145.042.061.077.11.105.144.113-.684.165-1.378.158-2.08a9.495 9.495 0 01.2-2.054 22.08 22.08 0 00.242-1.554c.063-.526.126-1.049.19-1.566.062-.518.14-1.036.23-1.554.092-.518.221-1.023.39-1.514.21-.035.438-.057.683-.066.246-.009.477.022.694.092.218.07.414.189.59.356.175.166.304.408.388.724a.96.96 0 01.137.592 3.105 3.105 0 01-.126.606 8.66 8.66 0 00-.168.619c-.05.21-.046.421.01.632a173.415 173.415 0 00-.431 3.265A104.321 104.321 0 0194 19.727c.07.246.098.483.084.711a8.21 8.21 0 01-.074.698c-.035.237-.073.474-.115.711-.043.237-.064.47-.064.698a61.018 61.018 0 01-.41 1.896 6.196 6.196 0 01-.704 1.764 2.02 2.02 0 00-.463.5c-.126.194-.252.391-.379.593a7.68 7.68 0 01-.4.58 1.55 1.55 0 01-.504.434c-.449.21-.915.39-1.399.54-.484.15-.95.092-1.399-.171a1.853 1.853 0 01-.704-.422 5.574 5.574 0 01-.579-.645 16.18 16.18 0 01-.526-.724 3.815 3.815 0 00-.567-.658 8.947 8.947 0 01-.21-1.277 2.237 2.237 0 01.21-1.225c.14-.263.312-.46.515-.592.203-.132.42-.22.652-.264.231-.044.47-.048.715-.013s.473.088.684.158a.642.642 0 01.252.277c.07.131.116.267.137.408.02.14.01.285-.032.434a.543.543 0 01-.231.33c-.253.245-.4.583-.442 1.013-.042.43 0 .821.126 1.172.365.018.691-.123.978-.421a4.45 4.45 0 00.726-1c.154-.3.32-.598.494-.896a2.29 2.29 0 00.305-1 70.685 70.685 0 00-.578-.514 8.438 8.438 0 01-.557-.54 67.996 67.996 0 01-2.22-5.32 224.457 224.457 0 01-1.945-5.503 1.828 1.828 0 00-.116-.461 8.523 8.523 0 01-.168-.487 1.55 1.55 0 01-.074-.461c0-.15.056-.285.169-.408zm15.359.052c.42-.07.845-.1 1.272-.092.428.009.852.031 1.273.066l1.262.105c.42.036.841.053 1.262.053.154.053.315.11.484.171a2.3 2.3 0 01.473.237c.147.097.273.224.379.382.105.158.171.351.2.58a16.5 16.5 0 01.052 1.935 45.5 45.5 0 01-.105 1.935c-.05.65-.095 1.3-.137 1.95a17.83 17.83 0 00-.021 1.948 76.66 76.66 0 00-.074 3.818c.007 1.282.067 2.554.18 3.818-.029.299-.05.606-.064.922-.014.316-.133.57-.358.764a2.537 2.537 0 00-.63.026c-.21.035-.421.026-.632-.026a41.85 41.85 0 01-.347-.553 5.88 5.88 0 01-.326-.606 2.562 2.562 0 01-.231-1.396 52.98 52.98 0 01-.2-6.754c.077-2.256.193-4.516.347-6.78-.21 0-.42-.032-.63-.093a8.944 8.944 0 00-.621-.158 2.883 2.883 0 00-.61-.066 1.26 1.26 0 00-.6.158 57.97 57.97 0 01-.242 4.82c-.147 1.597-.29 3.194-.43 4.792a99.877 99.877 0 00-.159 1.606 19.89 19.89 0 01-.21 1.606c-.091.527-.214 1.04-.368 1.54a6.28 6.28 0 01-.631 1.41c-.631.72-1.374 1.062-2.23 1.027a4.579 4.579 0 01-.82-.408 5.158 5.158 0 01-.757-.58 3.734 3.734 0 01-.631-.763 3.562 3.562 0 01-.42-.988c0-.298-.008-.57-.022-.816a5.065 5.065 0 01.021-.79 1.64 1.64 0 01.495-.316c.175-.07.347-.15.515-.237.21.088.417.18.62.276.204.097.382.25.537.461.042.21.098.483.168.816.07.334.126.606.168.817.239-.334.393-.72.463-1.159.07-.439.147-.86.231-1.264.14-1.246.263-2.493.368-3.74.106-1.246.221-2.5.348-3.765a6.237 6.237 0 01.063-1.145c.056-.378.115-.755.178-1.133.064-.377.113-.755.148-1.132.035-.378.024-.76-.032-1.146l.168-.895a9.83 9.83 0 00.127-.895c.112-.088.23-.158.357-.21.126-.054.253-.097.379-.133zm9.353-.079a4.65 4.65 0 01.715-.052c.253 0 .495.035.726.105.231.07.442.193.631.369.19.175.326.421.41.737.042.386.053.773.032 1.159-.021.386-.046.772-.074 1.158a22.5 22.5 0 00-.053 1.16c-.007.385.025.772.095 1.158a9.274 9.274 0 00-.126 1.514c0 .5.007 1.005.021 1.514.014.51.018 1.014.01 1.514-.007.5-.217 2.7-.315 3.192.154-.176.442-1.295.547-1.541.105-.246.207-.496.305-.75.098-.255.193-.51.284-.764.09-.255.2-.488.326-.698.168-.281.305-.584.41-.909.105-.324.21-.654.315-.987.106-.334.218-.659.337-.975.12-.316.27-.605.452-.869.35-.895.68-1.79.989-2.686.308-.895.662-1.79 1.125-2.58.463-.79 1.171-.874 1.83-.558.098.176.53.391.642.558.112.167.108.504.2.68.09.175.16.364.21.566.049.202.066.417.052.645a129.178 129.178 0 00-.305 6.373c-.049 2.124-.049 3.835-.105 5.977-.07.281-.014.585 0 .883l-.042.882c.014.298.01.588-.01.869-.021.28-.095.553-.221.816a1.292 1.292 0 00-.368.171 5.44 5.44 0 00-.347.25c-.169 0-.333-.026-.495-.079a4.65 4.65 0 00-.494-.131 2.94 2.94 0 01-.442-1.317c-.042-.474.035-1.51.063-1.527.056-1.019.018-1.611-.01-2.62a31.511 31.511 0 01.063-3.042c-.056-.562 0-1.11 0-1.645 0-.536.161-2.365.273-2.891-.196.246-.476 1.617-.61 1.925-.133.307-.33.834-.441 1.176-.112.342-.228.68-.347 1.014-.12.333-.667 1.332-.836 1.63-.598 1.354-.832 2.018-1.358 3.229-.526 1.211-.763 1.961-1.324 3.172a.945.945 0 01-.305.474.859.859 0 01-.452.211.866.866 0 00-.368.026l-.358.106a4.6 4.6 0 01-.368.092.79.79 0 01-.378-.013 3.389 3.389 0 01-.726-1.29 3.538 3.538 0 01-.137-1.554c.098-2.09.09-3.937.11-6.017.021-2.08.088-4.165.2-6.255a4.86 4.86 0 01-.052-.842c.007-.281.017-.562.031-.843.014-.28.018-.562.01-.843a3.501 3.501 0 00-.115-.816l.168-.21zm-98.113.817C13.339 9.477 14.954 9 16.63 9c2.543 0 7.119 1.2 6.936 7.516-.183 6.316-3.48 14.461-7.574 14.514-1.6 0-2.897-.733-4.206-.803-1.31.07-2.607.803-4.207.803C3.485 30.977.19 22.832.005 16.516-.178 10.2 4.398 9 6.941 9c1.676 0 3.29.477 4.845 1.432z"/><path fill="#FFF" d="M11.92 12.56v15.638c.416.44 1.482.7 3.197.777 2.708.123 5.645-2.323 4.84-7.56 1.486-.89 2.135-3.27 1.966-5.09-.423-4.524-3.55-5.388-6.343-5.116-1.862.181-3.082.632-3.66 1.35z"/><path fill="#21224E" d="M14.488 18.263c.584.59 4.498-.941 3.1-2.693-1.397-1.751-3.684 2.102-3.1 2.693zm-.37 2.307c-.581.594 1.02 4.48 2.746 3.053 1.727-1.428-2.166-3.647-2.747-3.053zM11.657 6.012c.332-1.547 1.347-3.463 2.3-4.204C15.173.865 15.817.672 18.252 0c.099.193.044 2.994-.893 4.382-.795 1.18-3.337 2.664-5.01 2.834.285.584.428 1.03.428 1.137 0 .155-.13.323-.39.505-.315.05-.556.002-.725-.144-.253-.219-.393-1.347-1.623-2.626-1.23-1.28-2.534-1.6-2.77-1.82-.234-.22-.36-.635-.188-.943.173-.307.321-.298.616-.298s1.778.52 3.095 1.901c.33.345.618.717.865 1.084z"/></g></svg>