<svg xmlns="http://www.w3.org/2000/svg" width="116" height="35" viewBox="0 0 116 35">
    <g fill="none" fill-rule="evenodd">
        <path fill="#659A2B" d="M9.605 28.542L12.348 32h-1.625l-2.73-3.458 2.457-2.925h1.677l-2.522 2.925zm-3.068 0L3.794 32H2.182l2.743-3.471-2.509-2.912H4.08l2.457 2.925zM7.954 32H6.589v-6.383h1.365V32zm8.359.728c-.269.615-.591 1.062-.968 1.339-.378.277-.839.416-1.385.416-.173 0-.351-.01-.533-.032a3.813 3.813 0 0 1-.52-.098v-1.157c.156.017.295.03.416.039.121.009.238.013.351.013.295 0 .557-.06.787-.182.23-.121.43-.373.604-.754l.26-.598-2.548-6.097h1.469l1.82 4.654 1.898-4.654h1.456l-3.107 7.111zm7.904-7.254c.45 0 .869.084 1.255.253.385.17.717.403.994.702.277.3.494.65.65 1.054.156.403.234.842.234 1.319s-.078.919-.234 1.326a3.19 3.19 0 0 1-.657 1.06 3.048 3.048 0 0 1-.994.701 3.045 3.045 0 0 1-1.248.254c-.442 0-.847-.078-1.215-.234a2.356 2.356 0 0 1-.917-.676v3.107H20.72v-8.723h1.261v.923c.234-.338.546-.6.936-.786.39-.187.823-.28 1.3-.28zm-.221 1.248c-.234 0-.466.041-.695.123-.23.083-.436.208-.618.377-.182.17-.33.384-.442.644-.113.26-.169.572-.169.936 0 .364.054.676.163.936.108.26.253.477.435.65.182.173.388.301.617.384.23.082.466.123.709.123.269 0 .522-.05.76-.15a1.872 1.872 0 0 0 1.04-1.079c.1-.255.15-.539.15-.851 0-.312-.05-.596-.15-.851a1.882 1.882 0 0 0-1.027-1.086 1.913 1.913 0 0 0-.773-.156zM34.578 32h-1.365v-2.756h-2.847V32h-1.365v-6.383h1.365v2.444h2.847v-2.444h1.365V32zm4.485-6.526c.39 0 .745.056 1.066.169.32.113.596.28.826.5.23.222.409.499.539.832.13.334.195.722.195 1.164V32h-1.274v-.715a2.305 2.305 0 0 1-.858.63 2.924 2.924 0 0 1-1.183.228c-.338 0-.643-.043-.916-.13a2.022 2.022 0 0 1-.703-.377 1.68 1.68 0 0 1-.604-1.339c0-.563.212-1.007.637-1.332.425-.326.997-.488 1.716-.488h1.807v-.416c0-.442-.117-.78-.351-1.014-.234-.234-.572-.351-1.014-.351-.373 0-.698.082-.975.247a3.296 3.296 0 0 0-.806.702l-.78-.806c.33-.468.724-.812 1.183-1.033.46-.222.958-.332 1.495-.332zm-.403 5.616c.225 0 .438-.037.637-.11.2-.074.375-.178.527-.313.151-.134.27-.294.357-.48.087-.187.13-.388.13-.605v-.117h-1.638c-.364 0-.643.065-.839.195-.195.13-.292.325-.292.585 0 .277.108.487.325.63.217.144.481.215.793.215zm10.348.91h-1.352v-5.2h-1.937v.624c0 .85-.074 1.56-.221 2.132-.147.572-.353 1.038-.617 1.397-.265.36-.577.624-.937.793a3.59 3.59 0 0 1-1.163.319v-1.209a1.59 1.59 0 0 0 .728-.351c.2-.173.362-.422.487-.747.126-.326.217-.73.273-1.216.057-.485.085-1.075.085-1.768v-1.157h4.654V32zm8.658-6.526c.607 0 1.14.134 1.599.403.46.269.828.628 1.105 1.079l-.962.754a2.836 2.836 0 0 0-.735-.709c-.273-.177-.604-.266-.994-.266-.286 0-.552.054-.8.163a1.881 1.881 0 0 0-.63.442c-.173.186-.31.405-.41.656-.1.251-.149.52-.149.806 0 .295.05.57.15.825.1.256.236.477.409.664.173.186.383.331.63.435.248.104.514.156.8.156.39 0 .72-.087.988-.26.269-.173.511-.407.728-.702l.962.741c-.277.45-.646.81-1.105 1.079-.46.269-.988.403-1.586.403-.468 0-.908-.087-1.32-.26a3.456 3.456 0 0 1-1.078-.708 3.216 3.216 0 0 1-.722-1.06 3.318 3.318 0 0 1-.26-1.313 3.234 3.234 0 0 1 .981-2.36 3.456 3.456 0 0 1 1.08-.708c.411-.173.851-.26 1.319-.26zm6.643 0c.39 0 .745.056 1.066.169.32.113.596.28.826.5.23.222.409.499.539.832.13.334.195.722.195 1.164V32h-1.274v-.715a2.305 2.305 0 0 1-.858.63 2.924 2.924 0 0 1-1.183.228c-.338 0-.643-.043-.916-.13a2.022 2.022 0 0 1-.703-.377 1.68 1.68 0 0 1-.604-1.339c0-.563.212-1.007.637-1.332.425-.326.997-.488 1.716-.488h1.807v-.416c0-.442-.117-.78-.351-1.014-.234-.234-.572-.351-1.014-.351-.373 0-.698.082-.975.247a3.296 3.296 0 0 0-.806.702l-.78-.806c.33-.468.724-.812 1.183-1.033.46-.222.958-.332 1.495-.332zm-.403 5.616c.225 0 .438-.037.637-.11.2-.074.375-.178.526-.313.152-.134.271-.294.358-.48.087-.187.13-.388.13-.605v-.117h-1.638c-.364 0-.643.065-.838.195-.196.13-.293.325-.293.585 0 .277.108.487.325.63.217.144.481.215.793.215zm11.843 2.743h-1.365V32h-4.732v1.833h-1.365v-3.016h.65c.19-.173.362-.381.514-.624.151-.243.279-.54.383-.89.104-.352.184-.772.24-1.262.057-.49.085-1.072.085-1.748v-.676h4.498v5.2h1.092v3.016zM71.524 26.8c-.009.97-.089 1.781-.24 2.431-.152.65-.419 1.179-.8 1.586h2.808V26.8h-1.768zm8.645-1.326c.468 0 .906.087 1.313.26.407.173.765.41 1.073.709.307.299.55.65.727 1.052.178.404.267.839.267 1.307a3.3 3.3 0 0 1-.995 2.373 3.456 3.456 0 0 1-1.079.708c-.411.173-.851.26-1.319.26-.468 0-.906-.087-1.313-.26a3.476 3.476 0 0 1-1.073-.708 3.216 3.216 0 0 1-.721-1.06 3.318 3.318 0 0 1-.26-1.313 3.234 3.234 0 0 1 .981-2.36 3.456 3.456 0 0 1 1.08-.708c.411-.173.851-.26 1.319-.26zm0 1.248c-.286 0-.552.054-.8.163a1.881 1.881 0 0 0-1.033 1.104c-.095.256-.143.531-.143.826 0 .295.048.568.143.819a1.907 1.907 0 0 0 1.82 1.248c.286 0 .55-.052.793-.156a1.89 1.89 0 0 0 .63-.435c.178-.187.317-.406.417-.657.1-.251.149-.524.149-.819 0-.295-.05-.57-.15-.826a2.003 2.003 0 0 0-.416-.662 1.972 1.972 0 0 0-.63-.442 1.891 1.891 0 0 0-.78-.163zm7.969-1.105c.633 0 1.148.152 1.547.455.399.303.598.724.598 1.261 0 .529-.19.949-.572 1.261.303.139.548.334.734.585.187.251.28.559.28.923a1.76 1.76 0 0 1-.617 1.359 2.12 2.12 0 0 1-.709.396 2.825 2.825 0 0 1-.923.143h-3.289v-6.383h2.951zm-1.625 3.601v1.625h1.859c.347 0 .611-.076.793-.228a.747.747 0 0 0 .273-.604.687.687 0 0 0-.28-.585c-.186-.139-.448-.208-.786-.208h-1.859zm0-2.457v1.391h1.599c.295 0 .513-.06.657-.182.143-.121.214-.295.214-.52 0-.46-.29-.689-.871-.689h-1.599zm8.749-1.287c.468 0 .906.087 1.313.26.407.173.765.41 1.072.709.308.299.55.65.728 1.052.178.404.267.839.267 1.307a3.3 3.3 0 0 1-.995 2.373 3.456 3.456 0 0 1-1.079.708c-.411.173-.851.26-1.319.26-.468 0-.906-.087-1.313-.26a3.476 3.476 0 0 1-1.073-.708 3.216 3.216 0 0 1-.721-1.06 3.318 3.318 0 0 1-.26-1.313 3.234 3.234 0 0 1 .981-2.36 3.456 3.456 0 0 1 1.08-.708c.411-.173.851-.26 1.319-.26zm0 1.248c-.286 0-.552.054-.8.163a1.881 1.881 0 0 0-1.033 1.104c-.095.256-.143.531-.143.826 0 .295.048.568.143.819a1.907 1.907 0 0 0 1.82 1.248c.286 0 .55-.052.793-.156a1.89 1.89 0 0 0 .63-.435c.178-.187.317-.406.416-.657.1-.251.15-.524.15-.819 0-.295-.05-.57-.15-.826a2.003 2.003 0 0 0-.415-.662 1.972 1.972 0 0 0-.631-.442 1.891 1.891 0 0 0-.78-.163zm11.856 7.111h-1.365V32h-4.732v1.833h-1.365v-3.016h.65c.19-.173.362-.381.514-.624.151-.243.279-.54.383-.89.104-.352.184-.772.24-1.262.057-.49.085-1.072.085-1.748v-.676h4.498v5.2h1.092v3.016zm-4.225-7.033c-.009.97-.089 1.781-.24 2.431-.152.65-.419 1.179-.8 1.586h2.808V26.8h-1.768zm8.112-1.326c.39 0 .745.056 1.066.169.32.113.596.28.826.5.23.222.409.499.539.832.13.334.195.722.195 1.164V32h-1.274v-.715a2.305 2.305 0 0 1-.858.63 2.924 2.924 0 0 1-1.183.228c-.338 0-.643-.043-.916-.13a2.022 2.022 0 0 1-.703-.377 1.68 1.68 0 0 1-.604-1.339c0-.563.212-1.007.637-1.332.425-.326.997-.488 1.716-.488h1.807v-.416c0-.442-.117-.78-.351-1.014-.234-.234-.572-.351-1.014-.351-.373 0-.698.082-.975.247a3.296 3.296 0 0 0-.806.702l-.78-.806c.33-.468.724-.812 1.183-1.033.46-.222.958-.332 1.495-.332zm-.403 5.616c.225 0 .438-.037.637-.11.2-.074.375-.178.526-.313.152-.134.271-.294.358-.48.087-.187.13-.388.13-.605v-.117h-1.638c-.364 0-.643.065-.838.195-.196.13-.293.325-.293.585 0 .277.108.487.325.63.217.144.481.215.793.215z"/>
        <path fill="#F0F2F7" d="M1.713 15.998l1.43-.198v-11l-1.65-.198C1.119 4.558.965 4.008.965 3.48c0-.44.11-.88.44-.88h7.854c2.354 0 4.994.88 4.994 4.004 0 1.562-.924 2.904-2.486 3.278v.066c2.244.374 3.058 1.892 3.058 3.586 0 3.63-3.564 4.466-5.61 4.466h-7.59c-.33 0-.44-.44-.44-.902 0-.506.154-1.056.528-1.1zm4.422-.22h2.772c1.276 0 2.816-.418 2.816-2.266 0-1.606-1.144-2.332-2.904-2.332H6.135v4.598zm0-6.754h2.574c1.188 0 2.442-.462 2.442-2.2 0-1.628-1.276-2.002-2.464-2.002H6.135v4.202zm10.318 3.542c0-3.696 2.486-5.632 5.808-5.632 3.322 0 5.83 1.936 5.83 5.632 0 3.696-2.486 5.632-5.808 5.632-3.322 0-5.83-1.936-5.83-5.632zm5.83 3.564c2.266 0 2.838-2.244 2.838-3.564 0-1.32-.594-3.564-2.86-3.564s-2.838 2.244-2.838 3.564c0 1.32.594 3.564 2.86 3.564zm15.356-5.214c.066.44.748.594 1.276.594.55 0 .924-.198.924-.462V7.77c-1.232-.506-2.552-.836-3.872-.836-3.542 0-6.336 2.046-6.336 5.786 0 4.246 3.036 5.478 5.874 5.478 1.562 0 3.674-.55 4.796-1.298 0-.616-.198-1.386-.902-1.606-1.056.396-1.958.726-3.564.726-2.376 0-3.234-1.54-3.234-3.3 0-1.914 1.034-3.652 3.278-3.652.638 0 1.078.044 1.54.154l.22 1.694zm9.328.286h2.266v-.242c0-1.43-.902-1.848-2.354-1.848-1.474 0-2.706.352-3.74.66-.506-.022-.814-.682-.814-1.254 0-.22.044-.418.154-.572 1.1-.44 3.234-1.012 5.016-1.012 3.058 0 4.664 1.188 4.664 4.312v4.532l1.716.242c.352.044.594.55.594 1.078 0 .484-.154.902-.462.902h-3.102c-1.232 0-1.518-.484-1.518-1.496-.484.616-1.65 1.694-3.806 1.694-2.134 0-3.85-1.034-3.85-3.454 0-2.882 2.64-3.542 5.236-3.542zm2.31 2.53v-.594h-2.156c-1.474 0-2.42.352-2.42 1.518 0 .77.44 1.254 1.716 1.254 1.518 0 2.86-.792 2.86-2.178zm5.984 6.908v-4.664h1.694c.814-.99 1.254-2.552 1.386-5.478l.044-1.144-1.408-.242c-.352-.066-.528-.594-.528-1.078 0-.462.154-.902.44-.902h11.176c.33 0 .462.418.462.88 0 .484-.176.99-.528 1.056l-1.232.22v6.688h2.288v4.664c0 .308-.396.484-.946.484-.528 0-1.21-.176-1.254-.572L66.613 18h-8.91l-.242 2.552c-.044.396-.726.572-1.254.572-.55 0-.946-.176-.946-.484zm4.466-4.642h4.136V9.134h-2.86l-.066 1.364c-.11 2.266-.462 4.4-1.21 5.5zm15.224 3.41c-.748 1.562-1.518 1.914-2.772 1.914a8.077 8.077 0 0 1-1.65-.154c-.22.264-.44.704-.44 1.232 0 .176.044.374.088.55.572.286 1.628.528 2.64.528 2.112 0 3.564-1.188 4.664-3.608l4.796-10.56 1.232-.22c.352-.066.506-.572.506-1.078 0-.462-.132-.88-.44-.88h-5.676c-.308 0-.44.44-.44.902 0 .484.176 1.012.528 1.056l1.364.22-1.628 4.29c-.176.484-.44 1.21-.572 1.694h-.088c-.11-.462-.286-1.21-.484-1.694l-2.068-5.236c-.242-.638-.528-1.232-1.628-1.232h-2.948c-.33 0-.462.44-.462.924 0 .528.22 1.034.572 1.078l1.716.22 3.938 8.536-.748 1.518zm17.732-3.344c-.352.066-.528.572-.528 1.056 0 .462.132.88.462.88h5.764c.286 0 .418-.44.418-.902 0-.484-.176-.99-.528-1.034l-1.452-.22V9.288l1.232-.198c.352-.066.528-.594.528-1.1 0-.462-.132-.858-.44-.858H86.963c-.308 0-.462.44-.462.924 0 .528.22 1.012.594 1.078l1.342.22-.044 1.1c-.132 3.498-.616 5.434-3.322 5.456-.198.198-.264.616-.264.968 0 .572.198 1.122.594 1.32 4.576-.044 5.456-3.256 5.654-7.678l.066-1.364h2.794v6.688l-1.232.22zm8.404-.022c-.352.066-.528.594-.528 1.1 0 .462.132.858.44.858h3.806l4.774-6.072c.33-.44.726-1.232.88-1.584h.088c-.088.374-.396 2.068-.396 2.442v3.058l-1.232.22c-.352.066-.528.572-.528 1.056 0 .462.132.88.462.88h5.764c.286 0 .418-.44.418-.902 0-.484-.176-.99-.528-1.034l-1.452-.22V9.288l1.232-.198c.352-.066.528-.594.528-1.1 0-.462-.132-.858-.44-.858h-3.806l-4.818 6.138c-.308.396-.726 1.232-.858 1.518h-.088c.088-.462.418-2.068.418-2.442V9.288l1.232-.22c.352-.066.528-.572.528-1.056 0-.462-.132-.88-.462-.88h-5.764c-.286 0-.418.44-.418.902 0 .484.176.99.528 1.034l1.452.22v6.556l-1.232.198z"/>
        <path fill="#74AF33" d="M1.713 13.998l1.43-.198v-11l-1.65-.198C1.119 2.558.965 2.008.965 1.48c0-.44.11-.88.44-.88h7.854c2.354 0 4.994.88 4.994 4.004 0 1.562-.924 2.904-2.486 3.278v.066c2.244.374 3.058 1.892 3.058 3.586 0 3.63-3.564 4.466-5.61 4.466h-7.59c-.33 0-.44-.44-.44-.902 0-.506.154-1.056.528-1.1zm4.422-.22h2.772c1.276 0 2.816-.418 2.816-2.266 0-1.606-1.144-2.332-2.904-2.332H6.135v4.598zm0-6.754h2.574c1.188 0 2.442-.462 2.442-2.2 0-1.628-1.276-2.002-2.464-2.002H6.135v4.202zm10.318 3.542c0-3.696 2.486-5.632 5.808-5.632 3.322 0 5.83 1.936 5.83 5.632 0 3.696-2.486 5.632-5.808 5.632-3.322 0-5.83-1.936-5.83-5.632zm5.83 3.564c2.266 0 2.838-2.244 2.838-3.564 0-1.32-.594-3.564-2.86-3.564s-2.838 2.244-2.838 3.564c0 1.32.594 3.564 2.86 3.564zm15.356-5.214c.066.44.748.594 1.276.594.55 0 .924-.198.924-.462V5.77c-1.232-.506-2.552-.836-3.872-.836-3.542 0-6.336 2.046-6.336 5.786 0 4.246 3.036 5.478 5.874 5.478 1.562 0 3.674-.55 4.796-1.298 0-.616-.198-1.386-.902-1.606-1.056.396-1.958.726-3.564.726-2.376 0-3.234-1.54-3.234-3.3 0-1.914 1.034-3.652 3.278-3.652.638 0 1.078.044 1.54.154l.22 1.694zm9.328.286h2.266V8.96c0-1.43-.902-1.848-2.354-1.848-1.474 0-2.706.352-3.74.66-.506-.022-.814-.682-.814-1.254 0-.22.044-.418.154-.572 1.1-.44 3.234-1.012 5.016-1.012 3.058 0 4.664 1.188 4.664 4.312v4.532l1.716.242c.352.044.594.55.594 1.078 0 .484-.154.902-.462.902h-3.102c-1.232 0-1.518-.484-1.518-1.496-.484.616-1.65 1.694-3.806 1.694-2.134 0-3.85-1.034-3.85-3.454 0-2.882 2.64-3.542 5.236-3.542zm2.31 2.53v-.594h-2.156c-1.474 0-2.42.352-2.42 1.518 0 .77.44 1.254 1.716 1.254 1.518 0 2.86-.792 2.86-2.178zm5.984 6.908v-4.664h1.694c.814-.99 1.254-2.552 1.386-5.478l.044-1.144-1.408-.242c-.352-.066-.528-.594-.528-1.078 0-.462.154-.902.44-.902h11.176c.33 0 .462.418.462.88 0 .484-.176.99-.528 1.056l-1.232.22v6.688h2.288v4.664c0 .308-.396.484-.946.484-.528 0-1.21-.176-1.254-.572L66.613 16h-8.91l-.242 2.552c-.044.396-.726.572-1.254.572-.55 0-.946-.176-.946-.484zm4.466-4.642h4.136V7.134h-2.86l-.066 1.364c-.11 2.266-.462 4.4-1.21 5.5zm15.224 3.41c-.748 1.562-1.518 1.914-2.772 1.914a8.077 8.077 0 0 1-1.65-.154c-.22.264-.44.704-.44 1.232 0 .176.044.374.088.55.572.286 1.628.528 2.64.528 2.112 0 3.564-1.188 4.664-3.608l4.796-10.56 1.232-.22c.352-.066.506-.572.506-1.078 0-.462-.132-.88-.44-.88h-5.676c-.308 0-.44.44-.44.902 0 .484.176 1.012.528 1.056l1.364.22-1.628 4.29c-.176.484-.44 1.21-.572 1.694h-.088c-.11-.462-.286-1.21-.484-1.694l-2.068-5.236c-.242-.638-.528-1.232-1.628-1.232h-2.948c-.33 0-.462.44-.462.924 0 .528.22 1.034.572 1.078l1.716.22 3.938 8.536-.748 1.518zm17.732-3.344c-.352.066-.528.572-.528 1.056 0 .462.132.88.462.88h5.764c.286 0 .418-.44.418-.902 0-.484-.176-.99-.528-1.034l-1.452-.22V7.288l1.232-.198c.352-.066.528-.594.528-1.1 0-.462-.132-.858-.44-.858H86.963c-.308 0-.462.44-.462.924 0 .528.22 1.012.594 1.078l1.342.22-.044 1.1c-.132 3.498-.616 5.434-3.322 5.456-.198.198-.264.616-.264.968 0 .572.198 1.122.594 1.32 4.576-.044 5.456-3.256 5.654-7.678l.066-1.364h2.794v6.688l-1.232.22zm8.404-.022c-.352.066-.528.594-.528 1.1 0 .462.132.858.44.858h3.806l4.774-6.072c.33-.44.726-1.232.88-1.584h.088c-.088.374-.396 2.068-.396 2.442v3.058l-1.232.22c-.352.066-.528.572-.528 1.056 0 .462.132.88.462.88h5.764c.286 0 .418-.44.418-.902 0-.484-.176-.99-.528-1.034l-1.452-.22V7.288l1.232-.198c.352-.066.528-.594.528-1.1 0-.462-.132-.858-.44-.858h-3.806l-4.818 6.138c-.308.396-.726 1.232-.858 1.518h-.088c.088-.462.418-2.068.418-2.442V7.288l1.232-.22c.352-.066.528-.572.528-1.056 0-.462-.132-.88-.462-.88h-5.764c-.286 0-.418.44-.418.902 0 .484.176.99.528 1.034l1.452.22v6.556l-1.232.198z"/>
    </g>
</svg>
