<svg xmlns="http://www.w3.org/2000/svg" viewBox="0 0 20 26"><g fill="none" fill-rule="evenodd"><path fill="#21224E" d="M9.976 8.584c1.303-.801 2.658-1.201 4.064-1.201 2.133 0 5.972 1.006 5.818 6.305-.153 5.298-2.92 12.131-6.354 12.176-1.342 0-2.43-.616-3.528-.674-1.098.058-2.187.674-3.529.674-3.434-.045-6.2-6.878-6.353-12.176-.154-5.299 3.685-6.305 5.818-6.305 1.406 0 2.76.4 4.064 1.2z"/><path fill="#FFF" d="M10 10.536v13.12c.349.368 1.243.586 2.681.651 2.272.103 4.736-1.949 4.06-6.342 1.248-.747 1.792-2.743 1.65-4.27-.355-3.795-2.979-4.52-5.321-4.292-1.562.152-2.585.53-3.07 1.133z"/><path fill="#21224E" d="M12.154 15.32c.49.496 3.773-.79 2.6-2.258-1.171-1.47-3.09 1.763-2.6 2.259zm-.311 1.936c-.487.498.856 3.759 2.304 2.56 1.448-1.197-1.817-3.058-2.304-2.56zM9.78 5.044c.277-1.298 1.129-2.906 1.929-3.527C12.729.726 13.269.564 15.31 0c.083.162.038 2.511-.748 3.676-.668.99-2.8 2.234-4.203 2.377.238.49.358.864.358.954 0 .13-.109.271-.327.424-.264.042-.466.002-.608-.12-.212-.184-.33-1.131-1.362-2.204C7.39 4.034 6.296 3.765 6.1 3.58c-.198-.184-.304-.532-.159-.79.145-.259.27-.25.517-.25s1.491.436 2.596 1.594c.276.29.518.602.726.91z"/></g></svg>