<svg xmlns="http://www.w3.org/2000/svg" width="64" height="56" viewBox="0 0 64 56">
    <g fill="none" fill-rule="nonzero">
        <path fill="#DEE0E4" d="M61.86 13.73c-.947 0-1.656.757-1.656 1.656v33.117c0 1.23-1.23 2.034-2.366 1.514l-1.088-.473c-3.832-1.703-7.948-2.508-12.537-2.555H42.51c-.19 0-.331 0-.52.047-1.798.095-3.69.284-5.82.615l-2.128.379c-.19.047-.379.047-.568 0l-2.13-.379a56.864 56.864 0 0 0-5.818-.615c-.19 0-.331 0-.52-.047h-1.704c-4.589 0-8.705.852-12.537 2.555l-1.088.473c-1.088.473-2.365-.331-2.365-1.514V15.386c0-.946-.757-1.656-1.656-1.656-.946 0-1.656.757-1.656 1.656v36.287c0 .946.757 1.656 1.656 1.656h23.986c.615 0 1.183.283 1.466.804.52.946 1.514 1.561 2.697 1.561s2.176-.615 2.697-1.561c.284-.52.851-.804 1.466-.804h23.986c.946 0 1.656-.757 1.656-1.656V15.386c-.095-.899-.852-1.656-1.75-1.656zM12.326 46.374c5.961-2.034 11.97-2.034 17.93-1.183 1.184.142 2.272-.757 2.272-1.94V7.582a1.99 1.99 0 0 0-1.703-1.988C24.2 4.647 17.578 4.6 10.955 7.202a2 2 0 0 0-1.278 1.845v35.387a2.008 2.008 0 0 0 2.65 1.94zm5.252-28.007c1.75 0 3.312.946 4.163 2.318a4.87 4.87 0 0 1 4.163-2.318c2.65 0 4.779 2.081 4.779 4.683 0 2.886-8.942 11.024-8.942 11.024s-8.8-7.854-8.989-11.024c-.142-2.554 2.177-4.683 4.826-4.683zM37.164 45.19c5.961-.804 11.97-.804 17.93 1.183 1.278.426 2.65-.52 2.65-1.845V9.094a2 2 0 0 0-1.278-1.845c-6.623-2.602-13.246-2.555-19.87-1.608a1.99 1.99 0 0 0-1.703 1.987v35.624a2.031 2.031 0 0 0 2.271 1.94zm1.23-34.346c4.778-.852 10.408-1.372 16.18 1.182.615.284.899.947.615 1.562-.19.425-.662.71-1.088.71-.19 0-.331-.048-.52-.095-5.157-2.271-10.361-1.75-14.761-.994-.663.095-1.278-.331-1.42-.946a1.178 1.178 0 0 1 .994-1.42zm0 6.576c4.778-.852 10.408-1.372 16.18 1.182.615.284.899.947.615 1.562-.19.425-.662.71-1.088.71-.19 0-.331-.048-.52-.095-5.157-2.271-10.361-1.75-14.761-.994-.663.095-1.278-.331-1.42-.946a1.178 1.178 0 0 1 .994-1.42zm0 6.576c4.778-.852 10.408-1.372 16.18 1.182.615.284.899.947.615 1.562-.19.425-.662.71-1.088.71-.19 0-.331-.048-.52-.095-5.157-2.271-10.361-1.75-14.761-.994-.663.095-1.278-.331-1.42-.946a1.178 1.178 0 0 1 .994-1.42zm0 6.576c4.778-.852 10.408-1.372 16.18 1.182.615.284.899.947.615 1.562-.19.425-.662.71-1.088.71-.19 0-.331-.048-.52-.095-5.157-2.271-10.361-1.75-14.761-.994-.663.095-1.278-.331-1.42-.946a1.178 1.178 0 0 1 .994-1.42zm0 6.576c4.778-.852 10.408-1.372 16.18 1.182.615.284.899.947.615 1.562-.19.425-.662.71-1.088.71-.19 0-.331-.048-.52-.095-5.157-2.271-10.361-1.75-14.761-.994-.663.095-1.278-.331-1.42-.946a1.178 1.178 0 0 1 .994-1.42z"/>
        <path fill="#21224E" d="M57.86 8.73c-.947 0-1.656.757-1.656 1.656v33.117c0 1.23-1.23 2.034-2.366 1.514l-1.088-.473c-3.832-1.703-7.948-2.508-12.537-2.555H38.51c-.19 0-.331 0-.52.047-1.798.095-3.69.284-5.82.615l-2.128.379c-.19.047-.379.047-.568 0l-2.13-.379a56.864 56.864 0 0 0-5.818-.615c-.19 0-.331 0-.52-.047h-1.704c-4.589 0-8.705.852-12.537 2.555l-1.088.473c-1.088.473-2.365-.331-2.365-1.514V10.386c0-.946-.757-1.656-1.656-1.656C.71 8.73 0 9.487 0 10.386v36.287c0 .946.757 1.656 1.656 1.656h23.986c.615 0 1.183.283 1.466.804.52.946 1.514 1.561 2.697 1.561s2.176-.615 2.697-1.561c.284-.52.851-.804 1.466-.804h23.986c.946 0 1.656-.757 1.656-1.656V10.386c-.095-.899-.852-1.656-1.75-1.656zM8.326 41.374c5.961-2.034 11.97-2.034 17.93-1.183 1.184.142 2.272-.757 2.272-1.94V2.582A1.99 1.99 0 0 0 26.825.592C20.2-.353 13.578-.4 6.955 2.202a2 2 0 0 0-1.278 1.845v35.387a2.008 2.008 0 0 0 2.65 1.94zm5.252-28.007c1.75 0 3.312.946 4.163 2.318a4.87 4.87 0 0 1 4.163-2.318c2.65 0 4.779 2.081 4.779 4.683 0 2.886-8.942 11.024-8.942 11.024s-8.8-7.854-8.989-11.024c-.142-2.554 2.177-4.683 4.826-4.683zM33.164 40.19c5.961-.804 11.97-.804 17.93 1.183 1.278.426 2.65-.52 2.65-1.845V4.094a2 2 0 0 0-1.278-1.845C45.843-.353 39.22-.306 32.596.641a1.99 1.99 0 0 0-1.703 1.987v35.624a2.031 2.031 0 0 0 2.271 1.94zm1.23-34.346c4.778-.852 10.408-1.372 16.18 1.182.615.284.899.947.615 1.562-.19.425-.662.71-1.088.71-.19 0-.331-.048-.52-.095-5.157-2.271-10.361-1.75-14.761-.994-.663.095-1.278-.331-1.42-.946a1.178 1.178 0 0 1 .994-1.42zm0 6.576c4.778-.852 10.408-1.372 16.18 1.182.615.284.899.947.615 1.562-.19.425-.662.71-1.088.71-.19 0-.331-.048-.52-.095-5.157-2.271-10.361-1.75-14.761-.994-.663.095-1.278-.331-1.42-.946a1.178 1.178 0 0 1 .994-1.42zm0 6.576c4.778-.852 10.408-1.372 16.18 1.182.615.284.899.947.615 1.562-.19.425-.662.71-1.088.71-.19 0-.331-.048-.52-.095-5.157-2.271-10.361-1.75-14.761-.994-.663.095-1.278-.331-1.42-.946a1.178 1.178 0 0 1 .994-1.42zm0 6.576c4.778-.852 10.408-1.372 16.18 1.182.615.284.899.947.615 1.562-.19.425-.662.71-1.088.71-.19 0-.331-.048-.52-.095-5.157-2.271-10.361-1.75-14.761-.994-.663.095-1.278-.331-1.42-.946a1.178 1.178 0 0 1 .994-1.42zm0 6.576c4.778-.852 10.408-1.372 16.18 1.182.615.284.899.947.615 1.562-.19.425-.662.71-1.088.71-.19 0-.331-.048-.52-.095-5.157-2.271-10.361-1.75-14.761-.994-.663.095-1.278-.331-1.42-.946a1.178 1.178 0 0 1 .994-1.42z"/>
    </g>
</svg>
