<svg xmlns="http://www.w3.org/2000/svg" width="63" height="45" viewBox="0 0 63 45">
    <g fill="none" fill-rule="nonzero">
        <path fill="#F4F7FB" d="M5.146 15.496c5.707-3.53 11.157-7.512 17.12-10.59C34.329-1.322 46.672-.497 57.183 7.985c4.628 3.734 8.143 14.696 3.92 19.94C52.23 38.94 31.756 42.21 19.2 44.005c-5.837.833-10.35 2.222-14.45-1.794-7.18-7.032-3.994-15.27-2.328-23.919l2.724-2.796z"/>
        <path fill="#94ACC4" d="M33.918 9.777c0 .536-.428 1.017-1.017 1.017H16.096a1.016 1.016 0 1 1 0-2.033H32.9c.536.053 1.017.481 1.017 1.016zm-1.017 4.603H16.096c-.535 0-1.017.428-1.017 1.017s.428 1.017 1.017 1.017H32.9a1.016 1.016 0 1 0 0-2.034zm11.99 10.276c0 3.212-2.623 5.834-5.835 5.834H22.893l-8.617 8.242c-.214.161-.428.268-.696.268-.107 0-.267 0-.374-.107a.99.99 0 0 1-.59-.91V30.49H9.835C6.623 30.49 4 27.868 4 24.656V6.834C4 3.623 6.623 1 9.834 1h29.222c3.212 0 5.834 2.623 5.834 5.834v17.822zM42.91 6.834c0-2.088-1.713-3.8-3.8-3.8H9.887a3.815 3.815 0 0 0-3.8 3.8v17.822c0 2.088 1.713 3.8 3.8 3.8h3.747c.535 0 1.017.429 1.017 1.017v6.155l7.172-6.904c.16-.16.428-.268.695-.268h16.538c2.088 0 3.8-1.712 3.8-3.8V6.834h.054zM32.9 19.946H16.096c-.535 0-1.017.429-1.017 1.017 0 .59.428 1.017 1.017 1.017H32.9a1.016 1.016 0 1 0 0-2.034z"/>
    </g>
</svg>
