<svg xmlns="http://www.w3.org/2000/svg" viewBox="0 0 26 25"><g fill="none"><g fill="#DBDCFF"><path d="M11.75 18.5h-9a.75.75 0 01-.531-1.281l1.866-1.864C2.735 13.903 2 12.116 2 10.25 2 5.7 6.374 2 11.75 2s9.75 3.7 9.75 8.25c0 4.548-4.374 8.25-9.75 8.25z"/><path d="M25.25 24.5h-9c-3.547 0-6.818-1.63-8.532-4.256a.75.75 0 111.255-.819C10.415 21.631 13.204 23 16.25 23h7.19l-1.12-1.119a.751.751 0 01.029-1.086c1.386-1.251 2.151-2.865 2.151-4.545 0-1.379-.515-2.709-1.485-3.848a.75.75 0 111.14-.973C25.361 12.842 26 14.51 26 16.25c0 1.866-.735 3.654-2.085 5.105l1.864 1.864a.75.75 0 11-.53 1.281z"/></g><path fill="#383AAA" d="M14.25 7.5h-9a.75.75 0 010-1.5h9a.75.75 0 010 1.5zm-3 3h-6a.75.75 0 010-1.5h6a.75.75 0 010 1.5z"/><g fill="#383AAA"><path d="M9.75 16.5h-9a.75.75 0 01-.531-1.281l1.866-1.864C.735 11.902 0 10.116 0 8.25 0 3.7 4.374 0 9.75 0s9.75 3.7 9.75 8.25c0 4.548-4.374 8.25-9.75 8.25zM2.562 15H9.75C14.298 15 18 11.972 18 8.25c0-3.721-3.702-6.75-8.25-6.75C5.2 1.5 1.5 4.529 1.5 8.25c0 1.68.764 3.294 2.152 4.543a.749.749 0 01.029 1.088L2.562 15z"/><path d="M23.25 22.5h-9c-3.547 0-6.818-1.63-8.532-4.256a.75.75 0 111.255-.819C8.415 19.631 11.204 21 14.25 21h7.19l-1.12-1.119a.751.751 0 01.029-1.086c1.386-1.251 2.151-2.865 2.151-4.545 0-1.379-.515-2.709-1.485-3.848a.75.75 0 111.14-.973C23.361 10.842 24 12.51 24 14.25c0 1.866-.735 3.654-2.085 5.105l1.864 1.864a.75.75 0 11-.53 1.281z"/></g></g></svg>