<svg xmlns="http://www.w3.org/2000/svg" width="19" height="19" viewBox="0 0 19 19">
    <path fill="#21224E" fill-rule="nonzero" d="M13.162 14.817l3.84 3.84A1.17 1.17 0 1 0 18.656 17L14.8 13.142a8.263 8.263 0 0 0 1.43-6.523A8.25 8.25 0 0 0 8.15 0a8.186 8.186 0 0 0-3.208.65C.807 2.464-1.104 7.269.652 11.432c1.757 4.164 6.529 6.14 10.709 4.435a8.245 8.245 0 0 0 1.801-1.049zM8.15 2.342c1.567 0 3.07.623 4.178 1.732a5.921 5.921 0 0 1 1.73 4.184 5.912 5.912 0 0 1-5.907 5.917 5.912 5.912 0 0 1-5.908-5.916A5.912 5.912 0 0 1 8.15 2.342z"/>
</svg>
