<svg xmlns="http://www.w3.org/2000/svg" viewBox="0 0 26 19"><g fill="none"><path fill="#DBDCFF" d="M22.186 2.943l2.83 9.24c.236.55.354 1.14.354 1.768a4.732 4.732 0 01-4.718 4.718c-2.32 0-4.246-1.69-4.639-3.892h-3.617c-.393 2.24-2.32 3.97-4.678 3.97A4.732 4.732 0 013 14.03c0-.59.118-1.18.354-1.73.04-.04.04-.04.04-.078l2.908-9.279v-.039c.197-.668.669-1.219 1.298-1.573.668-.353 1.376-.393 2.083-.196a.77.77 0 01.512.943.77.77 0 01-.944.511 1.041 1.041 0 00-.904.08c-.275.156-.511.392-.59.707L5.752 9.784a4.825 4.825 0 012.005-.432c2.359 0 4.325 1.73 4.679 3.97h3.577c.315-2.28 2.32-4.049 4.679-4.049.707 0 1.415.157 2.005.432l-2.005-6.33a1.194 1.194 0 00-1.494-.786.77.77 0 01-.944-.51.77.77 0 01.511-.944 2.567 2.567 0 012.084.196c.629.354 1.1.905 1.337 1.612-.04-.039 0 0 0 0z"/><path fill="#383AAA" d="M19.186 1.943s-.04-.039 0 0A2.865 2.865 0 0017.849.331a2.567 2.567 0 00-2.084-.196.77.77 0 00-.51.943.77.77 0 00.943.511 1.194 1.194 0 011.494.787l2.005 6.33a4.825 4.825 0 00-2.005-.433c-2.36 0-4.364 1.77-4.679 4.05H9.436c-.354-2.242-2.32-3.971-4.679-3.971-.708 0-1.415.157-2.005.432l2.005-6.408c.079-.315.315-.55.59-.708.275-.157.59-.196.904-.079a.77.77 0 00.944-.51.77.77 0 00-.512-.944C5.976-.062 5.268-.022 4.6.33c-.63.354-1.101.905-1.298 1.573v.04L.393 11.221c0 .039 0 .039-.04.078A4.393 4.393 0 000 13.03a4.732 4.732 0 004.718 4.718c2.359 0 4.285-1.73 4.678-3.971h3.617c.393 2.202 2.32 3.892 4.64 3.892a4.732 4.732 0 004.717-4.718c0-.629-.118-1.218-.354-1.769l-2.83-9.239zm-14.39 14.35a3.238 3.238 0 01-3.223-3.224 3.238 3.238 0 013.223-3.223 3.238 3.238 0 013.224 3.223c-.04 1.77-1.454 3.224-3.224 3.224zm12.896-.118a3.238 3.238 0 01-3.224-3.224 3.238 3.238 0 013.224-3.223 3.238 3.238 0 013.223 3.223 3.213 3.213 0 01-3.223 3.224z"/></g></svg>