<svg xmlns="http://www.w3.org/2000/svg" width="169" height="170" viewBox="0 0 169 170">
    <g fill="none" fill-rule="evenodd">
        <path fill="#E6E9F1" fill-rule="nonzero" d="M.708 2.622a1 1 0 1 1 1.414-1.414l3.536 3.535a1 1 0 0 1-1.415 1.415L.708 2.622zm7.07 7.071A1 1 0 0 1 9.194 8.28l3.536 3.535a1 1 0 0 1-1.415 1.415L7.78 9.693zm7.072 7.071a1 1 0 1 1 1.414-1.414l3.536 3.536a1 1 0 1 1-1.414 1.414l-3.536-3.536zm7.071 7.071a1 1 0 1 1 1.414-1.414l3.536 3.536a1 1 0 1 1-1.414 1.414l-3.536-3.536zm7.071 7.071a1 1 0 1 1 1.414-1.414l3.536 3.536a1 1 0 1 1-1.414 1.414l-3.536-3.536zm7.071 7.071a1 1 0 0 1 1.414-1.414l3.536 3.536a1 1 0 0 1-1.414 1.414l-3.536-3.536zm7.071 7.071a1 1 0 0 1 1.414-1.414l3.536 3.536a1 1 0 0 1-1.414 1.414l-3.536-3.536zm7.071 7.072a1 1 0 0 1 1.415-1.415l3.535 3.536a1 1 0 0 1-1.414 1.414l-3.536-3.535zm7.071 7.07a1 1 0 0 1 1.415-1.414l3.535 3.536a1 1 0 0 1-1.414 1.414l-3.536-3.535zm7.071 7.072a1 1 0 0 1 1.415-1.415l3.535 3.536a1 1 0 0 1-1.414 1.414l-3.536-3.535zm7.072 7.07a1 1 0 0 1 1.414-1.413l3.535 3.535a1 1 0 1 1-1.414 1.414l-3.535-3.535zm7.07 7.072a1 1 0 1 1 1.415-1.414l3.535 3.535a1 1 0 1 1-1.414 1.414l-3.535-3.535zm7.072 7.07a1 1 0 1 1 1.414-1.413l3.535 3.535a1 1 0 1 1-1.414 1.414l-3.535-3.535zm7.07 7.072a1 1 0 1 1 1.415-1.414l3.535 3.535a1 1 0 0 1-1.414 1.414l-3.535-3.535zm7.072 7.071a1 1 0 1 1 1.414-1.414l3.536 3.535a1 1 0 1 1-1.415 1.415l-3.535-3.536zm7.07 7.071a1 1 0 1 1 1.415-1.414l3.536 3.535a1 1 0 0 1-1.415 1.415l-3.535-3.536zm7.072 7.071a1 1 0 0 1 1.414-1.414l3.536 3.535a1 1 0 0 1-1.415 1.415l-3.535-3.536zm7.071 7.071a1 1 0 0 1 1.414-1.414l3.536 3.536a1 1 0 0 1-1.414 1.414l-3.536-3.536zm7.071 7.071a1 1 0 0 1 1.414-1.414l3.536 3.536a1 1 0 0 1-1.414 1.414l-3.536-3.536zm7.071 7.071a1 1 0 0 1 1.414-1.414l3.536 3.536a1 1 0 1 1-1.414 1.414l-3.536-3.536zm7.071 7.071a1 1 0 1 1 1.414-1.414l3.536 3.536a1 1 0 0 1-1.414 1.414l-3.536-3.536zm7.071 7.071a1 1 0 0 1 1.414-1.414l3.536 3.536a1 1 0 0 1-1.414 1.414l-3.536-3.536zm7.071 7.072a1 1 0 0 1 1.415-1.415l3.535 3.536a1 1 0 0 1-1.414 1.414l-3.536-3.535zm7.071 7.07a1 1 0 0 1 1.415-1.414l3.535 3.536a1 1 0 0 1-1.414 1.414l-3.536-3.535zm-161.22 3.536a1 1 0 0 1-1.414-1.414l3.535-3.536a1 1 0 0 1 1.415 1.415l-3.536 3.535zm7.071-7.07a1 1 0 0 1-1.414-1.415l3.535-3.536a1 1 0 0 1 1.415 1.415l-3.536 3.535zm7.071-7.072a1 1 0 0 1-1.414-1.414l3.536-3.536a1 1 0 0 1 1.414 1.414l-3.536 3.536zm7.071-7.071a1 1 0 0 1-1.414-1.414l3.536-3.536a1 1 0 1 1 1.414 1.414l-3.536 3.536zm7.071-7.071a1 1 0 1 1-1.414-1.414l3.536-3.536a1 1 0 0 1 1.414 1.414l-3.536 3.536zm7.071-7.071a1 1 0 0 1-1.414-1.414l3.536-3.536a1 1 0 0 1 1.414 1.414l-3.536 3.536zm7.071-7.071a1 1 0 0 1-1.414-1.414l3.536-3.536a1 1 0 0 1 1.414 1.414l-3.536 3.536zm7.072-7.071a1 1 0 0 1-1.415-1.415l3.536-3.535a1 1 0 0 1 1.414 1.414l-3.535 3.536zm7.07-7.071a1 1 0 0 1-1.414-1.415l3.536-3.535a1 1 0 1 1 1.414 1.414l-3.535 3.536zm7.072-7.071a1 1 0 1 1-1.415-1.415l3.536-3.535a1 1 0 1 1 1.414 1.414l-3.535 3.536zm7.07-7.072a1 1 0 0 1-1.413-1.414l3.535-3.535a1 1 0 1 1 1.414 1.414l-3.535 3.535zm7.072-7.07a1 1 0 1 1-1.414-1.415l3.535-3.535a1 1 0 1 1 1.414 1.414l-3.535 3.535zm7.07-7.072a1 1 0 1 1-1.413-1.414l3.535-3.535a1 1 0 1 1 1.414 1.414l-3.535 3.535zm7.072-7.07a1 1 0 1 1-1.414-1.415l3.535-3.535a1 1 0 0 1 1.414 1.414l-3.535 3.535zm7.071-7.072a1 1 0 1 1-1.414-1.414l3.535-3.536a1 1 0 1 1 1.415 1.415l-3.536 3.535zm7.071-7.07a1 1 0 1 1-1.414-1.415l3.535-3.536a1 1 0 1 1 1.415 1.415l-3.536 3.535zm7.071-7.072a1 1 0 0 1-1.414-1.414l3.535-3.536a1 1 0 0 1 1.415 1.415l-3.536 3.535zm7.071-7.071a1 1 0 0 1-1.414-1.414l3.536-3.536a1 1 0 0 1 1.414 1.414l-3.536 3.536zm7.071-7.071a1 1 0 0 1-1.414-1.414l3.536-3.536a1 1 0 0 1 1.414 1.414l-3.536 3.536zm7.071-7.071a1 1 0 1 1-1.414-1.414l3.536-3.536a1 1 0 1 1 1.414 1.414l-3.536 3.536zm7.071-7.071a1 1 0 1 1-1.414-1.414l3.536-3.536a1 1 0 1 1 1.414 1.414l-3.536 3.536zm7.071-7.071a1 1 0 0 1-1.414-1.414l3.536-3.536a1 1 0 0 1 1.414 1.414l-3.536 3.536zm7.072-7.071a1 1 0 0 1-1.415-1.415l3.536-3.535a1 1 0 0 1 1.414 1.414l-3.535 3.536zm7.07-7.071a1 1 0 0 1-1.414-1.415l3.536-3.535a1 1 0 0 1 1.414 1.414l-3.535 3.536z"/>
        <rect width="40" height="40" x="64" y="65" fill="#FFF" rx="20"/>
        <path fill="#94ACC4" fill-rule="nonzero" d="M84 79.672c-3.548 0-6.435 2.903-6.435 6.47 0 3.569 2.887 6.471 6.435 6.471 3.548 0 6.436-2.902 6.436-6.47 0-3.568-2.888-6.47-6.436-6.47zm3.289 7.522c-.578 0-1.046-.47-1.046-1.051A2.252 2.252 0 0 0 84 83.888c-.578 0-1.046-.471-1.046-1.052 0-.58.468-1.051 1.046-1.051 2.39 0 4.335 1.955 4.335 4.358 0 .58-.469 1.051-1.046 1.051zm6.462-11.707h-2.172L89.434 72H78.566l-2.145 3.487H74.25c-2.894 0-5.249 2.366-5.249 5.275v11.824c0 2.909 2.355 5.276 5.25 5.276h19.5c2.895 0 5.25-2.367 5.25-5.276V80.762c0-2.909-2.355-5.275-5.25-5.275zm-20.332 5.747a1.302 1.302 0 0 1-1.299-1.305c0-.721.582-1.305 1.299-1.305.716 0 1.298.584 1.298 1.305 0 .72-.582 1.305-1.298 1.305zM84 94.634c-4.657 0-8.446-3.809-8.446-8.491 0-4.682 3.79-8.492 8.446-8.492 4.657 0 8.446 3.81 8.446 8.492s-3.79 8.492-8.446 8.492z"/>
    </g>
</svg>
