<svg xmlns="http://www.w3.org/2000/svg" width="34" height="34" viewBox="0 0 34 34">
    <g fill="none" fill-rule="evenodd">
        <circle cx="17" cy="17" r="17" fill="#FCA200"/>
        <path fill="#FFF" fill-rule="nonzero" d="M18.034 16.858c2.2-.451 4.284-2.594 3.59-5.3-.464-2.143-2.895-4.173-5.79-3.384-6.368 1.579-3.705 9.924 2.2 8.684zm-1.621-6.541c1.39-.338 2.547.564 2.895 1.579.347 1.353-.58 2.368-1.621 2.706-3.127.79-4.4-3.496-1.274-4.285zm3.937 7.218c.347-.226.81-.564 1.39-.564.81 0 2.547 1.466-.348 2.82-1.737.789-1.853.563-3.126.901.231.451 2.663 2.481 3.357 3.158 1.043 1.015.116 2.256-1.042 2.143-.694-.113-3.01-2.368-3.473-2.82-1.042.452-2.663 2.707-3.59 2.82-1.273.113-2.315-1.128-1.042-2.256l3.358-3.045c-.231-.112-1.158-.225-1.62-.338-4.864-1.353-3.127-3.496-1.738-3.383.463 0 .927.45 1.274.564 1.968 1.127 4.631 1.127 6.6 0z"/>
    </g>
</svg>
