<svg xmlns="http://www.w3.org/2000/svg" viewBox="0 0 35 35"><path fill="#FF9A32" d="M17.5 35C7.835 35 0 27.165 0 17.5S7.835 0 17.5 0 35 7.835 35 17.5 27.165 35 17.5 35zm1.127-17.432c2.073-.436 4.037-2.509 3.382-5.127-.436-2.073-2.727-4.036-5.454-3.273-6 1.528-3.491 9.6 2.072 8.4zM17.1 11.241c1.31-.327 2.4.546 2.727 1.527.328 1.31-.545 2.291-1.527 2.619-2.945.763-4.145-3.382-1.2-4.146zm3.71 6.982c-1.855 1.09-4.365 1.09-6.22 0-.326-.11-.763-.546-1.2-.546-1.308-.109-2.945 1.964 1.637 3.273.437.11 1.31.218 1.528.327l-3.164 2.946c-1.2 1.09-.218 2.29.982 2.182.872-.11 2.4-2.291 3.382-2.728.436.437 2.618 2.619 3.272 2.728 1.091.109 1.964-1.091.982-2.073-.654-.655-2.945-2.618-3.164-3.055 1.2-.327 1.31-.109 2.946-.872 2.727-1.31 1.09-2.728.327-2.728-.545 0-.982.328-1.309.546z"/></svg>