<svg xmlns="http://www.w3.org/2000/svg" width="24" height="30" viewBox="0 0 24 30">
    <path fill="#94ACC4" fill-rule="nonzero" d="M8.538 20.893s-.668-.174-1.218.295c-.55.468-.499 1.167-.499 1.167l2.881 3.488s.669.173 1.218-.295c.55-.47.499-1.169.499-1.169l-2.881-3.486zM1.502 29.84c.584.708 4.056-1.037 7.098-3.51l-2.46-2.98c-2.924 2.606-5.264 5.732-4.638 6.49zM21.98 5.531C18.426.559 11.604-1.89 5.191 1.725 2.028 3.508-.899 8.198.258 11.804c.71 2.208 2.692 2.928 4.065 2.928 2.458 0 3.025-3.456 5.341-2.592 3.695 1.379-1.27 5.63.85 8.88C16.28 29.855 28.9 15.213 21.98 5.532zM4 12.162a1.726 1.726 0 0 1-1.714-1.737c0-.96.767-1.738 1.714-1.738s1.714.779 1.714 1.738c0 .96-.767 1.737-1.714 1.737zM9.143 8.11c-1.263 0-2.286-1.038-2.286-2.317 0-1.28 1.023-2.317 2.286-2.317 1.263 0 2.286 1.038 2.286 2.317 0 1.279-1.023 2.317-2.286 2.317zm7.428-2.897c1.58 0 2.858 1.297 2.858 2.897 0 1.599-1.278 2.895-2.858 2.895-1.578 0-2.857-1.296-2.857-2.895 0-1.6 1.279-2.897 2.857-2.897zm1.067 15.003c-.714 1.436-2.407 1.862-3.825 1.197-1.19-.558-1.713-1.903-1.469-3.195.458-2.415 3.208-4.553 7.942-3.081-2.718.331-1.983 3.742-2.648 5.08z"/>
</svg>
