<svg xmlns="http://www.w3.org/2000/svg" width="11" height="17" viewBox="0 0 11 17">
    <path fill="#AFBBCA" fill-rule="nonzero" d="M6.448 8.366c2.016-.426 3.927-2.45 3.29-5.006C9.314 1.336 7.085-.581 4.431.164c-5.837 1.492-3.396 9.373 2.017 8.202zM4.962 2.188c1.274-.32 2.335.533 2.653 1.491.319 1.278-.53 2.237-1.486 2.557-2.865.745-4.033-3.302-1.167-4.048zM8.57 9.005c.318-.213.743-.533 1.273-.533.743 0 2.335 1.385-.318 2.663-1.592.746-1.698.533-2.866.852.212.426 2.441 2.343 3.078 2.983.955.958.106 2.13-.955 2.023-.637-.106-2.76-2.237-3.184-2.663-.955.426-2.441 2.557-3.29 2.663-1.168.107-2.123-1.065-.956-2.13l3.078-2.876c-.212-.106-1.061-.213-1.486-.32C-1.512 10.39.08 8.367 1.353 8.473c.425 0 .85.426 1.168.533 1.804 1.065 4.245 1.065 6.05 0z"/>
</svg>
