<?xml version="1.0" encoding="UTF-8"?>
<svg width="9px" height="14px" viewBox="0 0 9 14" version="1.1" xmlns="http://www.w3.org/2000/svg" xmlns:xlink="http://www.w3.org/1999/xlink">
    <!-- Generator: sketchtool 51.2 (57519) - http://www.bohemiancoding.com/sketch -->
    <title>AAB8669A-7087-45BA-8F75-B523F6D9B035</title>
    <desc>Created with sketchtool.</desc>
    <defs></defs>
    <g id="user-profile-Guest" stroke="none" stroke-width="1" fill="none" fill-rule="evenodd">
        <g id="22_1_User_Profile_Guests-Desktop-@1280px" transform="translate(-102.000000, -888.000000)" fill="#EE8208" fill-rule="nonzero">
            <g id="body" transform="translate(92.000000, 177.000000)">
                <g id="sidebars" transform="translate(0.000000, 473.000000)">
                    <g id="left-sidebars">
                        <g id="left-user-menu">
                            <g id="ok-account-btn" transform="translate(0.000000, 231.000000)">
                                <g id="ok-account-btn-icon" transform="translate(10.000000, 7.000000)">
                                    <path d="M5.17575758,6.7030303 C6.78787879,6.36363636 8.31515152,4.75151515 7.80606061,2.71515152 C7.46666667,1.1030303 5.68484848,-0.424242424 3.56363636,0.16969697 C-1.1030303,1.35757576 0.848484848,7.63636364 5.17575758,6.7030303 Z M3.98787879,1.78181818 C5.00606061,1.52727273 5.85454545,2.20606061 6.10909091,2.96969697 C6.36363636,3.98787879 5.68484848,4.75151515 4.92121212,5.00606061 C2.63030303,5.6 1.6969697,2.37575758 3.98787879,1.78181818 Z" id="Fill-3-Copy"></path>
                                    <path d="M6.87272727,7.21212121 C5.43030303,8.06060606 3.47878788,8.06060606 2.03636364,7.21212121 C1.78181818,7.12727273 1.44242424,6.78787879 1.1030303,6.78787879 C0.0848484848,6.7030303 -1.18787879,8.31515152 2.37575758,9.33333333 C2.71515152,9.41818182 3.39393939,9.5030303 3.56363636,9.58787879 L1.1030303,11.8787879 C0.16969697,12.7272727 0.933333333,13.6606061 1.86666667,13.5757576 C2.54545455,13.4909091 3.73333333,11.7939394 4.4969697,11.4545455 C4.83636364,11.7939394 6.53333333,13.4909091 7.04242424,13.5757576 C7.89090909,13.6606061 8.56969697,12.7272727 7.80606061,11.9636364 C7.2969697,11.4545455 5.51515152,9.92727273 5.34545455,9.58787879 C6.27878788,9.33333333 6.36363636,9.5030303 7.63636364,8.90909091 C9.75757576,7.89090909 8.48484848,6.78787879 7.89090909,6.78787879 C7.46666667,6.78787879 7.12727273,7.04242424 6.87272727,7.21212121 Z" id="Fill-4-Copy"></path>
                                </g>
                            </g>
                        </g>
                    </g>
                </g>
            </g>
        </g>
    </g>
</svg>