<svg xmlns="http://www.w3.org/2000/svg" width="25" height="21" viewBox="0 0 25 21">
    <g fill="none" fill-rule="nonzero">
        <path fill="#F4F7FB" d="M21.759 5.114h-2.78l-.268-1.076A2.691 2.691 0 0 0 16.1 2H11.35c-1.235 0-2.311.84-2.61 2.038l-.27 1.076H5.691A2.691 2.691 0 0 0 3 7.805v9.71a2.691 2.691 0 0 0 2.691 2.691h16.068a2.691 2.691 0 0 0 2.691-2.691v-9.71a2.691 2.691 0 0 0-2.691-2.69zm-1.346 11.63c-10.63.964-15.945 1.221-15.945.771v-9.71c0-.675.547-1.223 1.223-1.223h3.352c.336 0 .63-.229.711-.555l.409-1.632a1.223 1.223 0 0 1 1.187-.925h4.75c.561 0 1.05.381 1.187.925l.409 1.632a.734.734 0 0 0 .711.555h2.622c.036.792-.292 10.162-.616 10.162zM13.725 6.75a5.382 5.382 0 1 0 5.382 5.382 5.4 5.4 0 0 0-5.382-5.382zm-1.424 7.916c-2.075.44-2.49-.35-2.49-2.512a3.914 3.914 0 0 1 3.914-3.914c2.162 0 2.419 1.008 1.866 3.017-.554 2.01-1.215 2.968-3.29 3.409z"/>
        <path fill="#94ACC4" d="M18.759 3.114h-2.78l-.268-1.076A2.691 2.691 0 0 0 13.1 0H8.35C7.115 0 6.039.84 5.74 2.038l-.27 1.076H2.691A2.691 2.691 0 0 0 0 5.805v9.71a2.691 2.691 0 0 0 2.691 2.691h16.068a2.691 2.691 0 0 0 2.691-2.691v-9.71a2.691 2.691 0 0 0-2.691-2.69zm1.223 12.401a1.223 1.223 0 0 1-1.223 1.223H2.691a1.223 1.223 0 0 1-1.223-1.223v-9.71c0-.675.547-1.223 1.223-1.223h3.352c.336 0 .63-.229.711-.555l.409-1.632A1.223 1.223 0 0 1 8.35 1.47h4.75c.561 0 1.05.381 1.187.925l.409 1.632a.734.734 0 0 0 .711.555h3.352c.676 0 1.223.548 1.223 1.223v9.71zM10.725 4.751a5.382 5.382 0 1 0 5.382 5.382 5.4 5.4 0 0 0-5.382-5.382zm0 9.318a3.914 3.914 0 1 1 3.914-3.914 3.929 3.929 0 0 1-3.914 3.914z"/>
    </g>
</svg>
