<svg xmlns="http://www.w3.org/2000/svg" width="25" height="25" viewBox="0 0 25 25">
    <g fill="none" fill-rule="nonzero">
        <path fill="#F0F2F7" d="M13.5 2C7.149 2 2 7.149 2 13.5S7.149 25 13.5 25 25 19.851 25 13.5C24.994 7.151 19.849 2.006 13.5 2zm0 20.097a8.6 8.6 0 1 1 8.6-8.597 8.608 8.608 0 0 1-8.6 8.6v-.003zm4.786-10.047H14.95V8.714a1.45 1.45 0 0 0-2.9 0v3.336H8.714a1.45 1.45 0 0 0 0 2.9h3.336v3.336a1.45 1.45 0 1 0 2.9 0V14.95h3.336a1.45 1.45 0 1 0 0-2.9z"/>
        <path fill="#8DBC24" d="M11.5 0C5.149 0 0 5.149 0 11.5S5.149 23 11.5 23 23 17.851 23 11.5C22.994 5.151 17.849.006 11.5 0zm0 20.097a8.6 8.6 0 1 1 8.6-8.597 8.608 8.608 0 0 1-8.6 8.6v-.003zm4.786-10.047H12.95V6.714a1.45 1.45 0 0 0-2.9 0v3.336H6.714a1.45 1.45 0 0 0 0 2.9h3.336v3.336a1.45 1.45 0 1 0 2.9 0V12.95h3.336a1.45 1.45 0 1 0 0-2.9z"/>
    </g>
</svg>
