<svg xmlns="http://www.w3.org/2000/svg" width="26" height="30" viewBox="0 0 26 30">
    <path fill="#94ACC4" fill-rule="nonzero" d="M25.168 20.186a1.64 1.64 0 0 0-1.859.133l-4.078-5.32 4.078-5.319a1.641 1.641 0 0 0 1.859.133 1.711 1.711 0 0 0 .61-2.313 1.65 1.65 0 0 0-2.276-.62 1.704 1.704 0 0 0-.815 1.703l-6.572.93-2.493-6.251a1.695 1.695 0 0 0 1.044-1.568C14.666.76 13.919 0 13 0c-.919 0-1.666.76-1.666 1.694 0 .71.433 1.316 1.043 1.568L9.885 9.514l-6.572-.931a1.704 1.704 0 0 0-.815-1.702 1.65 1.65 0 0 0-2.275.62 1.712 1.712 0 0 0 .61 2.313A1.642 1.642 0 0 0 2.69 9.68L6.77 15 2.69 20.32a1.637 1.637 0 0 0-1.859-.133 1.71 1.71 0 0 0-.61 2.313 1.65 1.65 0 0 0 2.276.62c.605-.355.905-1.039.815-1.703l6.572-.93 2.492 6.251a1.695 1.695 0 0 0-1.043 1.568c0 .934.747 1.694 1.666 1.694.918 0 1.666-.76 1.666-1.694 0-.71-.433-1.316-1.043-1.568l2.492-6.252 6.572.931c-.09.663.21 1.348.814 1.703.8.47 1.818.187 2.276-.62a1.71 1.71 0 0 0-.61-2.314zM13 17.903c-1.575 0-2.856-1.302-2.856-2.903s1.28-2.903 2.856-2.903c1.575 0 2.855 1.302 2.855 2.903 0 1.6-1.28 2.903-2.855 2.903z"/>
</svg>
