<svg width="194" height="44" viewBox="0 0 194 44" fill="none" xmlns="http://www.w3.org/2000/svg">
<g clip-path="url(#clip0)">
<path fill-rule="evenodd" clip-rule="evenodd" d="M190 10C190 6.68629 187.314 4 184 4H22.7762C20.978 4 19.2402 4.59759 17.8471 5.73449C12.6796 9.95144 0 20.6409 0 24C0 27.3591 12.6796 38.0486 17.8471 42.2655C19.2402 43.4024 20.978 44 22.7762 44H184C187.314 44 190 41.3137 190 38V10Z" fill="#C4D2E1"/>
<path d="M193.5 6C193.5 2.96243 191.038 0.500001 188 0.500001H26.7762C25.0891 0.500001 23.464 1.06035 22.1632 2.12187C19.5823 4.22799 15.132 7.9453 11.3298 11.5517C9.42749 13.3561 7.69809 15.1227 6.44778 16.6399C5.82214 17.3991 5.32594 18.0844 4.98863 18.6725C4.64268 19.2755 4.5 19.7154 4.5 20C4.5 20.2846 4.64268 20.7245 4.98863 21.3275C5.32594 21.9156 5.82214 22.6009 6.44778 23.3601C7.69809 24.8773 9.42749 26.6439 11.3298 28.4483C15.132 32.0547 19.5823 35.772 22.1632 37.8781C23.464 38.9396 25.0891 39.5 26.7762 39.5H188C191.038 39.5 193.5 37.0376 193.5 34V6Z" stroke="#94ACC4"/>
<path d="M40.494 19.71C40.4767 18.4793 40.923 17.4263 41.833 16.551C42.743 15.667 43.822 15.238 45.07 15.264C45.8847 15.264 46.6213 15.4547 47.28 15.836C47.9473 16.2087 48.4717 16.7287 48.853 17.396L47.527 18.332C46.9117 17.37 46.0927 16.889 45.07 16.889C44.2727 16.889 43.6097 17.1577 43.081 17.695C42.561 18.2323 42.301 18.9083 42.301 19.723C42.301 20.5377 42.561 21.2093 43.081 21.738C43.6097 22.2667 44.2727 22.531 45.07 22.531C46.0927 22.531 46.9117 22.05 47.527 21.088L48.853 22.024C48.4803 22.6913 47.9603 23.2157 47.293 23.597C46.6257 23.9697 45.8803 24.156 45.057 24.156C43.8003 24.182 42.717 23.7573 41.807 22.882C40.9057 21.998 40.468 20.9407 40.494 19.71ZM50.7994 17.565H55.9084V24H54.1664V19.047H52.4374L52.4244 19.541C52.3811 21.2137 52.1948 22.3923 51.8654 23.077C51.5448 23.753 50.9858 24.0997 50.1884 24.117C49.9458 24.117 49.7248 24.078 49.5254 24V22.557C49.6121 22.5743 49.6944 22.583 49.7724 22.583C50.1278 22.583 50.3791 22.3187 50.5264 21.79C50.6824 21.2613 50.7691 20.3643 50.7864 19.099L50.7994 17.565ZM63.6073 21.374H59.0963C59.2003 21.7813 59.4083 22.0977 59.7203 22.323C60.041 22.5397 60.4353 22.648 60.9033 22.648C61.536 22.648 62.134 22.4313 62.6973 21.998L63.4253 23.194C62.654 23.8353 61.796 24.156 60.8513 24.156C59.8633 24.1733 59.0226 23.8527 58.3293 23.194C57.6446 22.5267 57.311 21.725 57.3283 20.789C57.311 19.8617 57.636 19.0643 58.3033 18.397C58.9706 17.7297 59.768 17.4047 60.6953 17.422C61.5793 17.422 62.303 17.708 62.8663 18.28C63.4383 18.852 63.7243 19.5627 63.7243 20.412C63.7243 20.724 63.6853 21.0447 63.6073 21.374ZM59.0963 20.139H62.0213C62.0126 19.749 61.874 19.437 61.6053 19.203C61.3453 18.9603 61.0203 18.839 60.6303 18.839C60.2576 18.839 59.9326 18.956 59.6553 19.19C59.378 19.424 59.1916 19.7403 59.0963 20.139ZM70.8182 22.518H71.8842V25.833H70.2072V24H65.8132V25.833H64.1362V22.518H64.8252C65.0852 22.2667 65.2716 21.881 65.3842 21.361C65.5056 20.841 65.5836 20.1087 65.6182 19.164L65.6702 17.565H70.8182V22.518ZM66.6192 22.518H69.0762V19.047H67.2302L67.2172 19.424C67.1739 20.7847 66.9746 21.816 66.6192 22.518ZM77.5619 17.565H79.4079L76.3269 24.559C76.0322 25.2263 75.6812 25.716 75.2739 26.028C74.8665 26.34 74.3639 26.496 73.7659 26.496C73.4019 26.496 73.0249 26.444 72.6349 26.34V24.871C72.9902 24.9057 73.2415 24.923 73.3889 24.923C73.7182 24.923 73.9869 24.858 74.1949 24.728C74.4029 24.598 74.5805 24.3727 74.7279 24.052L74.9229 23.61L72.4529 17.565H74.3119L75.8849 21.79L77.5619 17.565ZM89.6336 20.776C89.6509 21.6947 89.3216 22.492 88.6456 23.168C87.9783 23.8353 87.1939 24.1603 86.2926 24.143C85.4866 24.143 84.7846 23.8873 84.1866 23.376C83.5886 22.8647 83.2159 22.2103 83.0686 21.413H82.2106V24H80.4686V17.565H82.2106V19.918H83.1206C83.2939 19.1727 83.6709 18.5747 84.2516 18.124C84.8323 17.656 85.5126 17.422 86.2926 17.422C87.2026 17.4047 87.9913 17.734 88.6586 18.41C89.3259 19.0773 89.6509 19.866 89.6336 20.776ZM87.4106 22.037C87.7226 21.7077 87.8786 21.2917 87.8786 20.789C87.8786 20.2863 87.7226 19.866 87.4106 19.528C87.1073 19.19 86.7259 19.021 86.2666 19.021C85.7899 19.021 85.3999 19.19 85.0966 19.528C84.7933 19.8573 84.6416 20.2777 84.6416 20.789C84.6416 21.2917 84.7933 21.7077 85.0966 22.037C85.4086 22.3663 85.7943 22.531 86.2536 22.531C86.7216 22.531 87.1073 22.3663 87.4106 22.037ZM99.8055 25.833V24H91.0565V17.565H92.7985V22.518H94.8655V17.565H96.6075V22.518H98.6745V17.565H100.416V22.518H101.469V25.833H99.8055ZM108.156 20.178V24H106.544V23.376C106.041 23.896 105.387 24.156 104.581 24.156C103.905 24.156 103.363 23.9783 102.956 23.623C102.557 23.2677 102.358 22.804 102.358 22.232C102.358 21.6513 102.574 21.1963 103.008 20.867C103.45 20.529 104.043 20.36 104.789 20.36H106.401V20.074C106.401 19.71 106.297 19.4327 106.089 19.242C105.889 19.0427 105.595 18.943 105.205 18.943C104.884 18.943 104.594 19.0123 104.334 19.151C104.074 19.2897 103.796 19.515 103.502 19.827L102.592 18.748C103.337 17.864 104.273 17.422 105.4 17.422C106.249 17.422 106.921 17.6647 107.415 18.15C107.909 18.6267 108.156 19.3027 108.156 20.178ZM106.401 21.595V21.517H105.023C104.425 21.517 104.126 21.7337 104.126 22.167C104.126 22.3837 104.208 22.557 104.373 22.687C104.546 22.8083 104.771 22.869 105.049 22.869C105.439 22.869 105.759 22.752 106.011 22.518C106.271 22.2753 106.401 21.9677 106.401 21.595ZM112.367 17.565H115.279V24H113.537V22.024H112.848L111.262 24H109.286L111.106 21.777C110.672 21.6037 110.334 21.3437 110.092 20.997C109.858 20.6503 109.741 20.2473 109.741 19.788C109.741 19.112 109.979 18.5747 110.456 18.176C110.932 17.7687 111.569 17.565 112.367 17.565ZM113.537 20.607V19.047H112.432C112.154 19.047 111.933 19.1163 111.769 19.255C111.604 19.3937 111.522 19.58 111.522 19.814C111.522 20.0567 111.604 20.2517 111.769 20.399C111.933 20.5377 112.154 20.607 112.432 20.607H113.537ZM120.335 20.776C120.335 19.84 120.669 19.047 121.336 18.397C122.003 17.747 122.818 17.422 123.78 17.422C125.045 17.422 125.977 17.9507 126.575 19.008L125.353 19.957C124.92 19.333 124.404 19.021 123.806 19.021C123.312 19.021 122.905 19.19 122.584 19.528C122.272 19.8573 122.116 20.2733 122.116 20.776C122.116 21.2873 122.272 21.712 122.584 22.05C122.905 22.3793 123.312 22.544 123.806 22.544C124.404 22.544 124.92 22.2363 125.353 21.621L126.575 22.557C126.289 23.0597 125.903 23.454 125.418 23.74C124.941 24.0173 124.395 24.156 123.78 24.156C122.835 24.1733 122.021 23.8483 121.336 23.181C120.651 22.505 120.318 21.7033 120.335 20.776ZM129.159 24V19.047H127.183V17.565H132.89V19.047H130.901V24H129.159ZM139.842 18.384C140.44 19.0167 140.739 19.814 140.739 20.776C140.739 21.738 140.44 22.544 139.842 23.194C139.253 23.8353 138.512 24.156 137.619 24.156C136.813 24.156 136.172 23.896 135.695 23.376V26.34H133.94V17.565H135.552V18.371C135.994 17.7383 136.683 17.422 137.619 17.422C138.512 17.422 139.253 17.7427 139.842 18.384ZM138.958 20.789C138.958 20.2603 138.802 19.8313 138.49 19.502C138.178 19.1727 137.78 19.008 137.294 19.008C136.826 19.008 136.436 19.164 136.124 19.476C135.821 19.788 135.669 20.2213 135.669 20.776C135.669 21.3307 135.821 21.7683 136.124 22.089C136.436 22.401 136.826 22.557 137.294 22.557C137.771 22.557 138.165 22.3923 138.477 22.063C138.798 21.7337 138.958 21.309 138.958 20.789ZM147.511 20.178V24H145.899V23.376C145.396 23.896 144.742 24.156 143.936 24.156C143.26 24.156 142.718 23.9783 142.311 23.623C141.912 23.2677 141.713 22.804 141.713 22.232C141.713 21.6513 141.93 21.1963 142.363 20.867C142.805 20.529 143.399 20.36 144.144 20.36H145.756V20.074C145.756 19.71 145.652 19.4327 145.444 19.242C145.245 19.0427 144.95 18.943 144.56 18.943C144.239 18.943 143.949 19.0123 143.689 19.151C143.429 19.2897 143.152 19.515 142.857 19.827L141.947 18.748C142.692 17.864 143.628 17.422 144.755 17.422C145.604 17.422 146.276 17.6647 146.77 18.15C147.264 18.6267 147.511 19.3027 147.511 20.178ZM145.756 21.595V21.517H144.378C143.78 21.517 143.481 21.7337 143.481 22.167C143.481 22.3837 143.563 22.557 143.728 22.687C143.901 22.8083 144.127 22.869 144.404 22.869C144.794 22.869 145.115 22.752 145.366 22.518C145.626 22.2753 145.756 21.9677 145.756 21.595ZM149.239 24V17.565H150.981V19.918H153.36V17.565H155.102V24H153.36V21.413H150.981V24H149.239ZM162.263 17.422H162.835V24H161.08V20.516L157.492 24.156H156.92V17.565H158.662V21.075L162.263 17.422ZM169.734 25.833V24H164.651V17.565H166.393V22.518H168.603V17.565H170.345V22.518H171.411V25.833H169.734ZM178.094 20.178V24H176.482V23.376C175.979 23.896 175.325 24.156 174.519 24.156C173.843 24.156 173.301 23.9783 172.894 23.623C172.495 23.2677 172.296 22.804 172.296 22.232C172.296 21.6513 172.513 21.1963 172.946 20.867C173.388 20.529 173.982 20.36 174.727 20.36H176.339V20.074C176.339 19.71 176.235 19.4327 176.027 19.242C175.828 19.0427 175.533 18.943 175.143 18.943C174.822 18.943 174.532 19.0123 174.272 19.151C174.012 19.2897 173.735 19.515 173.44 19.827L172.53 18.748C173.275 17.864 174.211 17.422 175.338 17.422C176.187 17.422 176.859 17.6647 177.353 18.15C177.847 18.6267 178.094 19.3027 178.094 20.178ZM176.339 21.595V21.517H174.961C174.363 21.517 174.064 21.7337 174.064 22.167C174.064 22.3837 174.146 22.557 174.311 22.687C174.484 22.8083 174.71 22.869 174.987 22.869C175.377 22.869 175.698 22.752 175.949 22.518C176.209 22.2753 176.339 21.9677 176.339 21.595Z" fill="#21224E"/>
</g>
<defs>
<clipPath id="clip0">
<rect width="194" height="44" fill="white" transform="matrix(-1 0 0 1 194 0)"/>
</clipPath>
</defs>
</svg>
