<svg width="194" height="44" viewBox="0 0 194 44" fill="none" xmlns="http://www.w3.org/2000/svg">
<g clip-path="url(#clip0)">
<path fill-rule="evenodd" clip-rule="evenodd" d="M190 10C190 6.68629 187.314 4 184 4H22.7762C20.978 4 19.2402 4.59759 17.8471 5.73449C12.6796 9.95144 0 20.6409 0 24C0 27.3591 12.6796 38.0486 17.8471 42.2655C19.2402 43.4024 20.978 44 22.7762 44H184C187.314 44 190 41.3137 190 38V10Z" fill="#C4D2E1"/>
<path d="M193.5 6C193.5 2.96243 191.038 0.500001 188 0.500001H26.7762C25.0891 0.500001 23.464 1.06035 22.1632 2.12187C19.5823 4.22799 15.132 7.9453 11.3298 11.5517C9.42749 13.3561 7.69809 15.1227 6.44778 16.6399C5.82214 17.3991 5.32594 18.0844 4.98863 18.6725C4.64268 19.2755 4.5 19.7154 4.5 20C4.5 20.2846 4.64268 20.7245 4.98863 21.3275C5.32594 21.9156 5.82214 22.6009 6.44778 23.3601C7.69809 24.8773 9.42749 26.6439 11.3298 28.4483C15.132 32.0547 19.5823 35.772 22.1632 37.8781C23.464 38.9396 25.0891 39.5 26.7762 39.5H188C191.038 39.5 193.5 37.0376 193.5 34V6Z" stroke="#94ACC4"/>
</g>
<defs>
<clipPath id="clip0">
<rect width="194" height="44" fill="white" transform="matrix(-1 0 0 1 194 0)"/>
</clipPath>
</defs>
</svg>
