<svg width="66" height="50" viewBox="0 0 66 50" fill="none" xmlns="http://www.w3.org/2000/svg">
<path d="M14.7819 6.24398C41.7702 -2.50407 52.235 7.66195 63.6784 22.1912C75.1218 36.7205 26.7623 56.6574 13.1823 46.0858C-1.5533 34.6146 -1.46418 23.2498 1.72527 15.8377C4.91472 8.42562 14.7819 6.24398 14.7819 6.24398Z" fill="#F4F7FB"/>
<path fill-rule="evenodd" clip-rule="evenodd" d="M25.1428 19.5V32.75C25.1428 32.802 25.1624 32.8597 25.2173 32.9137C25.2727 32.9682 25.3459 33 25.4286 33H34.5714C34.6541 33 34.7273 32.9682 34.7827 32.9137C34.8376 32.8597 34.8571 32.802 34.8571 32.75V19.5H40.4914C40.5885 19.5 40.6369 19.4749 40.665 19.4553C40.7018 19.4298 40.739 19.3871 40.7633 19.3296C40.7876 19.2722 40.789 19.2238 40.7838 19.1943C40.7807 19.1762 40.7722 19.1378 40.7112 19.0778L30.2183 8.74886C30.1941 8.7249 30.1635 8.70425 30.1276 8.6896C30.0917 8.67493 30.0521 8.66699 30.0114 8.66699C29.9707 8.66699 29.9311 8.67493 29.8952 8.6896C29.8593 8.70425 29.8288 8.7249 29.8045 8.74886L19.3116 19.0778C19.2483 19.1401 19.2376 19.1822 19.2337 19.2039C19.2279 19.2366 19.2298 19.2855 19.2529 19.3411C19.2759 19.3965 19.3106 19.4359 19.3431 19.4585C19.3669 19.4751 19.4118 19.5 19.5086 19.5H25.1428ZM28.4 7.32499L17.9086 17.6525C16.4686 19.07 17.4743 21.5 19.5086 21.5H23.1428V32.75C23.1428 33.9875 24.1714 35 25.4286 35H34.5714C35.8286 35 36.8571 33.9875 36.8571 32.75V21.5H40.4914C42.5257 21.5 43.5543 19.07 42.1143 17.6525L31.6228 7.32499C31.4114 7.11641 31.1602 6.95093 30.8837 6.83802C30.6072 6.72511 30.3108 6.66699 30.0114 6.66699C29.7121 6.66699 29.4156 6.72511 29.1391 6.83802C28.8626 6.95093 28.6114 7.11641 28.4 7.32499Z" fill="#94ACC4"/>
<path fill-rule="evenodd" clip-rule="evenodd" d="M16 1C16 0.447715 16.4477 -3.91405e-08 17 -8.74228e-08L43 -2.36042e-06C43.5523 -2.4087e-06 44 0.447713 44 0.999998C44 1.55228 43.5523 2 43 2L17 2C16.4477 2 16 1.55228 16 1Z" fill="#94ACC4"/>
</svg>
