<svg xmlns="http://www.w3.org/2000/svg" width="45" height="63" viewBox="0 0 45 63">
    <g fill="none" fill-rule="nonzero">
        <path fill="#DEE0E4" d="M22.309 46.11c-2.012 0-3.497-1.487-3.759-3.496l-.654-7.536c-.349-2.36 1.05-4.108 3.41-4.37 8.215-.787 12.761-3.933 12.761-9.44v-.176c0-4.894-3.76-8.303-10.05-8.303-4.634 0-8.393 1.66-11.889 4.807-.874.7-2.012 1.224-3.236 1.224C6.186 18.82 4 16.634 4 14.012c0-1.31.524-2.71 1.747-3.758C10.381 5.886 16.24 3 24.278 3 36.514 3 44.82 9.818 44.82 20.744v.176c0 11.012-7.955 15.994-17.657 17.656l-.571 4.038c-.35 1.922-1.747 3.496-3.76 3.496h-.523zm4.95 11.347a4.97 4.97 0 1 1-9.941.001 4.97 4.97 0 0 1 9.942-.001z"/>
        <path fill="#21224E" d="M18.309 43.11c-2.012 0-3.497-1.487-3.759-3.496l-.654-7.536c-.349-2.36 1.05-4.108 3.41-4.37 8.215-.787 12.761-3.933 12.761-9.44v-.176c0-4.894-3.76-8.303-10.05-8.303-4.634 0-8.393 1.66-11.889 4.807-.874.7-2.012 1.224-3.236 1.224C2.186 15.82 0 13.634 0 11.012c0-1.31.524-2.71 1.747-3.758C6.381 2.886 12.24 0 20.278 0 32.514 0 40.82 6.818 40.82 17.744v.176c0 11.012-7.955 15.994-17.657 17.656l-.571 4.038c-.35 1.922-1.747 3.496-3.76 3.496h-.523zm4.95 11.347a4.97 4.97 0 1 1-9.941.001 4.97 4.97 0 0 1 9.942-.001z"/>
    </g>
</svg>
