<svg xmlns="http://www.w3.org/2000/svg" width="18" height="18" viewBox="0 0 18 18">
    <path fill="#21224E" fill-rule="nonzero" d="M12.47 14.037l3.637 3.638a1.11 1.11 0 0 0 1.568-1.57l-3.655-3.654a7.828 7.828 0 0 0 1.355-6.18A7.816 7.816 0 0 0 7.721 0a7.755 7.755 0 0 0-3.04.616C.766 2.334-1.045 6.885.619 10.83a7.81 7.81 0 0 0 10.145 4.201 7.81 7.81 0 0 0 1.707-.994zM7.72 2.218c1.485 0 2.909.59 3.958 1.642a5.61 5.61 0 0 1 1.64 3.963 5.601 5.601 0 0 1-5.597 5.606 5.601 5.601 0 0 1-5.597-5.605 5.601 5.601 0 0 1 5.596-5.606z"/>
</svg>
