<svg xmlns="http://www.w3.org/2000/svg" width="22" height="12" viewBox="0 0 22 12">
    <g fill="none" fill-rule="evenodd">
        <path fill="#CAD4E1" d="M11.742 4.462c.43-.186 1.207-.225 1.253.274.046.498-.305.567-.34.57.052-.006-.058.03-.16.066-.06.021-.119.044-.177.068.21-.086-.005.003-.056.025-.203.092-.415.183-.603.303a2.427 2.427 0 0 0-.119.08 2.109 2.109 0 0 0-.247.232 1.61 1.61 0 0 0-.147.241l-.039.08c-.036.08.064-.16.02-.043-.02.052-.037.105-.052.158-.03.108-.052.217-.067.327l.02-.15a3.22 3.22 0 0 0 .006.848l-.02-.15c.032.227.085.453.17.667.017.043.072.16-.012-.024l.03.064a2.072 2.072 0 0 0 .204.332c-.12-.153-.063-.078-.034-.045a1.425 1.425 0 0 0 .17.166c.074.059-.125-.09-.048-.037.083.058.172.104.266.143-.2-.084.01.001.061.018a2.773 2.773 0 0 0 .531.119l-.154-.02c.257.031.515.032.772-.001l-.154.02a2.738 2.738 0 0 0 .592-.147l.073-.035a2.16 2.16 0 0 0 .186-.103c.045-.028.22-.163.056-.032.103-.082.2-.173.274-.266a1.974 1.974 0 0 0 .132-.204c.03-.054.06-.11.086-.165.019-.042.067-.161-.01.026a3.3 3.3 0 0 0 .215-.802l-.02.15c.034-.265.038-.532.003-.797l.02.15a2.352 2.352 0 0 0-.103-.437c-.017-.048-.093-.217-.004-.023a1.678 1.678 0 0 0-.14-.252l-.042-.059c-.06-.079.095.115.03.04a1.45 1.45 0 0 0-.19-.185c.168.133.017.014-.026-.015a3.628 3.628 0 0 0-.469-.264c-.036-.017-.144-.06.024.007l-.087-.033c-.103-.036-.212-.066-.16-.06-.073-.008-.286-.05-.455-.025a.512.512 0 0 0-.302-.94c-.148-.016.383-.15.542-.167a.971.971 0 0 1 .214.003c.338.039.648.149.948.308.232.123.472.27.663.45.354.335.584.803.661 1.277.159.974-.05 2.035-.703 2.807-.695.824-1.912 1.054-2.942.858-.474-.09-.972-.281-1.298-.642a2.766 2.766 0 0 1-.636-1.256c-.213-.952-.12-2.064.629-2.781.335-.322.74-.533 1.165-.717zm.123 1.878c.308-.442.871-.818 1.442-.65a.57.57 0 0 1 .404.696.584.584 0 0 1-.711.395c-.025-.008-.174.183-.185.196.021.024.052.035.095.125.135.285.098.625-.205.799a.633.633 0 0 1-.649-.027.912.912 0 0 1-.413-.757c-.008-.264.07-.559.222-.777zM6.04 5.964c-.72.573-1.427 1.162-2.17 1.706-.253.185-.646.04-.791-.203a.557.557 0 0 1-.058-.435c.043-.154.14-.246.265-.338l.147-.108a26.736 26.736 0 0 0 .367-.283c.201-.157.4-.316.599-.476.417-.336.833-.675 1.257-1.003C7.216 3.618 8.928 2.51 10.92 2.15A8.868 8.868 0 0 1 12.6 2a11.5 11.5 0 0 1 1.73.128c1.017.167 1.993.558 2.868 1.086 1.776 1.074 3.173 2.622 4.636 4.053.237.232.203.564 0 .8a12.065 12.065 0 0 1-2.677 2.332 10.478 10.478 0 0 1-5.404 1.6c-1.823.031-3.648-.375-5.323-1.065-1.734-.714-3.057-1.472-4.496-2.655-.242-.198-.141-.462.147-.704.288-.241.512-.25.753-.051.114.093.703.547.945.71.482.324.978.626 1.49.903a16.926 16.926 0 0 0 1.568.748 15.247 15.247 0 0 0 .782.29c.843.288 1.712.5 2.597.617l-.154-.02c.946.122 1.906.133 2.853.01l-.153.02a9.785 9.785 0 0 0 2.239-.57 9.682 9.682 0 0 0 1.769-.936 10.442 10.442 0 0 0 .44-.31l.072-.056c.204-.158.402-.323.593-.495.406-.364.413-.33.769-.741a57.864 57.864 0 0 0-1.894-1.847 17.974 17.974 0 0 0-1.14-.975l-.072-.056a12.438 12.438 0 0 0-.43-.309 10.004 10.004 0 0 0-.62-.391 8.586 8.586 0 0 0-.993-.495c.191.079-.008-.002-.053-.02a7.277 7.277 0 0 0-1.635-.416l.154.021a11.714 11.714 0 0 0-1.263-.074 8.294 8.294 0 0 0-1.234.067l.154-.02a8.331 8.331 0 0 0-2.182.605c-.14.062-.279.126-.416.194a11.77 11.77 0 0 0-.798.437 16.208 16.208 0 0 0-1.468.994 29.185 29.185 0 0 0-.715.556z"/>
        <path fill="#AAAEB4" d="M8.742 2.462c.43-.186 1.207-.225 1.253.274.046.498-.305.567-.34.57.052-.006-.058.03-.16.066-.06.021-.119.044-.177.068.21-.086-.005.003-.056.025-.203.092-.415.183-.603.303a2.427 2.427 0 0 0-.119.08 2.109 2.109 0 0 0-.247.232 1.61 1.61 0 0 0-.147.241l-.039.08c-.036.08.064-.16.02-.043-.02.052-.037.105-.052.158-.03.108-.052.217-.067.327l.02-.15a3.22 3.22 0 0 0 .006.848l-.02-.15c.032.227.085.453.17.667.017.043.072.16-.012-.024a2.257 2.257 0 0 0 .194.342c.013.018.026.037.04.054-.12-.153-.063-.078-.034-.045a1.425 1.425 0 0 0 .17.166c.074.059-.125-.09-.048-.037.083.058.172.104.266.143-.2-.084.01.001.061.018a2.773 2.773 0 0 0 .531.119l-.154-.02c.257.031.515.032.772-.001l-.154.02a2.738 2.738 0 0 0 .592-.147l.073-.035a2.16 2.16 0 0 0 .186-.103c.045-.028.22-.163.056-.032.103-.082.2-.173.274-.266a1.974 1.974 0 0 0 .132-.204c.03-.054.06-.11.086-.165.019-.042.067-.161-.01.026a3.3 3.3 0 0 0 .215-.802l-.02.15c.034-.265.038-.532.003-.797l.02.15a2.352 2.352 0 0 0-.103-.437c-.017-.048-.093-.217-.004-.023a1.678 1.678 0 0 0-.14-.252l-.042-.059c-.06-.079.095.115.03.04a1.45 1.45 0 0 0-.19-.185c.168.133.017.014-.026-.015a3.628 3.628 0 0 0-.469-.264c-.036-.017-.144-.06.024.007l-.087-.033c-.103-.036-.212-.066-.16-.06-.073-.008-.286-.05-.455-.025a.512.512 0 0 0-.302-.94c-.148-.016.383-.15.542-.167a.971.971 0 0 1 .214.003c.338.039.648.149.948.308.232.123.472.27.663.45.354.335.584.803.661 1.277.159.974-.05 2.035-.703 2.807-.695.824-1.912 1.054-2.942.858-.474-.09-.972-.281-1.298-.642a2.766 2.766 0 0 1-.636-1.256c-.213-.952-.12-2.064.629-2.781.335-.322.74-.533 1.165-.717zm.123 1.878c.308-.442.871-.818 1.442-.65a.57.57 0 0 1 .404.696.584.584 0 0 1-.711.395c-.025-.008-.174.183-.185.196.021.024.052.035.095.125.135.285.098.625-.205.799a.633.633 0 0 1-.649-.027.912.912 0 0 1-.413-.757c-.008-.264.07-.559.222-.777zM3.04 3.964C2.32 4.537 1.613 5.126.87 5.67c-.253.185-.646.04-.791-.203a.557.557 0 0 1-.058-.435c.043-.154.14-.246.265-.338l.147-.108A26.737 26.737 0 0 0 .8 4.303c.201-.157.4-.316.599-.476.417-.336.833-.675 1.257-1.003C4.216 1.618 5.928.51 7.92.15A8.868 8.868 0 0 1 9.6 0a11.5 11.5 0 0 1 1.73.128c1.017.167 1.993.558 2.868 1.086 1.776 1.074 3.173 2.622 4.636 4.053.237.232.203.564 0 .8a12.065 12.065 0 0 1-2.677 2.332 10.478 10.478 0 0 1-5.404 1.6c-1.823.031-3.648-.375-5.323-1.065C3.697 8.22 2.374 7.462.935 6.279c-.242-.198-.141-.462.147-.704.288-.241.512-.25.753-.051.114.093.703.547.945.71.482.324.978.626 1.49.903a16.926 16.926 0 0 0 1.568.748 15.247 15.247 0 0 0 .782.29c.843.288 1.712.5 2.597.617l-.154-.02c.946.122 1.906.133 2.853.01l-.153.02a9.785 9.785 0 0 0 2.239-.57 9.682 9.682 0 0 0 1.769-.936 10.442 10.442 0 0 0 .44-.31l.072-.056c.204-.158.402-.323.593-.495.406-.364.413-.33.769-.741a57.864 57.864 0 0 0-1.894-1.847 17.974 17.974 0 0 0-1.14-.975l-.072-.056a12.438 12.438 0 0 0-.43-.309 10.004 10.004 0 0 0-.62-.391 8.586 8.586 0 0 0-.993-.495c.191.079-.008-.002-.053-.02a7.277 7.277 0 0 0-1.635-.416l.154.021A11.714 11.714 0 0 0 9.7 1.132a8.294 8.294 0 0 0-1.234.067l.154-.02a8.331 8.331 0 0 0-2.182.605c-.14.062-.279.126-.416.194a11.77 11.77 0 0 0-.798.437 16.208 16.208 0 0 0-1.468.994 29.185 29.185 0 0 0-.715.556z"/>
    </g>
</svg>
