<svg xmlns="http://www.w3.org/2000/svg" viewBox="0 0 25 24"><g fill="none"><path fill="#F4F7FB" d="M21.934 10.608h.682a2.385 2.385 0 012.081 1.212c.382.695.4 1.505.069 2.223-.312.676-1 1.2-1.738 1.31-.363.053-.727.04-1.093.04l.652-.498a8.723 8.723 0 01-1.18 2.844l-.106-.82c.2.2.423.39.6.612.235.294.43.616.514.989.083.37.09.741.007 1.112-.176.786-.752 1.397-1.487 1.695a2.36 2.36 0 01-2.216-.28c-.295-.217-.542-.487-.8-.745l.82.105a8.73 8.73 0 01-2.844 1.18l.497-.652c0 .396.024.8-.056 1.19a2.385 2.385 0 01-1.156 1.572c-.695.382-1.505.4-2.223.069-.676-.312-1.2-1-1.31-1.738-.053-.363-.04-.727-.04-1.093l.498.652a8.73 8.73 0 01-2.844-1.18l.82-.105c-.2.2-.39.423-.612.6-.294.234-.616.43-.989.513-.37.083-.741.09-1.112.007-.786-.176-1.397-.751-1.695-1.487a2.361 2.361 0 01.28-2.216c.217-.295.487-.542.745-.8l-.105.82a8.728 8.728 0 01-1.18-2.844l.652.497c-.396 0-.8.024-1.19-.056a2.384 2.384 0 01-1.572-1.156 2.444 2.444 0 01-.069-2.223c.312-.676 1-1.2 1.738-1.31.363-.053.727-.04 1.093-.04l-.652.498a8.732 8.732 0 011.18-2.844l.105.82c-.2-.2-.423-.39-.6-.612-.235-.294-.43-.616-.513-.989a2.519 2.519 0 01-.007-1.112c.176-.786.751-1.397 1.487-1.695a2.361 2.361 0 012.216.28c.295.217.542.487.8.745l-.82-.105a8.728 8.728 0 012.844-1.18l-.497.652c0-.396-.024-.8.056-1.19a2.384 2.384 0 011.156-1.572 2.444 2.444 0 012.223-.069c.676.312 1.2 1 1.31 1.738.053.363.04.727.04 1.093l-.498-.652a8.716 8.716 0 012.843 1.18l-.82.106c.2-.2.392-.424.613-.6.294-.236.616-.43.989-.514.37-.083.741-.09 1.112-.007.786.176 1.397.752 1.695 1.487a2.36 2.36 0 01-.28 2.216c-.217.295-.488.542-.746.8l.106-.82a8.73 8.73 0 011.18 2.844l-.653-.497zm-11.608-.357c-.886 1.169-.939 2.439-.16 3.81l2.353-.158 1.01-.58.683-1.12.106-2.438c-1.776-.845-3.107-.683-3.992.486z"/><path fill="#94ACC4" d="M11 13.83a.683.683 0 01.677.677.683.683 0 01-.677.677 4.24 4.24 0 01-3.441-1.807 4.187 4.187 0 01-.58-3.536c.337-1.142 1.173-2.166 2.277-2.642.596-.256 1.226-.409 1.88-.38a4.284 4.284 0 011.837.49c1.054.562 1.87 1.61 2.112 2.784a4.318 4.318 0 01-.03 1.94 4.276 4.276 0 01-.854 1.657c-.777.947-1.982 1.488-3.201 1.494a.683.683 0 01-.677-.676c0-.37.308-.675.677-.677.157 0 .312-.011.468-.031l-.18.024a3.496 3.496 0 00.846-.223c.107-.044-.172.078-.015.005a3.407 3.407 0 00.6-.352c.141-.103-.12.1.014-.01a3.543 3.543 0 00.471-.463c.035-.042.156-.202.012-.01a3.492 3.492 0 00.416-.71c-.093.215-.026.062-.008.013a3.49 3.49 0 00.2-.786l-.024.18c.04-.311.04-.625 0-.936l.024.18a3.496 3.496 0 00-.223-.846c-.044-.107.078.172.005.015a3.478 3.478 0 00-.352-.6c-.103-.141.1.12-.01-.014a3.552 3.552 0 00-.463-.471c-.042-.035-.202-.156-.01-.013a3.57 3.57 0 00-.71-.415c.215.093.062.026.013.008a3.49 3.49 0 00-.786-.2l.18.024a3.664 3.664 0 00-.936 0l.18-.024a3.492 3.492 0 00-.846.223c-.107.044.172-.078.015-.005a3.527 3.527 0 00-.6.352c-.14.103.12-.1-.014.01a3.552 3.552 0 00-.471.462c-.035.042-.156.203-.012.011a3.536 3.536 0 00-.416.71c.093-.215.026-.062.008-.013a3.49 3.49 0 00-.2.786l.024-.18c-.04.311-.04.625 0 .936l-.024-.18a3.49 3.49 0 00.223.846c.044.107-.078-.172-.005-.015a3.526 3.526 0 00.352.6c.103.141-.1-.12.01.014a3.583 3.583 0 00.463.471c.042.035.202.156.01.012a3.536 3.536 0 00.71.416c-.215-.093-.062-.026-.013-.008a3.485 3.485 0 00.786.2l-.18-.024c.156.02.311.03.468.03zm8.616-5.222c.368 0 .676.308.676.677a.683.683 0 01-.676.676h-.681c-.289 0-.59-.205-.653-.497a8.06 8.06 0 00-.43-1.382c.082.2-.013-.028-.033-.07a8.093 8.093 0 00-.58-1.067c-.164-.255-.103-.612.105-.82l.439-.439c.024-.024.049-.048.072-.073.036-.038.17-.221.047-.046a1.707 1.707 0 00.173-.302c-.086.2-.014.03 0-.017.03-.097.051-.194.065-.295l-.024.18c.018-.15.018-.3 0-.45l.024.18c-.014-.1-.034-.2-.065-.296-.016-.047-.09-.212 0-.016-.016-.035-.032-.07-.05-.104a1.707 1.707 0 00-.08-.133c-.024-.037-.11-.145.015.009a1.755 1.755 0 00-.185-.199c-.038-.034-.175-.137.004-.005a1.709 1.709 0 00-.321-.19c.223.098-.027-.006-.09-.023a2.004 2.004 0 00-.226-.046l.18.024a1.846 1.846 0 00-.46 0l.18-.024a1.717 1.717 0 00-.416.11.7.7 0 01.07-.027 1.708 1.708 0 00-.263.155c-.092.068.134-.117.002.003-.035.031-.07.064-.103.098l-.457.457c-.208.208-.565.269-.82.105a8.1 8.1 0 00-1.105-.598c-.04-.017-.226-.094-.032-.015a8.279 8.279 0 00-1.382-.43c-.292-.064-.497-.364-.497-.653 0-.302.022-.613-.016-.913l.024.18a1.706 1.706 0 00-.105-.401c.08.194.03.067.008.026a1.716 1.716 0 00-.133-.22.792.792 0 01-.007-.007c-.025-.027-.05-.055-.075-.08a1.72 1.72 0 00-.108-.1c-.106-.086.134.095.02.017a1.717 1.717 0 00-.287-.164.8.8 0 01.059.026c-.035-.013-.07-.026-.107-.036a1.98 1.98 0 00-.259-.056l.18.024c-.156-.02-.31-.02-.466 0l.18-.024a1.709 1.709 0 00-.405.107c.216-.089.064-.027.017-.002a1.623 1.623 0 00-.215.131c-.092.067.14-.12.013-.009a1.724 1.724 0 00-.197.202c-.072.087.106-.153.01-.012a2.05 2.05 0 00-.127.217c-.074.156.045-.124.005-.015a1.704 1.704 0 00-.095.375l.024-.18c-.038.3-.016.613-.016.914 0 .289-.205.59-.497.653a8.055 8.055 0 00-1.382.43c.2-.083-.028.013-.07.032a8.162 8.162 0 00-1.067.581c-.255.164-.612.103-.82-.106l-.439-.438c-.024-.024-.048-.049-.073-.072-.038-.036-.221-.17-.046-.047a1.714 1.714 0 00-.302-.173c.2.086.03.014-.017 0a1.951 1.951 0 00-.295-.065l.18.024c-.15-.018-.3-.018-.45 0l.18-.024c-.1.014-.2.034-.296.065-.047.016-.212.09-.016 0a1.702 1.702 0 00-.237.129c-.037.025-.145.11.009-.014-.07.057-.138.117-.199.184-.034.038-.137.176-.005-.003a1.727 1.727 0 00-.19.321c.098-.223-.006.027-.023.09-.02.074-.035.15-.046.226l.024-.18a1.863 1.863 0 000 .46l-.024-.18a1.715 1.715 0 00.11.416.704.704 0 01-.027-.07 1.698 1.698 0 00.155.263c.068.092-.117-.134.003-.002.032.035.064.07.098.103l.456.457c.209.208.27.565.106.82a8.1 8.1 0 00-.598 1.105c-.017.04-.094.226-.015.032-.183.448-.327.91-.43 1.382-.064.292-.364.497-.653.497-.302 0-.613-.021-.913.016l.18-.024a1.71 1.71 0 00-.401.105c.194-.08.067-.03.026-.008-.076.04-.15.082-.22.133a.792.792 0 01-.007.007c-.027.025-.055.05-.08.075a1.72 1.72 0 00-.1.108c-.086.106.095-.134.017-.02a1.715 1.715 0 00-.164.287.8.8 0 01.026-.059c-.013.036-.026.07-.036.107a1.98 1.98 0 00-.056.26l.024-.18c-.02.155-.02.31 0 .465l-.024-.18a1.709 1.709 0 00.107.405c-.089-.216-.027-.064-.002-.017.039.075.081.147.131.215.067.092-.12-.14-.009-.013a1.714 1.714 0 00.202.197c.087.072-.153-.106-.012-.01.07.046.142.09.217.127.156.074-.124-.045-.015-.005a1.704 1.704 0 00.375.095l-.18-.024c.3.038.612.016.914.016.289 0 .59.205.653.497.103.472.244.936.43 1.382-.083-.2.013.028.032.07a8.093 8.093 0 00.581 1.068c.164.254.103.611-.106.82l-.438.438c-.024.024-.049.048-.072.073-.036.038-.17.222-.047.046a1.714 1.714 0 00-.173.302c.086-.2.014-.03 0 .017-.03.097-.051.195-.065.295l.024-.18c-.018.15-.018.3 0 .45l-.024-.18c.014.1.034.2.065.296.016.047.09.212 0 .016a1.707 1.707 0 00.13.237c.024.037.11.145-.015-.009.057.07.117.138.184.199.038.034.176.137-.003.005a1.718 1.718 0 00.321.19c-.223-.098.027.006.09.023.074.02.15.035.226.046l-.18-.024c.153.019.306.019.46 0l-.18.024a1.714 1.714 0 00.415-.11.706.706 0 01-.07.027 1.704 1.704 0 00.264-.155c.092-.068-.134.117-.002-.003.035-.031.07-.064.103-.098l.456-.456c.208-.209.566-.27.82-.106a8.103 8.103 0 001.106.598c.04.017.226.094.032.015.448.183.91.327 1.382.43.292.064.497.364.497.653 0 .302-.022.613.016.913l-.024-.18a1.707 1.707 0 00.105.401c-.08-.194-.03-.067-.008-.026.04.076.082.15.133.22a.786.786 0 01.007.007 1.715 1.715 0 00.183.18c.106.087-.134-.095-.02-.017a1.718 1.718 0 00.287.164.797.797 0 01-.059-.026 1.685 1.685 0 00.366.092l-.18-.024c.156.02.31.02.466 0l-.18.024a1.709 1.709 0 00.405-.107c-.216.09-.064.027-.017.002a1.72 1.72 0 00.215-.131c.092-.067-.14.121-.013.009a1.705 1.705 0 00.197-.202c.072-.087-.106.153-.01.012.046-.07.09-.141.127-.217.074-.156-.045.124-.005.015a1.704 1.704 0 00.095-.375l-.024.18c.038-.3.016-.612.016-.914 0-.289.205-.59.497-.653a8.06 8.06 0 001.382-.43c-.2.083.028-.013.07-.032a8.247 8.247 0 001.067-.581c.255-.164.612-.103.82.106l.439.438c.024.024.048.049.073.072.038.036.221.17.046.047a1.716 1.716 0 00.302.173c-.2-.086-.03-.014.017 0 .097.03.194.051.295.065l-.18-.024c.15.018.3.018.45 0l-.18.024c.1-.014.2-.034.295-.065.048-.016.213-.09.017 0 .035-.016.07-.032.104-.05.045-.025.09-.05.133-.079.037-.025.145-.11-.01.014.071-.057.139-.117.2-.184.034-.038.137-.176.005.003a1.71 1.71 0 00.19-.321c-.098.223.006-.027.023-.09.02-.074.035-.15.046-.226l-.024.18a1.863 1.863 0 000-.46l.024.18a1.712 1.712 0 00-.11-.416.7.7 0 01.027.07 1.704 1.704 0 00-.155-.263c-.068-.092.117.134-.003.002a2.85 2.85 0 00-.098-.103l-.457-.457c-.208-.208-.269-.565-.105-.82a8.104 8.104 0 00.598-1.105c.017-.04.094-.226.015-.032a8.28 8.28 0 00.43-1.382c.064-.292.364-.497.653-.497.302 0 .613.021.913-.016l-.18.024a1.706 1.706 0 00.401-.105c-.194.08-.067.029-.026.008.076-.04.15-.082.22-.133a.792.792 0 01.007-.007 1.753 1.753 0 00.18-.183c.087-.106-.095.134-.017.02a1.716 1.716 0 00.164-.287.796.796 0 01-.026.059 1.7 1.7 0 00.092-.366l-.024.18c.02-.156.02-.31 0-.466l.024.18a1.709 1.709 0 00-.107-.405c.089.216.027.064.002.017a1.721 1.721 0 00-.131-.215c-.067-.092.12.14.009.013a1.724 1.724 0 00-.202-.197c-.087-.072.153.106.012.01a1.715 1.715 0 00-.217-.127c-.156-.074.124.045.015.005a1.708 1.708 0 00-.375-.095l.18.024a2.016 2.016 0 00-.233-.016.684.684 0 01-.677-.677c0-.366.308-.68.677-.676a2.385 2.385 0 012.081 1.212c.382.695.4 1.505.069 2.223-.312.676-1 1.2-1.738 1.31-.363.053-.727.04-1.093.04l.652-.498a8.723 8.723 0 01-1.18 2.844l-.106-.82c.2.2.423.39.6.612.235.294.43.616.514.989.083.37.09.741.007 1.112-.176.786-.752 1.397-1.487 1.695a2.36 2.36 0 01-2.216-.28c-.295-.217-.542-.487-.8-.745l.82.105a8.73 8.73 0 01-2.844 1.18l.497-.652c0 .396.024.8-.056 1.19a2.385 2.385 0 01-1.156 1.572c-.695.382-1.505.4-2.223.069-.676-.312-1.2-1-1.31-1.738-.053-.363-.04-.727-.04-1.093l.498.652a8.73 8.73 0 01-2.844-1.18l.82-.105c-.2.2-.39.423-.612.6-.294.234-.616.43-.989.513-.37.083-.741.09-1.112.007-.786-.176-1.397-.751-1.695-1.487a2.361 2.361 0 01.28-2.216c.217-.295.487-.542.745-.8l-.105.82a8.728 8.728 0 01-1.18-2.844l.652.497c-.396 0-.8.024-1.19-.056A2.384 2.384 0 01.303 12.18a2.444 2.444 0 01-.069-2.223c.312-.676 1-1.2 1.738-1.31.363-.053.727-.04 1.093-.04l-.652.498a8.732 8.732 0 011.18-2.844l.105.82c-.2-.2-.423-.39-.6-.612-.235-.294-.43-.616-.513-.989a2.519 2.519 0 01-.007-1.112c.176-.786.751-1.397 1.487-1.695a2.361 2.361 0 012.216.28c.295.217.542.487.8.745l-.82-.105a8.728 8.728 0 012.844-1.18l-.497.652c0-.396-.024-.8.056-1.19A2.384 2.384 0 019.82.303a2.444 2.444 0 012.223-.069c.676.312 1.2 1 1.31 1.738.053.363.04.727.04 1.093l-.498-.652a8.716 8.716 0 012.843 1.18l-.82.106c.2-.2.392-.424.613-.6.294-.236.616-.43.989-.514.37-.083.741-.09 1.112-.007.786.176 1.397.752 1.695 1.487a2.36 2.36 0 01-.28 2.216c-.217.295-.488.542-.746.8l.106-.82a8.73 8.73 0 011.18 2.844l-.653-.497h.682z"/></g></svg>