<svg xmlns="http://www.w3.org/2000/svg" viewBox="0 0 26 25"><g fill="none"><path fill="#F0F2F7" d="M25.385 21.836L23.261 9.51c-.111-1.121-1.117-1.906-2.235-1.906h-1.23c0-3.137-2.46-5.603-5.59-5.603S8.619 4.466 8.619 7.603h-1.23c-1.118 0-2.012.785-2.236 1.906L3.028 21.836a2.07 2.07 0 00.56 1.793c.447.449 1.005.785 1.676.785H23.15c.67 0 1.23-.336 1.676-.785a2.07 2.07 0 00.56-1.793zM14.207 4.241c1.9 0 3.353 1.457 3.353 3.362h-6.707c0-1.905 1.454-3.362 3.354-3.362zM5.264 22.172L7.388 9.845h1.23v1.12c0 .673.447 1.121 1.118 1.121.67 0 1.117-.448 1.117-1.12V9.845h6.707v1.12c0 .673.448 1.121 1.118 1.121.671 0 1.118-.448 1.118-1.12V9.845h1.23l2.124 12.327H5.264z"/><path fill="#21224E" d="M22.385 19.836L20.261 7.51c-.111-1.121-1.117-1.906-2.235-1.906h-1.23c0-3.137-2.46-5.603-5.59-5.603S5.619 2.466 5.619 5.603h-1.23c-1.118 0-2.012.785-2.236 1.906L.028 19.836a2.07 2.07 0 00.56 1.793c.447.449 1.005.785 1.676.785H20.15c.67 0 1.23-.336 1.676-.785a2.07 2.07 0 00.56-1.793zM11.207 2.241c1.9 0 3.353 1.457 3.353 3.362H7.853c0-1.905 1.454-3.362 3.354-3.362zM2.264 20.172L4.388 7.845h1.23v1.12c0 .673.447 1.121 1.118 1.121.67 0 1.117-.448 1.117-1.12V7.845h6.707v1.12c0 .673.448 1.121 1.118 1.121.671 0 1.118-.448 1.118-1.12V7.845h1.23l2.124 12.327H2.264z"/></g></svg>