<svg xmlns="http://www.w3.org/2000/svg" viewBox="0 0 40 52"><g fill="none" fill-rule="evenodd"><path fill="#F8454B" d="M19.952 17.168c2.607-1.602 5.316-2.403 8.128-2.403 4.266 0 11.943 2.014 11.636 12.61-.307 10.598-5.839 24.263-12.707 24.352-2.684 0-4.86-1.23-7.057-1.348-2.197.117-4.373 1.348-7.057 1.348C6.026 51.638.495 37.973.187 27.376c-.307-10.597 7.37-12.61 11.637-12.61 2.811 0 5.52.8 8.128 2.402z"/><path fill="#FFF" d="M20 21.072V47.31c.698.739 2.485 1.174 5.363 1.304 4.543.206 9.47-3.897 8.12-12.685 2.494-1.494 3.583-5.486 3.298-8.539-.708-7.59-5.956-9.04-10.642-8.584-3.123.305-5.17 1.06-6.139 2.266z"/><path fill="#21224E" d="M24.308 30.641c.979.991 7.546-1.58 5.202-4.518-2.345-2.938-6.181 3.527-5.202 4.518zm-.622 3.87c-.974.997 1.711 7.519 4.608 5.123 2.897-2.396-3.634-6.119-4.608-5.122z"/><path fill="#8BC53F" d="M19.558 10.088c.557-2.596 2.26-5.812 3.86-7.054 2.04-1.583 3.119-1.907 7.204-3.034.167.323.075 5.022-1.497 7.353-1.335 1.978-5.599 4.468-8.405 4.753.477.98.716 1.728.716 1.909 0 .26-.218.541-.654.846-.527.084-.932.004-1.216-.24-.425-.367-.66-2.261-2.723-4.408-2.064-2.146-4.251-2.684-4.646-3.052-.394-.369-.606-1.065-.316-1.582.29-.516.538-.5 1.033-.5.495 0 2.983.872 5.193 3.19a13.89 13.89 0 011.451 1.819z"/></g></svg>