<svg xmlns="http://www.w3.org/2000/svg" viewBox="0 0 14 12"><path fill="#AFBBCA" d="M0 10.634A7.739 7.739 0 004.426 12c5.239 0 8.129-4.585 8.129-8.585v-.39A5.739 5.739 0 0014 1.462c-.542.196-1.084.39-1.626.488.632-.39 1.084-.975 1.265-1.658-.542.39-1.174.585-1.807.683C11.29.39 10.568 0 9.755 0c-1.626 0-2.89 1.366-2.89 3.024 0 .196 0 .488.09.683C4.606 3.61 2.439 2.341 1.084.585c-.271.488-.361.976-.361 1.561 0 1.074.542 1.952 1.264 2.537-.452 0-.903-.195-1.264-.39 0 1.463.993 2.634 2.258 2.927-.271.097-.452.097-.723.097-.18 0-.361 0-.542-.097.361 1.17 1.445 2.048 2.71 2.048-.994.78-2.258 1.269-3.523 1.269-.451.195-.722.195-.903.097"/></svg>