<svg width="32" height="32" viewBox="0 0 32 32" fill="none" xmlns="http://www.w3.org/2000/svg">
<path d="M16 2.66669C13.3629 2.66669 10.785 3.44867 8.59239 4.91376C6.39974 6.37884 4.69077 8.46122 3.6816 10.8976C2.67243 13.3339 2.40839 16.0148 2.92286 18.6012C3.43733 21.1876 4.70721 23.5634 6.5719 25.4281C8.4366 27.2928 10.8124 28.5627 13.3988 29.0772C15.9852 29.5916 18.6661 29.3276 21.1024 28.3184C23.5388 27.3092 25.6212 25.6003 27.0863 23.4076C28.5513 21.215 29.3333 18.6371 29.3333 16C29.3333 14.2491 28.9884 12.5152 28.3184 10.8976C27.6483 9.2799 26.6662 7.81004 25.4281 6.57193C24.19 5.33381 22.7201 4.35169 21.1024 3.68163C19.4848 3.01156 17.751 2.66669 16 2.66669ZM16 26.6667C13.8903 26.6667 11.828 26.0411 10.0739 24.869C8.31979 23.697 6.95262 22.031 6.14528 20.082C5.33795 18.1329 5.12671 15.9882 5.53829 13.9191C5.94986 11.8499 6.96576 9.94931 8.45752 8.45755C9.94928 6.96579 11.8499 5.94989 13.919 5.53831C15.9882 5.12673 18.1329 5.33797 20.0819 6.1453C22.031 6.95264 23.6969 8.31981 24.869 10.0739C26.0411 11.8281 26.6667 13.8904 26.6667 16C26.6667 18.829 25.5429 21.5421 23.5425 23.5425C21.5421 25.5429 18.829 26.6667 16 26.6667Z" fill="white"/>
<path d="M20.0071 11.993C19.8696 11.8544 19.7061 11.7444 19.5259 11.6693C19.3457 11.5943 19.1524 11.5556 18.9572 11.5556C18.762 11.5556 18.5688 11.5943 18.3886 11.6693C18.2084 11.7444 18.0449 11.8544 17.9074 11.993L16 13.9152L14.0926 11.993C13.8141 11.7145 13.4365 11.5581 13.0427 11.5581C12.649 11.5581 12.2713 11.7145 11.9929 11.993C11.7145 12.2714 11.5581 12.649 11.5581 13.0428C11.5581 13.2378 11.5965 13.4308 11.6711 13.611C11.7457 13.7911 11.8551 13.9548 11.9929 14.0926L13.9151 16L11.9929 17.9075C11.8543 18.0449 11.7443 18.2085 11.6693 18.3886C11.5942 18.5688 11.5555 18.7621 11.5555 18.9573C11.5555 19.1525 11.5942 19.3458 11.6693 19.5259C11.7443 19.7061 11.8543 19.8697 11.9929 20.0071C12.1304 20.1457 12.2939 20.2557 12.4741 20.3308C12.6543 20.4058 12.8475 20.4445 13.0427 20.4445C13.2379 20.4445 13.4312 20.4058 13.6114 20.3308C13.7916 20.2557 13.9551 20.1457 14.0926 20.0071L16 18.0849L17.9074 20.0071C18.0449 20.1457 18.2084 20.2557 18.3886 20.3308C18.5688 20.4058 18.762 20.4445 18.9572 20.4445C19.1524 20.4445 19.3457 20.4058 19.5259 20.3308C19.7061 20.2557 19.8696 20.1457 20.0071 20.0071C20.1456 19.8697 20.2556 19.7061 20.3307 19.5259C20.4058 19.3458 20.4444 19.1525 20.4444 18.9573C20.4444 18.7621 20.4058 18.5688 20.3307 18.3886C20.2556 18.2085 20.1456 18.0449 20.0071 17.9075L18.0848 16L20.0071 14.0926C20.1456 13.9552 20.2556 13.7916 20.3307 13.6114C20.4058 13.4313 20.4444 13.238 20.4444 13.0428C20.4444 12.8476 20.4058 12.6543 20.3307 12.4742C20.2556 12.294 20.1456 12.1304 20.0071 11.993Z" fill="white"/>
</svg>
