<svg xmlns="http://www.w3.org/2000/svg" width="18" height="10" viewBox="0 0 18 10">
    <path fill="#AFBBCA" fill-rule="nonzero" d="M8.782 9.903h1.05s.35 0 .524-.178c.175-.178.175-.446.175-.446s0-1.428.612-1.606c.7-.178 1.486 1.338 2.36 1.963.7.446 1.225.357 1.225.357h2.36s1.225-.09.7-1.07c-.088-.09-.35-.715-1.749-2.053-1.486-1.338-1.311-1.16.525-3.48C17.7 1.963 18.138 1.07 17.963.714 17.875.357 17 .446 17 .446h-2.71s-.175 0-.35.09c-.175.089-.262.267-.262.267s-.438 1.07-.962 2.052c-1.224 1.963-1.661 2.052-1.836 1.963-.438-.268-.35-1.16-.35-1.784 0-1.963.262-2.766-.612-2.945C9.657 0 9.394 0 8.695 0c-.962 0-1.749 0-2.273.178-.35.179-.525.447-.438.536.175 0 .612.089.787.357.263.357.263 1.16.263 1.16s.174 2.23-.35 2.587c-.35.178-.875-.179-1.924-1.963C4.236 1.963 3.8.892 3.8.892S3.71.714 3.536.625A4.068 4.068 0 0 0 3.1.446H.563s-.35 0-.524.179c-.088.178 0 .446 0 .446s2.01 4.55 4.284 6.87c2.099 2.14 4.46 1.962 4.46 1.962"/>
</svg>
