<svg xmlns="http://www.w3.org/2000/svg" viewBox="0 0 34 34"><g fill="none" fill-rule="evenodd"><circle cx="17" cy="17" r="17" fill="#57B0FF"/><path fill="#FFF" fill-rule="nonzero" d="M16.675 22.842h1.036s.346 0 .518-.177c.173-.178.173-.444.173-.444s0-1.418.605-1.596c.69-.177 1.468 1.33 2.331 1.951.691.443 1.21.355 1.21.355h2.331s1.21-.089.691-1.064c-.086-.089-.345-.71-1.727-2.04-1.468-1.33-1.296-1.152.518-3.458 1.123-1.418 1.555-2.305 1.382-2.66-.086-.354-.95-.266-.95-.266h-2.677s-.173 0-.346.089-.259.266-.259.266-.432 1.064-.95 2.04c-1.209 1.95-1.64 2.039-1.814 1.95-.431-.266-.345-1.153-.345-1.773 0-1.951.26-2.749-.605-2.926C17.538 13 17.28 13 16.588 13c-.95 0-1.727 0-2.245.177-.346.178-.518.444-.432.532.173 0 .605.089.777.355.26.355.26 1.153.26 1.153s.172 2.216-.346 2.571c-.345.177-.864-.177-1.9-1.95-.518-.887-.95-1.951-.95-1.951s-.086-.178-.26-.266c-.172-.089-.43-.178-.43-.178H8.556s-.346 0-.519.178c-.086.177 0 .443 0 .443s1.987 4.522 4.232 6.827c2.073 2.128 4.405 1.951 4.405 1.951"/></g></svg>