<?xml version="1.0" encoding="UTF-8"?>
<svg width="17px" height="9px" viewBox="0 0 17 9" version="1.1" xmlns="http://www.w3.org/2000/svg" xmlns:xlink="http://www.w3.org/1999/xlink">
    <!-- Generator: sketchtool 51.2 (57519) - http://www.bohemiancoding.com/sketch -->
    <title>E7993B17-0D72-4205-B9BE-1E785566DE72</title>
    <desc>Created with sketchtool.</desc>
    <defs></defs>
    <g id="user-profile-Guest" stroke="none" stroke-width="1" fill="none" fill-rule="evenodd">
        <g id="22_1_User_Profile_Guests-Desktop-@1280px" transform="translate(-101.000000, -853.000000)" fill="#4A76A8" fill-rule="nonzero">
            <g id="body" transform="translate(92.000000, 177.000000)">
                <g id="sidebars" transform="translate(0.000000, 473.000000)">
                    <g id="left-sidebars">
                        <g id="left-user-menu">
                            <g id="vk-account-btn" transform="translate(0.000000, 193.000000)">
                                <path d="M16.8560551,18.9131464 L17.7946103,18.9131464 C17.7946103,18.9131464 18.1074621,18.9131464 18.263888,18.7525492 C18.4203138,18.5919519 18.4203138,18.3510561 18.4203138,18.3510561 C18.4203138,18.3510561 18.4203138,17.0662782 18.9678044,16.905681 C19.5935079,16.7450838 20.2974244,18.1101602 21.0795537,18.6722505 C21.7052572,19.0737436 22.1745349,18.993445 22.1745349,18.993445 L24.2862842,18.993445 C24.2862842,18.993445 25.3812653,18.9131464 24.9119877,18.0298616 C24.8337747,17.949563 24.5991359,17.3874727 23.3477289,16.1829934 C22.018109,14.9785142 22.1745349,15.1391114 23.8170066,13.0513474 C24.8337747,11.7665696 25.2248394,10.9635834 25.0684136,10.6423889 C24.9902006,10.3211945 24.2080712,10.4014931 24.2080712,10.4014931 L21.7834702,10.4014931 C21.7834702,10.4014931 21.6270443,10.4014931 21.4706184,10.4817917 C21.3141925,10.5620903 21.2359796,10.7226875 21.2359796,10.7226875 C21.2359796,10.7226875 20.8449149,11.6862709 20.3756373,12.5695557 C19.2806562,14.3361253 18.8895915,14.4164239 18.7331656,14.3361253 C18.3421009,14.0952294 18.4203138,13.2922433 18.4203138,12.7301529 C18.4203138,10.9635834 18.6549527,10.2408958 17.8728233,10.0802986 C17.6381845,10 17.4035457,10 16.7778422,10 C15.9174998,10 15.2135834,10 14.7443058,10.1605972 C14.431454,10.3211945 14.2750281,10.5620903 14.3532411,10.6423889 C14.509667,10.6423889 14.9007316,10.7226875 15.0571575,10.9635834 C15.2917963,11.2847779 15.2917963,12.0074654 15.2917963,12.0074654 C15.2917963,12.0074654 15.4482222,14.0149308 14.9789446,14.3361253 C14.6660928,14.4967225 14.1968152,14.175528 13.2582599,12.5695557 C12.7889823,11.7665696 12.3979176,10.8029862 12.3979176,10.8029862 C12.3979176,10.8029862 12.3197047,10.6423889 12.1632788,10.5620903 C12.0068529,10.4817917 11.7722141,10.4014931 11.7722141,10.4014931 L9.50403893,10.4014931 C9.50403893,10.4014931 9.19118718,10.4014931 9.03476131,10.5620903 C8.95654837,10.7226875 9.03476131,10.9635834 9.03476131,10.9635834 C9.03476131,10.9635834 10.8336589,15.0588128 12.8671953,17.1465768 C14.7443058,19.0737436 16.8560551,18.9131464 16.8560551,18.9131464" id="vk-account-btn-icon"></path>
                            </g>
                        </g>
                    </g>
                </g>
            </g>
        </g>
    </g>
</svg>