<svg xmlns="http://www.w3.org/2000/svg" viewBox="0 0 35 35"><path fill="#57A4E7" d="M17.5 35C27.165 35 35 27.165 35 17.5S27.165 0 17.5 0 0 7.835 0 17.5 7.835 35 17.5 35zm6.225-15.2c.7.5 1.3 1.2 1.8 2 .5 1-.7 1.1-.7 1.1h-2.4c-.4 0-.8-.1-1.2-.4-.9-.7-1.8-2.2-2.4-2-.6.2-.6 1.6-.6 1.6 0 .2-.1.4-.2.5-.1.1-.3.2-.5.2h-1.1c-1.7 0-3.4-.7-4.5-1.9-2.3-2.3-4.4-6.9-4.4-6.9v-.4c.1-.1.3-.2.5-.2h2.5c.1.1.3.1.4.2l.3.3c.3.7.6 1.4 1 2 1.1 1.8 1.6 2.2 2 2 .6-.4.4-2.6.4-2.6 0-.4-.1-.8-.3-1.2-.2-.3-.5-.4-.8-.4-.1-.1 0-.3.4-.5.7-.2 1.5-.2 2.3-.2.4 0 .8 0 1.2.1.9.1.6.9.6 2.9 0 .6-.1 1.5.4 1.8.2.1.7 0 1.9-2 .5-1 1-2.1 1-2.1l.3-.3c.2-.1.3-.1.4-.1h2.6s.8-.1 1 .3c.2.4-.2 1.3-1.4 2.7-1.8 2.3-2 2.2-.5 3.5z"/></svg>