<svg xmlns="http://www.w3.org/2000/svg" viewBox="0 0 35 35"><path fill="#FF6D6D" d="M17.5 35C7.835 35 0 27.165 0 17.5S7.835 0 17.5 0 35 7.835 35 17.5 27.165 35 17.5 35zm3.26-25h-2.544c-2.494 0-4.615 1.876-4.615 5.524 0 2.19 1.025 3.802 2.85 4.594l-3.406 6.101c-.112.198 0 .352.178.352h1.58c.134 0 .223-.044.268-.154l3.1-5.991h1.114v5.991c0 .066.067.154.156.154h1.38c.134 0 .179-.066.179-.176V10.22c.005-.154-.084-.22-.24-.22zm-1.475 9.017h-.935c-1.47 0-2.9-1.061-2.9-3.713 0-2.762 1.336-3.89 2.694-3.89h1.136l.005 7.603z"/></svg>