<svg xmlns="http://www.w3.org/2000/svg" width="26" height="25" viewBox="0 0 26 25">
    <g fill="none" fill-rule="nonzero">
        <path fill="#DBDCFF" d="M25.122 8.43L18.964 2.27a.589.589 0 0 0-.44-.171.703.703 0 0 0-.44.171l-2.736 2.761-.05.05-.048.048-1.393 1.418c-.025.024-.025.024-.049.024-.024.024-.024.024-.024.049L3.47 17.056l-.073.073v.024c-.025.025-.025.05-.05.074 0 0 0 .024-.024.024 0 .024-.024.049-.024.073V23.605c0 .342.269.61.61.61H10.192c.025 0 .05-.024.074-.024 0 0 .024 0 .024-.024.024-.025.049-.025.073-.05l.074-.072 14.638-14.76c.293-.245.293-.611.048-.856zm-6.456 2.056l-3.514-3.45.635-.635L19.4 9.623l-.734.863zm-8.621 12.288l-3.52-3.52 7.87-7.843c.244-.245.244-.636 0-.856-.245-.244-.636-.244-.856 0l-7.869 7.82-.904-.904 9.506-9.604 3.397 3.348-9.423 9.933c-.078.077 1.799 1.626 1.799 1.626l9.53-9.677-9.53 9.677zm-4.595.244l-.928-.977v-3.104l4.056 4.057H5.45v.024zM19.891 8.845L16.618 5.52l1.93-1.955 3.158 3.662-1.815 1.617z"/>
        <path fill="#94ACC4" d="M22.122 6.43L15.964.27a.589.589 0 0 0-.44-.171.703.703 0 0 0-.44.171l-2.736 2.761-.05.05-.048.048-1.393 1.418c-.025.024-.025.024-.049.024-.024.024-.024.024-.024.049L.47 15.056l-.073.073v.024c-.025.025-.025.05-.05.074 0 0 0 .024-.024.024 0 .024-.024.049-.024.073V21.605c0 .342.269.61.61.61H7.192c.025 0 .05-.024.074-.024 0 0 .024 0 .024-.024.024-.025.049-.025.073-.05l.074-.072 14.638-14.76c.293-.245.293-.611.048-.856zm-4.667 3.86l-5.303-5.254.635-.635 5.279 5.278-.611.611zM7.045 20.774l-3.52-3.52 7.87-7.843c.244-.245.244-.636 0-.856-.245-.244-.636-.244-.856 0l-7.869 7.82-.904-.904 9.506-9.604 3.397 3.348-7.478 7.771a.59.59 0 0 0 .025.855.572.572 0 0 0 .415.171.612.612 0 0 0 .44-.195l7.453-7.771 1.051 1.05-9.53 9.678zm-4.595.244l-.928-.977v-3.104l4.056 4.057H2.45v.024zM18.897 8.8L13.618 3.52l1.93-1.955 5.28 5.279L18.896 8.8z"/>
    </g>
</svg>
