<svg xmlns="http://www.w3.org/2000/svg" width="16" height="14" viewBox="0 0 16 14">
    <path fill="#B6C0CA" fill-rule="nonzero" d="M5.293 8.293a3.004 3.004 0 0 1 4-4l4-4a.999.999 0 1 1 1.414 1.414l-4 4a3.004 3.004 0 0 1-4 4l-4 4a.997.997 0 0 1-1.414 0 .999.999 0 0 1 0-1.414l4-4zm-2.453.332l-1.403 1.403C.458 8.851 0 7.63 0 7c0-1.446 2.407-6 8-6 .8 0 1.528.101 2.2.265L8.443 3.022 8 3C3.751 3 2.045 6.301 2 7.008c.017.266.283.916.84 1.617zm10.32-3.25l1.403-1.403C15.542 5.149 16 6.37 16 7c0 1.446-2.407 6-8 6a9.21 9.21 0 0 1-2.2-.265l1.757-1.757L8 11c4.249 0 5.955-3.301 6-4.008-.017-.266-.283-.916-.84-1.617zM8 6c-.551 0-1 .449-1 1 0 .551.449 1 1 1 .551 0 1-.449 1-1 0-.551-.449-1-1-1z"/>
</svg>
