<svg xmlns="http://www.w3.org/2000/svg" width="34" height="34" viewBox="0 0 34 34">
    <g fill="none" fill-rule="evenodd">
        <circle cx="17" cy="17" r="17" fill="#F86836"/>
        <path fill="#FFF" fill-rule="nonzero" d="M20.506 12c.823.001 1.49.671 1.494 1.502A1.495 1.495 0 0 1 20.505 15 1.495 1.495 0 0 1 19 13.5a1.5 1.5 0 0 1 1.506-1.5zm-5.967 0c.806.004 1.465.685 1.461 1.509A1.486 1.486 0 0 1 14.5 15c-.85-.002-1.504-.672-1.5-1.53.005-.82.692-1.474 1.54-1.47zm9.541 10.334c-.322-.013-.571-.185-.735-.493-.206-.387-.408-.777-.612-1.166-.02-.039-.043-.076-.065-.115-.244.237-.468.475-.711.688-.904.788-1.94 1.266-3.06 1.533a7.952 7.952 0 0 1-2.044.217c-1.498-.039-2.915-.414-4.202-1.284a6.2 6.2 0 0 1-1.137-.987c-.05-.055-.093-.118-.15-.193-.037.063-.06.1-.08.137-.213.398-.42.799-.64 1.193-.186.333-.468.498-.823.468-.343-.027-.6-.226-.742-.575-.129-.316-.095-.624.064-.921.444-.83.887-1.663 1.33-2.494.151-.284.3-.57.455-.852.193-.352.55-.54.897-.478.37.066.653.354.733.768.05.254.007.496-.118.722-.138.25-.135.253.032.484.489.68 1.123 1.143 1.84 1.48.65.306 1.327.481 2.03.55 1.16.115 2.28-.05 3.354-.55.765-.356 1.432-.86 1.93-1.608.064-.097.076-.168.012-.271-.166-.271-.241-.566-.148-.89.114-.39.362-.627.727-.682.38-.056.688.109.883.475.4.745.789 1.497 1.181 2.246.204.39.415.773.609 1.168.329.667-.12 1.46-.81 1.43z"/>
    </g>
</svg>
