<svg xmlns="http://www.w3.org/2000/svg" width="23" height="22" viewBox="0 0 23 22">
    <g fill="none" fill-rule="evenodd">
        <path fill="#F4F7FB" d="M13.328 2.232c1.392 0 2.676.236 3.852.708 1.176.472 2.192 1.108 3.048 1.908a8.566 8.566 0 0 1 2.004 2.832c.48 1.088.72 2.24.72 3.456 0 .96-.152 1.812-.456 2.556a5.3 5.3 0 0 1-1.272 1.884c-.544.512-1.192.9-1.944 1.164a7.341 7.341 0 0 1-2.448.396h-.6V15.6c-.368.56-.876 1-1.524 1.32-.648.32-1.348.48-2.1.48a4.578 4.578 0 0 1-1.908-.396 4.664 4.664 0 0 1-1.512-1.08 4.97 4.97 0 0 1-.996-1.62 5.568 5.568 0 0 1-.36-2.016c0-.72.12-1.388.36-2.004.24-.616.572-1.152.996-1.608a4.664 4.664 0 0 1 1.512-1.08 4.636 4.636 0 0 1 1.932-.396c.72 0 1.384.14 1.992.42.608.28 1.104.676 1.488 1.188V7.392h1.728v8.112c1.024-.08 1.856-.488 2.496-1.224.64-.736.96-1.784.96-3.144 0-1.04-.192-2.004-.576-2.892a6.924 6.924 0 0 0-1.62-2.316c-.696-.656-1.532-1.172-2.508-1.548-.976-.376-2.048-.564-3.216-.564-1.216 0-2.344.204-3.384.612-1.04.408-1.94.98-2.7 1.716A7.967 7.967 0 0 0 5.504 8.76c-.432 1.008-.648 2.112-.648 3.312 0 1.2.216 2.308.648 3.324a7.935 7.935 0 0 0 1.788 2.628 8.155 8.155 0 0 0 2.664 1.716 8.708 8.708 0 0 0 3.276.612c1.12 0 2.168-.176 3.144-.528l.336 1.44a8.581 8.581 0 0 1-1.764.492c-.616.104-1.236.156-1.86.156-1.376 0-2.668-.248-3.876-.744a9.723 9.723 0 0 1-3.156-2.064 9.764 9.764 0 0 1-2.124-3.12c-.52-1.2-.78-2.496-.78-3.888 0-1.424.264-2.74.792-3.948a9.473 9.473 0 0 1 2.172-3.12c.92-.872 2-1.556 3.24-2.052a10.595 10.595 0 0 1 3.972-.744zm-.384 6.624c-.464 0-.892.084-1.284.252a3.037 3.037 0 0 0-1.02.708 3.219 3.219 0 0 0-.672 1.092c-.16.424-.24.884-.24 1.38 0 .512.08.976.24 1.392.16.416.384.772.672 1.068a3.165 3.165 0 0 0 2.28.948c.384 0 .76-.068 1.128-.204.368-.136.696-.34.984-.612.288-.272-.808-3.09-.984-3.514-.176-.424.312-1.27.024-1.55s.368-.62 0-.756a3.23 3.23 0 0 0-1.128-.204z"/>
        <path fill="#F4F7FB" d="M17.819 4.503c.32-.757 1.934 1.31 2.613 1.99.678.68 2.26 2.87 1.474 6.29-.787 3.418-4.073 3.247-4.51 3.42-.438.173-.623-.443 0-2.78.622-2.335 1.717-1.843 1.823-4.06.105-2.217-1.72-4.102-1.4-4.86z"/>
        <path fill="#94ACC4" d="M10.328.232c1.392 0 2.676.236 3.852.708 1.176.472 2.192 1.108 3.048 1.908a8.566 8.566 0 0 1 2.004 2.832c.48 1.088.72 2.24.72 3.456 0 .96-.152 1.812-.456 2.556a5.3 5.3 0 0 1-1.272 1.884c-.544.512-1.192.9-1.944 1.164a7.341 7.341 0 0 1-2.448.396h-.6V13.6c-.368.56-.876 1-1.524 1.32-.648.32-1.348.48-2.1.48a4.578 4.578 0 0 1-1.908-.396 4.664 4.664 0 0 1-1.512-1.08 4.97 4.97 0 0 1-.996-1.62 5.568 5.568 0 0 1-.36-2.016c0-.72.12-1.388.36-2.004.24-.616.572-1.152.996-1.608A4.664 4.664 0 0 1 7.7 5.596 4.636 4.636 0 0 1 9.632 5.2c.72 0 1.384.14 1.992.42.608.28 1.104.676 1.488 1.188V5.392h1.728v8.112c1.024-.08 1.856-.488 2.496-1.224.64-.736.96-1.784.96-3.144 0-1.04-.192-2.004-.576-2.892a6.924 6.924 0 0 0-1.62-2.316c-.696-.656-1.532-1.172-2.508-1.548-.976-.376-2.048-.564-3.216-.564-1.216 0-2.344.204-3.384.612-1.04.408-1.94.98-2.7 1.716A7.967 7.967 0 0 0 2.504 6.76c-.432 1.008-.648 2.112-.648 3.312 0 1.2.216 2.308.648 3.324a7.935 7.935 0 0 0 1.788 2.628 8.155 8.155 0 0 0 2.664 1.716 8.708 8.708 0 0 0 3.276.612c1.12 0 2.168-.176 3.144-.528l.336 1.44a8.581 8.581 0 0 1-1.764.492c-.616.104-1.236.156-1.86.156-1.376 0-2.668-.248-3.876-.744a9.723 9.723 0 0 1-3.156-2.064 9.764 9.764 0 0 1-2.124-3.12c-.52-1.2-.78-2.496-.78-3.888 0-1.424.264-2.74.792-3.948a9.473 9.473 0 0 1 2.172-3.12c.92-.872 2-1.556 3.24-2.052a10.595 10.595 0 0 1 3.972-.744zm-.384 6.624c-.464 0-.892.084-1.284.252a3.037 3.037 0 0 0-1.02.708 3.219 3.219 0 0 0-.672 1.092c-.16.424-.24.884-.24 1.38 0 .512.08.976.24 1.392.16.416.384.772.672 1.068a3.165 3.165 0 0 0 2.28.948c.384 0 .76-.068 1.128-.204.368-.136.696-.34.984-.612.288-.272.524-.624.708-1.056.184-.432.276-.952.276-1.56 0-.592-.088-1.1-.264-1.524a3.115 3.115 0 0 0-.696-1.056 2.783 2.783 0 0 0-.984-.624 3.23 3.23 0 0 0-1.128-.204z"/>
    </g>
</svg>
