<svg xmlns="http://www.w3.org/2000/svg" xmlns:xlink="http://www.w3.org/1999/xlink" width="37" height="37" viewBox="0 0 37 37">
    <defs>
        <linearGradient id="a" x1="50%" x2="50%" y1="100%" y2="3.793%">
            <stop offset="0%" stop-color="#AA31C6"/>
            <stop offset="100%" stop-color="#F42729"/>
        </linearGradient>
        <circle id="b" cx="18.5" cy="18.5" r="14.5"/>
        <linearGradient id="c" x1="50%" x2="50%" y1="0%" y2="100%">
            <stop offset="0%" stop-color="#FC3C51"/>
            <stop offset="100%" stop-color="#8A2DF5"/>
        </linearGradient>
    </defs>
    <g fill="none" fill-rule="evenodd">
        <circle cx="18.5" cy="18.5" r="17.5" stroke="url(#a)" stroke-width="2"/>
        <mask id="d" fill="#fff">
            <use xlink:href="#b"/>
        </mask>
        <use fill="#FFF" xlink:href="#b"/>
        <path fill="url(#c)" d="M54.5 13a.5.5 0 0 1 .5.5v11a.5.5 0 1 1-1 0v-11a.5.5 0 0 1 .5-.5zm-2-5a.5.5 0 0 1 .5.5v21a.5.5 0 1 1-1 0v-21a.5.5 0 0 1 .5-.5zm-2 3a.5.5 0 0 1 .5.5v15a.5.5 0 1 1-1 0v-15a.5.5 0 0 1 .5-.5zm-2 4a.5.5 0 0 1 .5.5v7a.5.5 0 1 1-1 0v-7a.5.5 0 0 1 .5-.5zm-2-3a.5.5 0 0 1 .5.5v13a.5.5 0 1 1-1 0v-13a.5.5 0 0 1 .5-.5zm-2 1a.5.5 0 0 1 .5.5v11a.5.5 0 1 1-1 0v-11a.5.5 0 0 1 .5-.5zm-2-2a.5.5 0 0 1 .5.5v15a.5.5 0 1 1-1 0v-15a.5.5 0 0 1 .5-.5zm-2-4a.5.5 0 0 1 .5.5v23a.5.5 0 1 1-1 0v-23a.5.5 0 0 1 .5-.5zm-2 3a.5.5 0 0 1 .5.5v17a.5.5 0 1 1-1 0v-17a.5.5 0 0 1 .5-.5zm-2 7a.5.5 0 0 1 .5.5v3a.5.5 0 1 1-1 0v-3a.5.5 0 0 1 .5-.5zm-2 1a.5.5 0 0 1 .5.5v1a.5.5 0 1 1-1 0v-1a.5.5 0 0 1 .5-.5zm-2-2a.5.5 0 0 1 .5.5v5a.5.5 0 1 1-1 0v-5a.5.5 0 0 1 .5-.5zm-2-2a.5.5 0 0 1 .5.5v9a.5.5 0 1 1-1 0v-9a.5.5 0 0 1 .5-.5zm-2-3a.5.5 0 0 1 .5.5v15a.5.5 0 1 1-1 0v-15a.5.5 0 0 1 .5-.5zm-2 2a.5.5 0 0 1 .5.5v11a.5.5 0 1 1-1 0v-11a.5.5 0 0 1 .5-.5zm-2-5a.5.5 0 0 1 .5.5v21a.5.5 0 1 1-1 0v-21a.5.5 0 0 1 .5-.5zm-2-4a.5.5 0 0 1 .5.5v29a.5.5 0 1 1-1 0v-29a.5.5 0 0 1 .5-.5zm-2 7a.5.5 0 0 1 .5.5v15a.5.5 0 1 1-1 0v-15a.5.5 0 0 1 .5-.5zm-2 3a.5.5 0 0 1 .5.5v9a.5.5 0 1 1-1 0v-9a.5.5 0 0 1 .5-.5zm-2 4a.5.5 0 0 1 .5.5v1a.5.5 0 1 1-1 0v-1a.5.5 0 0 1 .5-.5zm-2-1a.5.5 0 0 1 .5.5v3a.5.5 0 1 1-1 0v-3a.5.5 0 0 1 .5-.5zm-2-1a.5.5 0 0 1 .5.5v5a.5.5 0 1 1-1 0v-5a.5.5 0 0 1 .5-.5zm-2-2a.5.5 0 0 1 .5.5v9a.5.5 0 1 1-1 0v-9a.5.5 0 0 1 .5-.5zm-2 3a.5.5 0 0 1 .5.5v3a.5.5 0 1 1-1 0v-3a.5.5 0 0 1 .5-.5zm-2-1a.5.5 0 0 1 .5.5v5a.5.5 0 1 1-1 0v-5a.5.5 0 0 1 .5-.5zm-2-4a.5.5 0 0 1 .5.5v13a.5.5 0 1 1-1 0v-13a.5.5 0 0 1 .5-.5zm-2-3a.5.5 0 0 1 .5.5v19a.5.5 0 1 1-1 0v-19a.5.5 0 0 1 .5-.5zm-2 6a.5.5 0 0 1 .5.5v7a.5.5 0 1 1-1 0v-7a.5.5 0 0 1 .5-.5zm-2-2a.5.5 0 0 1 .5.5v11a.5.5 0 1 1-1 0v-11a.5.5 0 0 1 .5-.5zm-2 1a.5.5 0 0 1 .5.5v9a.5.5 0 1 1-1 0v-9a.5.5 0 0 1 .5-.5zm-2-5a.5.5 0 0 1 .5.5v19a.5.5 0 1 1-1 0v-19a.5.5 0 0 1 .5-.5zm-2 7a.5.5 0 0 1 .5.5v5a.5.5 0 1 1-1 0v-5a.5.5 0 0 1 .5-.5zm-2-3a.5.5 0 0 1 .5.5v11a.5.5 0 1 1-1 0v-11a.5.5 0 0 1 .5-.5zm-2-2a.5.5 0 0 1 .5.5v15a.5.5 0 1 1-1 0v-15a.5.5 0 0 1 .5-.5zm-2-4a.5.5 0 0 1 .5.5v23a.5.5 0 1 1-1 0v-23a.5.5 0 0 1 .5-.5zm-2 7a.5.5 0 0 1 .5.5v9a.5.5 0 1 1-1 0v-9a.5.5 0 0 1 .5-.5zm-2-3a.5.5 0 0 1 .5.5v15a.5.5 0 1 1-1 0v-15a.5.5 0 0 1 .5-.5zm-2 6a.5.5 0 0 1 .5.5v3a.5.5 0 1 1-1 0v-3a.5.5 0 0 1 .5-.5zm-2-2a.5.5 0 0 1 .5.5v7a.5.5 0 1 1-1 0v-7a.5.5 0 0 1 .5-.5zm-2-3a.5.5 0 0 1 .5.5v13a.5.5 0 1 1-1 0v-13a.5.5 0 0 1 .5-.5zm-2 1a.5.5 0 0 1 .5.5v11a.5.5 0 1 1-1 0v-11a.5.5 0 0 1 .5-.5zm-2 4a.5.5 0 0 1 .5.5v3a.5.5 0 1 1-1 0v-3a.5.5 0 0 1 .5-.5zm-2-5a.5.5 0 0 1 .5.5v13a.5.5 0 1 1-1 0v-13a.5.5 0 0 1 .5-.5zm-2-3a.5.5 0 0 1 .5.5v19a.5.5 0 1 1-1 0v-19a.5.5 0 0 1 .5-.5zm-2 5a.5.5 0 0 1 .5.5v9a.5.5 0 1 1-1 0v-9a.5.5 0 0 1 .5-.5zm178-1a.5.5 0 0 1 .5.5v11a.5.5 0 0 1-1 0v-11a.5.5 0 0 1 .5-.5zm-2-5a.5.5 0 0 1 .5.5v21a.5.5 0 0 1-1 0v-21a.5.5 0 0 1 .5-.5zm-2 3a.5.5 0 0 1 .5.5v15a.5.5 0 0 1-1 0v-15a.5.5 0 0 1 .5-.5zm-2 4a.5.5 0 0 1 .5.5v7a.5.5 0 0 1-1 0v-7a.5.5 0 0 1 .5-.5zm-2-3a.5.5 0 0 1 .5.5v13a.5.5 0 0 1-1 0v-13a.5.5 0 0 1 .5-.5zm-2 1a.5.5 0 0 1 .5.5v11a.5.5 0 0 1-1 0v-11a.5.5 0 0 1 .5-.5zm-2-2a.5.5 0 0 1 .5.5v15a.5.5 0 0 1-1 0v-15a.5.5 0 0 1 .5-.5zm-2-4a.5.5 0 0 1 .5.5v23a.5.5 0 0 1-1 0v-23a.5.5 0 0 1 .5-.5zm-2 3a.5.5 0 0 1 .5.5v17a.5.5 0 0 1-1 0v-17a.5.5 0 0 1 .5-.5zm-2 7a.5.5 0 0 1 .5.5v3a.5.5 0 0 1-1 0v-3a.5.5 0 0 1 .5-.5zm-2 1a.5.5 0 0 1 .5.5v1a.5.5 0 0 1-1 0v-1a.5.5 0 0 1 .5-.5zm-2-2a.5.5 0 0 1 .5.5v5a.5.5 0 0 1-1 0v-5a.5.5 0 0 1 .5-.5zm-2-2a.5.5 0 0 1 .5.5v9a.5.5 0 0 1-1 0v-9a.5.5 0 0 1 .5-.5zm-2-3a.5.5 0 0 1 .5.5v15a.5.5 0 0 1-1 0v-15a.5.5 0 0 1 .5-.5zm-2 2a.5.5 0 0 1 .5.5v11a.5.5 0 0 1-1 0v-11a.5.5 0 0 1 .5-.5zm-2-5a.5.5 0 0 1 .5.5v21a.5.5 0 0 1-1 0v-21a.5.5 0 0 1 .5-.5zm-2-4a.5.5 0 0 1 .5.5v29a.5.5 0 0 1-1 0v-29a.5.5 0 0 1 .5-.5zm-2 7a.5.5 0 0 1 .5.5v15a.5.5 0 0 1-1 0v-15a.5.5 0 0 1 .5-.5zm-2 3a.5.5 0 0 1 .5.5v9a.5.5 0 0 1-1 0v-9a.5.5 0 0 1 .5-.5zm-2 4a.5.5 0 0 1 .5.5v1a.5.5 0 0 1-1 0v-1a.5.5 0 0 1 .5-.5zm-2-1a.5.5 0 0 1 .5.5v3a.5.5 0 0 1-1 0v-3a.5.5 0 0 1 .5-.5zm-2-1a.5.5 0 0 1 .5.5v5a.5.5 0 0 1-1 0v-5a.5.5 0 0 1 .5-.5zm-2-2a.5.5 0 0 1 .5.5v9a.5.5 0 0 1-1 0v-9a.5.5 0 0 1 .5-.5zm-2 3a.5.5 0 0 1 .5.5v3a.5.5 0 1 1-1 0v-3a.5.5 0 0 1 .5-.5zm-2-1a.5.5 0 0 1 .5.5v5a.5.5 0 1 1-1 0v-5a.5.5 0 0 1 .5-.5zm-2-4a.5.5 0 0 1 .5.5v13a.5.5 0 1 1-1 0v-13a.5.5 0 0 1 .5-.5zm-2-3a.5.5 0 0 1 .5.5v19a.5.5 0 1 1-1 0v-19a.5.5 0 0 1 .5-.5zm-2 6a.5.5 0 0 1 .5.5v7a.5.5 0 1 1-1 0v-7a.5.5 0 0 1 .5-.5zm-2-2a.5.5 0 0 1 .5.5v11a.5.5 0 1 1-1 0v-11a.5.5 0 0 1 .5-.5zm-2 1a.5.5 0 0 1 .5.5v9a.5.5 0 1 1-1 0v-9a.5.5 0 0 1 .5-.5zm-2-5a.5.5 0 0 1 .5.5v19a.5.5 0 1 1-1 0v-19a.5.5 0 0 1 .5-.5zm-2 7a.5.5 0 0 1 .5.5v5a.5.5 0 1 1-1 0v-5a.5.5 0 0 1 .5-.5zm-2-3a.5.5 0 0 1 .5.5v11a.5.5 0 1 1-1 0v-11a.5.5 0 0 1 .5-.5zm-2-2a.5.5 0 0 1 .5.5v15a.5.5 0 1 1-1 0v-15a.5.5 0 0 1 .5-.5zm-2-4a.5.5 0 0 1 .5.5v23a.5.5 0 1 1-1 0v-23a.5.5 0 0 1 .5-.5zm-2 7a.5.5 0 0 1 .5.5v9a.5.5 0 1 1-1 0v-9a.5.5 0 0 1 .5-.5zm-2-3a.5.5 0 0 1 .5.5v15a.5.5 0 1 1-1 0v-15a.5.5 0 0 1 .5-.5zm-2 6a.5.5 0 0 1 .5.5v3a.5.5 0 1 1-1 0v-3a.5.5 0 0 1 .5-.5zm-2-2a.5.5 0 0 1 .5.5v7a.5.5 0 1 1-1 0v-7a.5.5 0 0 1 .5-.5zm-2-3a.5.5 0 0 1 .5.5v13a.5.5 0 1 1-1 0v-13a.5.5 0 0 1 .5-.5zm-2 1a.5.5 0 0 1 .5.5v11a.5.5 0 1 1-1 0v-11a.5.5 0 0 1 .5-.5zm-2 4a.5.5 0 0 1 .5.5v3a.5.5 0 1 1-1 0v-3a.5.5 0 0 1 .5-.5zm-2-5a.5.5 0 0 1 .5.5v13a.5.5 0 1 1-1 0v-13a.5.5 0 0 1 .5-.5zm-2-3a.5.5 0 0 1 .5.5v19a.5.5 0 1 1-1 0v-19a.5.5 0 0 1 .5-.5zm-2 5a.5.5 0 0 1 .5.5v9a.5.5 0 1 1-1 0v-9a.5.5 0 0 1 .5-.5zm-182-1a.5.5 0 0 1 .5.5v11a.5.5 0 0 1-1 0v-11a.5.5 0 0 1 .5-.5zm-2-5a.5.5 0 0 1 .5.5v21a.5.5 0 0 1-1 0v-21a.5.5 0 0 1 .5-.5zm-2 3a.5.5 0 0 1 .5.5v15a.5.5 0 0 1-1 0v-15a.5.5 0 0 1 .5-.5zm-2 4a.5.5 0 0 1 .5.5v7a.5.5 0 0 1-1 0v-7a.5.5 0 0 1 .5-.5zm-2-3a.5.5 0 0 1 .5.5v13a.5.5 0 0 1-1 0v-13a.5.5 0 0 1 .5-.5zm-2 1a.5.5 0 0 1 .5.5v11a.5.5 0 0 1-1 0v-11a.5.5 0 0 1 .5-.5zm-2-2a.5.5 0 0 1 .5.5v15a.5.5 0 0 1-1 0v-15a.5.5 0 0 1 .5-.5zm-2-4a.5.5 0 0 1 .5.5v23a.5.5 0 0 1-1 0v-23a.5.5 0 0 1 .5-.5zm-2 3a.5.5 0 0 1 .5.5v17a.5.5 0 0 1-1 0v-17a.5.5 0 0 1 .5-.5zm-2 7a.5.5 0 0 1 .5.5v3a.5.5 0 0 1-1 0v-3a.5.5 0 0 1 .5-.5zm-2 1a.5.5 0 0 1 .5.5v1a.5.5 0 0 1-1 0v-1a.5.5 0 0 1 .5-.5zm-2-2a.5.5 0 0 1 .5.5v5a.5.5 0 0 1-1 0v-5a.5.5 0 0 1 .5-.5zm-2-2a.5.5 0 0 1 .5.5v9a.5.5 0 0 1-1 0v-9a.5.5 0 0 1 .5-.5zm-2-3a.5.5 0 0 1 .5.5v15a.5.5 0 0 1-1 0v-15a.5.5 0 0 1 .5-.5zm-2 2a.5.5 0 0 1 .5.5v11a.5.5 0 0 1-1 0v-11a.5.5 0 0 1 .5-.5zm-2-5a.5.5 0 0 1 .5.5v21a.5.5 0 0 1-1 0v-21a.5.5 0 0 1 .5-.5zm-2-4a.5.5 0 0 1 .5.5v29a.5.5 0 0 1-1 0v-29a.5.5 0 0 1 .5-.5zm-2 7a.5.5 0 0 1 .5.5v15a.5.5 0 0 1-1 0v-15a.5.5 0 0 1 .5-.5zm-2 3a.5.5 0 0 1 .5.5v9a.5.5 0 0 1-1 0v-9a.5.5 0 0 1 .5-.5zm-2 4a.5.5 0 0 1 .5.5v1a.5.5 0 0 1-1 0v-1a.5.5 0 0 1 .5-.5zm-2-1a.5.5 0 0 1 .5.5v3a.5.5 0 0 1-1 0v-3a.5.5 0 0 1 .5-.5zm-2-1a.5.5 0 0 1 .5.5v5a.5.5 0 0 1-1 0v-5a.5.5 0 0 1 .5-.5zm-2-2a.5.5 0 0 1 .5.5v9a.5.5 0 0 1-1 0v-9a.5.5 0 0 1 .5-.5zm-2 3a.5.5 0 0 1 .5.5v3a.5.5 0 0 1-1 0v-3a.5.5 0 0 1 .5-.5zm-2-1a.5.5 0 0 1 .5.5v5a.5.5 0 0 1-1 0v-5a.5.5 0 0 1 .5-.5zm-2-4a.5.5 0 0 1 .5.5v13a.5.5 0 0 1-1 0v-13a.5.5 0 0 1 .5-.5zm-2-3a.5.5 0 0 1 .5.5v19a.5.5 0 0 1-1 0v-19a.5.5 0 0 1 .5-.5zm-2 6a.5.5 0 0 1 .5.5v7a.5.5 0 0 1-1 0v-7a.5.5 0 0 1 .5-.5zm-2-2a.5.5 0 0 1 .5.5v11a.5.5 0 0 1-1 0v-11a.5.5 0 0 1 .5-.5zm-2 1a.5.5 0 0 1 .5.5v9a.5.5 0 0 1-1 0v-9a.5.5 0 0 1 .5-.5zm-2-5a.5.5 0 0 1 .5.5v19a.5.5 0 0 1-1 0v-19a.5.5 0 0 1 .5-.5zm-2 7a.5.5 0 0 1 .5.5v5a.5.5 0 0 1-1 0v-5a.5.5 0 0 1 .5-.5zm-2-3a.5.5 0 0 1 .5.5v11a.5.5 0 0 1-1 0v-11a.5.5 0 0 1 .5-.5zm-2-2a.5.5 0 0 1 .5.5v15a.5.5 0 0 1-1 0v-15a.5.5 0 0 1 .5-.5zm-2-4a.5.5 0 0 1 .5.5v23a.5.5 0 0 1-1 0v-23a.5.5 0 0 1 .5-.5zm-2 7a.5.5 0 0 1 .5.5v9a.5.5 0 0 1-1 0v-9a.5.5 0 0 1 .5-.5zm-2-3a.5.5 0 0 1 .5.5v15a.5.5 0 0 1-1 0v-15a.5.5 0 0 1 .5-.5zm-2 6a.5.5 0 0 1 .5.5v3a.5.5 0 0 1-1 0v-3a.5.5 0 0 1 .5-.5zm-2-2a.5.5 0 0 1 .5.5v7a.5.5 0 0 1-1 0v-7a.5.5 0 0 1 .5-.5zm-2-3a.5.5 0 0 1 .5.5v13a.5.5 0 0 1-1 0v-13a.5.5 0 0 1 .5-.5zm-2 1a.5.5 0 0 1 .5.5v11a.5.5 0 0 1-1 0v-11a.5.5 0 0 1 .5-.5zm-2 4a.5.5 0 0 1 .5.5v3a.5.5 0 0 1-1 0v-3a.5.5 0 0 1 .5-.5zm-2-5a.5.5 0 0 1 .5.5v13a.5.5 0 0 1-1 0v-13a.5.5 0 0 1 .5-.5zm-2-3a.5.5 0 0 1 .5.5v19a.5.5 0 0 1-1 0v-19a.5.5 0 0 1 .5-.5zm-2 5a.5.5 0 0 1 .5.5v9a.5.5 0 0 1-1 0v-9a.5.5 0 0 1 .5-.5zm178-1a.5.5 0 0 1 .5.5v11a.5.5 0 1 1-1 0v-11a.5.5 0 0 1 .5-.5zm-2-5a.5.5 0 0 1 .5.5v21a.5.5 0 1 1-1 0v-21a.5.5 0 0 1 .5-.5zm-2 3a.5.5 0 0 1 .5.5v15a.5.5 0 1 1-1 0v-15a.5.5 0 0 1 .5-.5zm-2 4a.5.5 0 0 1 .5.5v7a.5.5 0 1 1-1 0v-7a.5.5 0 0 1 .5-.5zm-2-3a.5.5 0 0 1 .5.5v13a.5.5 0 1 1-1 0v-13a.5.5 0 0 1 .5-.5zm-2 1a.5.5 0 0 1 .5.5v11a.5.5 0 1 1-1 0v-11a.5.5 0 0 1 .5-.5zm-2-2a.5.5 0 0 1 .5.5v15a.5.5 0 1 1-1 0v-15a.5.5 0 0 1 .5-.5zm-2-4a.5.5 0 0 1 .5.5v23a.5.5 0 1 1-1 0v-23a.5.5 0 0 1 .5-.5zm-2 3a.5.5 0 0 1 .5.5v17a.5.5 0 1 1-1 0v-17a.5.5 0 0 1 .5-.5zm-2 7a.5.5 0 0 1 .5.5v3a.5.5 0 1 1-1 0v-3a.5.5 0 0 1 .5-.5zm-2 1a.5.5 0 0 1 .5.5v1a.5.5 0 1 1-1 0v-1a.5.5 0 0 1 .5-.5zm-2-2a.5.5 0 0 1 .5.5v5a.5.5 0 1 1-1 0v-5a.5.5 0 0 1 .5-.5zm-2-2a.5.5 0 0 1 .5.5v9a.5.5 0 1 1-1 0v-9a.5.5 0 0 1 .5-.5zm-2-3a.5.5 0 0 1 .5.5v15a.5.5 0 1 1-1 0v-15a.5.5 0 0 1 .5-.5zm-2 2a.5.5 0 0 1 .5.5v11a.5.5 0 1 1-1 0v-11a.5.5 0 0 1 .5-.5zm-2-5a.5.5 0 0 1 .5.5v21a.5.5 0 1 1-1 0v-21a.5.5 0 0 1 .5-.5zm-2-4a.5.5 0 0 1 .5.5v29a.5.5 0 1 1-1 0v-29a.5.5 0 0 1 .5-.5zm-2 7a.5.5 0 0 1 .5.5v15a.5.5 0 1 1-1 0v-15a.5.5 0 0 1 .5-.5zm-2 3a.5.5 0 0 1 .5.5v9a.5.5 0 1 1-1 0v-9a.5.5 0 0 1 .5-.5zm-2 4a.5.5 0 0 1 .5.5v1a.5.5 0 1 1-1 0v-1a.5.5 0 0 1 .5-.5zm-2-1a.5.5 0 0 1 .5.5v3a.5.5 0 1 1-1 0v-3a.5.5 0 0 1 .5-.5zm-2-1a.5.5 0 0 1 .5.5v5a.5.5 0 1 1-1 0v-5a.5.5 0 0 1 .5-.5zm-2-2a.5.5 0 0 1 .5.5v9a.5.5 0 1 1-1 0v-9a.5.5 0 0 1 .5-.5zm-2 3a.5.5 0 0 1 .5.5v3a.5.5 0 1 1-1 0v-3a.5.5 0 0 1 .5-.5zm-2-1a.5.5 0 0 1 .5.5v5a.5.5 0 1 1-1 0v-5a.5.5 0 0 1 .5-.5zm-2-4a.5.5 0 0 1 .5.5v13a.5.5 0 1 1-1 0v-13a.5.5 0 0 1 .5-.5zm-2-3a.5.5 0 0 1 .5.5v19a.5.5 0 1 1-1 0v-19a.5.5 0 0 1 .5-.5zm-2 6a.5.5 0 0 1 .5.5v7a.5.5 0 1 1-1 0v-7a.5.5 0 0 1 .5-.5zm-2-2a.5.5 0 0 1 .5.5v11a.5.5 0 1 1-1 0v-11a.5.5 0 0 1 .5-.5zm-2 1a.5.5 0 0 1 .5.5v9a.5.5 0 1 1-1 0v-9a.5.5 0 0 1 .5-.5zm-2-5a.5.5 0 0 1 .5.5v19a.5.5 0 1 1-1 0v-19a.5.5 0 0 1 .5-.5zm-2 7a.5.5 0 0 1 .5.5v5a.5.5 0 1 1-1 0v-5a.5.5 0 0 1 .5-.5zm-2-3a.5.5 0 0 1 .5.5v11a.5.5 0 1 1-1 0v-11a.5.5 0 0 1 .5-.5zm-2-2a.5.5 0 0 1 .5.5v15a.5.5 0 0 1-1 0v-15a.5.5 0 0 1 .5-.5zm-2-4a.5.5 0 0 1 .5.5v23a.5.5 0 0 1-1 0v-23a.5.5 0 0 1 .5-.5zm-2 7a.5.5 0 0 1 .5.5v9a.5.5 0 0 1-1 0v-9a.5.5 0 0 1 .5-.5zm-2-3a.5.5 0 0 1 .5.5v15a.5.5 0 0 1-1 0v-15a.5.5 0 0 1 .5-.5zm-2 6a.5.5 0 0 1 .5.5v3a.5.5 0 0 1-1 0v-3a.5.5 0 0 1 .5-.5zm-2-2a.5.5 0 0 1 .5.5v7a.5.5 0 0 1-1 0v-7a.5.5 0 0 1 .5-.5zm-2-3a.5.5 0 0 1 .5.5v13a.5.5 0 0 1-1 0v-13a.5.5 0 0 1 .5-.5zm-2 1a.5.5 0 0 1 .5.5v11a.5.5 0 0 1-1 0v-11a.5.5 0 0 1 .5-.5zm-2 4a.5.5 0 0 1 .5.5v3a.5.5 0 0 1-1 0v-3a.5.5 0 0 1 .5-.5zm-2-5a.5.5 0 0 1 .5.5v13a.5.5 0 0 1-1 0v-13a.5.5 0 0 1 .5-.5zm-2-3a.5.5 0 0 1 .5.5v19a.5.5 0 0 1-1 0v-19a.5.5 0 0 1 .5-.5zm-2 5a.5.5 0 0 1 .5.5v9a.5.5 0 0 1-1 0v-9a.5.5 0 0 1 .5-.5z" mask="url(#d)"/>
    </g>
</svg>
