<svg xmlns="http://www.w3.org/2000/svg" width="22" height="19" viewBox="0 0 22 19">
    <path fill="#21224E" fill-rule="nonzero" d="M11 5.626c-2.602 0-4.72 2.129-4.72 4.745 0 2.617 2.118 4.746 4.72 4.746s4.72-2.129 4.72-4.746c0-2.616-2.118-4.745-4.72-4.745zm2.412 5.516a.769.769 0 0 1-.767-.77c0-.912-.738-1.654-1.645-1.654a.769.769 0 0 1-.767-.772c0-.425.343-.77.767-.77 1.753 0 3.179 1.433 3.179 3.195a.77.77 0 0 1-.767.771zm4.739-8.585h-1.593L14.985 0h-7.97L5.442 2.557H3.85C1.727 2.557 0 4.292 0 6.426v8.67c0 2.134 1.727 3.87 3.85 3.87h14.3c2.123 0 3.85-1.736 3.85-3.87v-8.67c0-2.134-1.727-3.869-3.85-3.869zM3.24 6.772a.955.955 0 0 1-.953-.957c0-.53.427-.958.952-.958.526 0 .953.429.953.958a.955.955 0 0 1-.953.957zM11 16.599c-3.415 0-6.194-2.794-6.194-6.228 0-3.433 2.779-6.227 6.194-6.227s6.194 2.794 6.194 6.227c0 3.434-2.779 6.228-6.194 6.228z"/>
</svg>
