<svg xmlns="http://www.w3.org/2000/svg" width="46" height="41" viewBox="0 0 46 41">
    <g fill="none" fill-rule="evenodd">
        <circle cx="26" cy="21" r="20" fill="#F4F7FB"/>
        <path fill="#DEE0E4" d="M33.063 19.003c-.518 0-.803-.544-1.328-1.048s-1.434-1.296-1.806-1.668c-3.154-.794-4.377.414-3.666 3.625-1.24 5.425-1.99 8.138-2.25 8.138-.12 0-3.108.574-5.614-.216-1.423-.448.68-8.06-2.08-8.625l-2.496.124c-.731-.733-1.965 1.374-1.965 2.927-.107 3.03-.16 4.989-.16 5.876 0 .571-.69 1.276-2.068 2.115 0 1.035.84 1.874 1.874 1.874h2.813c.517 0 .937-.419.937-.937l-.012-4.312c0-.988.064-.968 1.964-.896.268.01.278 1.712 1.376 2.436 1.245.82 3.607.68 4.16.778l.01 1.994c0 .518.42.937.937.937h2.813c1.034 0 1.875-.84 1.875-1.874v-6.562a.938.938 0 1 1 1.873 0v6.562c0 2.07-1.678 3.749-3.748 3.749h-2.813a2.812 2.812 0 0 1-2.811-2.812l-1.07-2.695c0-.518-2.724-1.132-2.724-.614l.044 3.309A2.812 2.812 0 0 1 14.317 34h-2.813a3.749 3.749 0 0 1-3.748-3.75v-6.56c0-.518-.438-.905-.938-1.055-1.628-.436-2.812-1.894-2.812-3.632v.208a3.726 3.726 0 0 1 1.078-2.86L16.352 5.085A3.716 3.716 0 0 1 19 4c.96 0 1.922.352 2.655 1.084l1.648 1.649a2.329 2.329 0 0 1 1.793-.853h2.811a2.343 2.343 0 0 1 2.343 2.344v4.686c0 .505.202.96.527 1.297l2.144 2.144c.736.736 1.079 1.102 1.079 1.714 0 .519-.42.938-.937.938zm-1.875 1.875a.937.937 0 1 1 0 1.873.937.937 0 0 1 0-1.873z"/>
        <path fill="#383AAA" d="M30 14.065a.937.937 0 1 1-1.875 0c0-.247-1.563-1.422-1.935-1.794l-1.017-1.017h.03a3.737 3.737 0 0 1-.826-2.344V4.693a.938.938 0 0 0-.938-.938h-1.875a.937.937 0 0 0-.937.938v.322a.703.703 0 0 1-1.19.504L16.328 2.41a1.873 1.873 0 0 0-2.65 0L2.41 13.677c-.367.367-.55.846-.55 1.326h.02c0 1.034.785 1.875 1.565 1.875.894 0 2.184 1.258 2.184 2.811v6.562c0 1.035.84 1.874 1.874 1.874h2.813c.517 0 .937-.419.937-.937v-6.093a2.344 2.344 0 0 1 2.343-2.344h2.812a2.344 2.344 0 0 1 2.343 2.344v6.093c0 .518.42.937.937.937h2.813c1.034 0 1.875-.84 1.875-1.874v-6.562a.938.938 0 1 1 1.873 0v6.562c0 2.07-1.678 3.749-3.748 3.749h-2.813a2.812 2.812 0 0 1-2.811-2.812v-5.624a.937.937 0 0 0-.938-.937h-1.875a.937.937 0 0 0-.937.937v5.624A2.812 2.812 0 0 1 10.317 30H7.504a3.749 3.749 0 0 1-3.748-3.75v-6.56c0-.518-.438-.905-.938-1.055-.01-.003-.015-.008-.023-.013a3.744 3.744 0 0 1-2.79-3.62v.209a3.726 3.726 0 0 1 1.08-2.86L12.351 1.085A3.716 3.716 0 0 1 15 0c.96 0 1.922.352 2.655 1.084l1.648 1.649a2.329 2.329 0 0 1 1.793-.853h2.811a2.343 2.343 0 0 1 2.343 2.344V8.91c0 .505.202.96.527 1.297l2.144 2.144c.736.736 1.079 1.102 1.079 1.714zm-2.812 2.813a.937.937 0 1 1 0 1.873.937.937 0 0 1 0-1.873z"/>
    </g>
</svg>
