<svg xmlns="http://www.w3.org/2000/svg" width="42" height="58" viewBox="0 0 42 58">
    <g fill="none" fill-rule="nonzero">
        <path fill="#F0F2F7" d="M30.477 47.772C36.64 47.772 42 43.026 42 35.51c0-9.735-8.047-15.584-17.173-16.364l-1.898-3.765c2.936.511 7.84.794 10.54-1.142 5.263-3.63 6.232-9.076 6.232-10.42-7.686 3.898-10.456 2.688-15.276 5.78a14.4 14.4 0 0 0-2.88 3.026l-3.31-6.588-1.801 3.294 3.24 9.963C10.632 20.625 3 27.846 3 37.957c0 13.903 10.678 19.16 19.888 19.16 4.265 0 7.63-.914 10.373-2.703 0-1.68-.637-3.428-2.687-4.195-2.479 1.533-4.944 1.99-7.478 1.99-8.532 0-14.418-5.365-14.418-14.252 0-8.538 6.523-13.943 14.21-13.943 7.257 0 13.475 4.14 13.475 11.496 0 4.854-2.05 7.92-4.792 7.92-.789 0-1.205-.458-1.205-1.076 0-.619.208-1.332.319-1.896l1.787-8.283c.055-.363.11-.712.11-1.022 0-1.277-.997-1.68-2.05-2.043-1.897-.565-4.154-.915-5.788-.915-7.52 0-13.047 4.706-13.047 13.083 0 3.832 2.258 6.387 5.679 6.387 2.839 0 5.733-.915 7.894-6.44h.374c-.319 1.276-.679 1.895-.679 3.01-.014 2.26 1.344 3.537 5.512 3.537zm-10.484-6.346c-.79 0-1.37-.457-1.37-1.99 0-2.152 1.107-6.239 4.583-6.239.679 0 1.26 0 1.953.255-1.163 4.303-3.102 7.974-5.166 7.974z"/>
        <path fill="#8DBC24" d="M27.477 44.811C33.64 44.811 39 40.065 39 32.55c0-9.735-8.047-15.584-17.173-16.364l-1.898-3.765c2.936.511 7.84.794 10.54-1.142C35.732 7.648 36.7 2.202 36.7.858c-7.686 3.898-10.456 2.688-15.276 5.78a14.4 14.4 0 0 0-2.88 3.026l-3.31-6.588-1.801 3.294 3.24 9.963C7.632 17.664 0 24.885 0 34.996c0 13.903 10.678 19.16 19.888 19.16 4.265 0 7.63-.914 10.373-2.703 0-1.68-.637-3.428-2.687-4.195-2.479 1.533-4.944 1.99-7.478 1.99-8.532 0-14.418-5.365-14.418-14.252 0-8.538 6.523-13.943 14.21-13.943 7.257 0 13.475 4.14 13.475 11.496 0 4.854-2.05 7.92-4.792 7.92-.789 0-1.205-.458-1.205-1.077 0-.618.208-1.33.319-1.895l1.787-8.283c.055-.363.11-.713.11-1.022 0-1.277-.997-1.68-2.05-2.044-1.897-.564-4.154-.914-5.788-.914-7.52 0-13.047 4.706-13.047 13.083 0 3.832 2.258 6.387 5.679 6.387 2.839 0 5.733-.915 7.894-6.441h.374c-.319 1.277-.679 1.896-.679 3.012-.014 2.259 1.344 3.536 5.512 3.536zm-10.484-6.346c-.79 0-1.37-.457-1.37-1.99 0-2.152 1.107-6.239 4.583-6.239.679 0 1.26 0 1.953.255-1.163 4.303-3.102 7.974-5.166 7.974z"/>
    </g>
</svg>
