<svg xmlns="http://www.w3.org/2000/svg" width="116" height="34" viewBox="0 0 116 34">
    <g fill="none" fill-rule="evenodd">
        <path fill="#282829" d="M9.605 27.86l2.743 3.413h-1.625l-2.73-3.413 2.457-2.887h1.677L9.605 27.86zm-3.068 0l-2.743 3.413H2.182l2.743-3.426-2.509-2.874H4.08l2.457 2.887zm1.417 3.413H6.589v-6.3h1.365v6.3zm8.359.718c-.269.608-.591 1.048-.968 1.322-.378.274-.839.41-1.385.41-.173 0-.351-.01-.533-.032a3.858 3.858 0 0 1-.52-.096v-1.142c.156.017.295.03.416.039.121.008.238.013.351.013.295 0 .557-.06.787-.18.23-.12.43-.368.604-.744l.26-.59-2.548-6.018h1.469l1.82 4.593 1.898-4.593h1.456l-3.107 7.018zm7.904-7.16c.45 0 .869.084 1.255.25.385.167.717.398.994.694.277.295.494.641.65 1.039.156.398.234.832.234 1.302 0 .47-.078.907-.234 1.309-.156.402-.375.75-.657 1.046a3.048 3.048 0 0 1-2.242.943 3.12 3.12 0 0 1-1.215-.231 2.355 2.355 0 0 1-.917-.667v3.066H20.72v-8.61h1.261v.912c.234-.334.546-.593.936-.777a3.01 3.01 0 0 1 1.3-.276zm-.221 1.232c-.234 0-.466.04-.695.122a1.789 1.789 0 0 0-1.06 1.007 2.289 2.289 0 0 0-.169.924c0 .36.054.667.163.924.108.257.253.47.435.642.182.17.388.297.617.378.23.081.466.122.709.122.269 0 .522-.05.76-.147a1.873 1.873 0 0 0 1.04-1.065c.1-.253.15-.533.15-.84 0-.309-.05-.589-.15-.841a1.883 1.883 0 0 0-1.027-1.071 1.934 1.934 0 0 0-.773-.155zm10.582 5.21h-1.365v-2.72h-2.847v2.72h-1.365v-6.3h1.365v2.412h2.847v-2.412h1.365v6.3zm4.485-6.442c.39 0 .745.056 1.066.167.32.111.596.276.826.494.23.218.409.492.539.821.13.33.195.713.195 1.149v3.81h-1.274v-.705a2.303 2.303 0 0 1-.858.622c-.347.15-.741.225-1.183.225-.338 0-.643-.043-.916-.128a2.03 2.03 0 0 1-.703-.373 1.661 1.661 0 0 1-.448-.577 1.736 1.736 0 0 1-.156-.744c0-.556.212-.995.637-1.315.425-.321.997-.482 1.716-.482h1.807v-.41c0-.436-.117-.77-.351-1-.234-.232-.572-.347-1.014-.347-.373 0-.698.08-.975.243a3.284 3.284 0 0 0-.806.693l-.78-.795c.33-.462.724-.802 1.183-1.02a3.44 3.44 0 0 1 1.495-.328zm-.403 5.544c.225 0 .438-.037.637-.11.2-.072.375-.175.527-.307.151-.133.27-.291.357-.475.087-.184.13-.383.13-.597v-.115h-1.638c-.364 0-.643.064-.839.192-.195.128-.292.32-.292.578 0 .273.108.48.325.622.217.141.481.212.793.212zm10.348.898h-1.352V26.14h-1.937v.616c0 .838-.074 1.54-.221 2.104-.147.565-.353 1.025-.617 1.38a2.451 2.451 0 0 1-.937.783c-.36.166-.747.271-1.163.314v-1.193c.286-.06.529-.176.728-.347.2-.17.362-.417.487-.738.126-.32.217-.72.273-1.2.057-.478.085-1.06.085-1.744v-1.142h4.654v6.3zm8.658-6.442c.607 0 1.14.133 1.599.398.46.265.828.62 1.105 1.065l-.962.744a2.82 2.82 0 0 0-.735-.699c-.273-.175-.604-.263-.994-.263a1.99 1.99 0 0 0-.8.16 1.881 1.881 0 0 0-.63.437 2.114 2.114 0 0 0-.559 1.444c0 .29.05.562.15.814.1.252.236.47.409.654.173.184.383.328.63.43.248.103.514.154.8.154.39 0 .72-.085.988-.256.269-.171.511-.402.728-.693l.962.731c-.277.445-.646.8-1.105 1.065-.46.265-.988.398-1.586.398a3.46 3.46 0 0 1-2.398-.956 3.173 3.173 0 0 1-.722-1.046 3.238 3.238 0 0 1-.26-1.296 3.192 3.192 0 0 1 .981-2.329 3.46 3.46 0 0 1 2.399-.956zm6.643 0c.39 0 .745.056 1.066.167.32.111.596.276.826.494.23.218.409.492.539.821.13.33.195.713.195 1.149v3.81h-1.274v-.705a2.303 2.303 0 0 1-.858.622c-.347.15-.741.225-1.183.225-.338 0-.643-.043-.916-.128a2.03 2.03 0 0 1-.703-.373 1.661 1.661 0 0 1-.448-.577 1.736 1.736 0 0 1-.156-.744c0-.556.212-.995.637-1.315.425-.321.997-.482 1.716-.482h1.807v-.41c0-.436-.117-.77-.351-1-.234-.232-.572-.347-1.014-.347-.373 0-.698.08-.975.243a3.284 3.284 0 0 0-.806.693l-.78-.795c.33-.462.724-.802 1.183-1.02a3.44 3.44 0 0 1 1.495-.328zm-.403 5.544c.225 0 .438-.037.637-.11.2-.072.375-.175.526-.307.152-.133.271-.291.358-.475.087-.184.13-.383.13-.597v-.115h-1.638c-.364 0-.643.064-.838.192-.196.128-.293.32-.293.578 0 .273.108.48.325.622.217.141.481.212.793.212zm11.843 2.707h-1.365v-1.81h-4.732v1.81h-1.365v-2.977h.65c.19-.171.362-.376.514-.616.151-.24.279-.532.383-.879.104-.346.184-.761.24-1.244.057-.484.085-1.059.085-1.726v-.667h4.498v5.132h1.092v2.977zm-4.225-6.942c-.009.958-.089 1.758-.24 2.4-.152.641-.419 1.163-.8 1.565h2.808V26.14h-1.768zm8.645-1.309c.468 0 .906.086 1.313.257a3.48 3.48 0 0 1 1.073.7c.307.295.55.641.727 1.039.178.397.267.827.267 1.29 0 .461-.089.893-.267 1.295-.177.402-.42.75-.727 1.046a3.46 3.46 0 0 1-2.399.956c-.468 0-.906-.086-1.313-.257a3.48 3.48 0 0 1-1.073-.7 3.173 3.173 0 0 1-.721-1.045 3.238 3.238 0 0 1-.26-1.296 3.192 3.192 0 0 1 .981-2.329 3.46 3.46 0 0 1 2.399-.956zm0 1.232a1.99 1.99 0 0 0-.8.16 1.881 1.881 0 0 0-.63.437 1.943 1.943 0 0 0-.403.654 2.287 2.287 0 0 0-.143.815c0 .29.048.56.143.808a1.905 1.905 0 0 0 1.82 1.232c.286 0 .55-.051.793-.154a1.89 1.89 0 0 0 .63-.43c.178-.183.317-.4.417-.648.1-.248.149-.517.149-.808 0-.29-.05-.562-.15-.815-.1-.252-.238-.47-.416-.654a1.972 1.972 0 0 0-.63-.436 1.913 1.913 0 0 0-.78-.16zm7.969-1.09c.633 0 1.148.15 1.547.449.399.3.598.714.598 1.244 0 .522-.19.937-.572 1.245.303.137.548.33.734.577.187.248.28.552.28.911a1.718 1.718 0 0 1-.617 1.341 2.128 2.128 0 0 1-.709.392 2.86 2.86 0 0 1-.923.14h-3.289v-6.3h2.951zm-1.625 3.554v1.604h1.859c.347 0 .611-.075.793-.225a.734.734 0 0 0 .273-.596.675.675 0 0 0-.28-.578c-.186-.137-.448-.205-.786-.205h-1.859zm0-2.425v1.373h1.599c.295 0 .513-.06.657-.18.143-.12.214-.29.214-.513 0-.454-.29-.68-.871-.68h-1.599zm8.749-1.27c.468 0 .906.085 1.313.256a3.48 3.48 0 0 1 1.072.7c.308.295.55.641.728 1.039.178.397.267.827.267 1.29 0 .461-.089.893-.266 1.295-.178.402-.42.75-.729 1.046a3.46 3.46 0 0 1-2.398.956c-.468 0-.906-.086-1.313-.257a3.48 3.48 0 0 1-1.073-.7 3.173 3.173 0 0 1-.721-1.045 3.238 3.238 0 0 1-.26-1.296 3.192 3.192 0 0 1 .981-2.329 3.46 3.46 0 0 1 2.399-.956zm0 1.231a1.99 1.99 0 0 0-.8.16 1.881 1.881 0 0 0-.63.437 1.943 1.943 0 0 0-.403.654 2.287 2.287 0 0 0-.143.815c0 .29.048.56.143.808a1.905 1.905 0 0 0 1.82 1.232c.286 0 .55-.051.793-.154a1.89 1.89 0 0 0 .63-.43c.178-.183.317-.4.416-.648.1-.248.15-.517.15-.808 0-.29-.05-.562-.15-.815-.1-.252-.238-.47-.415-.654a1.972 1.972 0 0 0-.631-.436 1.913 1.913 0 0 0-.78-.16zm11.856 7.019h-1.365v-1.81h-4.732v1.81h-1.365v-2.977h.65c.19-.171.362-.376.514-.616.151-.24.279-.532.383-.879.104-.346.184-.761.24-1.244.057-.484.085-1.059.085-1.726v-.667h4.498v5.132h1.092v2.977zm-4.225-6.942c-.009.958-.089 1.758-.24 2.4-.152.641-.419 1.163-.8 1.565h2.808V26.14h-1.768zm8.112-1.309c.39 0 .745.056 1.066.167.32.111.596.276.826.494.23.218.409.492.539.821.13.33.195.713.195 1.149v3.81h-1.274v-.705a2.303 2.303 0 0 1-.858.622c-.347.15-.741.225-1.183.225-.338 0-.643-.043-.916-.128a2.03 2.03 0 0 1-.703-.373 1.661 1.661 0 0 1-.448-.577 1.736 1.736 0 0 1-.156-.744c0-.556.212-.995.637-1.315.425-.321.997-.482 1.716-.482h1.807v-.41c0-.436-.117-.77-.351-1-.234-.232-.572-.347-1.014-.347-.373 0-.698.08-.975.243a3.284 3.284 0 0 0-.806.693l-.78-.795c.33-.462.724-.802 1.183-1.02a3.44 3.44 0 0 1 1.495-.328zm-.403 5.544c.225 0 .438-.037.637-.11.2-.072.375-.175.526-.307.152-.133.271-.291.358-.475.087-.184.13-.383.13-.597v-.115h-1.638c-.364 0-.643.064-.838.192-.196.128-.293.32-.293.578 0 .273.108.48.325.622.217.141.481.212.793.212z"/>
        <path fill="#F0F2F7" d="M1.713 15.479l1.43-.196V4.426l-1.65-.195c-.374-.044-.528-.587-.528-1.108 0-.434.11-.868.44-.868h7.854c2.354 0 4.994.868 4.994 3.952 0 1.541-.924 2.866-2.486 3.235v.065c2.244.37 3.058 1.868 3.058 3.54 0 3.582-3.564 4.408-5.61 4.408h-7.59c-.33 0-.44-.435-.44-.89 0-.5.154-1.043.528-1.086zm4.422-.218h2.772c1.276 0 2.816-.412 2.816-2.236 0-1.585-1.144-2.302-2.904-2.302H6.135v4.538zm0-6.666h2.574c1.188 0 2.442-.456 2.442-2.171 0-1.607-1.276-1.976-2.464-1.976H6.135v4.147zm10.318 3.496c0-3.648 2.486-5.559 5.808-5.559 3.322 0 5.83 1.911 5.83 5.56 0 3.647-2.486 5.558-5.808 5.558-3.322 0-5.83-1.91-5.83-5.559zm5.83 3.518c2.266 0 2.838-2.215 2.838-3.518s-.594-3.518-2.86-3.518-2.838 2.215-2.838 3.518.594 3.518 2.86 3.518zm15.356-5.146c.066.434.748.586 1.276.586.55 0 .924-.196.924-.456V7.357c-1.232-.499-2.552-.825-3.872-.825-3.542 0-6.336 2.02-6.336 5.711 0 4.191 3.036 5.407 5.874 5.407 1.562 0 3.674-.543 4.796-1.281 0-.608-.198-1.368-.902-1.585-1.056.39-1.958.716-3.564.716-2.376 0-3.234-1.52-3.234-3.257 0-1.889 1.034-3.604 3.278-3.604.638 0 1.078.043 1.54.152l.22 1.672zm9.328.282h2.266v-.239c0-1.411-.902-1.824-2.354-1.824-1.474 0-2.706.347-3.74.651-.506-.021-.814-.673-.814-1.237 0-.217.044-.413.154-.565 1.1-.434 3.234-.999 5.016-.999 3.058 0 4.664 1.173 4.664 4.256v4.473l1.716.24c.352.043.594.542.594 1.063 0 .478-.154.89-.462.89h-3.102c-1.232 0-1.518-.477-1.518-1.476-.484.608-1.65 1.672-3.806 1.672-2.134 0-3.85-1.02-3.85-3.41 0-2.844 2.64-3.495 5.236-3.495zm2.31 2.497v-.586h-2.156c-1.474 0-2.42.347-2.42 1.498 0 .76.44 1.238 1.716 1.238 1.518 0 2.86-.782 2.86-2.15zm5.984 6.818v-4.603h1.694c.814-.977 1.254-2.519 1.386-5.407l.044-1.13-1.408-.238c-.352-.065-.528-.586-.528-1.064 0-.456.154-.89.44-.89h11.176c.33 0 .462.412.462.868 0 .478-.176.977-.528 1.043l-1.232.217v6.6h2.288v4.604c0 .304-.396.478-.946.478-.528 0-1.21-.174-1.254-.565l-.242-2.518h-8.91l-.242 2.518c-.044.391-.726.565-1.254.565-.55 0-.946-.174-.946-.478zm4.466-4.581h4.136V8.704h-2.86l-.066 1.346c-.11 2.237-.462 4.343-1.21 5.429zm15.224 3.365c-.748 1.542-1.518 1.89-2.772 1.89a8.18 8.18 0 0 1-1.65-.153c-.22.261-.44.695-.44 1.216 0 .174.044.37.088.543.572.283 1.628.521 2.64.521 2.112 0 3.564-1.172 4.664-3.56l4.796-10.424 1.232-.217c.352-.065.506-.564.506-1.064 0-.456-.132-.868-.44-.868h-5.676c-.308 0-.44.434-.44.89 0 .478.176.999.528 1.042l1.364.217-1.628 4.235c-.176.477-.44 1.194-.572 1.672h-.088c-.11-.456-.286-1.195-.484-1.672l-2.068-5.168c-.242-.63-.528-1.216-1.628-1.216h-2.948c-.33 0-.462.434-.462.912 0 .52.22 1.02.572 1.064l1.716.217 3.938 8.425-.748 1.498zm17.732-3.3c-.352.065-.528.564-.528 1.042 0 .456.132.869.462.869h5.764c.286 0 .418-.435.418-.89 0-.478-.176-.978-.528-1.021l-1.452-.217V8.856l1.232-.196c.352-.065.528-.586.528-1.085 0-.456-.132-.847-.44-.847H86.963c-.308 0-.462.434-.462.912 0 .52.22.999.594 1.064l1.342.217-.044 1.086c-.132 3.452-.616 5.363-3.322 5.385-.198.195-.264.608-.264.955 0 .565.198 1.108.594 1.303 4.576-.043 5.456-3.214 5.654-7.578l.066-1.347h2.794v6.602l-1.232.217zm8.404-.022c-.352.065-.528.586-.528 1.086 0 .456.132.847.44.847h3.806l4.774-5.994c.33-.434.726-1.216.88-1.563h.088c-.088.37-.396 2.041-.396 2.41v3.019l-1.232.217c-.352.065-.528.564-.528 1.042 0 .456.132.869.462.869h5.764c.286 0 .418-.435.418-.89 0-.478-.176-.978-.528-1.021l-1.452-.217V8.856l1.232-.196c.352-.065.528-.586.528-1.085 0-.456-.132-.847-.44-.847h-3.806l-4.818 6.058c-.308.39-.726 1.216-.858 1.498h-.088c.088-.456.418-2.04.418-2.41V8.856l1.232-.217c.352-.066.528-.565.528-1.043 0-.456-.132-.868-.462-.868h-5.764c-.286 0-.418.434-.418.89 0 .478.176.977.528 1.02l1.452.218v6.47l-1.232.196z"/>
        <path fill="#21224E" d="M1.713 13.505l1.43-.196V2.452l-1.65-.195C1.119 2.213.965 1.67.965 1.149c0-.434.11-.868.44-.868h7.854c2.354 0 4.994.868 4.994 3.952 0 1.541-.924 2.866-2.486 3.235v.065c2.244.37 3.058 1.868 3.058 3.54 0 3.582-3.564 4.408-5.61 4.408h-7.59c-.33 0-.44-.435-.44-.89 0-.5.154-1.043.528-1.086zm4.422-.218h2.772c1.276 0 2.816-.412 2.816-2.236 0-1.585-1.144-2.302-2.904-2.302H6.135v4.538zm0-6.666h2.574c1.188 0 2.442-.456 2.442-2.171 0-1.607-1.276-1.976-2.464-1.976H6.135V6.62zm10.318 3.496c0-3.648 2.486-5.559 5.808-5.559 3.322 0 5.83 1.911 5.83 5.56 0 3.647-2.486 5.558-5.808 5.558-3.322 0-5.83-1.91-5.83-5.559zm5.83 3.518c2.266 0 2.838-2.215 2.838-3.518S24.527 6.6 22.261 6.6s-2.838 2.215-2.838 3.518.594 3.518 2.86 3.518zm15.356-5.146c.066.434.748.586 1.276.586.55 0 .924-.196.924-.456V5.383c-1.232-.5-2.552-.825-3.872-.825-3.542 0-6.336 2.02-6.336 5.711 0 4.19 3.036 5.407 5.874 5.407 1.562 0 3.674-.543 4.796-1.281 0-.608-.198-1.368-.902-1.585-1.056.39-1.958.716-3.564.716-2.376 0-3.234-1.52-3.234-3.257 0-1.89 1.034-3.604 3.278-3.604.638 0 1.078.043 1.54.152l.22 1.672zm9.328.282h2.266v-.24c0-1.41-.902-1.823-2.354-1.823-1.474 0-2.706.347-3.74.651-.506-.021-.814-.673-.814-1.237 0-.217.044-.413.154-.565 1.1-.434 3.234-.999 5.016-.999 3.058 0 4.664 1.173 4.664 4.256v4.473l1.716.24c.352.043.594.542.594 1.063 0 .478-.154.89-.462.89h-3.102c-1.232 0-1.518-.477-1.518-1.476-.484.608-1.65 1.672-3.806 1.672-2.134 0-3.85-1.02-3.85-3.41 0-2.844 2.64-3.495 5.236-3.495zm2.31 2.497v-.586h-2.156c-1.474 0-2.42.347-2.42 1.498 0 .76.44 1.238 1.716 1.238 1.518 0 2.86-.782 2.86-2.15zm5.984 6.818v-4.603h1.694c.814-.977 1.254-2.52 1.386-5.407l.044-1.13-1.408-.238c-.352-.065-.528-.586-.528-1.064 0-.456.154-.89.44-.89h11.176c.33 0 .462.412.462.868 0 .478-.176.977-.528 1.043l-1.232.217v6.6h2.288v4.604c0 .304-.396.478-.946.478-.528 0-1.21-.174-1.254-.565l-.242-2.518h-8.91l-.242 2.518c-.044.391-.726.565-1.254.565-.55 0-.946-.174-.946-.478zm4.466-4.581h4.136V6.73h-2.86l-.066 1.346c-.11 2.237-.462 4.343-1.21 5.429zm15.224 3.365c-.748 1.542-1.518 1.89-2.772 1.89a8.18 8.18 0 0 1-1.65-.153c-.22.26-.44.695-.44 1.216 0 .174.044.37.088.543.572.283 1.628.521 2.64.521 2.112 0 3.564-1.172 4.664-3.56l4.796-10.424 1.232-.217c.352-.065.506-.564.506-1.064 0-.456-.132-.868-.44-.868h-5.676c-.308 0-.44.434-.44.89 0 .478.176.999.528 1.042l1.364.217-1.628 4.235c-.176.477-.44 1.194-.572 1.672h-.088c-.11-.456-.286-1.195-.484-1.672L74.511 5.97c-.242-.63-.528-1.216-1.628-1.216h-2.948c-.33 0-.462.434-.462.912 0 .52.22 1.02.572 1.064l1.716.217 3.938 8.425-.748 1.498zm17.732-3.3c-.352.065-.528.564-.528 1.042 0 .456.132.869.462.869h5.764c.286 0 .418-.435.418-.89 0-.478-.176-.978-.528-1.021l-1.452-.217V6.882l1.232-.196c.352-.065.528-.586.528-1.085 0-.456-.132-.847-.44-.847H86.963c-.308 0-.462.434-.462.912 0 .52.22.999.594 1.064l1.342.217-.044 1.086c-.132 3.452-.616 5.363-3.322 5.385-.198.195-.264.608-.264.955 0 .565.198 1.108.594 1.303 4.576-.043 5.456-3.214 5.654-7.578l.066-1.347h2.794v6.602l-1.232.217zm8.404-.022c-.352.065-.528.586-.528 1.086 0 .456.132.847.44.847h3.806l4.774-5.994c.33-.434.726-1.216.88-1.563h.088c-.088.37-.396 2.041-.396 2.41v3.019l-1.232.217c-.352.065-.528.564-.528 1.042 0 .456.132.869.462.869h5.764c.286 0 .418-.435.418-.89 0-.478-.176-.978-.528-1.021l-1.452-.217V6.882l1.232-.196c.352-.065.528-.586.528-1.085 0-.456-.132-.847-.44-.847h-3.806l-4.818 6.058c-.308.39-.726 1.216-.858 1.498h-.088c.088-.456.418-2.04.418-2.41V6.882l1.232-.217c.352-.066.528-.565.528-1.043 0-.456-.132-.868-.462-.868h-5.764c-.286 0-.418.434-.418.89 0 .478.176.977.528 1.02l1.452.218v6.47l-1.232.196z"/>
    </g>
</svg>
