<svg xmlns="http://www.w3.org/2000/svg" width="24" height="24" viewBox="0 0 24 24">
    <path fill="#D4D2D2" fill-rule="evenodd" d="M12 24c6.627 0 12-5.373 12-12S18.627 0 12 0 0 5.373 0 12s5.373 12 12 12zm0-2c5.523 0 10-4.477 10-10S17.523 2 12 2 2 6.477 2 12s4.477 10 10 10zm.094-14.408c.383 0 .742.058 1.078.175.336.117.628.282.875.497a2.283 2.283 0 0 1 .805 1.778c0 .457-.107.838-.322 1.141a5.134 5.134 0 0 1-.84.903c-.28.243-.513.455-.7.637-.187.182-.28.38-.28.595a1.555 1.555 0 0 0 .028.294h-1.596a1.524 1.524 0 0 1-.154-.672c0-.168.033-.324.098-.469.065-.145.152-.282.259-.413a2.92 2.92 0 0 1 .357-.364l.392-.336c.29-.243.5-.439.63-.588a.82.82 0 0 0 .196-.56c0-.27-.086-.485-.259-.644a.888.888 0 0 0-.623-.238c-.513 0-.896.355-1.148 1.064L9.336 9.72c.205-.719.55-1.253 1.036-1.603.485-.35 1.06-.525 1.722-.525zm-.098 6.972c.373 0 .681.126.924.378s.364.56.364.924c0 .373-.121.684-.364.931a1.24 1.24 0 0 1-.924.371c-.383 0-.698-.124-.945-.371a1.263 1.263 0 0 1-.371-.931c0-.364.124-.672.371-.924s.562-.378.945-.378z"/>
</svg>
