<svg width="266" height="266" viewBox="0 0 266 266" fill="none" xmlns="http://www.w3.org/2000/svg">
    <g filter="url(#filter0_d)">
        <path fill-rule="evenodd" clip-rule="evenodd" d="M129.958 4.22075C213.667 1.72234 260 19.084 260 125.961C260 232.839 245.844 255.879 132.046 257.882C18.2493 259.885 11.9957 237.152 6.42456 125.961C0.853402 14.7706 50.5447 6.8314 129.958 4.22075Z" fill="white" />
    </g>
    <path d="M129.99 5.22026C171.841 3.97127 204.013 7.71623 225.751 24.8603C247.432 41.9598 259 72.6228 259 125.961C259 152.674 258.114 174.077 255.026 191.204C251.939 208.322 246.667 221.079 237.96 230.574C229.257 240.064 217.026 246.398 199.816 250.481C182.594 254.567 160.459 256.382 132.029 256.882C103.595 257.383 81.9624 256.335 65.4035 252.773C48.8664 249.216 37.4682 243.169 29.4117 233.721C21.3374 224.252 16.5201 211.253 13.3852 193.59C10.2501 175.925 8.81656 153.718 7.42331 125.911C4.64272 70.4156 15.6786 41.0769 36.9214 25.174C47.5773 17.1969 60.8921 12.5257 76.5483 9.6919C92.2079 6.85751 110.138 5.87289 129.99 5.22026Z" stroke="#E6E9F1" stroke-width="2" />
    <defs>
        <filter id="filter0_d" x="0" y="0" width="266" height="266" filterUnits="userSpaceOnUse" color-interpolation-filters="sRGB">
            <feFlood flood-opacity="0" result="BackgroundImageFix" />
            <feColorMatrix in="SourceAlpha" type="matrix" values="0 0 0 0 0 0 0 0 0 0 0 0 0 0 0 0 0 0 127 0" />
            <feOffset dy="2" />
            <feGaussianBlur stdDeviation="3" />
            <feColorMatrix type="matrix" values="0 0 0 0 0 0 0 0 0 0 0 0 0 0 0 0 0 0 0.121886 0" />
            <feBlend mode="normal" in2="BackgroundImageFix" result="effect1_dropShadow" />
            <feBlend mode="normal" in="SourceGraphic" in2="effect1_dropShadow" result="shape" />
        </filter>
    </defs>
</svg>