<svg xmlns="http://www.w3.org/2000/svg" width="22" height="22" viewBox="0 0 22 22">
    <path fill="#CAD4E1" fill-rule="nonzero" d="M11 22C2.444 22 0 19.55 0 11S2.444 0 11 0c8.556 0 11 2.444 11 11 0 8.556-2.444 11-11 11zm-4.889-8c-.675 0-1.222.497-1.222 1.11 0 .613.547 1.11 1.222 1.11h8.556c.674 0 1.222-.497 1.222-1.11 0-.613-.548-1.11-1.222-1.11H6.11zM16 12.444A1.223 1.223 0 0 0 16 10H6.222a1.223 1.223 0 0 0 0 2.444H16zM14.778 8.22c.674 0 1.222-.497 1.222-1.11C16 6.497 15.452 6 14.778 6H6.222C5.548 6 5 6.497 5 7.11c0 .613.548 1.11 1.222 1.11h8.556z"/>
</svg>
