<svg xmlns="http://www.w3.org/2000/svg" width="74" height="49" viewBox="0 0 74 49">
    <g fill="none" fill-rule="nonzero">
        <path fill="#F4F7FB" d="M17.172 6.715c21.428-2.23 36.698-9.286 51.203 9.82 2.362 3.111 7.189 8.745 4.008 11.012l-.403 6.2c-9.425 6.716-32.85 12.338-43.527 14.542-15.82 3.265-38.31-21.34-23.785-32.5 3.529-2.711 6.08-3.864 9.922-6.111l2.582-2.963z"/>
        <path fill="#94ACC4" d="M40.564 26.775c-4.012-1.003-7.398-3.385-7.398-3.385s-.062 0-.062-.063c-.627-.376-1.191-1.191-1.505-1.818a6.12 6.12 0 0 0 1.129-1.066c3.448-3.887 2.883-10.47 2.82-11.096-.375-7.586-5.955-9.404-9.215-9.341-3.26-.126-8.84 1.755-9.216 9.34-.062.628-.627 7.273 2.821 11.097 1.568 1.756 3.637 2.633 6.27 2.696h.25a9.561 9.561 0 0 0 3.072-.502c.44.878 1.191 1.944 2.32 2.634.376.25 3.824 2.633 8.15 3.698 2.32.565 2.445 3.448 2.382 5.141v.125c0 .94-.063 2.57-.25 3.135-.251.627.062 1.254.626 1.505.126.062.314.062.439.062.439 0 .878-.25 1.066-.752.439-1.128.439-3.385.439-3.95.25-4.012-1.254-6.77-4.138-7.46zM26.333 20.82c-.063 0-.063 0 0 0h-.063c-2.006 0-3.51-.627-4.639-1.943-2.821-3.197-2.257-9.278-2.194-9.341v-.063c.313-6.645 5.14-7.147 6.583-7.147h.313c1.066-.062 6.52.126 6.833 7.147v.063c0 .063.627 6.144-2.194 9.341-1.128 1.316-2.633 1.943-4.639 1.943zm-5.14 2.822c.375.501.25 1.253-.314 1.63-.126.125-3.699 2.57-8.213 3.761-2.32.564-2.445 3.448-2.382 5.14v.126c0 .94.063 2.57.313 3.135.251.627-.062 1.254-.627 1.504-.125.063-.313.063-.438.063-.44 0-.878-.25-1.066-.752-.439-1.129-.439-3.386-.439-3.95-.25-4.075 1.254-6.77 4.138-7.523 4.012-1.003 7.397-3.385 7.397-3.385.565-.376 1.254-.251 1.63.25zM57.93 33.859c-.063.627-.565 1.129-1.192 1.129h-.062a1.237 1.237 0 0 1-1.129-1.254c.063-.815.063-3.636-1.379-4.075-7.774-2.382-7.084-6.457-6.959-7.022v-.062c.126-.502.627-.878 1.129-.878.627 0 2.131-.063 3.385-.564-.815-.94-1.504-2.57-1.254-5.392.314-3.072-.125-5.454-1.128-6.457-.439-.501-1.066-.627-1.88-.564-.377.063-.753-.125-1.004-.439-.125-.125-1.191-1.254-3.51-.376h-.063c-.94.376-3.26 1.254-3.135 6.708.063 3.01-.376 5.203-1.442 6.457.69.314 1.818.627 3.448.564a1.19 1.19 0 1 1 0 2.382h-.125c-4.64 0-6.144-2.068-6.332-2.256a1.164 1.164 0 0 1-.063-1.191c.188-.377.502-.565.94-.627.126-.063 1.317-.753 1.254-5.266-.188-7.147 3.448-8.526 4.64-8.965h.062c2.947-1.129 4.828-.063 5.643.627 1.253 0 2.382.438 3.197 1.316 2.006 2.006 2.069 5.642 1.818 8.338-.314 3.51 1.191 4.075 1.254 4.075.376.125.69.439.815.815.125.376 0 .815-.314 1.129-1.379 1.441-3.573 1.818-5.015 1.943.439 1.003 1.818 2.32 5.266 3.448 2.257.627 3.323 2.947 3.135 6.457z"/>
    </g>
</svg>
