<svg xmlns="http://www.w3.org/2000/svg" viewBox="0 0 15 15" width="15" height="15">
    <!--15 15 -->
    <path fill-rule="nonzero" fill="#AFBBCA" d="M11.75 4.167a.925.925 0 0 1-.917-.917c0-.5.417-.917.917-.917s.917.417.917.917-.417.917-.917.917zm-4.25.666A2.633 2.633 0 0 0 4.833 7.5C4.833 9 6 10.167 7.5 10.167 9 10.167 10.167 9 10.167 7.5c0-1.5-1.25-2.667-2.667-2.667zm0 6.75A4.09 4.09 0 0 1 3.417 7.5 4.09 4.09 0 0 1 7.5 3.417 4.09 4.09 0 0 1 11.583 7.5 4.09 4.09 0 0 1 7.5 11.583zm6.417-10.5c-.334-.333-.584-.5-1.084-.666C12.5.25 12 .167 11.167.083 10.25 0 9.917 0 7.5 0S4.75 0 3.833.083c-.916 0-1.416.167-1.666.334a1.63 1.63 0 0 0-1.084.666c-.333.25-.583.584-.75 1-.166.334-.25.834-.333 1.667V7.5c0 2.417 0 2.75.083 3.667 0 .916.167 1.416.334 1.666.166.417.333.75.666 1.084.334.333.584.5 1.084.666.333.167.833.25 1.666.334C4.75 15 5.083 15 7.5 15s2.75 0 3.667-.083c.916 0 1.416-.167 1.666-.334.417-.166.75-.333 1.084-.666.333-.334.5-.584.666-1.084.167-.333.25-.833.334-1.666C15 10.25 15 9.917 15 7.5s0-2.75-.083-3.667c0-.916-.167-1.416-.334-1.666a1.63 1.63 0 0 0-.666-1.084z"></path>
</svg>