<svg xmlns="http://www.w3.org/2000/svg" width="68" height="67" viewBox="0 0 68 67">
    <g fill="none" fill-rule="nonzero">
        <path fill="#F6CDFF" d="M65.636 65.414c-4.155-2.875-6.328-6.184-7.856-9.968l-.11-.27.182-.229a30.686 30.686 0 0 0 6.703-19.169C64.555 18.782 50.774 5 33.778 5 16.781 5 3 18.781 3 35.778s13.781 30.778 30.778 30.778c4.318 0 8.634-.918 12.558-2.675l.328-.028c7.075 1.8 12.515 2.169 20.296 1.461-.585-.393-.964.35-1.324.1z"/>
        <path fill="#C837E7" d="M63.636 60.414c-4.155-2.875-6.328-5.184-7.856-8.968l-.11-.27.182-.229a30.686 30.686 0 0 0 6.703-19.169C62.555 14.782 48.774 1 31.778 1 14.781 1 1 14.781 1 31.778s13.781 30.778 30.778 30.778c4.318 0 8.634-.918 12.558-2.675l.328-.028c7.075 1.8 12.515 2.169 20.296 1.461-.585-.393-.964-.65-1.324-.9zm-31.858 3.142C14.228 63.556 0 49.327 0 31.778 0 14.228 14.229 0 31.876.01c17.45-.01 31.68 14.22 31.68 31.768 0 7.11-2.366 13.973-6.739 19.561 1.436 3.414 3.48 5.549 7.388 8.253.356.246.732.502 1.21.823l1.262.847 1.147.77-1.375.142c-8.585.886-14.338.589-21.864-1.309a31.875 31.875 0 0 1-12.807 2.691z"/>
        <path fill="#C52DE5" d="M33.128 42.73s.106-.041.162-.093a144.29 144.29 0 0 1 2.78-2.487c.36-.315 2.106-1.832 2.557-2.228 1.823-1.602 2.884-2.628 3.7-3.618 1.266-1.537 1.81-2.88 1.81-4.547 0-3.37-2.427-5.906-5.562-5.906-1.717 0-3.484.864-4.625 2.272l-1.45 1.79-1.45-1.79c-1.14-1.408-2.908-2.272-4.625-2.272-3.135 0-5.563 2.536-5.563 5.906 0 1.666.545 3.01 1.812 4.547.815.99 1.876 2.016 3.7 3.618.45.396 2.196 1.913 2.556 2.228 1.033.903 1.905 1.682 2.773 2.48.058.054.169.1.169.1.283.159.973.16 1.256 0zm-1.97 1.71a2.594 2.594 0 0 1-.344-.172 2.199 2.199 0 0 1-.376-.278 142.251 142.251 0 0 0-3.245-2.892l-.789-.686c-.673-.587-1.072-.934-1.264-1.103-1.94-1.705-3.034-2.772-3.907-3.832C19.7 33.617 19 31.867 19 29.757 19 25.403 22.222 22 26.425 22c2.292 0 4.588 1.126 6.075 2.962C33.987 23.126 36.283 22 38.575 22 42.778 22 46 25.404 46 29.757c0 2.11-.7 3.86-2.233 5.72-.873 1.06-1.968 2.127-3.907 3.832-.192.169-.59.516-1.263 1.101l-.79.688-.507.442a142.13 142.13 0 0 0-2.745 2.456c-.13.12-.257.208-.39.286-.135.078-.25.13-.356.171l.234-.11c-.851.477-2.235.477-3.086 0l.2.097z"/>
    </g>
</svg>
