<svg xmlns="http://www.w3.org/2000/svg" width="151" height="40" viewBox="0 0 151 40">
    <g fill="none" fill-rule="evenodd">
        <path fill="#21224E" d="M50.823 28.9c.089.22.12.441.093.662-.026.221-.057.442-.093.663a.84.84 0 0 1-.013.53 1.598 1.598 0 0 0-.092.53c-.071.177-.124.354-.16.53a.672.672 0 0 1-.29.431 1.983 1.983 0 0 1-.133.563l-.211.53a.94.94 0 0 0-.384.481c-.08.21-.19.392-.331.547a.954.954 0 0 1-.291.331c-.124.089-.177.232-.159.431-.23.066-.415.22-.556.464-.106.132-.23.232-.37.298a4.014 4.014 0 0 0-.424.232.925.925 0 0 1-.33.232c-.115.044-.234.11-.358.199a.332.332 0 0 0-.265.05 3.198 3.198 0 0 1-.264.149 3.857 3.857 0 0 0-1.006-.067 1.628 1.628 0 0 1-.953-.232 1.052 1.052 0 0 1-.463-.248 2.289 2.289 0 0 0-.437-.315 3.166 3.166 0 0 0-.688-.828 4.646 4.646 0 0 1-.093-.332.606.606 0 0 1 .014-.331 5.488 5.488 0 0 1-.186-.547 3.18 3.18 0 0 1-.106-.546c.089-.089.181-.122.278-.1.097.022.194.055.292.1.097.044.194.082.29.115a.418.418 0 0 0 .305-.016.351.351 0 0 1 .344.05c.106.077.203.149.291.215.247.044.485.028.715-.05.23-.077.441-.226.635-.447.318-.177.565-.442.741-.795.212-.177.393-.392.543-.646.15-.255.304-.514.463-.78.141-.176.243-.375.304-.596.062-.22.137-.43.225-.63a5.658 5.658 0 0 0 .186-1.987c.035-.243-.01-.426-.133-.547a1.661 1.661 0 0 1-.317-.447c-.124-.221-.283-.37-.477-.448a7.15 7.15 0 0 1-.556-.248 2.99 2.99 0 0 0-.688-.116 2.2 2.2 0 0 1-.688-.15 2.871 2.871 0 0 1-1.244-.148c-.423-.144-.785-.415-1.085-.812a2.015 2.015 0 0 0-.278-.53 6.07 6.07 0 0 1-.33-.498 1.457 1.457 0 0 1-.12-.546.679.679 0 0 1 .172-.514c.07-.088.088-.199.053-.331-.035-.133-.009-.243.08-.332.3.022.604.006.913-.05.308-.055.613-.126.913-.215a2.43 2.43 0 0 0 .926-.729c.265-.331.512-.662.741-.994.141-.265.256-.541.344-.828.088-.287.186-.575.291-.862a2.9 2.9 0 0 0 .04-.994 1.603 1.603 0 0 0-.384-.861c-.176-.243-.361-.48-.556-.713a1.298 1.298 0 0 0-.688-.447.484.484 0 0 0-.436-.166.817.817 0 0 1-.464-.066.754.754 0 0 0-.49.1.754.754 0 0 1-.489.099.853.853 0 0 1-.225.1c-.08.021-.137.088-.172.198a5.53 5.53 0 0 1-.172 1.127 5.53 5.53 0 0 0-.172 1.126 3.163 3.163 0 0 1-.106.58 6.001 6.001 0 0 0-.132.58h.026v.066c-.017.022-.026.055-.026.1-.035.42-.088.834-.159 1.242-.07.409-.15.823-.238 1.243-.018.508-.053 1-.106 1.474-.053.475-.097.967-.132 1.475a1.6 1.6 0 0 0-.12.663c.01.22-.013.442-.066.662-.07.398-.088.801-.053 1.21.036.409.01.812-.079 1.21a.2.2 0 0 0 0 .198.2.2 0 0 1 0 .199c-.088.398-.12.8-.093 1.21.027.408.014.822-.04 1.242-.017.574 0 1.149.054 1.723.053.575.07 1.149.053 1.723a.87.87 0 0 1 .053.73c-.089.11-.173.193-.252.248-.08.055-.163.127-.251.215a.48.48 0 0 0-.305.033.726.726 0 0 1-.304.067 3.449 3.449 0 0 1-1.138-.73l-.106-.132a.328.328 0 0 0-.132-.1 7.231 7.231 0 0 1-.358-2.004 32.094 32.094 0 0 0-.145-2.071 10.1 10.1 0 0 1 0-1.79c.053-.596.061-1.192.026-1.789.088-.773.146-1.563.172-2.37.027-.805.084-1.606.172-2.401.088-.398.133-.801.133-1.21 0-.409.035-.823.105-1.243.036-.176.071-.358.106-.546.036-.188.044-.37.027-.547.123-.353.194-.723.212-1.11a6.23 6.23 0 0 1 .158-1.143c0-.155.018-.32.053-.497.036-.177.07-.348.106-.514.035-.166.049-.326.04-.48a1.053 1.053 0 0 0-.146-.464l-.211-.332a.422.422 0 0 0-.292-.198 8.238 8.238 0 0 0-.172-.514 23.788 23.788 0 0 0-.198-.514c.212-.132.441-.226.688-.281.247-.056.476-.15.688-.282.018-.155.062-.249.132-.282a.46.46 0 0 1 .252-.033c.097.011.194.028.291.05.097.022.18.022.252 0a.613.613 0 0 1 .502-.116c.194.033.353-.06.477-.282a4.436 4.436 0 0 1 1.429.033c.476.089.953.1 1.43.034a.106.106 0 0 0-.027.066.106.106 0 0 1-.027.066c.177.133.362.238.556.315.194.077.38.182.556.315.476.22.917.535 1.323.944.406.409.786.867 1.138 1.375.124.089.221.21.292.365.07.154.15.298.238.43.106.332.238.641.397.928.159.287.264.619.317.994l.053.63a9.1 9.1 0 0 0 .08.63 7.904 7.904 0 0 1-.358 1.988 9.07 9.07 0 0 1-.78 1.789c-.07.11-.146.204-.225.282-.08.077-.164.149-.252.215-.053.11-.035.193.053.249.088.055.159.105.212.149.106.11.216.204.33.281.115.078.235.16.358.249.141.31.33.563.57.762.237.199.427.453.568.762.159.265.305.541.437.829.132.287.26.585.384.894-.018.221.008.425.079.613.07.188.097.403.08.646zm4.068 3.937a60.126 60.126 0 0 0 1.728-.077c.58-.033 1.16-.05 1.741-.05.58 0 1.157.03 1.728.089.572.06 1.136.174 1.69.344.438.084.796.314 1.073.687a1.5 1.5 0 0 1 .29 1.223 2.034 2.034 0 0 1-.227.242c-.084.076-.172.14-.265.19a.617.617 0 0 1-.302.077.587.587 0 0 1-.341-.127c-.858-.119-1.72-.17-2.586-.153a14.665 14.665 0 0 1-2.586-.178c-.32.034-.631.072-.934.114a3.59 3.59 0 0 0-.883.242c-.303.17-.618.191-.946.064a5.203 5.203 0 0 1-.896-.446 4.792 4.792 0 0 0-.265-.458 2.29 2.29 0 0 1-.252-.522 1.257 1.257 0 0 1-.063-.522c.017-.17.11-.323.277-.459.337-.034.673-.076 1.01-.127l1.009-.153zm-.018-20.703c.053 0 .101.004.146.012a.812.812 0 0 0 .145.012c.441-.161.847-.145 1.218.048l.37-.084c.035-.008.04-.004.013.012l-.119.072c-.053.033-.062.057-.026.073l.278.206c.097.072.216.068.357-.012.3-.065.609-.11.926-.133.318-.025.627.012.927.108.335.033.653.11.953.23.3.121.564.294.794.52.194.08.357.194.49.339.132.145.295.266.489.362.088.13.154.258.198.387a.685.685 0 0 0 .278.339l.265.387c.088.129.194.258.318.387.158.322.3.645.423.967.124.323.185.661.185 1.016.018.226.07.451.16.677a.9.9 0 0 1 0 .677c.017.049.039.093.065.133.027.04.04.085.04.133-.088.226-.11.444-.066.653.044.21.057.428.04.653a.845.845 0 0 1-.014.532.999.999 0 0 0-.04.532.5.5 0 0 1-.052.448.617.617 0 0 0-.08.471v.92c-.106.128-.132.29-.08.483-.07.113-.087.222-.052.327a.317.317 0 0 1-.053.302 5.416 5.416 0 0 0-.08.544 1.13 1.13 0 0 1-.185.52.582.582 0 0 1-.08.508.482.482 0 0 0-.052.484.868.868 0 0 1-.12.169.411.411 0 0 0-.092.193c-.035.274-.123.52-.264.738-.142.218-.274.44-.397.665a.664.664 0 0 0-.265.339c-.053.145-.177.21-.37.193a.28.28 0 0 0-.2.133 5.231 5.231 0 0 0-.118.206c-.124.08-.256.137-.397.169a.954.954 0 0 0-.37.17c-.283.08-.561.16-.835.241-.273.08-.551.145-.833.194-.3-.033-.6-.037-.9-.012-.3.024-.591-.004-.874-.085a1.407 1.407 0 0 0-.436-.121 3.768 3.768 0 0 1-.437-.073c-.053-.16-.172-.254-.357-.278-.186-.024-.314-.1-.384-.23a2.258 2.258 0 0 0-.609-.435 2.033 2.033 0 0 1-.609-.46 18.832 18.832 0 0 1-.569-.592 1.931 1.931 0 0 1-.41-.69c-.088-.225-.18-.442-.278-.652a2.441 2.441 0 0 1-.198-.677 8.262 8.262 0 0 0-.318-1.318 3.789 3.789 0 0 1-.185-1.342 5.863 5.863 0 0 1-.159-1.343c0-.443.018-.89.053-1.342-.018-.339 0-.673.053-1.004.053-.33.08-.657.08-.98.035-.225.079-.434.132-.628.053-.193.079-.403.079-.629l.159-.665c.053-.217.08-.44.08-.665.14-.29.255-.584.343-.883.089-.298.194-.6.318-.907a.88.88 0 0 0 .159-.253 8.13 8.13 0 0 1 .106-.254c.105-.097.194-.198.264-.303a4.47 4.47 0 0 0 .212-.35c.141-.081.282-.158.423-.23a3.92 3.92 0 0 0 .424-.254zm1.959 1.935a5.77 5.77 0 0 0-.464 1.1c-.114.379-.242.754-.383 1.125v.326c0 .105.017.214.053.327a.38.38 0 0 0-.133.29c0 .113-.009.218-.026.314a.624.624 0 0 0-.12.4c.01.136-.004.277-.04.423a.567.567 0 0 1 .067.205c.009.073-.03.125-.119.157-.035.403-.08.798-.132 1.185-.053.387-.044.782.026 1.185-.106.355-.119.706-.04 1.052.08.347.128.706.146 1.077.018.419.093.826.225 1.221.132.395.207.802.225 1.221.106.162.198.327.278.496.08.17.163.343.251.52.053.08.084.165.093.254.009.089.057.15.145.181a.76.76 0 0 1 .437.351c.097.17.234.302.41.4.071.08.146.096.225.047a.436.436 0 0 1 .225-.072c.106.016.212.016.318 0a1.51 1.51 0 0 0 .291-.073 5.36 5.36 0 0 0 .675-.98c.185-.346.313-.705.384-1.075a2.73 2.73 0 0 0 .172-.69 2.73 2.73 0 0 1 .172-.689c0-.177.022-.342.066-.496a.947.947 0 0 0 .013-.471c.036-.194.07-.391.106-.593.035-.201.053-.399.053-.592.035-.403.075-.802.12-1.197.043-.395.057-.794.039-1.198.053-.241.057-.487.013-.737a4.374 4.374 0 0 1-.066-.762 2.526 2.526 0 0 1-.066-.46 3.034 3.034 0 0 0-.066-.483c-.036-.016-.049-.053-.04-.109.009-.056.013-.109.013-.157a.623.623 0 0 0-.013-.133c-.009-.04-.049-.06-.12-.06a2.268 2.268 0 0 1-.026-.351.366.366 0 0 0-.158-.303.575.575 0 0 0-.225-.52 1.432 1.432 0 0 1-.384-.471 23.936 23.936 0 0 1-.252-.375 2.596 2.596 0 0 0-.278-.35.48.48 0 0 1-.211-.146.886.886 0 0 0-.186-.17.881.881 0 0 0-.211-.108c-.07-.024-.16-.012-.265.036-.159.113-.265.125-.318.037a2.291 2.291 0 0 1-.132-.254.599.599 0 0 1-.37.108 1.38 1.38 0 0 0-.397.037zm19.532 4.426a.667.667 0 0 1-.092.265.472.472 0 0 0-.066.265c.035.044.061.066.079.066a.42.42 0 0 0-.053.199.77.77 0 0 1-.026.199c-.053.199-.08.408-.08.63-.088.309-.176.612-.264.91a2.04 2.04 0 0 1-.424.78 7.12 7.12 0 0 1-.98.198c-.105.022-.193-.016-.264-.116-.07-.1-.168-.127-.291-.083a2.542 2.542 0 0 0-.437-.53 1.483 1.483 0 0 1-.384-.596 4.127 4.127 0 0 0-.238-.448.75.75 0 0 1-.106-.48c.018-.066.045-.15.08-.249a.428.428 0 0 0 .026-.248.71.71 0 0 0 .053-.265.212.212 0 0 0 .053-.133 8.9 8.9 0 0 1 .106-.944c.053-.32.053-.646 0-.978a29.124 29.124 0 0 1-.251-1.275c-.08-.453-.27-.801-.57-1.044a.855.855 0 0 0-.754.248c-.22.21-.445.392-.675.547-.194.243-.375.492-.542.746-.168.254-.34.524-.516.811-.142.509-.336.928-.583 1.26 0 .11-.022.226-.066.348a9.445 9.445 0 0 0-.119.347c-.018.045-.013.1.013.166.027.066-.004.11-.092.133-.07.243-.142.491-.212.745s-.115.514-.132.779a.57.57 0 0 1-.106.414c-.089.122-.106.27-.053.447l-.053.862c-.018.287-.07.563-.159.828a.265.265 0 0 0-.026.2.77.77 0 0 1 .026.198c-.088.287-.128.58-.12.878.01.298-.012.591-.065.878a4.308 4.308 0 0 0-.106 1.177c.018.408 0 .8-.053 1.176.035.508.062 1.016.08 1.524.017.508.07 1.005.158 1.491l-.053.265a.34.34 0 0 0 .027.232c.07.11.11.227.119.348l.026.381c.01.133.027.254.053.365.027.11.084.21.172.298.088.42.247.762.477 1.027.176.044.33.144.463.299.132.154.287.276.463.364.106-.022.216-.039.33-.05a.487.487 0 0 0 .305-.149c.159-.154.335-.265.53-.331.194-.066.361-.199.502-.398a3.06 3.06 0 0 1 .252-.281.688.688 0 0 0 .172-.348c.176-.288.3-.597.37-.928.071-.332.16-.663.265-.994.088-.42.137-.845.146-1.276a13.07 13.07 0 0 0-.04-1.309c0-.177.062-.298.185-.364.124-.067.247-.11.37-.133.265.11.539.177.821.199.283.022.547.121.794.298.389.42.613.956.675 1.607a5.06 5.06 0 0 1-.145 1.84c-.036.132-.04.286-.014.463.027.177-.03.287-.172.332-.07.176-.132.358-.185.546-.053.188-.115.37-.185.547a.924.924 0 0 1-.159.298.924.924 0 0 0-.159.298 1.085 1.085 0 0 1-.37.464.71.71 0 0 0-.291.497c-.142.045-.274.1-.397.166a.824.824 0 0 0-.318.331c-.159.089-.326.16-.503.216-.176.055-.335.149-.476.281a48.41 48.41 0 0 0-1.31.15 4.03 4.03 0 0 1-1.31-.05 2.047 2.047 0 0 1-.887-.348 12.795 12.795 0 0 1-.781-.58 1.165 1.165 0 0 0-.609-.265 1.87 1.87 0 0 0-.278-.381 6.776 6.776 0 0 0-.33-.315c-.212-.375-.468-.607-.768-.696 0-.11-.022-.21-.066-.298l-.133-.265a2.51 2.51 0 0 1-.119-.282.582.582 0 0 1 0-.348 5.936 5.936 0 0 1-.304-1.126c-.062-.376-.11-.751-.146-1.127a91.237 91.237 0 0 1-.145-1.441 25.646 25.646 0 0 1-.093-1.442c.018-.11.044-.215.08-.315a.48.48 0 0 0 0-.314c.035-.265.075-.536.119-.812s.057-.558.04-.845c.052-.243.074-.497.066-.762-.01-.265-.014-.53-.014-.796.036-.176.058-.353.066-.53.01-.176.031-.353.067-.53.088-.199.132-.409.132-.63 0-.22.018-.441.053-.662a.273.273 0 0 0-.013-.249c-.044-.077-.04-.16.013-.248.106-.177.15-.387.132-.63a.946.946 0 0 1 .159-.63.21.21 0 0 0 .04-.165 1.296 1.296 0 0 1-.014-.166v-.1h.053c.089-.043.097-.126.027-.248-.07-.121-.07-.215 0-.281-.018-.089.004-.155.066-.2.062-.043.093-.11.093-.198.035-.155.084-.287.145-.398.062-.11.11-.243.146-.397.106-.552.287-1.06.542-1.524.256-.464.508-.917.755-1.36.317-.264.622-.546.913-.844.291-.298.613-.547.966-.746.176-.088.348-.176.516-.265a2.21 2.21 0 0 1 .543-.199.77.77 0 0 1 .344-.066.34.34 0 0 0 .317-.199c.194.022.402 0 .622-.066.22-.066.402.011.543.232.706.133 1.34.486 1.906 1.06.07.11.154.21.251.299.097.088.19.182.278.281.088.1.167.205.238.315.07.11.124.243.159.398.176.176.313.392.41.646.097.254.181.514.252.779.14.397.238.8.29 1.21.054.408.124.822.212 1.242zm12.281 16.004c.018.155.053.293.106.415.053.121.062.26.027.414a.922.922 0 0 1-.133.397c-.07.11-.132.221-.185.332a3.599 3.599 0 0 1-.86.298c-.309.066-.596 0-.86-.199-.194-.022-.34-.154-.437-.397-.097-.243-.234-.41-.41-.497-.018-.045-.036-.072-.053-.083a.218.218 0 0 1-.053-.05c.035-.044.026-.088-.027-.133a.28.28 0 0 0-.185-.066 4.195 4.195 0 0 1-.251-.795 9.756 9.756 0 0 1-.146-.862 40.477 40.477 0 0 0-.291-1.507c-.106-.497-.22-1-.344-1.508-.23-.044-.455-.088-.675-.133a1.194 1.194 0 0 0-.675.067 6.88 6.88 0 0 0-1.562-.265 2.437 2.437 0 0 1-.225-.067 1.039 1.039 0 0 1-.198-.1.304.304 0 0 0-.199.15c-.044.077-.048.171-.013.282.053.11.066.22.04.331-.027.11-.04.221-.04.331a6.146 6.146 0 0 0-.053.812c0 .276-.061.536-.185.779v.414c0 .144-.026.27-.08.381.036.243.018.48-.052.713-.07.232-.07.47 0 .712.088.177.092.326.013.447a.94.94 0 0 0-.146.415c-.194.088-.308.22-.344.397-.123.044-.242.11-.357.2a2.062 2.062 0 0 1-.384.231c-.141.088-.26.083-.357-.017-.097-.099-.216-.116-.357-.05a.679.679 0 0 1-.556-.115 1.213 1.213 0 0 0-.556-.216.785.785 0 0 1-.08-.116.785.785 0 0 0-.079-.116.787.787 0 0 0 .093-.513 2.282 2.282 0 0 1-.013-.547c.088-.243.114-.508.079-.795a1.352 1.352 0 0 1 .132-.795c.036-.376.075-.752.12-1.127.043-.376.074-.751.092-1.127a5.52 5.52 0 0 1 .199-1.275c.114-.41.19-.834.224-1.276.071-.354.12-.702.146-1.044.027-.342.084-.68.172-1.01.088-.288.154-.575.199-.862.044-.287.11-.575.198-.862.07-.729.207-1.447.41-2.154.203-.706.375-1.413.516-2.12a5.02 5.02 0 0 0 .239-.564c.07-.198.114-.42.132-.662.124-.42.26-.829.41-1.226.15-.398.278-.818.384-1.26a2.68 2.68 0 0 1 .265-.778c.123-.232.203-.492.238-.779.23-.596.406-1.182.53-1.756.087-.066.132-.177.132-.331.229-.31.502-.492.82-.547.318-.055.626-.16.926-.315.142.088.283.16.424.215.141.056.282.116.423.183.089.11.203.22.344.331.142.11.212.265.212.464.141.31.243.63.305.96.061.332.101.686.119 1.061.088.31.136.619.145.928.01.31.058.619.146.928.053.375.092.762.119 1.16.026.397.084.784.172 1.16v.099a.713.713 0 0 1 .026.182.4.4 0 0 0 .027.15c.106 1.501.238 3.048.397 4.638.088.243.141.492.159.746.017.254.061.502.132.745-.053.398-.03.785.066 1.16.097.376.163.751.199 1.127.053.199.088.403.106.613.017.21.044.414.079.613.141.243.22.502.238.778l.053.812c.106.177.159.376.159.597 0 .22.026.43.08.63.07.264.132.535.185.811.053.276.097.547.132.812 0 .11.035.204.106.282.07.077.08.182.026.314zm-4.552-6.892a4.284 4.284 0 0 0-.172-1.044 3.08 3.08 0 0 1-.12-1.043c-.14-.84-.26-1.685-.357-2.535a35.437 35.437 0 0 1-.198-2.568c-.035-.067-.088-.089-.159-.067-.035.067-.07.166-.106.299-.035.22-.092.414-.172.58-.08.165-.092.37-.04.612a4.542 4.542 0 0 0-.224.53c-.062.177-.128.354-.199.53-.035.045-.035.1 0 .166a.2.2 0 0 1 0 .2 2.264 2.264 0 0 0-.132.778c0 .276-.044.536-.133.779-.035.176-.075.353-.119.53-.044.177-.084.353-.119.53-.053.177-.11.359-.172.547a1.432 1.432 0 0 0-.066.58c.159.044.304.127.437.248.132.122.286.16.463.116.265.066.53.122.794.166.265.044.53.066.794.066zM95.315 12.1c1.076.022 2.144.127 3.203.315 1.058.188 2.126.315 3.202.381.459.044.87.227 1.23.547.363.32.685.69.967 1.11.07 1.105.053 2.193-.053 3.264a76.643 76.643 0 0 1-.384 3.198 95.131 95.131 0 0 0-.397 3.197 18.803 18.803 0 0 0-.066 3.231c.035.376.035.751 0 1.127l-.106 1.143a26 26 0 0 0-.08 1.143c-.017.376 0 .751.054 1.127.406.176.776.47 1.111.878.336.408.61.856.82 1.342.036.685.058 1.364.067 2.038.009.673-.004 1.353-.04 2.038-.14.132-.251.309-.33.53-.08.22-.168.436-.265.646a1.77 1.77 0 0 1-.344.513c-.133.133-.305.166-.516.1-.3-.044-.534-.221-.702-.53a7.528 7.528 0 0 0-.542-.862 1.974 1.974 0 0 1-.04-1.126c.097-.354.163-.718.198-1.094-1.552 0-3.087-.005-4.605-.017-1.517-.01-3.052.006-4.605.05a.983.983 0 0 0-.291.563 5.62 5.62 0 0 0-.067.663 8.38 8.38 0 0 1-.052.663 1.09 1.09 0 0 1-.225.563c-.212.31-.486.486-.82.53a1.53 1.53 0 0 1-.94-.165 1.625 1.625 0 0 1-.689-.73c-.167-.33-.19-.728-.066-1.192.088-.376.155-.757.199-1.143.044-.387.097-.774.158-1.16.062-.387.137-.762.225-1.127.089-.364.23-.712.424-1.044.088-.287.256-.469.503-.546.247-.078.485-.15.714-.216.23-.066.415-.17.556-.314.141-.144.15-.448.027-.912.053-1.59.167-3.17.344-4.738.176-1.569.388-3.132.635-4.689s.512-3.11.794-4.656c.282-1.546.547-3.092.794-4.639zm2.753 3.48a7.774 7.774 0 0 0-.344 1.922 12.047 12.047 0 0 1-.265 1.955 33.393 33.393 0 0 0-.596 3.065 69.388 69.388 0 0 0-.383 3.131 8.535 8.535 0 0 0-.331 1.54c-.062.52-.106 1.045-.133 1.575-.026.53-.048 1.06-.066 1.59-.017.53-.061 1.06-.132 1.59 1.217.045 2.435.045 3.652 0l.106-.132a.528.528 0 0 0 .08-.132c.123-1.922.207-3.844.251-5.766.044-1.922.163-3.833.357-5.732.036-.774.124-1.541.265-2.303.141-.762.177-1.53.106-2.303a9.917 9.917 0 0 0-1.284-.05c-.432.011-.86.028-1.283.05zm9.125-3.446c.3-.067.613-.1.94-.1.326 0 .644.044.953.133.308.088.59.237.847.447.255.21.463.514.621.911a52.563 52.563 0 0 0 1.946 5.667 95.782 95.782 0 0 1 2.078 5.566c.035.045.079.105.132.183.053.077.097.138.132.182a15.22 15.22 0 0 0 .199-2.618c-.01-.883.075-1.745.251-2.584.124-.641.225-1.293.305-1.956.079-.662.158-1.32.238-1.971.08-.652.176-1.303.29-1.955.116-.652.279-1.287.49-1.905.265-.045.552-.072.86-.083.31-.011.6.027.874.116.274.088.52.237.741.447.22.21.384.514.49.911.141.243.198.492.172.746-.027.254-.08.508-.159.762-.08.254-.15.514-.212.779-.061.265-.057.53.014.795-.195 1.37-.375 2.74-.543 4.109-.168 1.37-.357 2.739-.569 4.109.088.309.123.607.106.894-.018.288-.049.58-.093.878-.044.299-.092.597-.145.895-.053.298-.08.591-.08.878-.159.796-.33 1.59-.516 2.386a7.796 7.796 0 0 1-.887 2.22 2.55 2.55 0 0 0-.582.63c-.159.243-.317.491-.476.745a9.663 9.663 0 0 1-.503.73 1.951 1.951 0 0 1-.635.546c-.565.265-1.152.492-1.76.68-.61.187-1.196.115-1.76-.216a2.331 2.331 0 0 1-.887-.53 7.014 7.014 0 0 1-.728-.812c-.23-.298-.45-.602-.662-.911a4.8 4.8 0 0 0-.714-.829 11.258 11.258 0 0 1-.265-1.607 2.815 2.815 0 0 1 .265-1.54c.176-.332.392-.58.648-.746.256-.166.53-.276.82-.332.292-.055.592-.06.9-.016.31.044.596.11.86.199.124.066.23.182.318.348.089.165.146.336.172.513.027.177.014.36-.04.547a.684.684 0 0 1-.29.414c-.318.31-.503.735-.556 1.276-.053.541 0 1.033.159 1.474.458.023.869-.154 1.23-.53a5.6 5.6 0 0 0 .913-1.259c.194-.375.402-.751.622-1.127.22-.375.349-.795.384-1.259l-.728-.646c-.238-.21-.472-.436-.701-.68a85.562 85.562 0 0 1-2.792-6.693 282.444 282.444 0 0 1-2.449-6.925 2.3 2.3 0 0 0-.145-.58c-.08-.21-.15-.414-.212-.613a1.95 1.95 0 0 1-.093-.58c0-.188.071-.359.212-.513zm19.327.066a8.629 8.629 0 0 1 1.601-.116c.539.01 1.072.038 1.602.083l1.588.132c.529.044 1.058.066 1.588.066.194.067.397.139.608.216.212.077.41.177.596.298.185.122.344.282.476.48.133.2.217.442.252.73.07.817.092 1.629.066 2.435-.026.806-.07 1.618-.132 2.436-.062.817-.12 1.634-.172 2.452a22.738 22.738 0 0 0-.027 2.452 96.463 96.463 0 0 0-.092 4.804c.008 1.613.083 3.215.224 4.805-.035.376-.061.762-.079 1.16-.018.398-.168.718-.45.96a3.192 3.192 0 0 0-.794.034c-.265.044-.53.033-.794-.033-.141-.221-.287-.453-.437-.696a7.4 7.4 0 0 1-.41-.762 3.224 3.224 0 0 1-.291-1.756 66.666 66.666 0 0 1-.251-8.5c.097-2.838.242-5.683.436-8.532a2.82 2.82 0 0 1-.794-.116 11.254 11.254 0 0 0-.78-.199 3.628 3.628 0 0 0-.768-.083c-.256 0-.507.066-.754.199a72.946 72.946 0 0 1-.305 6.064c-.185 2.01-.366 4.02-.542 6.03-.07.663-.137 1.337-.199 2.022-.062.685-.15 1.358-.265 2.021-.114.663-.269 1.31-.463 1.939a7.87 7.87 0 0 1-.794 1.772c-.794.906-1.729 1.337-2.805 1.293a5.762 5.762 0 0 1-1.033-.514 6.49 6.49 0 0 1-.952-.729 4.7 4.7 0 0 1-.794-.96 4.482 4.482 0 0 1-.53-1.243c0-.376-.009-.718-.026-1.028-.018-.309-.009-.64.026-.994.194-.176.402-.309.622-.397.22-.089.437-.188.649-.299.264.11.525.227.78.348.256.122.481.315.675.58.053.265.124.608.212 1.027.088.42.159.763.212 1.028.3-.42.494-.906.582-1.458.088-.553.185-1.083.291-1.59.177-1.57.331-3.138.464-4.706.132-1.569.277-3.148.436-4.739a7.848 7.848 0 0 1 .08-1.441c.07-.475.145-.95.225-1.425.079-.475.14-.95.185-1.425.044-.475.03-.955-.04-1.441l.212-1.127c.07-.375.123-.75.159-1.126.14-.11.29-.2.45-.266.158-.066.317-.121.476-.165zm11.77-.1c.282-.044.582-.066.9-.066.317 0 .622.044.913.133.29.088.556.243.794.464.238.22.41.53.516.927.053.486.066.972.04 1.458-.027.486-.058.972-.093 1.458a26.86 26.86 0 0 0-.066 1.458c-.009.486.03.972.119 1.458a11.67 11.67 0 0 0-.159 1.906c0 .63.009 1.264.027 1.905.017.64.022 1.276.013 1.905-.009.63-.274 3.398-.397 4.016.194-.22.556-1.63.688-1.939.132-.309.26-.624.384-.944.123-.32.242-.64.357-.961.115-.32.251-.613.41-.878.212-.354.384-.735.516-1.143.133-.41.265-.823.397-1.243.133-.42.274-.828.424-1.226.15-.398.34-.762.569-1.094a87.044 87.044 0 0 0 1.244-3.38c.388-1.126.834-2.253 1.416-3.247.582-.994 1.473-1.1 2.303-.702.123.221.666.493.807.702.141.21.137.635.251.856.115.22.203.458.265.712.062.254.084.525.066.812a162.549 162.549 0 0 0-.384 8.02c-.061 2.672-.061 4.826-.132 7.52-.088.354-.018.737 0 1.112l-.053 1.109c.018.375.013.74-.013 1.093-.027.354-.12.696-.278 1.028a1.626 1.626 0 0 0-.463.215c-.15.1-.296.204-.437.315-.212 0-.419-.033-.622-.1a5.852 5.852 0 0 0-.622-.165 3.7 3.7 0 0 1-.556-1.657c-.053-.597.044-1.9.08-1.922.07-1.281.022-2.027-.014-3.297a39.652 39.652 0 0 1 .08-3.827c-.07-.707 0-1.397 0-2.07 0-.674.203-2.976.344-3.638-.247.309-.6 2.035-.768 2.422-.167.386-.414 1.05-.555 1.48-.142.43-.287.856-.437 1.276-.15.42-.84 1.676-1.051 2.052-.753 1.703-1.048 2.538-1.71 4.062-.661 1.525-.96 2.468-1.665 3.992a1.19 1.19 0 0 1-.384.597 1.08 1.08 0 0 1-.57.265 1.09 1.09 0 0 0-.462.033l-.45.132c-.15.045-.305.083-.463.116a.995.995 0 0 1-.477-.016c-.406-.442-.71-.983-.913-1.624a4.452 4.452 0 0 1-.172-1.955c.123-2.629.112-4.954.138-7.571.027-2.618.11-5.241.252-7.87a6.116 6.116 0 0 1-.066-1.06c.009-.354.022-.707.04-1.06.017-.354.021-.708.013-1.061a4.406 4.406 0 0 0-.146-1.028l.212-.265z"/>
        <path fill="#F8454B" d="M14.964 12.876c1.955-1.201 3.987-1.802 6.096-1.802 3.2 0 8.958 1.51 8.727 9.458-.23 7.948-4.379 18.197-9.53 18.264-2.014 0-3.646-.924-5.293-1.012-1.648.088-3.28 1.012-5.293 1.012C4.52 38.729.371 28.48.141 20.532c-.23-7.948 5.527-9.458 8.727-9.458 2.109 0 4.14.6 6.096 1.802z"/>
        <path fill="#FFF" d="M15 15.804v19.679c.523.554 1.864.88 4.022.978 3.407.154 7.103-2.923 6.09-9.514 1.87-1.12 2.687-4.115 2.474-6.404-.531-5.694-4.467-6.781-7.981-6.438-2.343.228-3.878.794-4.605 1.7z"/>
        <path fill="#21224E" d="M18.23 22.981c.735.743 5.66-1.185 3.902-3.388-1.758-2.204-4.636 2.645-3.901 3.388zm-.466 2.903c-.73.747 1.284 5.638 3.456 3.841 2.173-1.796-2.725-4.589-3.456-3.841z"/>
        <path fill="#8BC53F" d="M14.669 7.566c.417-1.947 1.694-4.359 2.894-5.29 1.53-1.188 2.34-1.43 5.403-2.276.125.242.057 3.767-1.122 5.514-1.001 1.484-4.2 3.352-6.304 3.566.357.735.537 1.296.537 1.43 0 .196-.163.407-.49.636-.396.063-.7.003-.912-.18-.319-.276-.495-1.696-2.043-3.306S9.444 5.647 9.148 5.37c-.296-.276-.455-.798-.238-1.186.218-.387.404-.374.776-.374.37 0 2.236.654 3.894 2.392.414.434.777.901 1.089 1.364z"/>
    </g>
</svg>
