<svg xmlns="http://www.w3.org/2000/svg" width="35" height="35" viewBox="0 0 35 35">
    <path fill="#69B3E7" fill-rule="nonzero" d="M17.5 35C27.165 35 35 27.165 35 17.5S27.165 0 17.5 0 0 7.835 0 17.5 7.835 35 17.5 35zm3.294-17.374c-.09-1.775-1.408-2.841-2.999-2.841h-.06c-1.836 0-2.853 1.444-2.853 3.084 0 1.836 1.232 2.995 2.847 2.995 1.8 0 2.985-1.32 3.07-2.88l-.005-.358zm-3.05-4.43c1.227 0 2.38.542 3.227 1.39v.004c0-.408.275-.715.656-.715h.095c.596 0 .719.563.719.742l.003 6.338c-.042.414.429.63.69.363 1.017-1.046 2.234-5.376-.633-7.885-2.673-2.338-6.259-1.954-8.165-.638-2.03 1.396-3.327 4.492-2.066 7.398 1.374 3.17 5.305 4.115 7.64 3.172 1.183-.478 1.729 1.121.5 1.643-1.857.79-7.023.712-9.437-3.47-1.63-2.823-1.544-7.79 2.782-10.363 3.31-1.97 7.67-1.424 10.302 1.323 2.75 2.872 2.59 8.25-.092 10.34-1.215.95-3.02.027-3.009-1.358l-.012-.452a4.513 4.513 0 0 1-3.198 1.33c-2.424 0-4.557-2.132-4.557-4.556 0-2.449 2.131-4.606 4.555-4.606z"/>
</svg>
