<svg width="30" height="30" viewBox="0 0 30 30" fill="none" xmlns="http://www.w3.org/2000/svg">
<path fill-rule="evenodd" clip-rule="evenodd" d="M15 30C23.2843 30 30 23.2843 30 15C30 6.71573 23.2843 0 15 0C6.71573 0 0 6.71573 0 15C0 23.2843 6.71573 30 15 30Z" fill="#F7F7F7"/>
<path fill-rule="evenodd" clip-rule="evenodd" d="M21.2116 9.40359C21.0285 8.85415 20.6622 8.42681 20.1738 8.15209C19.6854 7.87737 19.1054 7.81632 18.556 7.99946C18.2507 8.09104 18.0676 8.42681 18.1592 8.73205C18.2507 9.0373 18.5865 9.22044 18.8918 9.12887C19.3801 8.97625 19.8991 9.25097 20.0517 9.73936L21.6084 14.6538C21.1506 14.4401 20.6011 14.318 20.0517 14.318C18.2202 14.318 16.6635 15.6916 16.4193 17.462H13.6415C13.3668 15.7222 11.8406 14.3791 10.0091 14.3791C9.45969 14.3791 8.91025 14.5012 8.45239 14.7148L10.0091 9.73936C10.0702 9.49516 10.2533 9.31202 10.467 9.18992C10.6807 9.06782 10.9249 9.0373 11.1691 9.12887C11.4743 9.22044 11.8101 9.0373 11.9017 8.73205C11.9932 8.42681 11.8101 8.09104 11.5048 7.99946C10.9554 7.84684 10.406 7.87737 9.88704 8.15209C9.39864 8.42681 9.03235 8.85415 8.87973 9.37307V9.40359L6.62092 16.6074C6.62092 16.6379 6.62092 16.6379 6.59039 16.6684C6.40725 17.0958 6.31567 17.5536 6.31567 18.0115C6.31567 20.0261 7.96399 21.6744 9.97861 21.6744C11.8101 21.6744 13.3058 20.3313 13.611 18.5915H16.4193C16.7245 20.3008 18.2202 21.6134 20.0212 21.6134C22.0358 21.6134 23.6841 19.9651 23.6841 17.9504C23.6841 17.462 23.5925 17.0042 23.4094 16.5768L21.2116 9.40359ZM10.0397 20.545C8.66606 20.545 7.53665 19.4156 7.53665 18.042C7.53665 16.6684 8.66606 15.539 10.0397 15.539C11.4133 15.539 12.5427 16.6684 12.5427 18.042C12.5121 19.4156 11.4133 20.545 10.0397 20.545ZM17.5487 17.9504C17.5487 19.324 18.6781 20.4534 20.0517 20.4534C21.4558 20.4534 22.5547 19.324 22.5547 17.9504C22.5547 16.5768 21.4253 15.4474 20.0517 15.4474C18.6781 15.4474 17.5487 16.5768 17.5487 17.9504Z" fill="#9B9B9B"/>
</svg>
