<svg xmlns="http://www.w3.org/2000/svg" width="54" height="54" viewBox="0 0 54 54">
    <g fill="none" fill-rule="nonzero">
        <path fill="#DEE0E4" d="M40.004 42.267C34.302 31.872 26.26 23.8 15.883 18.054c1.408-.091 2.713-.733 3.875-1.627 1.932-1.49 3.805-3.052 5.698-4.586 2.13-1.73 4.302-3.392 6.855-4.479 1.595-.683 3.256-1.087 4.98-1.032 2.264.074 4.336.832 6.207 2.105 2.662 1.81 4.89 4.055 6.524 6.848 1.953 3.333 2.128 6.805.662 10.368-1.02 2.47-2.584 4.601-4.24 6.67-1.483 1.85-3.015 3.662-4.477 5.53-.873 1.116-1.593 2.336-1.88 3.758-.05.243-.061.496-.083.658zm-13.617 8.315l1.385-2.076c.646.325 1.307.73 2.02.996.793.293 1.62.57 2.454.663 1.068.118 1.694-.593 1.512-1.672a9.972 9.972 0 0 0-.691-2.358c-1.097-2.484-2.683-4.663-4.382-6.756-3.86-4.753-8.181-9.025-13.24-12.486-1.39-.952-2.93-1.686-4.44-2.45-.489-.249-1.092-.34-1.652-.383-1.141-.091-1.777.545-1.601 1.693.135.845.384 1.669.74 2.447 1.27 2.8 3.125 5.22 5.078 7.562.947 1.136 1.953 2.225 2.799 3.193l-1.66 1.81a.26.26 0 0 1-.098-.076c-3.33-3.542-6.348-7.325-8.636-11.64-.92-1.732-1.66-3.533-1.91-5.5a6.96 6.96 0 0 1-.022-1.712c.217-1.74 1.216-2.643 3.018-2.814a8.429 8.429 0 0 1 3.28.355c2.903.879 5.539 2.304 8.008 4.034 6.867 4.807 12.647 10.679 17.134 17.795 1.422 2.255 2.644 4.622 3.19 7.263.17.855.224 1.73.16 2.6-.12 1.695-1.4 2.93-3.085 2.93a11.719 11.719 0 0 1-2.97-.4c-2.306-.613-4.373-1.774-6.39-3.018zm.065-5.19c-.008 3.16-2.546 5.665-5.736 5.651-3.004-.01-5.468-2.574-5.521-5.616-.053-2.766 2.256-5.807 5.778-5.723 3.199.076 5.556 2.745 5.479 5.689zm24.924-31.305l-1.578-2.286c1.101-.734 1.601-1.746 1.244-3.06-.276-1.014-.988-1.627-2.002-1.846-1.075-.235-2.018.214-2.826 1.323-.37-.27-.737-.55-1.116-.81-.379-.261-.781-.515-1.172-.77 1.03-1.87 3.359-2.946 5.504-2.56 2.356.424 4.073 2.168 4.49 4.577.364 2.091-.72 4.422-2.544 5.432z"/>
        <path fill="#21224E" d="M36.004 38.267C30.302 27.872 22.26 19.8 11.883 14.054c1.408-.091 2.713-.733 3.875-1.627 1.932-1.49 3.805-3.052 5.698-4.586 2.13-1.73 4.302-3.392 6.855-4.479 1.595-.683 3.256-1.087 4.98-1.032 2.264.074 4.336.832 6.207 2.105 2.662 1.81 4.89 4.055 6.524 6.848 1.953 3.333 2.128 6.805.662 10.368-1.02 2.47-2.584 4.601-4.24 6.67-1.483 1.85-3.015 3.662-4.477 5.53-.873 1.116-1.593 2.336-1.88 3.758-.05.243-.061.496-.083.658zm-13.617 8.315l1.385-2.076c.646.325 1.307.73 2.02.996.793.293 1.62.57 2.454.663 1.068.118 1.694-.593 1.512-1.672a9.972 9.972 0 0 0-.691-2.358c-1.097-2.484-2.683-4.663-4.382-6.756-3.86-4.753-8.181-9.025-13.24-12.486-1.39-.952-2.93-1.686-4.44-2.45-.489-.249-1.092-.34-1.652-.383-1.141-.091-1.777.545-1.601 1.693.135.845.384 1.669.74 2.447 1.27 2.8 3.125 5.22 5.078 7.562.947 1.136 1.953 2.225 2.799 3.193l-1.66 1.81a.26.26 0 0 1-.098-.076c-3.33-3.542-6.348-7.325-8.636-11.64-.92-1.732-1.66-3.533-1.91-5.5a6.96 6.96 0 0 1-.022-1.712c.217-1.74 1.216-2.643 3.018-2.814a8.429 8.429 0 0 1 3.28.355c2.903.879 5.539 2.304 8.008 4.034 6.867 4.807 12.647 10.679 17.134 17.795 1.422 2.255 2.644 4.622 3.19 7.263.17.855.224 1.73.16 2.6-.12 1.695-1.4 2.93-3.085 2.93a11.719 11.719 0 0 1-2.97-.4c-2.306-.613-4.373-1.774-6.39-3.018zm.065-5.19c-.008 3.16-2.546 5.665-5.736 5.651-3.004-.01-5.468-2.574-5.521-5.616-.053-2.766 2.256-5.807 5.778-5.723 3.199.076 5.556 2.745 5.479 5.689zm24.924-31.305l-1.578-2.286c1.101-.734 1.601-1.746 1.244-3.06-.276-1.014-.988-1.627-2.002-1.846-1.075-.235-2.018.214-2.826 1.323-.37-.27-.737-.55-1.116-.81-.379-.261-.781-.515-1.172-.77 1.03-1.87 3.359-2.946 5.504-2.56 2.356.424 4.073 2.168 4.49 4.577.364 2.091-.72 4.422-2.544 5.432z"/>
    </g>
</svg>
