<svg width="124" height="121" viewBox="0 0 124 121" fill="none" xmlns="http://www.w3.org/2000/svg">
<path d="M67.5 121C23.5556 121 11 108.19 11 63.5C11 18.8097 23.5556 6 67.5 6C111.444 6 124 18.8097 124 63.5C124 108.19 111.444 121 67.5 121Z" fill="#C4DFA5"/>
<path d="M58.5 117C14.5556 117 2 104.19 2 59.5C2 14.8097 14.5556 2 58.5 2C102.444 2 115 14.8097 115 59.5C115 104.19 102.444 117 58.5 117Z" stroke="#90C952" stroke-width="4"/>
<path d="M54.1111 85.0555L28.5555 59.4999L37.5894 50.4661L54.1367 67.0133L83.4872 37.6627L92.5275 46.6966L63.1386 76.0472L54.1111 85.0555Z" fill="#90C952"/>
</svg>
