<svg xmlns="http://www.w3.org/2000/svg" width="26" height="24" viewBox="0 0 26 24">
    <g fill="none" fill-rule="evenodd">
        <path fill="#F4F7FB" d="M14.522 23.49c6.049 0 10.758-4.704 10.518-10.506C24.8 7.182 19.714 2.48 13.68 2.48S2.937 7.182 3.162 12.984c.225 5.802 5.311 10.506 11.36 10.506z"/>
        <path fill="#94ACC4" d="M11.958 20.969c6.037 0 10.736-4.694 10.497-10.485C22.215 4.694 17.14 0 11.118 0 5.096 0 .396 4.694.62 10.484c.225 5.79 5.3 10.485 11.337 10.485zm-.059-1.48c5.185 0 9.222-4.031 9.016-9.005-.206-4.973-4.565-9.005-9.738-9.005-5.173 0-9.21 4.032-9.016 9.005.193 4.974 4.553 9.006 9.738 9.006z"/>
        <path fill="#94ACC4" fill-rule="nonzero" d="M11.978 5.32h-1.956v6.086l4.098 4.077 1.38-1.388-3.522-3.502z"/>
    </g>
</svg>
