<svg xmlns="http://www.w3.org/2000/svg" xmlns:xlink="http://www.w3.org/1999/xlink" viewBox="0 0 284 26"><defs><filter id="c" width="112.5%" height="107.7%" x="-6.2%" y="-3.8%" filterUnits="objectBoundingBox"><feOffset dy="-1" in="SourceAlpha" result="shadowOffsetInner1"/><feComposite in="shadowOffsetInner1" in2="SourceAlpha" k2="-1" k3="1" operator="arithmetic" result="shadowInnerInner1"/><feColorMatrix in="shadowInnerInner1" values="0 0 0 0 0.211877167 0 0 0 0 0.246668503 0 0 0 0 0.265997024 0 0 0 1 0"/></filter><filter id="e" width="150%" height="150%" x="-25%" y="-25%" filterUnits="objectBoundingBox"><feOffset dx="-1" dy="1" in="SourceAlpha" result="shadowOffsetInner1"/><feComposite in="shadowOffsetInner1" in2="SourceAlpha" k2="-1" k3="1" operator="arithmetic" result="shadowInnerInner1"/><feColorMatrix in="shadowInnerInner1" values="0 0 0 0 0 0 0 0 0 0 0 0 0 0 0 0 0 0 0.338400136 0"/></filter><filter id="h" width="112.5%" height="107.7%" x="-6.2%" y="-3.8%" filterUnits="objectBoundingBox"><feOffset dy="-1" in="SourceAlpha" result="shadowOffsetInner1"/><feComposite in="shadowOffsetInner1" in2="SourceAlpha" k2="-1" k3="1" operator="arithmetic" result="shadowInnerInner1"/><feColorMatrix in="shadowInnerInner1" values="0 0 0 0 0.211877167 0 0 0 0 0.246668503 0 0 0 0 0.265997024 0 0 0 1 0"/></filter><filter id="j" width="150%" height="150%" x="-25%" y="-25%" filterUnits="objectBoundingBox"><feOffset dx="-1" dy="1" in="SourceAlpha" result="shadowOffsetInner1"/><feComposite in="shadowOffsetInner1" in2="SourceAlpha" k2="-1" k3="1" operator="arithmetic" result="shadowInnerInner1"/><feColorMatrix in="shadowInnerInner1" values="0 0 0 0 0 0 0 0 0 0 0 0 0 0 0 0 0 0 0.338400136 0"/></filter><filter id="k" width="108.5%" height="387.5%" x="-4.3%" y="-118.8%" filterUnits="objectBoundingBox"><feOffset dy="2" in="SourceAlpha" result="shadowOffsetOuter1"/><feGaussianBlur in="shadowOffsetOuter1" result="shadowBlurOuter1" stdDeviation="3.5"/><feColorMatrix in="shadowBlurOuter1" values="0 0 0 0 0 0 0 0 0 0 0 0 0 0 0 0 0 0 0.352836277 0"/></filter><linearGradient id="a" x1="50%" x2="50%" y1="0%" y2="100%"><stop offset="0%" stop-color="#080808"/><stop offset="48.4%" stop-color="#4D5E6F"/><stop offset="100%" stop-color="#424B52"/></linearGradient><linearGradient id="f" x1="50%" x2="50%" y1="0%" y2="100%"><stop offset="0%" stop-color="#060607"/><stop offset="48.4%" stop-color="#4D5E6F"/><stop offset="100%" stop-color="#424B52"/></linearGradient><linearGradient id="n" x1="50%" x2="50%" y1="100%" y2="0%"><stop offset="0%" stop-color="#B18D63"/><stop offset="100%" stop-color="#CAA476"/></linearGradient><linearGradient id="p" x1="50%" x2="50%" y1="0%" y2="69.824%"><stop offset="0%"/><stop offset="100%" stop-color="#FFF" stop-opacity="0"/></linearGradient><path id="b" d="M0 0h8v13H0z"/><path id="g" d="M0 0h8v13H0z"/><path id="l" d="M0 3h270v8H0z"/><radialGradient id="m" cy="26.389%" r="1766.868%" fx="50%" fy="26.389%" gradientTransform="matrix(.02963 0 0 1 .485 0)"><stop offset="0%" stop-color="#995F27"/><stop offset="42%" stop-color="#925B26"/><stop offset="74%" stop-color="#90571E"/><stop offset="89%" stop-color="#87521D"/><stop offset="100%" stop-color="#825640"/></radialGradient><radialGradient id="o" cx="-2%" cy="3%" r="914.314%" fx="-2%" fy="3%" gradientTransform="matrix(.02757 .13833 -.00385 .99039 -.02 .003)"><stop offset="0%" stop-color="#6C3C20"/><stop offset="61%" stop-color="#6D3F1D"/><stop offset="89%" stop-color="#6F4418"/><stop offset="100%"/></radialGradient><circle id="d" cx="4" cy="9" r="1"/><circle id="i" cx="4" cy="9" r="1"/></defs><g fill="none" fill-rule="evenodd"><g transform="translate(209 13)"><use fill="url(#a)" xlink:href="#b"/><use fill="#000" filter="url(#c)" xlink:href="#b"/></g><g transform="translate(209 13)"><use fill="#DEDBDB" xlink:href="#d"/><use fill="#000" filter="url(#e)" xlink:href="#d"/></g><g transform="translate(69 13)"><use fill="url(#f)" xlink:href="#g"/><use fill="#000" filter="url(#h)" xlink:href="#g"/></g><g transform="translate(69 13)"><use fill="#DEDBDB" xlink:href="#i"/><use fill="#000" filter="url(#j)" xlink:href="#i"/></g><g fill-rule="nonzero" transform="translate(7 2)"><use fill="#000" filter="url(#k)" xlink:href="#l"/><use fill="url(#m)" fill-rule="evenodd" xlink:href="#l"/></g><path fill="url(#n)" fill-rule="nonzero" d="M0 3h270l-9.875-3H9.875z" transform="translate(7 2)"/><path fill="#858585" fill-rule="nonzero" d="M276.495 4.693s-85.708.623-134.688.623c-48.98 0-134.689-.623-134.689-.623s85.708-.624 134.689-.624c48.98 0 134.688.624 134.688.624z" opacity=".67" style="mix-blend-mode:screen"/><path d="M.031 1.28v.02-.02zM29.214.6c.374.156 1.777.097 1.72 0 0 .005-2.063-.143-1.72 0zm4.32-.097l-.024.022-.056.037.08-.059zM73.45.446c-1.185.214 2.3.13 2.575 0-.081.042-2.189-.068-2.575 0zm-27.917.08A8.17 8.17 0 0047.254.45a8.2 8.2 0 00-1.72.076zm35.649 0A8.184 8.184 0 0082.897.45a8.2 8.2 0 00-1.715.076zm57.124.235c0-.05 1.783.3 2.145.232.935-.173-2.064-.425-2.145-.232zm109.952.62l-.655.037.655-.038zm-2.152 0l-.654.037.654-.038zM3.442.37L.032.395V.163C26.057.071 50.85.033 72.618.003c39.503-.05 79.348.472 116.824.544 17.765.033 35.836.19 56.263-.232 7.77-.156 15.683-.24 23.695-.299v.59h-.816c.941-.038-2.37-.24-3.555-.152-.742.046-1.715.413-3.005.467h-1.335.044c.542.076-2.775.156-2.575.076.314-.085.647-.135.985-.147-1.634-.084-3.162-.21-2.706-.24-3.137.214-.412.543-4.727.543-15.795-.004-39.527.387-55.403.387-5.063 0-19.586.27-15.894 0-.181.013 5.156-.156 5.156-.156-.349-.172-21.487-.029-9.016.312-6.94-.219-15.146-.168-23.62-.387-.425-.013-2.289-.312-3.393-.312-.355.017-8.35.164-8.648-.105 1.073.012 2.144-.06 3.192-.215h.256-.23c1.128-.143 1.552-.27-1.06-.143-.612.03.53.114 1.06.143-2.002-.05-6.798-.358-10.483-.303-2.114.034-4.876.51-5.612.156-1.153-.552-18.002.05-21.045 0C92.061.29 74.958.315 58.003.374c.855.152-1.79.156-1.715.076.203-.043.412-.068.624-.076L37.794.45c.511 0-18.888-.649-20.615.156.262-.851-3.698-.118-4.727-.076-1.303.05.524-.232 0-.312-1.097-.168-1.534.388-1.72.388-.874-.017.05-.257-.43-.312C9.053.155 5.387.37 3.441.37zm116.4.619a8.2 8.2 0 001.72-.076 8.256 8.256 0 00-1.72.076zm-74.74 4.273c-14.816 0-29.887.055-45.102.152v-.265a8947.3 8947.3 0 01103.51-.127c26.427.118 48.47 1.095 70.868.775 5.007-.071 10.145-.16 15.352-.257-10.52.274-20.447.632-30.81.421-35.406-.724-75.844-.699-113.818-.699zm-8.755-1.768l-.262.059.262-.059zm156.114.51h-.038c.007 0 .013.004.038 0zm36.465-.607c-9.216-.059 2.445.354 2.576.232.361-.341-1.877-.228-2.576-.232zm-36.465.606c.318-.033 2.637.333 3.398.173 1.197-.261-2.98-.261-3.398-.173zm11.124-.063c.427.049.858.074 1.29.076.805-.143-1.334-.223-1.29-.076zm-14.597 3.5c25.422-.413 52.584-.75 80.395-.982v.316c-23.627.13-47.771.333-71.909.724h-12.16l3.674-.059zm-7.733-3.264c-1.758.156-.692.295-.43.312.45.03 2.17-.468.43-.312zm-61.85 3.183c7.295 0 14.585.055 21.824.14H22.754c31.707-.14 63.976-.14 96.65-.14zm76.024-1.94c4.423-.088 8.844-.166 13.263-.237-6.44.14-12.758.263-18.956.367 1.875-.05 3.772-.094 5.693-.13zm73.947-1.163v.24c-19.829.135-40.213.337-60.684.674 16.674-.324 34.196-.67 52.447-.842l8.237-.072zM124.131 6.504c-42.667-.18-84.036-.129-124.106.152V6.58c41.323-.223 86.126-.568 126.276-.223 13.638.118 27.281.7 40.376.7 11.037-.01 22.585-.57 33.927-.776 11.81-.214 23.69-.29 35.219-.467a5652.73 5652.73 0 0133.56-.421v.282c-11.603.079-23.37.167-35.3.265-25.815.232-49.46 1.263-69.146 1.263-13.419-.004-27.087-.652-40.806-.699zM49.828 2.311c.097.006.193.018.287.033.013-.02-.062-.037-.287-.033zm-9.883 1.473a1.19 1.19 0 01-.112-.046h.056c-.013.017.006.046.056.046zm-9.447-2.016c-1.44-.236-15.495-.021-22.76.016L.006 1.81v-.421c3.15.1 6.785.248 8.593.143.73-.042.873-.084.873-.114l.355.055c1.69.139 11.81 0 15.895 0 29.114.004 55.926.076 84.61.076 22.585.004 44.553.804 67.001.623 29.788-.24 61.346-.312 91.994-.733v.421c-1.366-.004-1.16-.172-1.366-.084-.206.088-7.346.232-6.86.232-3.528.075-9.845.075-12.882.075-20.608-.042-45.382.047-59.269.468-.636.017-5.313.076-6.011.076-7.57.025-18.532.56-26.19 0 3.898-.064 2.757.012 8.163.075 10.557.122-8.543-.395-10.307-.231-1.166.11.798.156.86.156-1.609.033-2.6-.19-2.145-.156-5.799-.425-13.8-.194-21.905-.312-20.397-.311-50.808-.42-71.71-.311-8.18.042-21.444-.089-27.916.075.773-.02-2.482-.349-1.29-.155zM169.345 3.22l-.548.101.548-.1zm-135.841.49c.42.086.853.138 1.29.155.649-.117-1.29-.34-1.29-.155zm70.013.623C71.029 4.23 35.798 4.243 0 4.467v-.224c20.577-.134 37.045-.307 48.968-.379-3.929.009-7.127-.071-9.08-.122.1-.193 5.407-.21 4.784-.496-.169-.076-6.086-.013-4.84.496-.71-.033-1.265-.033-1.608-.033-4.683-.017 4.714-.215.86-.543-.648-.055-10.999.286-9.877.467 3.224-.004 5.145.076 1.291.076-.23 0-16.007.042-22.336 0a22.987 22.987 0 00-3.43.328 65.323 65.323 0 01-4.726-.333v-.993a3938.4 3938.4 0 0136.08-.072c2.562.009 9.116.257 12.233.143-.137.042.081.038 1.08-.067-.281.03-.656.067-1.08.067.611-.115 1.21-.256 1.796-.42.792.113 3.018.484 4.44.353.86-.08-.661-.312.86-.312 2.987-.029-1.253.144.861.312 1.671.13 13.469-.227 19.754-.156 1.403.013 3.785.232 4.297.232.835-.034 1.683-.312 2.145-.312 3.404.06-1.871.068 0 .312 2.675.35 9.927-.156 12.028-.156.455 0 1.322.265 2.145.232-.436.02 20.166-.329 9.877-.076 8.555.046 17.235.198 24.481.156 2.862 0 5.762-.076 7.732 0 .268.008-.53.231-.43.231 5.911.438 18.158-.345 25.771.076 10.214.594 31.478-.198 45.096-.387 19.721-.281 39.79-.517 60.204-.708v.577c-5.424.025-11.143.067-15.539.13-4.165.076-16.605-.345-18.9.076.194-.033 1.104.232.86.232a34.73 34.73 0 01-3.354-.19c1.615-.122-.23-.122-1.814-.092-.498-.008-.996.006-1.49.042.311-.017.872-.05 1.49-.042.617.008 1.222.046 1.814.092-.386.03-.954.068-1.796.114-2.668.148-6.871-.063-7.626.278.474-.076 1.752.594-2.25.345 3.073.19-1.441-.99-1.292-.311.007.012 2.389.02 1.721.156-.932.019-1.862.071-2.787.155h-6.666c-1.334-.05-1.665-.122-1.665-.168.231-.063 0-.046 0 0h-.05c-3.697.905-19.286-.859-18.039.699-1.11-.101-.38-.484-1.29-.623-.475-.072-.356.244-.418.299a55.748 55.748 0 00-5.058-.076c.256.008.194.29-.143.375.792.067-.38.496-2.12.256-.424-.075-.262-.033 0-.075.545-.092 1.1-.154 1.659-.186a1.82 1.82 0 01-.368-.126c-1.39-.632-3.972.202-7.302.312 1.652-.055-13.774-.14-8.162.231-.07-.004 7.825-.11 2.15.08 2.389-.08-9.608.164-10.307 0-.087-.02 1.023-.231.86-.231-1.913-.14-1.37.231-1.29.231-.642-.025-1.372-.358-2.145-.311-.082.01-.142.059-.142.115 0 .057.06.106.142.116-2.712-.033-12.415-.038-13.313-.156-.767-.1 1.285-.227 1.94-.467.143-.008.211-.042.211-.152.007.055-.08.106-.212.152-.367.017-1.04-.219-1.509.08-.467.299-2.961.261-1.714.387 3.124.32 13.369.501 21.475.544 13.007.067 30.617-.758 44.665-.93 2.6-.03 24.587-.317 24.911-.388-.212.05-1.384-.421-2.575-.232 2.183-.345 4.165.105 6.441.156 6.91.16 15.801-.143 24.051-.232l6.953-.067v.328c-27.156.21-54.611.569-85.976 1.369-25.254.644-52.591-.615-79.89-.7z" fill="url(#o)" fill-rule="nonzero" opacity=".25" transform="translate(7 5)"/><path fill="url(#p)" d="M11 11l19.994 19h211.498L260 11z" opacity=".153" transform="translate(7 2)"/></g></svg>