<svg xmlns="http://www.w3.org/2000/svg" viewBox="0 0 735 232"><g fill="none" fill-rule="evenodd"><path fill="#FFF" d="M0 0h49v232H0z"/><path fill="#F4F7FB" d="M24.5 78C38.031 78 49 88.969 49 102.5V232H0V102.5C0 88.969 10.969 78 24.5 78zM98 0H49v232h49z"/><path fill="#FFF" d="M98 0H49v108.5c0 13.531 10.969 24.5 24.5 24.5S98 122.031 98 108.5V0zm0 0h49v232H98z"/><path fill="#F4F7FB" d="M122.5 70c13.531 0 24.5 10.969 24.5 24.5V232H98V94.5C98 80.969 108.969 70 122.5 70zM147 0h49v232h-49z"/><path fill="#FFF" d="M196 0h49v232h-49z"/><path fill="#F4F7FB" d="M220.5 120c13.531 0 24.5 10.969 24.5 24.5V232h-49v-87.5c0-13.531 10.969-24.5 24.5-24.5zM245 0h49v232h-49z"/><path fill="#FFF" d="M294 0h49v232h-49z"/><path fill="#F4F7FB" d="M318.5 160c13.531 0 24.5 10.969 24.5 24.5V232h-49v-47.5c0-13.531 10.969-24.5 24.5-24.5zM343 0h49v232h-49z"/><path fill="#FFF" d="M392 0h49v232h-49z"/><path fill="#F4F7FB" d="M416.5 110c13.531 0 24.5 10.969 24.5 24.5V232h-49v-97.5c0-13.531 10.969-24.5 24.5-24.5zM441 0h49v232h-49z"/><path fill="#FFF" d="M490 0h49v232h-49z"/><path fill="#F4F7FB" d="M514.5 100c13.531 0 24.5 10.969 24.5 24.5V232h-49V124.5c0-13.531 10.969-24.5 24.5-24.5zM539 0h49v232h-49z"/><path fill="#FFF" d="M588 0h49v232h-49z"/><path fill="#F4F7FB" d="M612.5 60c13.531 0 24.5 10.969 24.5 24.5V232h-49V84.5c0-13.531 10.969-24.5 24.5-24.5zM637 0h49v232h-49z"/><path fill="#FFF" d="M686 0h49v232h-49z"/><path fill="#F4F7FB" d="M710.5 90c13.531 0 24.5 10.969 24.5 24.5V232h-49V114.5c0-13.531 10.969-24.5 24.5-24.5z"/><path fill="#FFF" d="M196 0h-49v168.5c0 13.531 10.969 24.5 24.5 24.5s24.5-10.969 24.5-24.5V0zm98 0h-49v178.5c0 13.531 10.969 24.5 24.5 24.5s24.5-10.969 24.5-24.5V0zm98 0h-49v188.5c0 13.531 10.969 24.5 24.5 24.5s24.5-10.969 24.5-24.5V0zm98 0h-49v128.5c0 13.531 10.969 24.5 24.5 24.5s24.5-10.969 24.5-24.5V0zm-24.5 200c-13.531 0-24.5 10.969-24.5 24.5v7.5h49v-7.5c0-13.531-10.969-24.5-24.5-24.5zM588 0h-49v138.5c0 13.531 10.969 24.5 24.5 24.5s24.5-10.969 24.5-24.5V0zm98 0h-49v137.5c0 13.531 10.969 24.5 24.5 24.5s24.5-10.969 24.5-24.5V0z"/></g></svg>